<svg id="Layer_1" data-name="Layer 1" xmlns="http://www.w3.org/2000/svg" viewBox="0 0 124.64 124.64"><defs><style>.cls-1{fill:#fff;}.cls-2{fill:#8e7c4d;}.cls-3{fill:#b73025;stroke:#b73025;stroke-miterlimit:10;stroke-width:0.01px;}.cls-4{fill:none;}.cls-5{fill:#232f4f;}.cls-6{fill:#85754e;}.cls-7{fill:#bf9c67;}</style></defs><path class="cls-1" d="M116.34,68a54.16,54.16,0,0,1-53.77,48.53,52.92,52.92,0,0,1-5.6-.29A54.09,54.09,0,0,1,28.42,20.41a53.7,53.7,0,0,1,34-12.12c1.88,0,3.77.1,5.67.29A54.1,54.1,0,0,1,116.34,68Z"/><path class="cls-1" d="M62.32,0a62.32,62.32,0,1,0,62.32,62.32A62.32,62.32,0,0,0,62.32,0Zm.27,120.21a57.82,57.82,0,1,1,57.46-51.87A57.64,57.64,0,0,1,62.59,120.21Z"/><path class="cls-2" d="M87.24,82.64a3.38,3.38,0,0,0-6.56.51L77.91,84a2.67,2.67,0,0,0-.64-.46V81.15a5,5,0,0,0,3.45-4.75v-.24a4.18,4.18,0,0,0-.22-1.55c-.67-2.13-2.8-4.47-4-5.67a1.06,1.06,0,0,0-1.56,0c-.33.36-3.25,3.61-4,5.62a4.11,4.11,0,0,0-.33,1.76v.05a5,5,0,0,0,3.54,4.78v2.48a3.5,3.5,0,0,0-.49.37l-2.87-.93a3.4,3.4,0,1,0-1,2.94l2.91.95a3.31,3.31,0,0,0,.18.53L71.13,90a3.4,3.4,0,1,0,2.5,1.82l1.8-2.47a3.71,3.71,0,0,0,.58,0l1.8,2.47a3.38,3.38,0,0,0,3,4.93,3.42,3.42,0,0,0,2-.66,3.38,3.38,0,0,0-2.51-6.08l-1.74-2.39a2.61,2.61,0,0,0,.24-.66l2.83-.92a3.38,3.38,0,0,0,5.6-3.45Zm-5.35,2.45L78,86.34a2.6,2.6,0,0,1-.5,1.38L79.93,91a2.54,2.54,0,1,1-1.1.8L76.4,88.47a4.07,4.07,0,0,1-.61.07,3.78,3.78,0,0,1-.74-.11l-2.44,3.35a2.54,2.54,0,1,1-1.1-.8L74,87.61a2.65,2.65,0,0,1-.41-1.29l-3.94-1.27A2.54,2.54,0,1,1,70,83.76L73.94,85a2.74,2.74,0,0,1,1.11-.85V80.53a4.2,4.2,0,0,1-3.54-4.13,3.28,3.28,0,0,1,.28-1.51c.61-1.71,3.16-4.64,3.8-5.34a.19.19,0,0,1,.15-.08.21.21,0,0,1,.14.08c.62.62,3.11,3.16,3.79,5.32a3.83,3.83,0,0,1,.18,1.53,4.23,4.23,0,0,1-3.45,4.12v3.61a2.74,2.74,0,0,1,1.26.91l3.81-1.24a2.54,2.54,0,1,1,.42,1.29Z"/><polygon class="cls-2" points="100.33 90.63 98.83 91.75 97.06 91.15 97.66 92.92 96.55 94.42 98.41 94.39 99.5 95.92 100.05 94.14 101.84 93.58 100.31 92.5 100.33 90.63"/><polygon class="cls-2" points="27.94 91.72 26.49 91.81 25.62 90.49 24.91 91.91 23.33 92 24.21 93.32 23.56 94.62 25 94.53 25.88 95.85 26.59 94.43 28.17 94.34 27.29 93.02 27.94 91.72"/><path class="cls-2" d="M83.94,78a6.21,6.21,0,0,1,2.72.63c1.63-.51,2.45-2.23,2.64-4.33a4.94,4.94,0,0,0,0-1A4.92,4.92,0,0,1,89.62,75a5.2,5.2,0,0,1-2.05,4.17,6.28,6.28,0,0,1,1.89,2.14c2-1.72,2.33-3.38,2.33-5.88a8.21,8.21,0,0,0-3.51-6.7,2.19,2.19,0,0,0,.88-.05,2,2,0,0,0-1-3.9,2.11,2.11,0,0,0-1.23,1,1.71,1.71,0,0,1,.39-.17,1.29,1.29,0,0,1,.67,2.5A1.24,1.24,0,0,1,87,68a2.44,2.44,0,0,1-1.28-2.19,2.16,2.16,0,0,1,.1-.65,3.55,3.55,0,0,1-2.85,1.24c-1.88-.11-2.59-1.14-2.5-2.52a2.51,2.51,0,0,1,.79-1.62,2.46,2.46,0,0,1-1-.13,2,2,0,0,1-1.62-1.26,2.7,2.7,0,0,1-.2-.84,2.38,2.38,0,0,1,.23-1.18,5.8,5.8,0,0,1,.4-.62,2.73,2.73,0,0,1,.29-.33A4.91,4.91,0,0,1,80.77,57a3.55,3.55,0,0,1,1.61-.26c.05,0,.08,0,0-.15a2.52,2.52,0,0,1-1.09-.68,2.07,2.07,0,0,0-.6-.37c0-1.09.66-2,1.45-2a1.32,1.32,0,0,1,1.06.64,1.64,1.64,0,0,0-1.54-1.48,1.76,1.76,0,0,0-1.59,1.94,2.06,2.06,0,0,0,.13.68,1.89,1.89,0,0,0-1.86.76,7.83,7.83,0,0,0-1.27,2.05,3.45,3.45,0,0,0-.14.34c-.06.17-.11.34-.16.5a9.22,9.22,0,0,0-.41,2.69c0,.32,0,.78.07,1.09A4.3,4.3,0,0,0,79,66.59a5.09,5.09,0,0,0,.75.22l.49.09.32,0,.23,0h.74a.92.92,0,0,1,.68.28.94.94,0,0,1,0,1.35,1,1,0,0,1-1.35,0l-.09-.12-.09-.14a1.56,1.56,0,0,0,.08.48,1.43,1.43,0,0,0,.35.59,1.48,1.48,0,1,0,2.1-2.1l-.23-.2a5.74,5.74,0,0,1,2.06.89.88.88,0,0,1,.4.36.68.68,0,1,1-1.24.58.42.42,0,0,1-.06-.21,1.06,1.06,0,1,0,2,.14l.22.23a1.59,1.59,0,1,1-2.7,1.14,1.7,1.7,0,0,1,.08-.51,2.52,2.52,0,0,0-.76,1.76,2.48,2.48,0,1,0,5,0,2.55,2.55,0,0,0,0-.39,3.28,3.28,0,0,1,.47,2c-.14,1.63-.77,3.48-3,3.65a5.8,5.8,0,0,0-2,.37c0,.31,0,.61,0,.9Z"/><path class="cls-2" d="M71.34,61.51l0,0c.14.11.27.21.42.31L72,62l.34.21c.2.12.4.23.61.33l.39.18a5.12,5.12,0,0,0,.83.25.9.9,0,0,1-.25,1.77.93.93,0,0,1-.57-.25,2.33,2.33,0,0,0,0,.38A1.69,1.69,0,0,0,75,66.5a1.75,1.75,0,0,0,1.6-1,6,6,0,0,1-.92-3.43c-2.28-.17-4-1.27-4-2.58,0,0,0,0,0,0a1.77,1.77,0,0,1,.51-1.13,2,2,0,0,1,.21-.2h0a1.84,1.84,0,0,1,.22-.17l.08-.06.19-.12.31-.16a2.35,2.35,0,0,0-.44-.17A2.2,2.2,0,0,0,70,58.81,2.07,2.07,0,0,0,70.71,61,7.13,7.13,0,0,0,71.34,61.51Z"/><path class="cls-2" d="M71.64,62.93l.2.18.18.15.18.13.26.18.15.09a5.28,5.28,0,0,0,1,.48.49.49,0,0,0,.63-.25c.06-.22-.14-.47-.42-.54a4.75,4.75,0,0,1-.75-.22L72.77,63A5,5,0,0,1,71,61.76l-.23-.25a2.11,2.11,0,0,1-.26-.35,2.68,2.68,0,0,0,.18.52,4.24,4.24,0,0,0,.86,1.16Z"/><path class="cls-2" d="M85.83,60.75c-1.89.69-2.37.52-3.47,1.14a2.18,2.18,0,0,0-1,3,2.06,2.06,0,0,0,2.21.81,1.83,1.83,0,0,0,.53-.21,1.47,1.47,0,0,0,.6-2,1.31,1.31,0,0,0-.3-.36.68.68,0,0,1-.3.81.67.67,0,0,1-.93-.24.72.72,0,0,1,.24-.92,22.66,22.66,0,0,1,3.31-1.46,8.94,8.94,0,0,0,2.81-1.91A1.3,1.3,0,0,0,90,58.14a1.61,1.61,0,0,0-2.09-.86,2.1,2.1,0,0,0-.57.25c.58.06,1,.25,1.15.61C88.78,59,87.78,60,85.83,60.75Z"/><path class="cls-2" d="M86.72,62.16a9.65,9.65,0,0,1-1.84.77,1.64,1.64,0,0,1,.44.86,8.45,8.45,0,0,0,2-1.19,6.46,6.46,0,0,0,2.25-2.87A7.23,7.23,0,0,1,86.72,62.16Z"/><path class="cls-2" d="M85.36,64.15a1.75,1.75,0,0,1-.36,1c.21-.12.43-.25.64-.39a6.41,6.41,0,0,0,2.49-2.67A6.91,6.91,0,0,1,85.36,64.15Z"/><path class="cls-2" d="M107.4,25.93A57.81,57.81,0,1,0,17.67,98.85,57.46,57.46,0,0,0,56.59,119.9q3,.3,6,.3A57.81,57.81,0,0,0,107.4,25.93Zm8.94,42a54.16,54.16,0,0,1-53.77,48.53,52.92,52.92,0,0,1-5.6-.29A54.09,54.09,0,0,1,28.42,20.41a53.7,53.7,0,0,1,34-12.12c1.88,0,3.77.1,5.67.29A54.1,54.1,0,0,1,116.34,68Z"/><path class="cls-3" d="M81.89,85.09a2.54,2.54,0,1,0-.42-1.29L77.66,85a2.74,2.74,0,0,0-1.26-.91V80.52a4.23,4.23,0,0,0,3.45-4.12,3.83,3.83,0,0,0-.18-1.53c-.68-2.16-3.17-4.7-3.79-5.32a.21.21,0,0,0-.14-.08.19.19,0,0,0-.15.08c-.64.7-3.19,3.63-3.8,5.34a3.28,3.28,0,0,0-.28,1.51,4.2,4.2,0,0,0,3.54,4.13v3.65a2.74,2.74,0,0,0-1.11.85L70,83.76a2.54,2.54,0,1,0-.42,1.29l3.94,1.27A2.65,2.65,0,0,0,74,87.61L71.51,91a2.54,2.54,0,1,0,1.1.8l2.44-3.35a3.78,3.78,0,0,0,.74.11,4.07,4.07,0,0,0,.61-.07l2.43,3.34a2.54,2.54,0,1,0,1.1-.8l-2.39-3.29a2.6,2.6,0,0,0,.5-1.38Z"/><polygon class="cls-4" points="100.33 90.63 98.83 91.75 97.06 91.15 97.66 92.92 96.55 94.42 98.41 94.39 99.5 95.92 100.05 94.14 101.84 93.58 100.31 92.5 100.33 90.63"/><polygon class="cls-4" points="100.33 90.63 98.83 91.75 97.06 91.15 97.66 92.92 96.55 94.42 98.41 94.39 99.5 95.92 100.05 94.14 101.84 93.58 100.31 92.5 100.33 90.63"/><polygon class="cls-4" points="100.33 90.63 98.83 91.75 97.06 91.15 97.66 92.92 96.55 94.42 98.41 94.39 99.5 95.92 100.05 94.14 101.84 93.58 100.31 92.5 100.33 90.63"/><path class="cls-5" d="M19.54,86.3a4.07,4.07,0,0,1-.39-2.76.21.21,0,0,1,.26-.16l.93.25a.17.17,0,0,1,.13.24,2.49,2.49,0,0,0,.24,1.72A2.47,2.47,0,0,0,25,83.2a3.34,3.34,0,0,0-.85-1l-.8.44.41.75a.19.19,0,0,1-.07.27l-.74.41a.2.2,0,0,1-.27-.08l-1-1.8a.21.21,0,0,1,.09-.27l2.4-1.32a.21.21,0,0,1,.19,0,5.42,5.42,0,0,1,1.89,2,3.85,3.85,0,0,1-6.74,3.71Z"/><path class="cls-5" d="M17.84,82.26a.21.21,0,0,1-.26-.12l-.34-1a.2.2,0,0,1,.12-.26l4.12-1.48a1.56,1.56,0,1,0-1-2.93L16.31,78a.2.2,0,0,1-.26-.12l-.34-1a.21.21,0,0,1,.12-.26L20,75.15a3,3,0,0,1,2,5.61Z"/><path class="cls-5" d="M22.42,74.44l-7.7-1.89a.19.19,0,0,1-.15-.15l0-.11a.2.2,0,0,1,.08-.2l6.44-4.61a.19.19,0,0,1,.31.13l.18.91a.32.32,0,0,1-.15.35l-1,.73L21,72.74l1.24.3a.33.33,0,0,1,.27.26l.17.91A.19.19,0,0,1,22.42,74.44Zm-3.11-4.1-2.11,1.5v0l2.51.58Z"/><path class="cls-5" d="M14,67.69a.21.21,0,0,1-.2-.19v-.27l4.58-4.6h0l-4.41.14a.19.19,0,0,1-.21-.19l0-1a.22.22,0,0,1,.2-.21l7.19-.24a.2.2,0,0,1,.2.2v.26l-4.76,4.63h0l4.6-.15a.19.19,0,0,1,.21.19l0,1a.2.2,0,0,1-.19.21Z"/><path class="cls-5" d="M14.14,55.92a4,4,0,0,1,1.32-2.46.21.21,0,0,1,.3,0l.6.75a.17.17,0,0,1,0,.27A2.49,2.49,0,0,0,15.5,56a2.46,2.46,0,0,0,2.15,2.7,2.43,2.43,0,0,0,2.74-2.07,3.21,3.21,0,0,0-.1-1.29l-.9-.12-.11.85a.19.19,0,0,1-.22.17l-.83-.11a.2.2,0,0,1-.18-.22l.27-2a.2.2,0,0,1,.22-.17l2.72.36a.22.22,0,0,1,.16.11,5.45,5.45,0,0,1,.34,2.72,3.84,3.84,0,0,1-7.62-1Z"/><path class="cls-5" d="M15.19,51.54a.2.2,0,0,1-.14-.25l.73-2.42A3.74,3.74,0,1,1,23,51l-.73,2.43a.21.21,0,0,1-.25.13Zm6.47-.77A2.44,2.44,0,0,0,17,49.36l-.35,1.17,4.68,1.41Z"/><path class="cls-5" d="M18.88,40.72a3.85,3.85,0,1,1,1.73,5.16A3.84,3.84,0,0,1,18.88,40.72Zm5.65,2.83a2.46,2.46,0,1,0-3.29,1.09A2.47,2.47,0,0,0,24.53,43.55Z"/><path class="cls-5" d="M21.7,36a.2.2,0,0,1,0-.28l.16-.22,6.45-.74L24.74,32.1a.2.2,0,0,1,0-.28l.59-.79a.2.2,0,0,1,.28,0l5.78,4.3a.21.21,0,0,1,0,.28l-.15.21-6.61.65,3.68,2.75a.22.22,0,0,1,0,.29l-.58.78a.23.23,0,0,1-.29,0Z"/><path class="cls-5" d="M29.17,26.89a4,4,0,0,1,2.57-1.09A.21.21,0,0,1,32,26v1c0,.12-.07.18-.2.19a2.42,2.42,0,0,0-1.59.67,2.47,2.47,0,0,0,3.42,3.55,3.41,3.41,0,0,0,.74-1.08l-.64-.65-.61.59a.19.19,0,0,1-.28,0l-.59-.6a.2.2,0,0,1,0-.29l1.48-1.43a.2.2,0,0,1,.28,0l1.9,2a.19.19,0,0,1,0,.18,5.35,5.35,0,0,1-1.43,2.34,3.84,3.84,0,0,1-5.33-5.54Z"/><path class="cls-5" d="M35.79,23.31l-1.36.91a.2.2,0,0,1-.28,0l-.49-.73a.22.22,0,0,1,.05-.29l3.89-2.6a.2.2,0,0,1,.28.05l.49.73a.21.21,0,0,1-.06.29L37,22.53l3.35,5a.21.21,0,0,1-.06.28l-.82.56a.22.22,0,0,1-.29-.06Z"/><path class="cls-5" d="M38.85,20.06a.2.2,0,0,1,.09-.27l3.88-2a.2.2,0,0,1,.27.08l.4.79a.19.19,0,0,1-.09.27l-2.82,1.44.8,1.56,2.35-1.2a.21.21,0,0,1,.28.09l.4.79a.19.19,0,0,1-.09.27L42,23.1l.85,1.67,2.82-1.44a.21.21,0,0,1,.28.09l.39.78a.2.2,0,0,1-.08.27l-3.88,2a.19.19,0,0,1-.27-.08Z"/><path class="cls-5" d="M47.6,15.88a3.63,3.63,0,0,1,2.77.1.2.2,0,0,1,.11.28l-.4.85a.17.17,0,0,1-.25.09,2.48,2.48,0,0,0-1.76-.06,2.48,2.48,0,0,0,1.62,4.69A2.54,2.54,0,0,0,51,20.72a.2.2,0,0,1,.26-.09l.85.43a.21.21,0,0,1,.08.28,3.7,3.7,0,0,1-2.12,1.83,3.86,3.86,0,1,1-2.51-7.29Z"/><path class="cls-5" d="M51.69,15a.2.2,0,0,1,.16-.23l1-.17a.21.21,0,0,1,.24.16l.48,2.8L57,16.92l-.48-2.79a.21.21,0,0,1,.17-.24l1-.17a.22.22,0,0,1,.24.17l1.19,7a.2.2,0,0,1-.17.23l-1,.17a.2.2,0,0,1-.23-.17l-.5-2.91-3.44.59.5,2.91a.21.21,0,0,1-.16.24l-1,.17a.22.22,0,0,1-.24-.17Z"/><path class="cls-5" d="M60.08,13.55a.21.21,0,0,1,.21-.19h.27l4.37,4.8h0L65,13.75a.2.2,0,0,1,.21-.2h1a.2.2,0,0,1,.2.21L66.29,21a.21.21,0,0,1-.21.19h-.26l-4.39-5h0l-.07,4.6a.2.2,0,0,1-.21.2l-1,0a.21.21,0,0,1-.2-.2Z"/><path class="cls-5" d="M68.29,14a.21.21,0,0,1,.23-.18l1,.12a.21.21,0,0,1,.18.22l-.83,7a.21.21,0,0,1-.23.17l-1-.11a.22.22,0,0,1-.18-.23Z"/><path class="cls-5" d="M74.94,14.83a3.85,3.85,0,1,1-4.65,2.83A3.85,3.85,0,0,1,74.94,14.83ZM73.43,21a2.46,2.46,0,1,0-1.79-3A2.48,2.48,0,0,0,73.43,21Z"/><path class="cls-5" d="M80.19,16.52a.2.2,0,0,1,.26-.09l.24.11,2.16,6.13h0l1.79-4a.2.2,0,0,1,.27-.1l.9.4a.21.21,0,0,1,.1.26L83,25.78a.19.19,0,0,1-.26.09l-.24-.1-2.1-6.31h0l-1.86,4.21a.2.2,0,0,1-.27.1l-.89-.39a.2.2,0,0,1-.1-.27Z"/><path class="cls-5" d="M36.19,99.75l-.25-.26-.42-.38c-.17-.16-.4-.35-.67-.58s-.6-.52-1-.86L32,96.14c-.33.42-.64.8-.92,1.12s-.54.61-.78.85-.48.46-.69.65a5.3,5.3,0,0,1-.65.47,6,6,0,0,1-.64.38c-.21.11-.44.21-.68.31l-.08-.26-.09-.22a1.74,1.74,0,0,0-.11-.18l-.14-.18a4.45,4.45,0,0,0,.65-.19,3,3,0,0,0,.63-.29,4.63,4.63,0,0,0,.65-.46,7.41,7.41,0,0,0,.74-.69c.27-.28.57-.61.89-1s.69-.83,1.09-1.35a4,4,0,0,0,.29.29l.43.39.65.56,1,.84,1,.84.69.57c.18.15.33.26.45.35l.3.2ZM34,96.91q.1-.27.18-.51c0-.16.09-.32.13-.49l.78.3c0,.15-.1.31-.15.49s-.1.36-.14.56Z"/><path class="cls-5" d="M37.18,104.59a2.39,2.39,0,0,0-.73,0c-.39.06-1,.17-1.73.33a1.41,1.41,0,0,0-.08-.39,1.48,1.48,0,0,0-.16-.34,6.93,6.93,0,0,0,1.24-.14,6,6,0,0,0,1.22-.39c0,.1.07.23.13.38a2.36,2.36,0,0,0,.2.39c0,.06,0,.1,0,.13S37.23,104.61,37.18,104.59Zm1.67-3.32L38.3,101l-.53-.29-.45-.25-.29-.15.37-.62a2.73,2.73,0,0,0,.28.2l.47.32.58.37.61.38.35-.25.27-.22.21-.19.19-.18a1.36,1.36,0,0,0,.12.17l.17.21c.05.07.11.13.16.19l.15.15q.12.11-.06.12l-.13,0-.16.06-.24.12-.35.2c.62.35,1.2.68,1.74,1s1,.54,1.44.74l-.36.63c-.4-.26-.88-.56-1.45-.9l-1.91-1.12-.38.2-.47.25c-.17.09-.35.18-.54.26l-.57.26,1.46.86c.14-.23.24-.43.32-.58a2.81,2.81,0,0,0,.19-.46l.36.27a1.89,1.89,0,0,0,.35.2s.08,0,.07.07,0,0-.08.07a.69.69,0,0,0-.22.17,1.17,1.17,0,0,0-.19.27l-.2.34,1.25.66a5.63,5.63,0,0,0,.76.32l-.39.67c-.11-.09-.34-.23-.67-.44l-1.23-.72-1.09,1.86a3.72,3.72,0,0,1-.29.44.54.54,0,0,1-.29.18.9.9,0,0,1-.41-.05l-.64-.25a1.81,1.81,0,0,0,.1-.43,3.79,3.79,0,0,0,0-.49,3.21,3.21,0,0,0,.39.31.48.48,0,0,0,.25.11.19.19,0,0,0,.17-.06,1.14,1.14,0,0,0,.16-.22l1-1.75c-.31-.18-.58-.32-.81-.44l-.62-.3a3.57,3.57,0,0,0-.46-.18,1.85,1.85,0,0,0-.32-.08,1.87,1.87,0,0,0,.07-.37,3,3,0,0,0,0-.43,1.39,1.39,0,0,0,.44,0,3.89,3.89,0,0,0,.55-.18,4.88,4.88,0,0,0,.62-.29A5.69,5.69,0,0,0,38.85,101.27ZM40,107.86c0-.17,0-.35-.07-.55s-.08-.4-.13-.6a5.89,5.89,0,0,0-.4-1.13l.62-.15c.09.2.18.39.25.57s.15.37.22.55.13.37.19.55.12.39.17.59Z"/><path class="cls-5" d="M43.6,108.64l-.17.1-.21.13L43,109l-.18.13c0-.14-.09-.29-.15-.46a2.78,2.78,0,0,0-.2-.42.54.54,0,0,0,.32-.2,1.79,1.79,0,0,0,.24-.5l1.27-3.45c.08-.22.15-.41.2-.56a2.89,2.89,0,0,0,.1-.35,2.38,2.38,0,0,0,.68.4q.15.06.15.12s0,.08-.15.09a.2.2,0,0,0-.15.06.36.36,0,0,0-.07.1l-1.45,4c.35-.16.69-.33,1-.51a6.84,6.84,0,0,0,.79-.51,1.87,1.87,0,0,0,0,.42c0,.13.06.24.09.35Zm3.59.68-.41.26-.46.21a4.52,4.52,0,0,1-1,.28,9.66,9.66,0,0,1-1.32.13,1.59,1.59,0,0,0-.1-.46,1.29,1.29,0,0,0-.24-.43,4.29,4.29,0,0,0,1.13.1,4.21,4.21,0,0,0,1.08-.17,3.44,3.44,0,0,0,1-.44,2.94,2.94,0,0,0,.73-.72c.19-.25.35-.49.49-.71s.27-.47.4-.72.25-.55.38-.87.28-.71.45-1.17a.94.94,0,0,0,.19.14l.23.15.22.14.18.1c.11.06.11.12,0,.19l-.11.08a.36.36,0,0,0-.1.11,1.11,1.11,0,0,0-.12.18l-.16.32c-.18.35-.36.68-.52,1s-.31.54-.46.77-.28.44-.42.63-.28.34-.42.49l.24.47.26.53c.09.19.19.37.28.55s.18.36.27.53l-.9.32a7.28,7.28,0,0,0-.25-.93A8,8,0,0,0,47.19,109.32Zm-.54-2.68c-.1-.4-.2-.75-.31-1.06a7.45,7.45,0,0,0-.39-1l.71-.23c.12.34.25.66.38,1s.26.65.41,1Z"/><path class="cls-5" d="M52.1,107.63l-.18.08-.19.09a1.11,1.11,0,0,0-.38-.66,5.28,5.28,0,0,0,.85-.28,5.68,5.68,0,0,0,.78-.39,4,4,0,0,0,1.2-1,2.25,2.25,0,0,0,.41.21,1.54,1.54,0,0,0,.4.13c.06,0,.09,0,.08.09s0,.09-.13.1l-.11,0-.13.06-.16.1-.23.15,1.57.28.44.08.42.06.35,0,.24,0-1.79,1.44,1.1.16.77.09c-.11.4-.2.8-.27,1.21s-.1.52-.13.73,0,.44-.07.67l-.37-.11-.48-.1-.62-.13-.79-.14-2.33-.42-.11.62c0,.19-.05.35-.06.46a.49.49,0,0,0,.09.3.71.71,0,0,0,.3.2,4.89,4.89,0,0,0,.59.18l.56.11c.23,0,.48.09.75.12l.8.11.7.06h.39a.67.67,0,0,0,.26-.1.52.52,0,0,0,.19-.22,2,2,0,0,0,.17-.38,1.28,1.28,0,0,0,.29.32,2.37,2.37,0,0,0,.34.19,2.84,2.84,0,0,1-.26.45.84.84,0,0,1-.26.27.67.67,0,0,1-.35.12,2.55,2.55,0,0,1-.49,0l-.51,0-.62-.08-.67-.09-.66-.1-.59-.11-.47-.1a6.44,6.44,0,0,1-.74-.22.84.84,0,0,1-.39-.27.63.63,0,0,1-.12-.4,5.23,5.23,0,0,1,.08-.64l.44-2.48A5.91,5.91,0,0,0,52.1,107.63Zm1.6-.91-.36.23-.4.24-.41.23-.39.19,2.65.47,1.17-1Zm.66,1.86-1.67-.3-.24,1.34,1.68.3Zm.38,1.45,1.62.29L56.6,109,55,108.69Z"/><path class="cls-5" d="M63.2,108.62a11.45,11.45,0,0,1-.33,1.65,6.35,6.35,0,0,1-.5,1.26,3.68,3.68,0,0,1-.37.53,5.2,5.2,0,0,1-.52.54,5.39,5.39,0,0,1-.63.51,6.36,6.36,0,0,1-.69.46.6.6,0,0,0-.11-.14l-.15-.16-.18-.16-.15-.11a3.19,3.19,0,0,0,.54-.25,4.73,4.73,0,0,0,.56-.35c.19-.14.36-.28.53-.43a3.57,3.57,0,0,0,.42-.46l-.21-.23c-.08-.08-.16-.17-.25-.25l-.27-.25-.23-.2.47-.46c.15.12.28.25.42.37s.27.26.42.4l.17-.38c0-.12.09-.25.13-.38a3.44,3.44,0,0,0,.11-.41c0-.15,0-.33.08-.52l-1.31,0c-.07.16-.15.33-.25.51s-.19.34-.3.51a5.72,5.72,0,0,1-.32.48c-.12.16-.22.29-.33.41a1.31,1.31,0,0,0-.27-.25,1,1,0,0,0-.32-.15,3.83,3.83,0,0,0,.58-.62,5.72,5.72,0,0,0,.47-.76,6,6,0,0,0,.35-.86,7.06,7.06,0,0,0,.21-.91h-.8l-.61,0v-.73l.82.07,1.14,0q.69,0,1.14,0l.83,0,0,.74c-.23,0-.49-.06-.78-.08l-1.07,0a5.74,5.74,0,0,1-.26,1Zm1.42-1c-.06,0-.1.12-.1.25l0,2.78a4.17,4.17,0,0,0,0,.5c0,.16,0,.34,0,.53h-.71q0-.3,0-.54c0-.16,0-.33,0-.49l0-2.32v-.53c0-.14,0-.26,0-.37a2.33,2.33,0,0,0,.37,0h.35c.07,0,.11,0,.11,0S64.68,107.62,64.62,107.67Zm1.56-1s-.07,0-.08.08a.57.57,0,0,0,0,.16l-.09,5.7a2.27,2.27,0,0,1,0,.5.57.57,0,0,1-.18.31,1,1,0,0,1-.42.19,7.25,7.25,0,0,1-.74.15,1.88,1.88,0,0,0-.4-.87l.6,0a1.23,1.23,0,0,0,.34-.06.26.26,0,0,0,.15-.16.72.72,0,0,0,0-.28l.08-4.64V107c0-.22,0-.4,0-.53l.36.06h.36c.08,0,.12,0,.13,0S66.23,106.63,66.18,106.68Z"/><path class="cls-5" d="M68.18,107.41l-.52.12-.4.1-.11-.67c.29,0,.71-.08,1.26-.17l.72-.13.52-.13.12.67-.42,0-.55.06.29,1.71.48-.11a2.58,2.58,0,0,0,.38-.1l.11.68-.38,0-.5.06.32,1.9a6.6,6.6,0,0,0,.81-.52,1.86,1.86,0,0,0,0,.36,1.72,1.72,0,0,0,.07.34,10.48,10.48,0,0,0-1.26.72,6.28,6.28,0,0,0-.93.73l-.06-.24-.09-.25a1.89,1.89,0,0,0-.11-.25l-.12-.2.52-.15c.18-.07.36-.14.56-.24l-.36-2.09-.51.1-.4.11-.11-.68.41,0,.52-.06Zm4.87,4.38,1.19-.22.91-.2.11.68c-.3,0-.65.06-1,.12s-.86.13-1.4.22l-1.46.26-1.06.24-.12-.68,1-.12,1.29-.19L72.3,111c-.33,0-.62.11-.87.17a5.47,5.47,0,0,0-.65.17l-.11-.69a5.89,5.89,0,0,0,.67,0l.87-.12-.13-.8-.72.13-.47.09-.28.07-.16,0c0-.11,0-.24,0-.39s0-.3-.06-.46,0-.34-.08-.51-.05-.35-.08-.52-.06-.36-.1-.55-.06-.35-.1-.52-.06-.31-.09-.44,0-.24-.07-.33H70l.35,0,.56-.08.87-.15.86-.14.56-.11.34-.08.19-.06c0,.09,0,.2,0,.34s0,.28.06.44.06.34.08.52l.09.55.09.51c0,.17.07.34.1.5s.07.32.1.46.06.28.09.39h-.2l-.29,0-.48.07-.75.13.14.8.92-.19q.41-.09.69-.18l.11.69-.7.06-.94.14Zm-1.5-5.16-1,.17.17,1,1-.17Zm.26,1.5-1,.16.18,1.06,1-.16Zm.52-.61,1-.17-.17-1-1,.17Zm.26,1.56,1-.17-.18-1.06-1,.17Z"/><path class="cls-5" d="M80.22,109.32l1.72-.63,1.27-.52.26.75-1.43.45-1.93.67-1.93.71c-.53.21-1,.39-1.39.56l-.27-.75c.37-.11.8-.24,1.29-.41l1.69-.58L78,105.46l-1.35.5-1,.41-.26-.72c.34-.09.74-.21,1.18-.36l1.58-.55,1.58-.58c.44-.17.82-.32,1.14-.47l.26.72-1,.33c-.39.12-.84.28-1.37.46Z"/><path class="cls-5" d="M87.13,101.3c.33-.19.61-.35.84-.5s.44-.27.61-.39l.75,1.32-.58.33-.43-.76-4.64,2.64.47.82-.59.33-.78-1.37c.2-.09.44-.21.7-.36l.93-.51,2.15-1.23a4.33,4.33,0,0,0,0-.53c0-.19,0-.38,0-.56s0-.35,0-.5a2.6,2.6,0,0,0,0-.37,3.1,3.1,0,0,0,.44,0l.39,0c.07,0,.1,0,.11,0s0,.07-.06.14a1.78,1.78,0,0,0-.1.41C87.24,100.45,87.19,100.81,87.13,101.3ZM83.88,103l-.21-.17-.25-.18-.25-.17L83,102.3l.43-.59.49.31c.19.12.36.23.51.34Zm3.43,2.45-.85.49-.72.43-.6.38c-.19.11-.36.23-.52.34l-.38-.67c.18-.08.37-.18.56-.28l.63-.33.72-.39.86-.49-.28-.49a4.89,4.89,0,0,0,.71-1l-1.63.93c-.42.24-.75.44-1,.59l-.3-.53c.14-.06.27-.13.4-.2l.39-.2.46-.26.62-.35.75-.43.52-.3.34-.21.23-.16.36.63a.81.81,0,0,0-.2.14,2.85,2.85,0,0,0-.22.24,4.24,4.24,0,0,0-.29.4l-.39.62.14.25,1.42-.84c.39-.24.74-.46,1-.67l.38.67-1.11.57c-.4.21-.89.47-1.45.79l.59,1a1.19,1.19,0,0,1,.11.29.43.43,0,0,1-.07.28,1.72,1.72,0,0,1-.3.36c-.14.13-.33.3-.58.5a2.19,2.19,0,0,0-.65-.58c.2-.09.35-.17.46-.23a1.47,1.47,0,0,0,.24-.18.34.34,0,0,0,.08-.16.33.33,0,0,0,0-.15Zm-2-3.5-.17-.21-.2-.24-.21-.23-.18-.18.55-.48c.1.1.23.22.37.37s.28.3.41.45Z"/><path class="cls-5" d="M91.53,99.78a4.24,4.24,0,0,1,.94.34,2.28,2.28,0,0,1,.63.51,1.08,1.08,0,0,1,.29.8,1.45,1.45,0,0,1-.45.81,1.9,1.9,0,0,0-.29-.28,1.51,1.51,0,0,0-.36-.18,1.11,1.11,0,0,0,.38-.37c.06-.12,0-.27-.12-.46a1.7,1.7,0,0,0-.61-.51,2.82,2.82,0,0,0-.82-.27l-.87-1.88-.66.55,4,4.8-.52.43-.31-.4-.28-.36-.28-.35-.3-.37-2.66-3.21L88.91,99a2.25,2.25,0,0,0-.24-.26l.4-.29.53-.42.51-.44c.13-.11.25-.23.36-.34Zm.67-3.25a4.64,4.64,0,0,0-.4-.26l-.36-.21.48-.59.39.27.49.29.52-.44.33-.28.22-.2.19-.19.85,1-.5.42-.47-.56L91.7,97.66l.46.56-.51.41-.84-1a1.88,1.88,0,0,0,.23-.16l.25-.19.36-.29Zm2.7.48a2,2,0,0,0-.24.16l-.3.22-.33.27-.35.28-.67.57a4.23,4.23,0,0,0-.47.45l-.44-.53a4.3,4.3,0,0,0,.54-.38l.68-.54.35-.29.31-.28.28-.26a1.88,1.88,0,0,0,.2-.2ZM93.75,99.6l-.32.29c-.11.09-.24.22-.39.37l-.45-.54.35-.25.32-.25c.12-.09.25-.19.4-.32l.56-.46.55-.46a4.6,4.6,0,0,0,.37-.31l.28-.26.3-.28.45.54-.31.21-.24.18-.23.18-.26.22,1.18,1.42c.08.1.16.15.23.14s.18-.08.34-.22a1.63,1.63,0,0,0,.19-.21.31.31,0,0,0,.06-.21.75.75,0,0,0-.08-.3c0-.12-.12-.27-.22-.46a1.35,1.35,0,0,0,.4,0,1,1,0,0,0,.34-.1,5.29,5.29,0,0,1,.24.6,1.13,1.13,0,0,1,0,.44.91.91,0,0,1-.18.37,2.82,2.82,0,0,1-.39.37,5.48,5.48,0,0,1-.47.36.78.78,0,0,1-.32.14.32.32,0,0,1-.23-.05,1.5,1.5,0,0,1-.23-.22l-1.37-1.67-.41.34a5.61,5.61,0,0,1,.6,1,2.63,2.63,0,0,1,.23.86,2.15,2.15,0,0,1-.1.83,4.29,4.29,0,0,1-.4.85,1.61,1.61,0,0,0-.35-.1,1.94,1.94,0,0,0-.43,0,4.54,4.54,0,0,0,.44-.78,2,2,0,0,0,.16-.71,1.8,1.8,0,0,0-.15-.7A3.26,3.26,0,0,0,93.75,99.6Z"/><path class="cls-5" d="M88.2,21.83a.08.08,0,0,1,.12,0l.4.22a.09.09,0,0,1,0,.13L87.18,25a.09.09,0,0,1-.12,0l-.4-.22a.11.11,0,0,1,0-.13Z"/><path class="cls-5" d="M87.82,24.87l.31-.17a.11.11,0,0,1,.16.05,1.52,1.52,0,0,0,.47.64.4.4,0,0,0,.57-.09c.13-.21,0-.46-.22-.82a1.17,1.17,0,0,1-.24-1.37,1,1,0,0,1,1.42-.23,1.61,1.61,0,0,1,.66.78.11.11,0,0,1,0,.15l-.31.14a.12.12,0,0,1-.17,0,1.45,1.45,0,0,0-.44-.58.39.39,0,0,0-.55.06c-.11.2,0,.43.21.77s.63.93.3,1.47a1,1,0,0,1-1.46.24,1.59,1.59,0,0,1-.72-.88C87.75,24.94,87.74,24.91,87.82,24.87Z"/><path class="cls-5" d="M91.66,23.9a.1.1,0,0,1,.13,0l1.15.8a1,1,0,0,1,.27,1.46,1.08,1.08,0,0,1-1.15.4l-.16,1.4a.1.1,0,0,1-.15.07l-.42-.3a.08.08,0,0,1,0-.08l.21-1.43-.45-.31-.71,1a.11.11,0,0,1-.13,0l-.36-.26a.09.09,0,0,1,0-.13Zm.34,2a.49.49,0,0,0,.68-.13.48.48,0,0,0-.12-.66l-.65-.46-.56.8Z"/><path class="cls-5" d="M91.93,28l3.23-1.6s.07,0,.1,0l0,0a.07.07,0,0,1,0,.09L94.45,30a.09.09,0,0,1-.15.05L94,29.76c-.06,0-.06-.09,0-.16l.15-.56-1.14-.92-.51.26a.15.15,0,0,1-.18,0l-.33-.26A.1.1,0,0,1,91.93,28Zm2.29.52.29-1.15h0l-1,.53Z"/><path class="cls-5" d="M96.73,27.77a.09.09,0,0,1,.13,0l1.46,1.34a.11.11,0,0,1,0,.14l-.27.29a.09.09,0,0,1-.13,0l-1.06-1-.55.59.89.81a.09.09,0,0,1,0,.13l-.28.3a.09.09,0,0,1-.13,0l-.88-.82-.58.63,1.06,1a.09.09,0,0,1,0,.13l-.27.29a.09.09,0,0,1-.13,0l-1.46-1.35a.09.09,0,0,1,0-.13Z"/><path class="cls-5" d="M98.78,29.69a.09.09,0,0,1,.13,0l.31.32a.09.09,0,0,1,0,.13l-2,1.9.86.89a.09.09,0,0,1,0,.13l-.29.28a.09.09,0,0,1-.13,0l-1.24-1.28a.09.09,0,0,1,0-.13Z"/><path class="cls-5" d="M101.08,32.18a.09.09,0,0,1,.13,0l.3.34a.1.1,0,0,1,0,.13L99,34.75a.09.09,0,0,1-.13,0l-.29-.34a.09.09,0,0,1,0-.13Z"/><path class="cls-5" d="M102.08,33.26a.09.09,0,0,1,.13,0l.07.09-.49,2.92,1.6-1.21a.09.09,0,0,1,.13,0l.27.35a.1.1,0,0,1,0,.13l-2.62,2a.08.08,0,0,1-.12,0l-.07-.09.55-3-1.67,1.25a.09.09,0,0,1-.13,0l-.27-.36a.09.09,0,0,1,0-.13Z"/><path class="cls-5" d="M101.76,37.67l.35,0a.12.12,0,0,1,.12.12,1.51,1.51,0,0,0,.15.78.41.41,0,0,0,.55.17c.21-.14.24-.41.16-.84a1.17,1.17,0,0,1,.37-1.34,1,1,0,0,1,1.39.4,1.72,1.72,0,0,1,.26,1,.13.13,0,0,1-.12.11h-.33c-.07,0-.15,0-.15-.11a1.69,1.69,0,0,0-.14-.72.39.39,0,0,0-.52-.17c-.2.12-.23.36-.15.78s.17,1.11-.36,1.45a1,1,0,0,1-1.42-.41,1.56,1.56,0,0,1-.27-1.1C101.66,37.71,101.67,37.68,101.76,37.67Z"/><path class="cls-5" d="M105.44,39.1l-.37-.65a.08.08,0,0,1,0-.12l.35-.2a.1.1,0,0,1,.13,0L106.64,40a.08.08,0,0,1,0,.12l-.35.2a.08.08,0,0,1-.12,0l-.38-.65L103.4,41a.09.09,0,0,1-.13,0L103,40.6a.1.1,0,0,1,0-.13Z"/><path class="cls-5" d="M106.8,40.52a.11.11,0,0,1,.13,0l.21.4a.11.11,0,0,1,0,.13l-2.86,1.5a.1.1,0,0,1-.12,0l-.22-.41a.1.1,0,0,1,0-.12Z"/><path class="cls-5" d="M107.22,42.43l-.32-.67a.1.1,0,0,1,0-.13l.36-.17a.1.1,0,0,1,.13,0l.91,1.92a.1.1,0,0,1,0,.13l-.36.17a.09.09,0,0,1-.12,0l-.32-.67L105,44.18a.1.1,0,0,1-.13,0l-.19-.41a.09.09,0,0,1,0-.12Z"/><path class="cls-5" d="M108.46,43.94a.1.1,0,0,1,.12.05l.17.43a.09.09,0,0,1,0,.12l-1.85.74a.71.71,0,1,0,.52,1.31l1.85-.73a.09.09,0,0,1,.12,0l.17.43a.09.09,0,0,1-.05.12l-1.88.75a1.35,1.35,0,0,1-1.75-.77,1.33,1.33,0,0,1,.75-1.75Z"/><path class="cls-5" d="M109.38,47.79l-.23-.71a.11.11,0,0,1,.06-.12l.38-.12a.09.09,0,0,1,.12.06l.66,2a.1.1,0,0,1-.06.12l-.38.12a.09.09,0,0,1-.12-.06l-.23-.7-2.6.84a.08.08,0,0,1-.11-.06l-.14-.43a.1.1,0,0,1,0-.12Z"/><path class="cls-5" d="M110.43,49.47a.08.08,0,0,1,.11.06l.51,1.92a.09.09,0,0,1-.07.11l-.39.11a.1.1,0,0,1-.11-.07l-.37-1.4-.77.21.31,1.16a.11.11,0,0,1-.07.12l-.39.1a.09.09,0,0,1-.11-.07l-.31-1.16-.82.22.36,1.39a.09.09,0,0,1-.06.11l-.39.11a.09.09,0,0,1-.11-.07l-.51-1.92a.09.09,0,0,1,.07-.11Z"/><path class="cls-5" d="M111.72,54.64a1.75,1.75,0,1,1-2-1.44A1.76,1.76,0,0,1,111.72,54.64Zm-2.83.47a1.11,1.11,0,0,0,1.28.92,1.11,1.11,0,1,0-.36-2.2A1.11,1.11,0,0,0,108.89,55.11Z"/><path class="cls-5" d="M111.92,57a.09.09,0,0,1,.1.08l.18,2a.11.11,0,0,1-.08.1l-.4,0a.09.09,0,0,1-.1-.09l-.13-1.43-.92.08.11,1.2a.09.09,0,0,1-.08.1l-.4,0a.1.1,0,0,1-.1-.09L110,57.8l-1.23.12a.11.11,0,0,1-.1-.09l0-.45a.09.09,0,0,1,.08-.1Z"/><path class="cls-5" d="M111.69,61.13v-.75a.09.09,0,0,1,.09-.09h.4a.1.1,0,0,1,.1.09l0,2.14a.09.09,0,0,1-.09.09h-.4a.09.09,0,0,1-.1-.09v-.74l-2.73,0a.1.1,0,0,1-.1-.09v-.46a.09.09,0,0,1,.09-.09Z"/><path class="cls-5" d="M112.19,63.05a.09.09,0,0,1,.09.09l-.09,2c0,.06,0,.1-.09.09h-.4a.11.11,0,0,1-.09-.1l.06-1.44-.8,0-.05,1.21a.09.09,0,0,1-.09.09l-.41,0a.1.1,0,0,1-.09-.1l.06-1.2-.86,0L109.37,65a.09.09,0,0,1-.09.09l-.4,0a.09.09,0,0,1-.09-.09l.08-2a.1.1,0,0,1,.1-.09Z"/><path class="cls-5" d="M112,67.35a1.62,1.62,0,0,1-.58,1.12.08.08,0,0,1-.13,0l-.28-.33s0-.08,0-.12a1.13,1.13,0,0,0,.36-.71,1.13,1.13,0,0,0-2.24-.24,1.13,1.13,0,0,0,.19.77.09.09,0,0,1,0,.12l-.34.27a.12.12,0,0,1-.14,0,1.73,1.73,0,0,1-.34-1.23,1.76,1.76,0,1,1,3.49.38Z"/><path class="cls-5" d="M111.67,69.1a.09.09,0,0,1,.07.11l-.08.44a.09.09,0,0,1-.11.08l-1.27-.24L110,71.05l1.27.24a.09.09,0,0,1,.07.11l-.08.44a.1.1,0,0,1-.11.07l-3.17-.6a.09.09,0,0,1-.07-.11l.08-.44a.09.09,0,0,1,.11-.07l1.32.25.29-1.56-1.32-.25a.1.1,0,0,1-.07-.11l.08-.44a.1.1,0,0,1,.11-.08Z"/><path class="cls-5" d="M111,72.76a.09.09,0,0,1,.06.11l0,.12-2.61,1.38,1.93.54a.09.09,0,0,1,.07.11l-.12.43a.1.1,0,0,1-.11.07L107,74.65a.08.08,0,0,1-.06-.11l0-.12,2.69-1.37-2-.56a.09.09,0,0,1-.06-.11l.12-.43a.09.09,0,0,1,.11-.06Z"/><path class="cls-5" d="M109.55,77.79a1.76,1.76,0,1,1-1-2.25A1.75,1.75,0,0,1,109.55,77.79Zm-2.7-1a1.12,1.12,0,1,0,1.43-.66A1.12,1.12,0,0,0,106.85,76.8Z"/><path class="cls-5" d="M108.55,79.93a.09.09,0,0,1,0,.12l-.18.41a.1.1,0,0,1-.12.05l-2.5-1.12-.51,1.14a.1.1,0,0,1-.12,0l-.36-.16a.09.09,0,0,1,0-.12l.73-1.63a.09.09,0,0,1,.12,0Z"/><path class="cls-5" d="M107,83.48a1.76,1.76,0,1,1-.76-2.36A1.75,1.75,0,0,1,107,83.48Zm-2.56-1.32a1.12,1.12,0,0,0,.48,1.51,1.12,1.12,0,1,0,1-2A1.13,1.13,0,0,0,104.45,82.16Z"/><path class="cls-5" d="M105.06,86.82a1.84,1.84,0,0,1-1,.77.11.11,0,0,1-.12-.07l-.1-.43s0-.09.07-.11a1.1,1.1,0,0,0,.63-.47,1.12,1.12,0,0,0-.37-1.52,1.1,1.1,0,0,0-1.53.33,1.48,1.48,0,0,0-.21.55l.35.22.21-.33a.1.1,0,0,1,.12,0l.33.21a.11.11,0,0,1,0,.13l-.5.79a.09.09,0,0,1-.13,0l-1-.67a.08.08,0,0,1,0-.07A2.43,2.43,0,0,1,102.1,85a1.75,1.75,0,1,1,3,1.87Z"/><path class="cls-5" d="M102.14,87.88l2,.07a.09.09,0,0,1,.07.14l-.3.4a.07.07,0,0,1-.08,0l-1.36,0,.44,1.29a.1.1,0,0,1,0,.09l-.3.4a.09.09,0,0,1-.16,0l-.64-1.86-1.25-.92a.09.09,0,0,1,0-.13l.26-.36a.09.09,0,0,1,.13,0Z"/><path class="cls-5" d="M83.08,48.54H84.6v7.09a.43.43,0,0,0,.08.28A.48.48,0,0,0,85,56h1.69a.29.29,0,0,0,.28-.3V45.5a.3.3,0,0,0-.28-.31H85.21L82.89,47a.44.44,0,0,0-.09.24v1A.29.29,0,0,0,83.08,48.54Z"/><path class="cls-5" d="M94.83,48.89H93.71v-1.7H97a.3.3,0,0,0,.31-.3V45.5a.31.31,0,0,0-.31-.31h-5.1a.31.31,0,0,0-.31.31v4.91a.53.53,0,0,0,.5.56H94.5a1.51,1.51,0,0,1,1.63,1.54,1.46,1.46,0,0,1-1.5,1.5,4.54,4.54,0,0,1-1.89-.76.31.31,0,0,0-.38,0l-1,1c-.19.2-.18.31,0,.54a4.17,4.17,0,0,0,3.14,1.32,3.76,3.76,0,0,0,3.92-3.63A3.46,3.46,0,0,0,94.83,48.89Z"/><path class="cls-5" d="M36.94,48.24c0-1.76-1.34-3.2-3.6-3.2a4.58,4.58,0,0,0-3.18,1.55.29.29,0,0,0,0,.41l1,1a.31.31,0,0,0,.44,0,2.25,2.25,0,0,1,1.54-.8,1.24,1.24,0,0,1,1.4,1.15,2.31,2.31,0,0,1-.42,1.2c-.93,1.43-3.28,4.62-4.2,5.82v.32a.3.3,0,0,0,.3.3h6.35a.31.31,0,0,0,.3-.3V54.25a.31.31,0,0,0-.3-.3h-2.8c.75-1.05,2.05-2.74,2.56-3.65A4,4,0,0,0,36.94,48.24Z"/><path class="cls-5" d="M48.59,50.59c0-3.48-1.48-5.55-4.06-5.55s-4.07,2.07-4.07,5.55,1.48,5.55,4.07,5.55S48.59,54.06,48.59,50.59Zm-4.06,3.25c-1,0-1.51-1.16-1.51-3.25s.54-3.25,1.51-3.25S46,48.51,46,50.59,45.49,53.84,44.53,53.84Z"/><path class="cls-5" d="M74.78,56.07l.19.07L81,43a.44.44,0,0,0,0-.3l0-.09h0l-.06-.08,0,0-.11-.08a.76.76,0,0,0-.41-.13H59.6a.17.17,0,0,0-.16.27l2.74,5.63a.52.52,0,0,0,.43.27H71a.2.2,0,0,1,.17.3L66,60.23c-.06.15-.18.15-.25,0L57.34,42.8a1.92,1.92,0,0,0-.15-.29h0l0,0,0,0h0l-.09,0H50.19a.18.18,0,0,0-.17.28S65.94,75.5,66,75.6a.1.1,0,0,0,.18,0S71,64.92,71,64.92a7.74,7.74,0,0,1-.8-.71l-.09-.12c-.15-.2-.3-.45-.3-.45l-3.65,8.13c-.07.15-.18.15-.26,0L52.59,44.28a.17.17,0,0,1,.06-.24h0l.1,0h3.08L56,44h0l.12.05,0,0a.27.27,0,0,1,.08.07h0a.34.34,0,0,1,.07.11L61,54.15,65.8,64c.08.15.19.15.26,0l7.73-16.76c0-.07.1-.22,0-.28s-.08-.07-.25-.07h-10a.53.53,0,0,1-.44-.27L62,44.2c-.06-.11,0-.2.06-.24h0l.1,0H78.49l.09,0h0l.05,0h0a0,0,0,0,1,0,0s0,0,0,0,0,0,0,0a.2.2,0,0,1,0,.07l0,0-.07.15S73.64,55.23,73.3,56A3.26,3.26,0,0,1,74.78,56.07Z"/><path class="cls-6" d="M79.77,57.37l0,0Z"/><path class="cls-4" d="M79.77,57.37l0,0Z"/><path class="cls-4" d="M78.29,78.38Z"/><path class="cls-4" d="M79.77,57.37l0,0Z"/><path class="cls-7" d="M78.29,78.38Z"/><path class="cls-7" d="M79.8,57.34l0,0Z"/><path class="cls-4" d="M79.77,57.37l0,0Z"/><path class="cls-5" d="M77.26,31.38c-.21-.36-1.16.16-1.16.16l-.14.07-.33.15a25.18,25.18,0,0,1-8.47,1.62,28.7,28.7,0,0,1-5.76-1l-.11,0a25.75,25.75,0,0,0-5.16-.89,7.59,7.59,0,0,0-7,3.86A6.5,6.5,0,0,0,48.42,39l.35.64a1.09,1.09,0,0,0,.35.34.73.73,0,0,0,.45.12h5.07s1.91.15,1.56-.7a3,3,0,0,1-.24-.64,1.68,1.68,0,0,1,1.61-.94A11.11,11.11,0,0,1,62.12,39l.35.15c.45.18,1,.4,1.53.6a13.38,13.38,0,0,0,3.91.79H68a8,8,0,0,0,3.31-.61,2.66,2.66,0,0,0,1.15-1.21s0-.1.08-.18l.07-.18,0,0a2.09,2.09,0,0,1,.19-.42,2.23,2.23,0,0,1,.91-.61,2.38,2.38,0,0,0,.82-.57,1.83,1.83,0,0,0,.32-.47l.14-.35a4.35,4.35,0,0,0,.2-.56.92.92,0,0,1,.51-.65,3.72,3.72,0,0,0,.93-.86,3.28,3.28,0,0,0,.5-1.2v0S77.47,31.74,77.26,31.38Zm-3.53,3.38a3.39,3.39,0,0,0-.18.52l-.11.2a1,1,0,0,1-.29.17l-.17.08a3.49,3.49,0,0,0-1.39,1.08,3.25,3.25,0,0,0-.41.81l-.13.33a.82.82,0,0,1-.44.42,6.37,6.37,0,0,1-2.6.43h-.07a12.29,12.29,0,0,1-3.42-.71c-.6-.21-1.12-.43-1.66-.66l-.19-.07a12.62,12.62,0,0,0-5.17-1.28,5.32,5.32,0,0,0-1.44.28,2.87,2.87,0,0,0-1.79,2H49.88a6.38,6.38,0,0,1,.59-2.15,6.07,6.07,0,0,1,5.7-3l.51,0a33.11,33.11,0,0,1,4.41.86,29.08,29.08,0,0,0,6.07,1A32.63,32.63,0,0,0,74.44,34h.07C74.4,34.16,74,34.36,73.73,34.76Z"/><path class="cls-5" d="M61.78,82.54l-.59-.16h0a.4.4,0,0,0-.44.17l-1.65,2.65a.36.36,0,0,1-.43.14l-.07,0a.36.36,0,0,1-.21-.4l.73-3a.42.42,0,0,0-.2-.44l0,0-.52-.3-1.75-1.17-.48-.37,0,0a.42.42,0,0,0-.48,0L53,81.33a.36.36,0,0,1-.45,0l-.06-.06a.36.36,0,0,1,0-.45l1.83-2.53a.39.39,0,0,0,0-.47l0-.05c-.1-.13-.27-.34-.36-.48l-1.18-1.75c-.09-.14-.22-.37-.3-.52l0,0a.42.42,0,0,0-.44-.19l-3,.71a.38.38,0,0,1-.41-.21l0-.07a.38.38,0,0,1,.14-.44l2.66-1.62a.42.42,0,0,0,.17-.45v0c0-.16-.12-.42-.16-.59L50.86,70c0-.17-.06-.44-.08-.6v-.06a.44.44,0,0,0-.33-.35l-3.08-.5a.36.36,0,0,1-.3-.35V68a.36.36,0,0,1,.3-.35l3.08-.49a.42.42,0,0,0,.33-.34V66.8c0-.16,0-.43.07-.6,0,0,.1-.7.2-1.2s.21-.88.21-.88c0-.16.12-.42.17-.58v0a.42.42,0,0,0-.17-.45l-2.65-1.64a.38.38,0,0,1-.14-.44l0-.07a.37.37,0,0,1,.41-.21l3,.73a.42.42,0,0,0,.44-.2l0,0L53.07,60a4.28,4.28,0,0,1,.26-.37c.05-.06.15,0,.22.16l1.6,3.32a.7.7,0,0,1,0,.53l0,.14A9.68,9.68,0,0,0,54.7,65a11.79,11.79,0,0,0-.42,3.08,11.46,11.46,0,0,0,9.9,11.35l.23,0,.73-1.6A9.85,9.85,0,0,1,55.81,68,9.72,9.72,0,0,1,57,63.38a.48.48,0,0,0,0-.5L52.79,54a.26.26,0,0,0-.38-.11l-1,.67a.35.35,0,0,0-.13.43l1.18,2.45a.54.54,0,0,1,0,.52l-.84,1.27a.44.44,0,0,1-.45.18l-3.19-.77a.38.38,0,0,0-.41.21l-1.15,2.78a.37.37,0,0,0,.14.44l2.79,1.73a.45.45,0,0,1,.19.45c0,.11-.08.33-.12.55l0,.17,0,.07c0,.11,0,.22-.05.29a.28.28,0,0,1,0,.13h0a.65.65,0,0,1-.19.18l-.11,0-3.24.5a.37.37,0,0,0-.3.35v3a.35.35,0,0,0,.3.35l3.24.53a.48.48,0,0,1,.35.35l.21,1.08a.45.45,0,0,1-.19.45L46.46,74a.38.38,0,0,0-.14.44l1.15,2.78a.39.39,0,0,0,.41.21l3.2-.75a.44.44,0,0,1,.45.18l.62.92a.46.46,0,0,1,0,.49L50.21,81a.36.36,0,0,0,0,.45l2.12,2.13a.38.38,0,0,0,.46,0l2.67-1.92a.48.48,0,0,1,.49,0l.91.62a.45.45,0,0,1,.19.45l-.77,3.19a.36.36,0,0,0,.21.41l2.78,1.16a.36.36,0,0,0,.43-.14l1.73-2.8a.46.46,0,0,1,.46-.19l.21,0,.75-1.64Z"/></svg>