<svg id="Layer_1" data-name="Layer 1" xmlns="http://www.w3.org/2000/svg" viewBox="0 0 383 111.479"><defs><style>.cls-1,.cls-10,.cls-100,.cls-101,.cls-102,.cls-103,.cls-104,.cls-105,.cls-106,.cls-107,.cls-108,.cls-109,.cls-11,.cls-110,.cls-111,.cls-112,.cls-113,.cls-114,.cls-115,.cls-116,.cls-117,.cls-118,.cls-119,.cls-12,.cls-120,.cls-121,.cls-122,.cls-123,.cls-124,.cls-125,.cls-126,.cls-127,.cls-128,.cls-129,.cls-13,.cls-130,.cls-131,.cls-132,.cls-133,.cls-134,.cls-135,.cls-136,.cls-137,.cls-138,.cls-139,.cls-14,.cls-140,.cls-141,.cls-142,.cls-143,.cls-144,.cls-145,.cls-146,.cls-147,.cls-148,.cls-149,.cls-15,.cls-150,.cls-151,.cls-152,.cls-153,.cls-16,.cls-17,.cls-18,.cls-19,.cls-2,.cls-20,.cls-21,.cls-22,.cls-23,.cls-24,.cls-25,.cls-26,.cls-27,.cls-28,.cls-29,.cls-3,.cls-30,.cls-31,.cls-32,.cls-33,.cls-34,.cls-35,.cls-36,.cls-37,.cls-38,.cls-39,.cls-4,.cls-40,.cls-41,.cls-42,.cls-43,.cls-44,.cls-45,.cls-46,.cls-47,.cls-48,.cls-49,.cls-5,.cls-50,.cls-51,.cls-52,.cls-53,.cls-54,.cls-55,.cls-56,.cls-57,.cls-58,.cls-59,.cls-6,.cls-60,.cls-61,.cls-62,.cls-63,.cls-64,.cls-65,.cls-66,.cls-67,.cls-68,.cls-69,.cls-7,.cls-70,.cls-71,.cls-72,.cls-73,.cls-74,.cls-75,.cls-76,.cls-77,.cls-78,.cls-79,.cls-8,.cls-80,.cls-81,.cls-82,.cls-83,.cls-84,.cls-85,.cls-86,.cls-87,.cls-88,.cls-89,.cls-9,.cls-90,.cls-91,.cls-92,.cls-93,.cls-94,.cls-95,.cls-96,.cls-97,.cls-98,.cls-99{fill:none;stroke-linecap:round;stroke-linejoin:round;}.cls-1{stroke:#91d1c2;stroke-width:0.5px;}.cls-2{stroke:#90d0c1;stroke-width:0.51px;}.cls-3{stroke:#8fcfc1;stroke-width:0.52px;}.cls-4{stroke:#8ecec0;stroke-width:0.53px;}.cls-5{stroke:#8dcdc0;stroke-width:0.54px;}.cls-6{stroke:#8cccbf;stroke-width:0.55px;}.cls-7{stroke:#8bcbbe;stroke-width:0.56px;}.cls-8{stroke:#8acabe;stroke-width:0.57px;}.cls-9{stroke:#89c9bd;stroke-width:0.579px;}.cls-10{stroke:#88c8bd;stroke-width:0.589px;}.cls-11{stroke:#87c7bc;stroke-width:0.599px;}.cls-12{stroke:#86c6bb;stroke-width:0.609px;}.cls-13{stroke:#85c5bb;stroke-width:0.619px;}.cls-14{stroke:#85c4ba;stroke-width:0.629px;}.cls-15{stroke:#84c3ba;stroke-width:0.639px;}.cls-16{stroke:#83c2b9;stroke-width:0.649px;}.cls-17{stroke:#82c1b8;stroke-width:0.659px;}.cls-18{stroke:#81c0b8;stroke-width:0.669px;}.cls-19{stroke:#80bfb7;stroke-width:0.679px;}.cls-20{stroke:#7fbeb7;stroke-width:0.689px;}.cls-21{stroke:#7ebdb6;stroke-width:0.699px;}.cls-22{stroke:#7dbcb5;stroke-width:0.709px;}.cls-23{stroke:#7cbbb5;stroke-width:0.719px;}.cls-24{stroke:#7bbab4;stroke-width:0.728px;}.cls-25{stroke:#7ab9b4;stroke-width:0.738px;}.cls-26{stroke:#79b8b3;stroke-width:0.748px;}.cls-27{stroke:#78b7b2;stroke-width:0.758px;}.cls-28{stroke:#77b6b2;stroke-width:0.768px;}.cls-29{stroke:#76b5b1;stroke-width:0.778px;}.cls-30{stroke:#75b4b1;stroke-width:0.788px;}.cls-31{stroke:#74b3b0;stroke-width:0.798px;}.cls-32{stroke:#73b2af;stroke-width:0.808px;}.cls-33{stroke:#72b1af;stroke-width:0.818px;}.cls-34{stroke:#71b0ae;stroke-width:0.828px;}.cls-35{stroke:#70afae;stroke-width:0.838px;}.cls-36{stroke:#6faead;stroke-width:0.848px;}.cls-37{stroke:#6eadac;stroke-width:0.858px;}.cls-38{stroke:#6dacac;stroke-width:0.868px;}.cls-39{stroke:#6dacab;stroke-width:0.877px;}.cls-40{stroke:#6cabaa;stroke-width:0.887px;}.cls-41{stroke:#6baaaa;stroke-width:0.897px;}.cls-42{stroke:#6aa9a9;stroke-width:0.907px;}.cls-43{stroke:#69a8a9;stroke-width:0.917px;}.cls-44{stroke:#68a7a8;stroke-width:0.927px;}.cls-45{stroke:#67a6a7;stroke-width:0.937px;}.cls-46{stroke:#66a5a7;stroke-width:0.947px;}.cls-47{stroke:#65a4a6;stroke-width:0.957px;}.cls-48{stroke:#64a3a6;stroke-width:0.967px;}.cls-49{stroke:#63a2a5;stroke-width:0.977px;}.cls-50{stroke:#62a1a4;stroke-width:0.987px;}.cls-51{stroke:#61a0a4;stroke-width:0.997px;}.cls-52{stroke:#609fa3;stroke-width:1.007px;}.cls-53{stroke:#5f9ea3;stroke-width:1.017px;}.cls-54{stroke:#5e9da2;stroke-width:1.026px;}.cls-55{stroke:#5d9ca1;stroke-width:1.036px;}.cls-56{stroke:#5c9ba1;stroke-width:1.046px;}.cls-57{stroke:#5b9aa0;stroke-width:1.056px;}.cls-58{stroke:#5a99a0;stroke-width:1.066px;}.cls-59{stroke:#59989f;stroke-width:1.076px;}.cls-60{stroke:#58979e;stroke-width:1.086px;}.cls-61{stroke:#57969e;stroke-width:1.096px;}.cls-62{stroke:#56959d;stroke-width:1.106px;}.cls-63{stroke:#55949d;stroke-width:1.116px;}.cls-64{stroke:#55939c;stroke-width:1.126px;}.cls-65{stroke:#54929b;stroke-width:1.136px;}.cls-66{stroke:#53919b;stroke-width:1.146px;}.cls-67{stroke:#52909a;stroke-width:1.156px;}.cls-68{stroke:#518f9a;stroke-width:1.166px;}.cls-69{stroke:#508e99;stroke-width:1.175px;}.cls-70{stroke:#4f8d98;stroke-width:1.185px;}.cls-71{stroke:#4e8c98;stroke-width:1.195px;}.cls-72{stroke:#4d8b97;stroke-width:1.205px;}.cls-73{stroke:#4c8a97;stroke-width:1.215px;}.cls-74{stroke:#4b8996;stroke-width:1.225px;}.cls-75{stroke:#4a8895;stroke-width:1.235px;}.cls-76{stroke:#498795;stroke-width:1.245px;}.cls-77{stroke:#488694;stroke-width:1.255px;}.cls-78{stroke:#478594;stroke-width:1.265px;}.cls-79{stroke:#468493;stroke-width:1.275px;}.cls-80{stroke:#458392;stroke-width:1.285px;}.cls-81{stroke:#448292;stroke-width:1.295px;}.cls-82{stroke:#438191;stroke-width:1.305px;}.cls-83{stroke:#428091;stroke-width:1.315px;}.cls-84{stroke:#417f90;stroke-width:1.325px;}.cls-85{stroke:#407e8f;stroke-width:1.334px;}.cls-86{stroke:#3f7d8f;stroke-width:1.344px;}.cls-87{stroke:#3e7c8e;stroke-width:1.354px;}.cls-88{stroke:#3d7b8e;stroke-width:1.364px;}.cls-89{stroke:#3c7a8d;stroke-width:1.374px;}.cls-90{stroke:#3c798c;stroke-width:1.384px;}.cls-91{stroke:#3b788c;stroke-width:1.394px;}.cls-92{stroke:#3a778b;stroke-width:1.404px;}.cls-93{stroke:#39768b;stroke-width:1.414px;}.cls-94{stroke:#38758a;stroke-width:1.424px;}.cls-95{stroke:#377489;stroke-width:1.434px;}.cls-96{stroke:#367389;stroke-width:1.444px;}.cls-97{stroke:#357288;stroke-width:1.454px;}.cls-98{stroke:#347188;stroke-width:1.464px;}.cls-99{stroke:#337087;stroke-width:1.474px;}.cls-100{stroke:#326f86;stroke-width:1.483px;}.cls-101{stroke:#316e86;stroke-width:1.493px;}.cls-102{stroke:#306d85;stroke-width:1.503px;}.cls-103{stroke:#2f6c85;stroke-width:1.513px;}.cls-104{stroke:#2e6b84;stroke-width:1.523px;}.cls-105{stroke:#2d6a83;stroke-width:1.533px;}.cls-106{stroke:#2c6983;stroke-width:1.543px;}.cls-107{stroke:#2b6882;stroke-width:1.553px;}.cls-108{stroke:#2a6782;stroke-width:1.563px;}.cls-109{stroke:#296681;stroke-width:1.573px;}.cls-110{stroke:#286580;stroke-width:1.583px;}.cls-111{stroke:#276480;stroke-width:1.593px;}.cls-112{stroke:#26637f;stroke-width:1.603px;}.cls-113{stroke:#25627f;stroke-width:1.613px;}.cls-114{stroke:#24617e;stroke-width:1.623px;}.cls-115{stroke:#24617d;stroke-width:1.632px;}.cls-116{stroke:#23607d;stroke-width:1.642px;}.cls-117{stroke:#225f7c;stroke-width:1.652px;}.cls-118{stroke:#215e7b;stroke-width:1.662px;}.cls-119{stroke:#205d7b;stroke-width:1.672px;}.cls-120{stroke:#1f5c7a;stroke-width:1.682px;}.cls-121{stroke:#1e5b7a;stroke-width:1.692px;}.cls-122{stroke:#1d5a79;stroke-width:1.702px;}.cls-123{stroke:#1c5978;stroke-width:1.712px;}.cls-124{stroke:#1b5878;stroke-width:1.722px;}.cls-125{stroke:#1a5777;stroke-width:1.732px;}.cls-126{stroke:#195677;stroke-width:1.742px;}.cls-127{stroke:#185576;stroke-width:1.752px;}.cls-128{stroke:#175475;stroke-width:1.762px;}.cls-129{stroke:#165375;stroke-width:1.772px;}.cls-130{stroke:#155274;stroke-width:1.781px;}.cls-131{stroke:#145174;stroke-width:1.791px;}.cls-132{stroke:#135073;stroke-width:1.801px;}.cls-133{stroke:#124f72;stroke-width:1.811px;}.cls-134{stroke:#114e72;stroke-width:1.821px;}.cls-135{stroke:#104d71;stroke-width:1.831px;}.cls-136{stroke:#0f4c71;stroke-width:1.841px;}.cls-137{stroke:#0e4b70;stroke-width:1.851px;}.cls-138{stroke:#0d4a6f;stroke-width:1.861px;}.cls-139{stroke:#0c496f;stroke-width:1.871px;}.cls-140{stroke:#0c486e;stroke-width:1.881px;}.cls-141{stroke:#0b476e;stroke-width:1.891px;}.cls-142{stroke:#0a466d;stroke-width:1.901px;}.cls-143{stroke:#09456c;stroke-width:1.911px;}.cls-144{stroke:#08446c;stroke-width:1.921px;}.cls-145{stroke:#07436b;stroke-width:1.93px;}.cls-146{stroke:#06426b;stroke-width:1.94px;}.cls-147{stroke:#05416a;stroke-width:1.95px;}.cls-148{stroke:#044069;stroke-width:1.96px;}.cls-149{stroke:#033f69;stroke-width:1.97px;}.cls-150{stroke:#023e68;stroke-width:1.98px;}.cls-151{stroke:#013d68;stroke-width:1.99px;}.cls-152{stroke:#003c67;stroke-width:2px;}.cls-153{stroke:#fff;stroke-width:3px;}.cls-154{fill:#fff;}.cls-155{fill:#003c67;}.cls-156{fill:#706f6f;}</style></defs><line class="cls-1" x1="-92.5" y1="69.659" x2="1.5" y2="-0.341"/><line class="cls-2" x1="-89.351" y1="69.656" x2="4.02" y2="-0.338"/><line class="cls-3" x1="-86.202" y1="69.653" x2="6.54" y2="-0.334"/><line class="cls-4" x1="-83.053" y1="69.649" x2="9.06" y2="-0.331"/><line class="cls-5" x1="-79.904" y1="69.646" x2="11.579" y2="-0.328"/><line class="cls-6" x1="-76.755" y1="69.643" x2="14.099" y2="-0.324"/><line class="cls-7" x1="-73.606" y1="69.639" x2="16.619" y2="-0.321"/><line class="cls-8" x1="-70.457" y1="69.636" x2="19.139" y2="-0.318"/><line class="cls-9" x1="-67.308" y1="69.633" x2="21.659" y2="-0.314"/><line class="cls-10" x1="-64.159" y1="69.629" x2="24.179" y2="-0.311"/><line class="cls-11" x1="-61.01" y1="69.626" x2="26.699" y2="-0.308"/><line class="cls-12" x1="-57.861" y1="69.623" x2="29.219" y2="-0.304"/><line class="cls-13" x1="-54.712" y1="69.619" x2="31.738" y2="-0.301"/><line class="cls-14" x1="-51.563" y1="69.616" x2="34.258" y2="-0.298"/><line class="cls-15" x1="-48.414" y1="69.613" x2="36.778" y2="-0.294"/><line class="cls-16" x1="-45.265" y1="69.61" x2="39.298" y2="-0.291"/><line class="cls-17" x1="-42.116" y1="69.606" x2="41.818" y2="-0.288"/><line class="cls-18" x1="-38.967" y1="69.603" x2="44.338" y2="-0.285"/><line class="cls-19" x1="-35.818" y1="69.6" x2="46.858" y2="-0.281"/><line class="cls-20" x1="-32.669" y1="69.596" x2="49.377" y2="-0.278"/><line class="cls-21" x1="-29.52" y1="69.593" x2="51.897" y2="-0.275"/><line class="cls-22" x1="-26.371" y1="69.59" x2="54.417" y2="-0.271"/><line class="cls-23" x1="-23.222" y1="69.586" x2="56.937" y2="-0.268"/><line class="cls-24" x1="-20.073" y1="69.583" x2="59.457" y2="-0.265"/><line class="cls-25" x1="-16.924" y1="69.58" x2="61.977" y2="-0.261"/><line class="cls-26" x1="-13.775" y1="69.576" x2="64.497" y2="-0.258"/><line class="cls-27" x1="-10.626" y1="69.573" x2="67.017" y2="-0.255"/><line class="cls-28" x1="-7.477" y1="69.57" x2="69.536" y2="-0.251"/><line class="cls-29" x1="-4.328" y1="69.566" x2="72.056" y2="-0.248"/><line class="cls-30" x1="-1.179" y1="69.563" x2="74.576" y2="-0.245"/><line class="cls-31" x1="1.97" y1="69.56" x2="77.096" y2="-0.241"/><line class="cls-32" x1="5.119" y1="69.557" x2="79.616" y2="-0.238"/><line class="cls-33" x1="8.268" y1="69.553" x2="82.136" y2="-0.235"/><line class="cls-34" x1="11.417" y1="69.55" x2="84.656" y2="-0.232"/><line class="cls-35" x1="14.566" y1="69.547" x2="87.175" y2="-0.228"/><line class="cls-36" x1="17.715" y1="69.543" x2="89.695" y2="-0.225"/><line class="cls-37" x1="20.864" y1="69.54" x2="92.215" y2="-0.222"/><line class="cls-38" x1="24.013" y1="69.537" x2="94.735" y2="-0.218"/><line class="cls-39" x1="27.162" y1="69.533" x2="97.255" y2="-0.215"/><line class="cls-40" x1="30.311" y1="69.53" x2="99.775" y2="-0.212"/><line class="cls-41" x1="33.46" y1="69.527" x2="102.295" y2="-0.208"/><line class="cls-42" x1="36.609" y1="69.523" x2="104.815" y2="-0.205"/><line class="cls-43" x1="39.758" y1="69.52" x2="107.334" y2="-0.202"/><line class="cls-44" x1="42.907" y1="69.517" x2="109.854" y2="-0.198"/><line class="cls-45" x1="46.056" y1="69.513" x2="112.374" y2="-0.195"/><line class="cls-46" x1="49.205" y1="69.51" x2="114.894" y2="-0.192"/><line class="cls-47" x1="52.354" y1="69.507" x2="117.414" y2="-0.189"/><line class="cls-48" x1="55.503" y1="69.504" x2="119.934" y2="-0.185"/><line class="cls-49" x1="58.652" y1="69.5" x2="122.454" y2="-0.182"/><line class="cls-50" x1="61.801" y1="69.497" x2="124.974" y2="-0.179"/><line class="cls-51" x1="64.95" y1="69.494" x2="127.493" y2="-0.175"/><line class="cls-52" x1="68.099" y1="69.49" x2="130.013" y2="-0.172"/><line class="cls-53" x1="71.248" y1="69.487" x2="132.533" y2="-0.169"/><line class="cls-54" x1="74.397" y1="69.484" x2="135.053" y2="-0.165"/><line class="cls-55" x1="77.546" y1="69.48" x2="137.573" y2="-0.162"/><line class="cls-56" x1="80.695" y1="69.477" x2="140.093" y2="-0.159"/><line class="cls-57" x1="83.844" y1="69.474" x2="142.613" y2="-0.155"/><line class="cls-58" x1="86.993" y1="69.47" x2="145.132" y2="-0.152"/><line class="cls-59" x1="90.142" y1="69.467" x2="147.652" y2="-0.149"/><line class="cls-60" x1="93.291" y1="69.464" x2="150.172" y2="-0.145"/><line class="cls-61" x1="96.44" y1="69.461" x2="152.692" y2="-0.142"/><line class="cls-62" x1="99.589" y1="69.457" x2="155.212" y2="-0.139"/><line class="cls-63" x1="102.738" y1="69.454" x2="157.732" y2="-0.136"/><line class="cls-64" x1="105.887" y1="69.451" x2="160.252" y2="-0.132"/><line class="cls-65" x1="109.036" y1="69.447" x2="162.772" y2="-0.129"/><line class="cls-66" x1="112.185" y1="69.444" x2="165.291" y2="-0.126"/><line class="cls-67" x1="115.334" y1="69.441" x2="167.811" y2="-0.122"/><line class="cls-68" x1="118.483" y1="69.437" x2="170.331" y2="-0.119"/><line class="cls-69" x1="121.632" y1="69.434" x2="172.851" y2="-0.116"/><line class="cls-70" x1="124.781" y1="69.431" x2="175.371" y2="-0.112"/><line class="cls-71" x1="127.93" y1="69.427" x2="177.891" y2="-0.109"/><line class="cls-72" x1="131.079" y1="69.424" x2="180.411" y2="-0.106"/><line class="cls-73" x1="134.228" y1="69.421" x2="182.93" y2="-0.102"/><line class="cls-74" x1="137.377" y1="69.417" x2="185.45" y2="-0.099"/><line class="cls-75" x1="140.526" y1="69.414" x2="187.97" y2="-0.096"/><line class="cls-76" x1="143.675" y1="69.411" x2="190.49" y2="-0.092"/><line class="cls-77" x1="146.825" y1="69.408" x2="193.01" y2="-0.089"/><line class="cls-78" x1="149.974" y1="69.404" x2="195.53" y2="-0.086"/><line class="cls-79" x1="153.123" y1="69.401" x2="198.05" y2="-0.083"/><line class="cls-80" x1="156.272" y1="69.398" x2="200.57" y2="-0.079"/><line class="cls-81" x1="159.421" y1="69.394" x2="203.089" y2="-0.076"/><line class="cls-82" x1="162.57" y1="69.391" x2="205.609" y2="-0.073"/><line class="cls-83" x1="165.719" y1="69.388" x2="208.129" y2="-0.069"/><line class="cls-84" x1="168.868" y1="69.384" x2="210.649" y2="-0.066"/><line class="cls-85" x1="172.017" y1="69.381" x2="213.169" y2="-0.063"/><line class="cls-86" x1="175.166" y1="69.378" x2="215.689" y2="-0.059"/><line class="cls-87" x1="178.315" y1="69.374" x2="218.209" y2="-0.056"/><line class="cls-88" x1="181.464" y1="69.371" x2="220.728" y2="-0.053"/><line class="cls-89" x1="184.613" y1="69.368" x2="223.248" y2="-0.049"/><line class="cls-90" x1="187.762" y1="69.364" x2="225.768" y2="-0.046"/><line class="cls-91" x1="190.911" y1="69.361" x2="228.288" y2="-0.043"/><line class="cls-92" x1="194.06" y1="69.358" x2="230.808" y2="-0.039"/><line class="cls-93" x1="197.209" y1="69.355" x2="233.328" y2="-0.036"/><line class="cls-94" x1="200.358" y1="69.351" x2="235.848" y2="-0.033"/><line class="cls-95" x1="203.507" y1="69.348" x2="238.368" y2="-0.03"/><line class="cls-96" x1="206.656" y1="69.345" x2="240.887" y2="-0.026"/><line class="cls-97" x1="209.805" y1="69.341" x2="243.407" y2="-0.023"/><line class="cls-98" x1="212.954" y1="69.338" x2="245.927" y2="-0.02"/><line class="cls-99" x1="216.103" y1="69.335" x2="248.447" y2="-0.016"/><line class="cls-100" x1="219.252" y1="69.331" x2="250.967" y2="-0.013"/><line class="cls-101" x1="222.401" y1="69.328" x2="253.487" y2="-0.01"/><line class="cls-102" x1="225.55" y1="69.325" x2="256.007" y2="-0.006"/><line class="cls-103" x1="228.699" y1="69.321" x2="258.526" y2="-0.003"/><line class="cls-104" x1="231.848" y1="69.318" x2="261.046"/><line class="cls-105" x1="234.997" y1="69.315" x2="263.566" y2="0.004"/><line class="cls-106" x1="238.146" y1="69.311" x2="266.086" y2="0.007"/><line class="cls-107" x1="241.295" y1="69.308" x2="268.606" y2="0.01"/><line class="cls-108" x1="244.444" y1="69.305" x2="271.126" y2="0.013"/><line class="cls-109" x1="247.593" y1="69.302" x2="273.646" y2="0.017"/><line class="cls-110" x1="250.742" y1="69.298" x2="276.166" y2="0.02"/><line class="cls-111" x1="253.891" y1="69.295" x2="278.685" y2="0.023"/><line class="cls-112" x1="257.04" y1="69.292" x2="281.205" y2="0.027"/><line class="cls-113" x1="260.189" y1="69.288" x2="283.725" y2="0.03"/><line class="cls-114" x1="263.338" y1="69.285" x2="286.245" y2="0.033"/><line class="cls-115" x1="266.487" y1="69.282" x2="288.765" y2="0.037"/><line class="cls-116" x1="269.636" y1="69.278" x2="291.285" y2="0.04"/><line class="cls-117" x1="272.785" y1="69.275" x2="293.805" y2="0.043"/><line class="cls-118" x1="275.934" y1="69.272" x2="296.325" y2="0.047"/><line class="cls-119" x1="279.083" y1="69.268" x2="298.844" y2="0.05"/><line class="cls-120" x1="282.232" y1="69.265" x2="301.364" y2="0.053"/><line class="cls-121" x1="285.381" y1="69.262" x2="303.884" y2="0.057"/><line class="cls-122" x1="288.53" y1="69.259" x2="306.404" y2="0.06"/><line class="cls-123" x1="291.679" y1="69.255" x2="308.924" y2="0.063"/><line class="cls-124" x1="294.828" y1="69.252" x2="311.444" y2="0.066"/><line class="cls-125" x1="297.977" y1="69.249" x2="313.964" y2="0.07"/><line class="cls-126" x1="301.126" y1="69.245" x2="316.483" y2="0.073"/><line class="cls-127" x1="304.275" y1="69.242" x2="319.003" y2="0.076"/><line class="cls-128" x1="307.424" y1="69.239" x2="321.523" y2="0.08"/><line class="cls-129" x1="310.573" y1="69.235" x2="324.043" y2="0.083"/><line class="cls-130" x1="313.722" y1="69.232" x2="326.563" y2="0.086"/><line class="cls-131" x1="316.871" y1="69.229" x2="329.083" y2="0.09"/><line class="cls-132" x1="320.02" y1="69.225" x2="331.603" y2="0.093"/><line class="cls-133" x1="323.169" y1="69.222" x2="334.123" y2="0.096"/><line class="cls-134" x1="326.318" y1="69.219" x2="336.642" y2="0.1"/><line class="cls-135" x1="329.467" y1="69.215" x2="339.162" y2="0.103"/><line class="cls-136" x1="332.616" y1="69.212" x2="341.682" y2="0.106"/><line class="cls-137" x1="335.765" y1="69.209" x2="344.202" y2="0.11"/><line class="cls-138" x1="338.914" y1="69.206" x2="346.722" y2="0.113"/><line class="cls-139" x1="342.063" y1="69.202" x2="349.242" y2="0.116"/><line class="cls-140" x1="345.212" y1="69.199" x2="351.762" y2="0.119"/><line class="cls-141" x1="348.361" y1="69.196" x2="354.281" y2="0.123"/><line class="cls-142" x1="351.51" y1="69.192" x2="356.801" y2="0.126"/><line class="cls-143" x1="354.659" y1="69.189" x2="359.321" y2="0.129"/><line class="cls-144" x1="357.808" y1="69.186" x2="361.841" y2="0.133"/><line class="cls-145" x1="360.957" y1="69.182" x2="364.361" y2="0.136"/><line class="cls-146" x1="364.106" y1="69.179" x2="366.881" y2="0.139"/><line class="cls-147" x1="367.255" y1="69.176" x2="369.401" y2="0.143"/><line class="cls-148" x1="370.404" y1="69.172" x2="371.921" y2="0.146"/><line class="cls-149" x1="373.553" y1="69.169" x2="374.44" y2="0.149"/><line class="cls-150" x1="376.702" y1="69.166" x2="376.96" y2="0.153"/><line class="cls-151" x1="379.851" y1="69.162" x2="379.48" y2="0.156"/><line class="cls-152" x1="383" y1="69.159" x2="382" y2="0.159"/><path class="cls-153" d="M69,34.659V19.219c0-6.014,4.618-10.89,10.315-10.89h221.37c5.7,0,10.315,4.876,10.315,10.89v2.9"/><polygon class="cls-154" points="303.223 16.225 311 19.529 318.777 16.225 311 34.659 303.223 16.225"/><path class="cls-155" d="M4.606,83.038h1.86v19.729H4.606Z"/><path class="cls-155" d="M9.856,88.548h1.8v2.433H11.7a4.6,4.6,0,0,1,1.723-1.92A5.207,5.207,0,0,1,16.31,88.3,4.8,4.8,0,0,1,20,89.724a5.548,5.548,0,0,1,1.326,3.937v9.106H19.522v-8.8a4.312,4.312,0,0,0-.957-3.022A3.588,3.588,0,0,0,15.79,89.9a4.125,4.125,0,0,0-2.174.561,3.824,3.824,0,0,0-1.442,1.552,5,5,0,0,0-.513,2.331v8.422h-1.8Z"/><path class="cls-155" d="M25.982,102.158a3.724,3.724,0,0,1-.868-2.727V90.065H23.022V88.548h2.092V84.706h1.86v3.842h2.8v1.517h-2.8V99.4a2.184,2.184,0,0,0,.5,1.641,2.124,2.124,0,0,0,1.5.465c.155,0,.3-.007.444-.021l.362-.034v1.463c-.136.027-.312.053-.526.075a6.078,6.078,0,0,1-.649.034A3.559,3.559,0,0,1,25.982,102.158Z"/><path class="cls-155" d="M34.124,102.131a5.882,5.882,0,0,1-2.235-2.543A8.939,8.939,0,0,1,31.1,95.7v-.013a9.039,9.039,0,0,1,.786-3.9,6.254,6.254,0,0,1,8.818-2.618,5.815,5.815,0,0,1,2.147,2.481,8.638,8.638,0,0,1,.758,3.733V96.1H32.005V94.659H42.737l-.916,1.3v-.684a6.852,6.852,0,0,0-.567-2.946A4.16,4.16,0,0,0,39.7,90.517,4.286,4.286,0,0,0,33.5,92.369a6.654,6.654,0,0,0-.581,2.905v.684a6.8,6.8,0,0,0,.581,2.953,4.264,4.264,0,0,0,1.634,1.86,4.655,4.655,0,0,0,2.474.642,5.073,5.073,0,0,0,1.86-.321,3.664,3.664,0,0,0,1.367-.909,3.418,3.418,0,0,0,.779-1.368l.041-.123h1.778l-.028.137a4.974,4.974,0,0,1-.69,1.675,5.123,5.123,0,0,1-1.265,1.34,5.85,5.85,0,0,1-1.75.875,7.118,7.118,0,0,1-2.133.307A6.421,6.421,0,0,1,34.124,102.131Z"/><path class="cls-155" d="M46.032,88.548h1.805V91.1h.041A4.065,4.065,0,0,1,49.17,89.04a3.352,3.352,0,0,1,2.208-.752,3.717,3.717,0,0,1,.656.055,3.594,3.594,0,0,1,.465.109v1.764a2.251,2.251,0,0,0-.533-.144,4.957,4.957,0,0,0-.834-.061A3.031,3.031,0,0,0,48.24,91.87a5.025,5.025,0,0,0-.4,2.092v8.8H46.032Z"/><path class="cls-155" d="M55.4,90.065H53.415V88.548H55.4V86.524a3.834,3.834,0,0,1,.923-2.836,3.691,3.691,0,0,1,2.7-.91c.246,0,.487.012.724.034s.433.048.588.076v1.476a3.555,3.555,0,0,0-.485-.054c-.178-.009-.358-.014-.54-.014a2.168,2.168,0,0,0-1.579.54,2.327,2.327,0,0,0-.554,1.729v1.983h3.076v1.517H57.2v12.7H55.4Z"/><path class="cls-155" d="M63.341,102.5a3.991,3.991,0,0,1-1.661-1.477,4.043,4.043,0,0,1-.595-2.194V98.8a3.488,3.488,0,0,1,1.326-2.878,6.59,6.59,0,0,1,3.774-1.21l5.332-.342V95.78l-5.114.342a4.8,4.8,0,0,0-2.577.814,2.22,2.22,0,0,0-.909,1.866v.027a2.3,2.3,0,0,0,.9,1.894,3.646,3.646,0,0,0,2.338.717,4.8,4.8,0,0,0,2.263-.526,4.192,4.192,0,0,0,1.6-1.442,3.689,3.689,0,0,0,.594-2.051V93.2a3.172,3.172,0,0,0-.923-2.42A3.617,3.617,0,0,0,67.1,89.9a4.241,4.241,0,0,0-2.523.7,2.934,2.934,0,0,0-1.21,1.914l-.027.136H61.6l.014-.164a4.4,4.4,0,0,1,.834-2.173,4.712,4.712,0,0,1,1.887-1.484,6.7,6.7,0,0,1,2.789-.54,6.306,6.306,0,0,1,2.81.581,4.333,4.333,0,0,1,1.832,1.648,4.749,4.749,0,0,1,.649,2.515v9.735h-1.8v-2.612h-.041a4.363,4.363,0,0,1-1.107,1.5,5.4,5.4,0,0,1-1.668,1,5.866,5.866,0,0,1-4.457-.164Z"/><path class="cls-155" d="M77.785,102.117a5.993,5.993,0,0,1-2.249-2.563,8.96,8.96,0,0,1-.793-3.91V95.63a8.824,8.824,0,0,1,.8-3.89A6.005,6.005,0,0,1,77.8,89.19a6.3,6.3,0,0,1,3.384-.9,6.216,6.216,0,0,1,2.9.643,5.519,5.519,0,0,1,1.982,1.681,5.233,5.233,0,0,1,.937,2.27l.014.123H85.257l-.028-.123A3.909,3.909,0,0,0,83.9,90.77a4.066,4.066,0,0,0-2.713-.869,4.179,4.179,0,0,0-2.413.7,4.61,4.61,0,0,0-1.607,2,7.469,7.469,0,0,0-.574,3.055v.014a7.5,7.5,0,0,0,.574,3.076,4.489,4.489,0,0,0,1.62,1.976,4.3,4.3,0,0,0,2.427.69,4.129,4.129,0,0,0,2.645-.827,3.841,3.841,0,0,0,1.374-2.153l.028-.123h1.777l-.027.109a5.164,5.164,0,0,1-.991,2.365A5.548,5.548,0,0,1,84,102.425a6.846,6.846,0,0,1-6.214-.308Z"/><path class="cls-155" d="M91.6,102.131a5.877,5.877,0,0,1-2.236-2.543,8.953,8.953,0,0,1-.786-3.89v-.013a9.054,9.054,0,0,1,.786-3.9,6.255,6.255,0,0,1,8.819-2.618,5.82,5.82,0,0,1,2.146,2.481,8.624,8.624,0,0,1,.759,3.733V96.1H89.481V94.659h10.733l-.916,1.3v-.684a6.851,6.851,0,0,0-.568-2.946,4.152,4.152,0,0,0-1.558-1.811,4.245,4.245,0,0,0-2.29-.616,4.141,4.141,0,0,0-3.9,2.468,6.654,6.654,0,0,0-.582,2.905v.684a6.8,6.8,0,0,0,.582,2.953,4.262,4.262,0,0,0,1.633,1.86,4.661,4.661,0,0,0,2.475.642,5.072,5.072,0,0,0,1.859-.321,3.656,3.656,0,0,0,1.367-.909,3.409,3.409,0,0,0,.78-1.368l.041-.123h1.777l-.027.137a4.956,4.956,0,0,1-.691,1.675,5.119,5.119,0,0,1-1.264,1.34,5.85,5.85,0,0,1-1.75.875,7.122,7.122,0,0,1-2.133.307A6.419,6.419,0,0,1,91.6,102.131Z"/><path class="cls-156" d="M109.524,83.038h1.682v24.514h-1.682Z"/><path class="cls-155" d="M124.017,101.816a8.327,8.327,0,0,1-3.1-3.547,12.325,12.325,0,0,1-1.094-5.373v-.014a12.307,12.307,0,0,1,1.094-5.38,8.26,8.26,0,0,1,3.1-3.527,8.729,8.729,0,0,1,4.723-1.251,8.392,8.392,0,0,1,3.678.786,7.471,7.471,0,0,1,2.721,2.18,7.664,7.664,0,0,1,1.449,3.241l.027.136h-1.873l-.068-.246a6.32,6.32,0,0,0-1.189-2.317,5.513,5.513,0,0,0-2-1.518,7.184,7.184,0,0,0-6.454.5,6.761,6.761,0,0,0-2.44,2.933,10.705,10.705,0,0,0-.861,4.464V92.9a10.637,10.637,0,0,0,.868,4.457,6.9,6.9,0,0,0,2.447,2.953,7.067,7.067,0,0,0,6.419.512,5.554,5.554,0,0,0,2.017-1.545,6.517,6.517,0,0,0,1.223-2.413l.041-.123h1.873l-.027.137a7.672,7.672,0,0,1-1.449,3.254,7.422,7.422,0,0,1-2.714,2.174,8.459,8.459,0,0,1-3.685.779A8.667,8.667,0,0,1,124.017,101.816Z"/><path class="cls-155" d="M141.435,102.117a6.012,6.012,0,0,1-2.277-2.55,8.771,8.771,0,0,1-.813-3.91V95.63a8.728,8.728,0,0,1,.813-3.9,6.016,6.016,0,0,1,2.277-2.543,6.85,6.85,0,0,1,6.774,0,6.091,6.091,0,0,1,2.276,2.536,8.65,8.65,0,0,1,.821,3.91v.027a8.7,8.7,0,0,1-.821,3.917,6.154,6.154,0,0,1-2.269,2.55,6.279,6.279,0,0,1-3.391.9A6.441,6.441,0,0,1,141.435,102.117Zm5.837-1.388a4.45,4.45,0,0,0,1.614-1.982,7.6,7.6,0,0,0,.574-3.09V95.63a7.536,7.536,0,0,0-.574-3.09,4.228,4.228,0,0,0-4.074-2.639,4.3,4.3,0,0,0-2.42.684,4.509,4.509,0,0,0-1.621,1.969,7.428,7.428,0,0,0-.581,3.076v.027a7.526,7.526,0,0,0,.581,3.09,4.5,4.5,0,0,0,1.621,1.982,4.694,4.694,0,0,0,4.88,0Z"/><path class="cls-155" d="M153.712,88.548h1.805v2.433h.041a4.594,4.594,0,0,1,1.722-1.92,5.21,5.21,0,0,1,2.885-.759,4.8,4.8,0,0,1,3.691,1.422,5.548,5.548,0,0,1,1.327,3.937v9.106h-1.805v-8.8a4.312,4.312,0,0,0-.957-3.022,3.589,3.589,0,0,0-2.775-1.039,4.123,4.123,0,0,0-2.174.561,3.826,3.826,0,0,0-1.443,1.552,5.017,5.017,0,0,0-.512,2.331v8.422h-1.805Z"/><path class="cls-155" d="M166.878,88.548h1.9L173.1,100.88h.054l4.334-12.332h1.873l-5.277,14.219h-1.914Z"/><path class="cls-155" d="M183.024,102.131a5.888,5.888,0,0,1-2.235-2.543A8.953,8.953,0,0,1,180,95.7v-.013a9.054,9.054,0,0,1,.786-3.9,5.841,5.841,0,0,1,5.53-3.5,6,6,0,0,1,3.288.882,5.815,5.815,0,0,1,2.147,2.481,8.624,8.624,0,0,1,.759,3.733V96.1H180.905V94.659h10.733l-.916,1.3v-.684a6.851,6.851,0,0,0-.568-2.946,4.152,4.152,0,0,0-1.558-1.811,4.245,4.245,0,0,0-2.29-.616,4.143,4.143,0,0,0-3.9,2.468,6.669,6.669,0,0,0-.581,2.905v.684a6.817,6.817,0,0,0,.581,2.953,4.27,4.27,0,0,0,1.634,1.86,4.658,4.658,0,0,0,2.475.642,5.072,5.072,0,0,0,1.859-.321,3.656,3.656,0,0,0,1.367-.909,3.42,3.42,0,0,0,.78-1.368l.041-.123h1.777l-.027.137a4.956,4.956,0,0,1-.691,1.675,5.119,5.119,0,0,1-1.264,1.34,5.85,5.85,0,0,1-1.75.875,7.127,7.127,0,0,1-2.133.307A6.425,6.425,0,0,1,183.024,102.131Z"/><path class="cls-155" d="M194.933,88.548h1.8V91.1h.041a4.072,4.072,0,0,1,1.292-2.064,3.354,3.354,0,0,1,2.208-.752,3.721,3.721,0,0,1,.657.055,3.572,3.572,0,0,1,.464.109v1.764a2.223,2.223,0,0,0-.533-.144,4.949,4.949,0,0,0-.834-.061,3.029,3.029,0,0,0-2.891,1.859,5.024,5.024,0,0,0-.4,2.092v8.8h-1.8Z"/><path class="cls-155" d="M205.33,102.486a4.767,4.767,0,0,1-1.907-1.49,4.406,4.406,0,0,1-.848-2.208l-.013-.123h1.791l.027.123a3.039,3.039,0,0,0,1.189,1.976,4.172,4.172,0,0,0,2.571.731,5.257,5.257,0,0,0,1.88-.3,2.681,2.681,0,0,0,1.216-.868,2.1,2.1,0,0,0,.431-1.3v-.014a1.943,1.943,0,0,0-.574-1.477,4.46,4.46,0,0,0-2.01-.888l-2.146-.506a6.507,6.507,0,0,1-2.988-1.4,3.134,3.134,0,0,1-.977-2.385v-.014a3.52,3.52,0,0,1,.649-2.1,4.362,4.362,0,0,1,1.791-1.428,6.249,6.249,0,0,1,2.618-.52,6.067,6.067,0,0,1,2.646.54,4.515,4.515,0,0,1,1.791,1.49,4.329,4.329,0,0,1,.759,2.181l.013.15h-1.722l-.014-.095a2.976,2.976,0,0,0-1.073-1.99,3.669,3.669,0,0,0-2.4-.745,4.313,4.313,0,0,0-1.695.308,2.579,2.579,0,0,0-1.121.861,2.135,2.135,0,0,0-.4,1.279v.013a1.821,1.821,0,0,0,.616,1.408,4.666,4.666,0,0,0,2.023.9l2.133.506a6.348,6.348,0,0,1,3.028,1.4,3.226,3.226,0,0,1,.9,2.386V98.9a3.481,3.481,0,0,1-.7,2.147,4.622,4.622,0,0,1-1.907,1.456,6.874,6.874,0,0,1-2.768.526A6.764,6.764,0,0,1,205.33,102.486Z"/><path class="cls-155" d="M216.131,85.629a1.162,1.162,0,0,1-.349-.855,1.192,1.192,0,0,1,1.19-1.189,1.159,1.159,0,0,1,.854.349,1.142,1.142,0,0,1,.349.84,1.192,1.192,0,0,1-1.2,1.2A1.148,1.148,0,0,1,216.131,85.629Zm-.062,2.919h1.805v14.219h-1.805Z"/><path class="cls-155" d="M223.507,102.117a6.012,6.012,0,0,1-2.277-2.55,8.771,8.771,0,0,1-.813-3.91V95.63a8.728,8.728,0,0,1,.813-3.9,6.016,6.016,0,0,1,2.277-2.543,6.85,6.85,0,0,1,6.774,0,6.093,6.093,0,0,1,2.277,2.536,8.663,8.663,0,0,1,.82,3.91v.027a8.709,8.709,0,0,1-.82,3.917,6.156,6.156,0,0,1-2.27,2.55,6.279,6.279,0,0,1-3.391.9A6.441,6.441,0,0,1,223.507,102.117Zm5.838-1.388a4.455,4.455,0,0,0,1.613-1.982,7.6,7.6,0,0,0,.574-3.09V95.63a7.536,7.536,0,0,0-.574-3.09,4.228,4.228,0,0,0-4.074-2.639,4.3,4.3,0,0,0-2.42.684,4.5,4.5,0,0,0-1.62,1.969,7.412,7.412,0,0,0-.581,3.076v.027a7.51,7.51,0,0,0,.581,3.09,4.488,4.488,0,0,0,1.62,1.982,4.7,4.7,0,0,0,4.881,0Z"/><path class="cls-155" d="M235.784,88.548h1.805v2.433h.041a4.59,4.59,0,0,1,1.723-1.92,5.208,5.208,0,0,1,2.884-.759,4.8,4.8,0,0,1,3.692,1.422,5.552,5.552,0,0,1,1.326,3.937v9.106H245.45v-8.8a4.312,4.312,0,0,0-.957-3.022,3.588,3.588,0,0,0-2.775-1.039,4.128,4.128,0,0,0-2.174.561,3.817,3.817,0,0,0-1.442,1.552,5,5,0,0,0-.513,2.331v8.422h-1.805Z"/><path class="cls-156" d="M256.306,83.038h1.681v24.514h-1.681Z"/><path class="cls-155" d="M266.724,101.413,278.6,84.774V84.72H267.12V83.038h13.822v1.354L269.1,101.03v.055h11.99v1.682H266.724Z"/><path class="cls-155" d="M284.046,83.038h1.805v8.108h.041a4.47,4.47,0,0,1,1.75-2.072,5.255,5.255,0,0,1,2.9-.772,5.078,5.078,0,0,1,2.7.7A4.722,4.722,0,0,1,295.031,91a6.739,6.739,0,0,1,.636,3.022v8.75h-1.791V94.3a4.662,4.662,0,0,0-1.046-3.254,3.7,3.7,0,0,0-2.878-1.149,4,4,0,0,0-2.146.575,3.892,3.892,0,0,0-1.443,1.579,5.059,5.059,0,0,0-.512,2.331v8.381h-1.805Z"/><path class="cls-155" d="M301.026,102.131a5.888,5.888,0,0,1-2.235-2.543,8.953,8.953,0,0,1-.786-3.89v-.013a9.054,9.054,0,0,1,.786-3.9,5.841,5.841,0,0,1,5.53-3.5,6,6,0,0,1,3.288.882,5.815,5.815,0,0,1,2.147,2.481,8.624,8.624,0,0,1,.759,3.733V96.1H298.907V94.659H309.64l-.916,1.3v-.684a6.851,6.851,0,0,0-.568-2.946,4.152,4.152,0,0,0-1.558-1.811,4.245,4.245,0,0,0-2.29-.616,4.143,4.143,0,0,0-3.9,2.468,6.669,6.669,0,0,0-.581,2.905v.684a6.817,6.817,0,0,0,.581,2.953,4.27,4.27,0,0,0,1.634,1.86,4.658,4.658,0,0,0,2.475.642,5.072,5.072,0,0,0,1.859-.321,3.656,3.656,0,0,0,1.367-.909,3.42,3.42,0,0,0,.78-1.368l.041-.123h1.777l-.027.137a4.956,4.956,0,0,1-.691,1.675,5.107,5.107,0,0,1-1.265,1.34,5.827,5.827,0,0,1-1.75.875,7.116,7.116,0,0,1-2.132.307A6.425,6.425,0,0,1,301.026,102.131Z"/><path class="cls-155" d="M312.935,88.548h1.8v2.433h.041a4.6,4.6,0,0,1,1.723-1.92,5.21,5.21,0,0,1,2.885-.759,4.8,4.8,0,0,1,3.691,1.422,5.548,5.548,0,0,1,1.326,3.937v9.106h-1.8v-8.8a4.316,4.316,0,0,0-.957-3.022,3.59,3.59,0,0,0-2.776-1.039,4.128,4.128,0,0,0-2.174.561,3.824,3.824,0,0,0-1.442,1.552,5,5,0,0,0-.513,2.331v8.422h-1.8Z"/><path class="cls-155" d="M330.421,107.326a5.433,5.433,0,0,1-2.017-1.3,4.048,4.048,0,0,1-1.018-1.833l-.028-.109h1.819l.054.123a2.94,2.94,0,0,0,1.415,1.429,5.662,5.662,0,0,0,2.687.567,4.476,4.476,0,0,0,3.179-1.066,3.761,3.761,0,0,0,1.141-2.885V99.731H337.6a4.893,4.893,0,0,1-1.074,1.662,5.145,5.145,0,0,1-1.661,1.128,5.294,5.294,0,0,1-2.1.41,5.534,5.534,0,0,1-3.152-.91,6.013,6.013,0,0,1-2.119-2.556,9.155,9.155,0,0,1-.759-3.862v-.014a8.934,8.934,0,0,1,.773-3.842,6.119,6.119,0,0,1,2.133-2.55,5.538,5.538,0,0,1,3.151-.909,4.98,4.98,0,0,1,2.092.431,5.211,5.211,0,0,1,1.641,1.169,5.372,5.372,0,0,1,1.08,1.681h.054V88.548h1.791v13.863a5.368,5.368,0,0,1-.738,2.851,4.956,4.956,0,0,1-2.105,1.88,7.338,7.338,0,0,1-3.254.67A8.043,8.043,0,0,1,330.421,107.326Zm5.058-6.726a4.74,4.74,0,0,0,1.6-2,7.279,7.279,0,0,0,.574-2.994v-.014a7.226,7.226,0,0,0-.574-2.987,4.688,4.688,0,0,0-1.6-1.99,4.052,4.052,0,0,0-2.365-.711,4.124,4.124,0,0,0-2.392.7,4.551,4.551,0,0,0-1.586,1.983,7.416,7.416,0,0,0-.561,3V95.6a7.5,7.5,0,0,0,.561,3.021,4.546,4.546,0,0,0,1.586,1.989,4.116,4.116,0,0,0,2.392.7A4.021,4.021,0,0,0,335.479,100.6Z"/><path class="cls-155" d="M348.413,83.038h1.805v19.729h-1.805Z"/><path class="cls-155" d="M355.208,102.5a3.991,3.991,0,0,1-1.661-1.477,4.043,4.043,0,0,1-.6-2.194V98.8a3.491,3.491,0,0,1,1.326-2.878,6.59,6.59,0,0,1,3.774-1.21l5.332-.342V95.78l-5.113.342a4.8,4.8,0,0,0-2.578.814,2.22,2.22,0,0,0-.909,1.866v.027a2.3,2.3,0,0,0,.9,1.894,3.641,3.641,0,0,0,2.337.717,4.8,4.8,0,0,0,2.263-.526,4.192,4.192,0,0,0,1.6-1.442,3.689,3.689,0,0,0,.594-2.051V93.2a3.175,3.175,0,0,0-.922-2.42,3.62,3.62,0,0,0-2.591-.875,4.245,4.245,0,0,0-2.523.7,2.941,2.941,0,0,0-1.21,1.914l-.027.136h-1.736l.013-.164a4.4,4.4,0,0,1,.834-2.173,4.712,4.712,0,0,1,1.887-1.484,6.7,6.7,0,0,1,2.789-.54,6.3,6.3,0,0,1,2.81.581,4.327,4.327,0,0,1,1.832,1.648,4.749,4.749,0,0,1,.649,2.515v9.735h-1.805v-2.612h-.041a4.35,4.35,0,0,1-1.107,1.5,5.391,5.391,0,0,1-1.668,1,5.866,5.866,0,0,1-4.457-.164Z"/><path class="cls-155" d="M371.19,102.145a5.337,5.337,0,0,1-1.9-2.386h-.041v3.008h-1.805V83.038h1.805v8.49h.041A5.224,5.224,0,0,1,371.2,89.17a5.15,5.15,0,0,1,2.974-.882,5.428,5.428,0,0,1,3.124.916,6.092,6.092,0,0,1,2.1,2.564,9.186,9.186,0,0,1,.759,3.876v.013a9.323,9.323,0,0,1-.752,3.876,6.012,6.012,0,0,1-2.1,2.577,5.5,5.5,0,0,1-3.158.916A5.06,5.06,0,0,1,371.19,102.145Zm5.011-1.436a4.511,4.511,0,0,0,1.572-2,7.716,7.716,0,0,0,.554-3.049v-.013a7.663,7.663,0,0,0-.554-3.042,4.516,4.516,0,0,0-1.572-2,4.093,4.093,0,0,0-2.386-.7,4.026,4.026,0,0,0-2.365.718,4.876,4.876,0,0,0-1.62,2.017,7.164,7.164,0,0,0-.595,3.008v.013a7.29,7.29,0,0,0,.588,3.015,4.787,4.787,0,0,0,1.62,2.023,4.031,4.031,0,0,0,2.359.718A4.108,4.108,0,0,0,376.2,100.709Z"/><path class="cls-154" d="M-.133,22.938H30.676v8.024H9.6v11.15H29.483V49.75H9.6V61.416H30.676V69.44H-.133Z"/><path class="cls-154" d="M37.121,22.938h9.41v46.5h-9.41Z"/><path class="cls-154" d="M84.69,51.489a19.527,19.527,0,0,0-2.02-9.12,14.516,14.516,0,0,0-5.7-6.04,17.117,17.117,0,0,0-8.75-2.14,16.909,16.909,0,0,0-8.78,2.2,15.154,15.154,0,0,0-5.79,6.25,20.891,20.891,0,0,0-2.06,9.56v.03a20.717,20.717,0,0,0,2.06,9.54,14.6,14.6,0,0,0,5.87,6.2,17.887,17.887,0,0,0,9.09,2.18,19.386,19.386,0,0,0,6.46-.97,14.854,14.854,0,0,0,4.67-2.57,13.832,13.832,0,0,0,3.05-3.55,12.766,12.766,0,0,0,1.51-3.83l.1-.36H75.76l-.06.19a5.25,5.25,0,0,1-1.23,1.91,6.915,6.915,0,0,1-2.32,1.54,8.351,8.351,0,0,1-3.35.61,7.864,7.864,0,0,1-4.22-1.08,7.019,7.019,0,0,1-2.73-3.1,11.156,11.156,0,0,1-.94-4.52H84.69Zm-23.68-3.03a10.682,10.682,0,0,1,.84-3.08,7.35,7.35,0,0,1,10.38-3.14,6.865,6.865,0,0,1,2.6,3.08,10.533,10.533,0,0,1,.82,3.14Z"/><path class="cls-154" d="M96.225,67.958a14.793,14.793,0,0,1-5.914-6.236,20.72,20.72,0,0,1-2.079-9.587V52.1a20.384,20.384,0,0,1,2.095-9.555,14.87,14.87,0,0,1,5.914-6.188,19.7,19.7,0,0,1,17.128-.42,13.706,13.706,0,0,1,5.4,4.754,13.4,13.4,0,0,1,2.143,6.736v.225h-8.765l-.033-.29a7.364,7.364,0,0,0-2.127-4.125,6.345,6.345,0,0,0-4.64-1.676,6.437,6.437,0,0,0-3.98,1.273,8.072,8.072,0,0,0-2.611,3.642,15.648,15.648,0,0,0-.918,5.656v.032a15.95,15.95,0,0,0,.918,5.752,7.839,7.839,0,0,0,2.611,3.609,6.593,6.593,0,0,0,4.012,1.242,6.455,6.455,0,0,0,4.56-1.6,7.221,7.221,0,0,0,2.175-4.206l.065-.29h8.765v.193a13.6,13.6,0,0,1-2.191,6.768,13.859,13.859,0,0,1-5.4,4.754,17.451,17.451,0,0,1-8.041,1.755A18.011,18.011,0,0,1,96.225,67.958Z"/><path class="cls-154" d="M130.707,67.732q-2.772-2.417-2.771-7.96V41.983h-4.8V34.894h4.8V26.45h9.506v8.444h6.317v7.089h-6.317V58.741a4.328,4.328,0,0,0,1.08,3.367,4.72,4.72,0,0,0,3.207.952,11.228,11.228,0,0,0,1.127-.049c.323-.032.623-.069.9-.113v6.9q-.774.127-1.918.241t-2.626.113Q133.479,70.149,130.707,67.732Z"/><path class="cls-154" d="M148.947,34.894h9.41V40.92h.194a9.266,9.266,0,0,1,2.8-4.963,7.423,7.423,0,0,1,5.06-1.772,11.029,11.029,0,0,1,1.482.1,7.693,7.693,0,0,1,1.225.258v8.315a6.133,6.133,0,0,0-1.482-.4,12.284,12.284,0,0,0-1.934-.144,8.122,8.122,0,0,0-3.964.9,5.987,5.987,0,0,0-2.513,2.643,9.427,9.427,0,0,0-.871,4.253V69.44h-9.41Z"/><path class="cls-154" d="M178.6,68.007a14.7,14.7,0,0,1-5.946-6.188,20.614,20.614,0,0,1-2.111-9.652V52.1a20.086,20.086,0,0,1,2.143-9.588,15.051,15.051,0,0,1,5.978-6.171,18.031,18.031,0,0,1,8.991-2.159,18.3,18.3,0,0,1,9.04,2.142,14.825,14.825,0,0,1,5.978,6.156A20.283,20.283,0,0,1,204.8,52.1v.064a20.6,20.6,0,0,1-2.11,9.668,14.731,14.731,0,0,1-5.947,6.172,20.28,20.28,0,0,1-18.143,0Zm13.084-6.479a7.883,7.883,0,0,0,2.594-3.609,15.928,15.928,0,0,0,.918-5.752V52.1a15.5,15.5,0,0,0-.934-5.688,7.933,7.933,0,0,0-2.626-3.609,6.551,6.551,0,0,0-3.981-1.242,6.437,6.437,0,0,0-3.947,1.257,8.063,8.063,0,0,0-2.627,3.61,15.37,15.37,0,0,0-.934,5.672v.064a15.95,15.95,0,0,0,.918,5.752,7.779,7.779,0,0,0,2.626,3.609,6.668,6.668,0,0,0,4.029,1.242A6.475,6.475,0,0,0,191.68,61.528Z"/><path class="cls-154" d="M219.347,67.346a19.457,19.457,0,0,1-7.687-8.283,28.391,28.391,0,0,1-2.707-12.89v-.032a28.289,28.289,0,0,1,2.707-12.874,19.35,19.35,0,0,1,7.687-8.25,23.088,23.088,0,0,1,11.778-2.885,22.32,22.32,0,0,1,10.055,2.191,18.5,18.5,0,0,1,7.09,6.027,17.893,17.893,0,0,1,3.126,8.765l.032.323h-9.507l-.129-.548a11.332,11.332,0,0,0-1.966-4.48,9.727,9.727,0,0,0-3.609-2.965,11.532,11.532,0,0,0-5.092-1.063,11.007,11.007,0,0,0-6.478,1.918,12.329,12.329,0,0,0-4.237,5.429,21.277,21.277,0,0,0-1.5,8.379v.033a21.731,21.731,0,0,0,1.5,8.46,12.258,12.258,0,0,0,4.254,5.478A11.035,11.035,0,0,0,231.125,62a11.591,11.591,0,0,0,5-1.031,9.787,9.787,0,0,0,3.674-2.982,11.945,11.945,0,0,0,2.095-4.72l.064-.323h9.507l-.032.355a17.815,17.815,0,0,1-3.142,8.766,18.493,18.493,0,0,1-7.106,6.01,22.461,22.461,0,0,1-10.055,2.175A22.994,22.994,0,0,1,219.347,67.346Z"/><path class="cls-154" d="M256.874,22.938h9.41V40.855h.194a10.537,10.537,0,0,1,4.044-4.946,11.908,11.908,0,0,1,6.558-1.724,12.142,12.142,0,0,1,6.478,1.66,10.96,10.96,0,0,1,4.173,4.688,16.421,16.421,0,0,1,1.466,7.219V69.44h-9.442V49.686a8.568,8.568,0,0,0-1.708-5.656,6.058,6.058,0,0,0-4.931-2.047,6.513,6.513,0,0,0-3.593.983,6.645,6.645,0,0,0-2.384,2.707,8.849,8.849,0,0,0-.855,3.98V69.44h-9.41Z"/><path class="cls-154" d="M327.03,51.489a19.648,19.648,0,0,0-2.01-9.12,14.6,14.6,0,0,0-5.71-6.04,17.091,17.091,0,0,0-8.75-2.14,16.909,16.909,0,0,0-8.78,2.2,15.066,15.066,0,0,0-5.78,6.25,20.764,20.764,0,0,0-2.07,9.56v.03a20.592,20.592,0,0,0,2.07,9.54,14.574,14.574,0,0,0,5.86,6.2,17.939,17.939,0,0,0,9.09,2.18,19.345,19.345,0,0,0,6.46-.97,14.635,14.635,0,0,0,4.67-2.57,13.639,13.639,0,0,0,3.05-3.55,12.507,12.507,0,0,0,1.51-3.83l.1-.36H318.1l-.06.19a5.088,5.088,0,0,1-1.22,1.91,7.123,7.123,0,0,1-2.32,1.54,8.435,8.435,0,0,1-3.36.61,7.864,7.864,0,0,1-4.22-1.08,6.939,6.939,0,0,1-2.72-3.1,11.156,11.156,0,0,1-.94-4.52h23.77Zm-23.67-3.03a10.682,10.682,0,0,1,.84-3.08,7.062,7.062,0,0,1,2.64-3.11,7.214,7.214,0,0,1,3.88-1.06,7.14,7.14,0,0,1,3.86,1.03,6.847,6.847,0,0,1,2.59,3.08,10.533,10.533,0,0,1,.82,3.14Z"/><path class="cls-154" d="M331.865,34.894h9.41v5.8h.194a9.536,9.536,0,0,1,3.626-4.737,10.356,10.356,0,0,1,6.042-1.772,10.845,10.845,0,0,1,4.35.837,8.851,8.851,0,0,1,3.272,2.417,9.216,9.216,0,0,1,1.885,3.868h.193a10.15,10.15,0,0,1,2.337-3.786,10.791,10.791,0,0,1,3.706-2.466,12.348,12.348,0,0,1,4.688-.87,11.771,11.771,0,0,1,5.93,1.45,10.157,10.157,0,0,1,3.964,4.06,12.646,12.646,0,0,1,1.418,6.123V69.44h-9.41V48.2a6.662,6.662,0,0,0-1.45-4.608,5.349,5.349,0,0,0-4.19-1.612,5.8,5.8,0,0,0-3.109.823,5.583,5.583,0,0,0-2.079,2.271,7.331,7.331,0,0,0-.742,3.384V69.44h-9.055V47.913a6.092,6.092,0,0,0-1.483-4.367,5.372,5.372,0,0,0-4.092-1.563,5.743,5.743,0,0,0-3.126.854,5.851,5.851,0,0,0-2.111,2.337,7.4,7.4,0,0,0-.758,3.416V69.44h-9.41Z"/></svg>