<svg id="Layer_1" data-name="Layer 1" xmlns="http://www.w3.org/2000/svg" viewBox="0 0 418.95 120.27"><defs><style>.cls-1{fill:#2e2014;}</style></defs><path class="cls-1" d="M85.84,81.2a3.52,3.52,0,0,0-6.83.53l-2.88.93a3.09,3.09,0,0,0-.66-.48V79.66a5.18,5.18,0,0,0,3.58-5v-.25a4.15,4.15,0,0,0-.23-1.61c-.7-2.21-2.9-4.65-4.16-5.9A1.11,1.11,0,0,0,73,67c-.34.38-3.37,3.76-4.13,5.86a4.25,4.25,0,0,0-.34,1.82v0a5.15,5.15,0,0,0,3.68,5v2.57a3.27,3.27,0,0,0-.51.39l-3-1a3.53,3.53,0,1,0-1,3.06l3,1a2.45,2.45,0,0,0,.18.56l-1.9,2.61a3.53,3.53,0,1,0,2.61,1.89l1.87-2.57a2.4,2.4,0,0,0,.6,0L76,90.81A3.5,3.5,0,0,0,76.73,95a3.53,3.53,0,0,0,4.51.29,3.52,3.52,0,0,0-2.61-6.33l-1.81-2.49a2.71,2.71,0,0,0,.25-.69L80,84.79a3.52,3.52,0,0,0,5.83-3.59Zm-5.57,2.56-4,1.29a2.77,2.77,0,0,1-.52,1.44l2.48,3.42a2.63,2.63,0,1,1-1.14.83l-2.53-3.48a2.56,2.56,0,0,1-1.41,0l-2.54,3.49a2.64,2.64,0,1,1-1.14-.83L72,86.37A2.86,2.86,0,0,1,71.59,85L67.5,83.71a2.64,2.64,0,1,1,.44-1.35L72,83.69a2.87,2.87,0,0,1,1.15-.89V79a4.37,4.37,0,0,1-3.68-4.3,3.44,3.44,0,0,1,.29-1.57c.64-1.78,3.29-4.83,3.95-5.55a.23.23,0,0,1,.16-.08.18.18,0,0,1,.15.08c.65.64,3.23,3.29,3.94,5.53a4,4,0,0,1,.19,1.59A4.38,4.38,0,0,1,74.56,79v3.77a2.75,2.75,0,0,1,1.31.94l4-1.29a2.64,2.64,0,1,1,.44,1.35Z"/><polygon class="cls-1" points="99.45 89.51 97.89 90.68 96.05 90.05 96.67 91.89 95.51 93.45 97.45 93.43 98.58 95.02 99.16 93.16 101.02 92.58 99.43 91.46 99.45 89.51"/><polygon class="cls-1" points="24.16 90.65 22.65 90.74 21.74 89.37 21.01 90.84 19.36 90.94 20.27 92.31 19.6 93.67 21.1 93.57 22.01 94.94 22.75 93.47 24.39 93.37 23.48 92 24.16 90.65"/><path class="cls-1" d="M82.4,76.41a6.53,6.53,0,0,1,2.83.65c1.69-.53,2.55-2.31,2.74-4.5a5.35,5.35,0,0,0,0-1.06,5.58,5.58,0,0,1,.35,1.79,5.39,5.39,0,0,1-2.13,4.33,6.47,6.47,0,0,1,2,2.23c2-1.79,2.43-3.51,2.43-6.11a8.52,8.52,0,0,0-3.65-7,2.34,2.34,0,0,0,.91,0,2.1,2.1,0,0,0-1.08-4.06,2.14,2.14,0,0,0-1.28,1,1.44,1.44,0,0,1,.4-.18A1.35,1.35,0,1,1,85.53,66a2.58,2.58,0,0,1-1.33-2.28,2.71,2.71,0,0,1,.1-.68,3.69,3.69,0,0,1-3,1.29c-2-.11-2.69-1.18-2.6-2.62A2.64,2.64,0,0,1,79.56,60a2.66,2.66,0,0,1-1-.13,2.39,2.39,0,0,1-.8-.27,2.17,2.17,0,0,1-.88-1,2.63,2.63,0,0,1-.21-.87h0a2.35,2.35,0,0,1,.24-1.22,6.91,6.91,0,0,1,.41-.65,3.53,3.53,0,0,1,.31-.34,4.91,4.91,0,0,1,1.51-.94,3.59,3.59,0,0,1,1.68-.27s.08,0,0-.16a2.5,2.5,0,0,1-1.13-.72A2.22,2.22,0,0,0,79,53c0-1.13.69-2,1.51-2a1.35,1.35,0,0,1,1.1.67A1.69,1.69,0,0,0,80,50.06a1.83,1.83,0,0,0-1.65,2,2,2,0,0,0,.13.71,2,2,0,0,0-1.93.79,8.18,8.18,0,0,0-1.32,2.13h0c-.05.11-.09.23-.14.35l-.17.52a9.63,9.63,0,0,0-.42,2.8c0,.33,0,.81.07,1.13a4.48,4.48,0,0,0,2.71,4,5,5,0,0,0,.77.23h0l.51.09.34,0,.24,0,.51,0h.25a1,1,0,0,1,.72.29,1,1,0,0,1-1.41,1.41l-.09-.12a.6.6,0,0,1-.09-.15,1.69,1.69,0,0,0,.08.5,1.36,1.36,0,0,0,.36.61,1.54,1.54,0,0,0,2.18-2.18,1.43,1.43,0,0,0-.23-.2,5.66,5.66,0,0,1,2.14.92.87.87,0,0,1,.41.37.71.71,0,0,1-.34,1,.72.72,0,0,1-1-.34,1,1,0,0,1-.06-.23,1.11,1.11,0,1,0,2.12.15l.22.24a1.65,1.65,0,1,1-2.81,1.19,1.55,1.55,0,0,1,.09-.53,2.57,2.57,0,1,0,4.36,1.83,1.89,1.89,0,0,0,0-.41,3.48,3.48,0,0,1,.5,2.1c-.15,1.7-.81,3.62-3.16,3.8a5.94,5.94,0,0,0-2,.38c0,.32,0,.63,0,.94Z"/><path class="cls-1" d="M69.29,59.22l0,0a5,5,0,0,0,.44.32,1.37,1.37,0,0,0,.2.13l.35.23c.2.11.41.23.63.33l.4.19a5,5,0,0,0,.87.26,1,1,0,0,1,.69.93.93.93,0,0,1-1,.91.91.91,0,0,1-.59-.25,1.23,1.23,0,0,0,0,.39,1.75,1.75,0,0,0,1.78,1.72,1.82,1.82,0,0,0,1.66-1,6.4,6.4,0,0,1-1-3.57c-2.37-.17-4.21-1.32-4.19-2.68,0,0,0,0,0,0h0A1.78,1.78,0,0,1,70.18,56l.21-.21h0l.23-.18.08,0a1.37,1.37,0,0,1,.2-.13l.32-.17a3.14,3.14,0,0,0-.46-.18,2.3,2.3,0,0,0-2.92,1.39,2.15,2.15,0,0,0,.78,2.23A7.42,7.42,0,0,0,69.29,59.22Z"/><path class="cls-1" d="M69.6,60.71l.22.18L70,61l.2.15.26.17.16.1c.15.09.3.18.46.26s.4.17.6.25a.51.51,0,0,0,.65-.27c.07-.22-.14-.48-.43-.56a5.28,5.28,0,0,1-.79-.23l-.32-.14a5.15,5.15,0,0,1-1.86-1.29l-.23-.25a1.84,1.84,0,0,1-.27-.37,2.52,2.52,0,0,0,.18.55h0a4.23,4.23,0,0,0,.88,1.2A.47.47,0,0,1,69.6,60.71Z"/><path class="cls-1" d="M84.37,58.43c-2,.73-2.46.54-3.61,1.19a2.27,2.27,0,0,0-1,3.14,2.14,2.14,0,0,0,2.3.83,1.69,1.69,0,0,0,.55-.21,1.46,1.46,0,0,0,.31-2.44.7.7,0,0,1-1.27.59.76.76,0,0,1,.24-1,24,24,0,0,1,3.44-1.51,9.35,9.35,0,0,0,2.93-2,1.38,1.38,0,0,0,.44-1.35,1.69,1.69,0,0,0-2.17-.9,2.11,2.11,0,0,0-.59.26c.6.07,1,.27,1.19.64C87.43,56.66,86.39,57.68,84.37,58.43Z"/><path class="cls-1" d="M85.29,59.9a9.57,9.57,0,0,1-1.91.81,1.72,1.72,0,0,1,.46.89,9.64,9.64,0,0,0,2-1.24,6.84,6.84,0,0,0,2.34-3A7.54,7.54,0,0,1,85.29,59.9Z"/><path class="cls-1" d="M83.88,62a1.94,1.94,0,0,1-.37,1c.22-.12.44-.25.66-.4a6.71,6.71,0,0,0,2.59-2.78A7.15,7.15,0,0,1,83.88,62Z"/><path class="cls-1" d="M106.8,22.22a60.13,60.13,0,0,0-84.58-8.75,60.15,60.15,0,0,0-8.75,84.59A60.13,60.13,0,0,0,120,66.32,59.72,59.72,0,0,0,106.8,22.22Zm9.3,43.7A56.34,56.34,0,0,1,60.18,116.4a57.5,57.5,0,0,1-5.83-.3A56.26,56.26,0,0,1,24.66,16.48,56.26,56.26,0,0,1,116.1,65.92Z"/><polygon class="cls-1" points="99.45 89.51 97.89 90.68 96.05 90.05 96.67 91.89 95.51 93.45 97.45 93.43 98.58 95.02 99.16 93.16 101.02 92.58 99.43 91.46 99.45 89.51"/><polygon class="cls-1" points="99.45 89.51 97.89 90.68 96.05 90.05 96.67 91.89 95.51 93.45 97.45 93.43 98.58 95.02 99.16 93.16 101.02 92.58 99.43 91.46 99.45 89.51"/><polygon class="cls-1" points="99.45 89.51 97.89 90.68 96.05 90.05 96.67 91.89 95.51 93.45 97.45 93.43 98.58 95.02 99.16 93.16 101.02 92.58 99.43 91.46 99.45 89.51"/><path class="cls-1" d="M15.42,85a4.2,4.2,0,0,1-.4-2.87.2.2,0,0,1,.27-.16l1,.25a.19.19,0,0,1,.14.25,2.54,2.54,0,1,0,4.74-.7,3.64,3.64,0,0,0-.89-1l-.83.46.43.78a.2.2,0,0,1-.07.28L19,82.7a.21.21,0,0,1-.29-.08l-1-1.88a.2.2,0,0,1,.09-.27l2.5-1.38a.21.21,0,0,1,.19,0,5.67,5.67,0,0,1,2,2.07,4,4,0,0,1-7,3.86Z"/><path class="cls-1" d="M13.65,80.81a.24.24,0,0,1-.27-.13l-.35-1a.21.21,0,0,1,.12-.27l4.29-1.53a1.62,1.62,0,1,0-1.09-3l-4.29,1.54a.22.22,0,0,1-.27-.13l-.36-1a.22.22,0,0,1,.13-.27l4.36-1.56A3.1,3.1,0,0,1,18,79.24Z"/><path class="cls-1" d="M18.42,72.68l-8-2a.2.2,0,0,1-.16-.16l0-.11a.2.2,0,0,1,.09-.21L17,65.44a.19.19,0,0,1,.32.13l.19,1a.33.33,0,0,1-.16.36l-1.08.76.64,3.27,1.28.3a.34.34,0,0,1,.28.28l.19,1A.2.2,0,0,1,18.42,72.68Zm-3.24-4.27L13,70v0l2.61.6Z"/><path class="cls-1" d="M9.64,65.66a.23.23,0,0,1-.21-.21v-.28l4.76-4.78h0l-4.59.15a.22.22,0,0,1-.22-.21l0-1a.23.23,0,0,1,.2-.22L17,58.83a.21.21,0,0,1,.2.21v.27l-4.95,4.81h0L17.07,64a.22.22,0,0,1,.22.21l0,1a.24.24,0,0,1-.21.22Z"/><path class="cls-1" d="M9.8,53.41a4.22,4.22,0,0,1,1.38-2.56.22.22,0,0,1,.31,0l.63.78a.2.2,0,0,1,0,.29,2.52,2.52,0,0,0-.86,1.58,2.57,2.57,0,0,0,5.09.65,3.42,3.42,0,0,0-.11-1.34l-.93-.13-.12.89a.2.2,0,0,1-.22.18l-.88-.11a.21.21,0,0,1-.18-.24l.28-2.12a.2.2,0,0,1,.23-.17l2.83.37a.18.18,0,0,1,.16.11,5.61,5.61,0,0,1,.36,2.83,4,4,0,0,1-7.93-1Z"/><path class="cls-1" d="M10.89,48.85a.21.21,0,0,1-.14-.25l.76-2.52A3.89,3.89,0,1,1,19,48.32l-.75,2.52a.23.23,0,0,1-.27.14Zm6.74-.79a2.46,2.46,0,0,0-1.72-3.13,2.45,2.45,0,0,0-3.15,1.66l-.37,1.22,4.87,1.46Z"/><path class="cls-1" d="M14.74,37.6A4,4,0,1,1,16.54,43,4,4,0,0,1,14.74,37.6Zm5.87,2.94a2.56,2.56,0,1,0-3.42,1.14A2.58,2.58,0,0,0,20.61,40.54Z"/><path class="cls-1" d="M17.67,32.68a.22.22,0,0,1,0-.29l.17-.22,6.71-.77h0l-3.69-2.75a.21.21,0,0,1,0-.29l.61-.83a.23.23,0,0,1,.3,0l6,4.48a.2.2,0,0,1,0,.29l-.16.21-6.87.68h0L24.53,36a.21.21,0,0,1,0,.3l-.6.81a.23.23,0,0,1-.3,0Z"/><path class="cls-1" d="M25.44,23.22a4.17,4.17,0,0,1,2.67-1.14.2.2,0,0,1,.22.22v1c0,.12-.08.19-.21.2a2.51,2.51,0,0,0-1.66.7A2.57,2.57,0,0,0,30,27.89a3.44,3.44,0,0,0,.76-1.12l-.66-.68-.64.62a.21.21,0,0,1-.29,0l-.61-.64a.2.2,0,0,1,0-.3l1.54-1.48a.22.22,0,0,1,.29,0l2,2.05a.22.22,0,0,1,.06.19A5.51,5.51,0,0,1,31,29a4,4,0,0,1-5.54-5.76Z"/><path class="cls-1" d="M32.32,19.49l-1.41,1a.21.21,0,0,1-.3-.06l-.5-.75a.21.21,0,0,1,.05-.3l4-2.71a.22.22,0,0,1,.29.06l.51.76a.2.2,0,0,1-.06.29l-1.41.95L37,23.86a.23.23,0,0,1-.06.3l-.86.57a.21.21,0,0,1-.29-.05Z"/><path class="cls-1" d="M35.51,16.11a.21.21,0,0,1,.09-.28l4-2.06a.21.21,0,0,1,.29.09l.41.81a.22.22,0,0,1-.09.29l-2.93,1.5.83,1.62,2.44-1.25a.22.22,0,0,1,.29.09l.42.83a.21.21,0,0,1-.09.28l-2.45,1.25L39.64,21l2.93-1.49a.2.2,0,0,1,.28.09l.42.81a.21.21,0,0,1-.09.28l-4,2.07a.21.21,0,0,1-.28-.1Z"/><path class="cls-1" d="M44.61,11.77a3.77,3.77,0,0,1,2.88.1.2.2,0,0,1,.11.29l-.41.89a.18.18,0,0,1-.26.09,2.65,2.65,0,0,0-1.84-.07A2.58,2.58,0,0,0,46.78,18a2.66,2.66,0,0,0,1.41-1.15.2.2,0,0,1,.26-.09l.88.45a.2.2,0,0,1,.09.28,3.82,3.82,0,0,1-2.2,1.91,4,4,0,1,1-2.61-7.58Z"/><path class="cls-1" d="M48.86,10.8a.21.21,0,0,1,.17-.24l1-.18a.21.21,0,0,1,.24.17l.5,2.91,3.57-.61-.49-2.91A.2.2,0,0,1,54,9.7l1-.18a.23.23,0,0,1,.24.18L56.54,17a.23.23,0,0,1-.18.24l-1,.17a.21.21,0,0,1-.24-.17l-.52-3L51,14.79l.52,3a.23.23,0,0,1-.18.25l-1,.17a.21.21,0,0,1-.24-.17Z"/><path class="cls-1" d="M57.59,9.34a.21.21,0,0,1,.21-.2h.28l4.55,5h0l.08-4.59a.21.21,0,0,1,.21-.21l1,0a.21.21,0,0,1,.21.21L64,17.06a.19.19,0,0,1-.21.19h-.27L59,12.07h0l-.08,4.78a.21.21,0,0,1-.21.21l-1,0a.21.21,0,0,1-.21-.21Z"/><path class="cls-1" d="M66.12,9.79a.24.24,0,0,1,.24-.19l1,.12a.23.23,0,0,1,.18.24l-.87,7.32a.21.21,0,0,1-.23.18l-1-.12a.23.23,0,0,1-.19-.24Z"/><path class="cls-1" d="M73,10.67a4,4,0,1,1-4.84,2.95A4,4,0,0,1,73,10.67Zm-1.57,6.38A2.56,2.56,0,1,0,69.61,14,2.55,2.55,0,0,0,71.47,17.05Z"/><path class="cls-1" d="M78.5,12.44a.19.19,0,0,1,.27-.1l.26.11,2.23,6.38h0l1.87-4.2a.21.21,0,0,1,.28-.11l.93.42a.21.21,0,0,1,.11.27l-3,6.85a.21.21,0,0,1-.27.1l-.24-.11L78.72,15.5h0l-1.94,4.38a.21.21,0,0,1-.28.1l-.92-.41a.22.22,0,0,1-.11-.28Z"/><path class="cls-1" d="M32.74,99l-.26-.27-.44-.4-.69-.61-1.05-.89-1.89-1.59q-.51.66-1,1.17c-.29.34-.56.63-.81.89s-.49.48-.72.66a5.82,5.82,0,0,1-.67.5,5.69,5.69,0,0,1-.66.39l-.72.33c0-.11-.05-.2-.08-.28l-.09-.22-.11-.19-.15-.19c.23,0,.46-.12.68-.19a5.32,5.32,0,0,0,.65-.3,6.15,6.15,0,0,0,.68-.48,9.48,9.48,0,0,0,.77-.72c.28-.29.59-.63.92-1s.72-.87,1.14-1.41a2.84,2.84,0,0,0,.3.31l.44.4.68.58,1,.87,1.05.88.72.59.47.36.3.22Zm-2.26-3c.07-.18.14-.35.19-.52A4.39,4.39,0,0,0,30.8,95l.81.31-.16.52c-.05.18-.09.37-.13.58Z"/><path class="cls-1" d="M33.76,104a2,2,0,0,0-.75,0c-.41.05-1,.17-1.8.34a2,2,0,0,0-.08-.41,1.67,1.67,0,0,0-.18-.35,7.52,7.52,0,0,0,1.3-.15,6.49,6.49,0,0,0,1.27-.4,2.36,2.36,0,0,0,.14.39,2.61,2.61,0,0,0,.2.41c0,.06,0,.1,0,.13S33.82,104.06,33.76,104Zm1.74-3.46-.57-.32-.55-.31-.47-.25-.29-.16L34,98.9l.3.21.48.32c.19.13.39.26.61.39l.63.4.36-.27.29-.22.22-.2.19-.19.13.18.17.22.18.2.15.15c.08.08.06.12-.07.13l-.13,0-.17.06-.24.13-.37.2c.64.37,1.25.71,1.81,1s1.07.57,1.5.77l-.38.66c-.41-.28-.91-.59-1.5-.94l-2-1.17-.39.22-.5.25c-.17.09-.36.19-.56.28l-.59.27,1.52.88a6.56,6.56,0,0,0,.33-.6,2.13,2.13,0,0,0,.2-.48c.12.1.24.2.37.29a3,3,0,0,0,.37.21c.05,0,.08,0,.07.07s0,0-.08.07a.66.66,0,0,0-.23.18,1.69,1.69,0,0,0-.2.28l-.2.35c.5.28.93.51,1.3.69a4.84,4.84,0,0,0,.79.33L38,105c-.12-.09-.36-.24-.7-.46L36,103.74l-1.13,1.94a2.44,2.44,0,0,1-.31.45.55.55,0,0,1-.3.19,1,1,0,0,1-.42,0c-.17-.06-.39-.14-.66-.26a2.6,2.6,0,0,0,.1-.44,4.36,4.36,0,0,0,0-.51c.17.14.3.25.4.32a.66.66,0,0,0,.26.11.2.2,0,0,0,.18-.06,1.77,1.77,0,0,0,.16-.23l1.07-1.83-.84-.45-.64-.31c-.19-.08-.35-.15-.48-.19a2.26,2.26,0,0,0-.34-.08,2,2,0,0,0,.07-.39,2.13,2.13,0,0,0,0-.44,1.56,1.56,0,0,0,.46,0,4.09,4.09,0,0,0,.57-.18,6.11,6.11,0,0,0,.65-.3A5.34,5.34,0,0,0,35.5,100.58Zm1.16,6.86c0-.18,0-.37-.08-.58s-.08-.41-.13-.63-.12-.42-.19-.62a4.61,4.61,0,0,0-.23-.54l.65-.16c.1.2.18.4.26.59s.16.38.23.57.14.38.2.58.12.4.18.61Z"/><path class="cls-1" d="M40.45,108.25l-.18.1-.23.14-.22.14a1.41,1.41,0,0,0-.18.14c0-.15-.1-.31-.17-.48a2.29,2.29,0,0,0-.2-.44.53.53,0,0,0,.33-.21,2.35,2.35,0,0,0,.26-.51l1.32-3.59.2-.58c0-.16.09-.28.11-.38a2.33,2.33,0,0,0,.7.42c.1,0,.16.08.16.13s-.05.08-.15.09a.34.34,0,0,0-.16.06.19.19,0,0,0-.07.11l-1.52,4.11c.37-.17.72-.35,1-.53a6.68,6.68,0,0,0,.83-.54,2.06,2.06,0,0,0,0,.44q0,.19.09.36Zm3.73.7a3.87,3.87,0,0,1-.43.27l-.47.22a5.78,5.78,0,0,1-1.09.3,12.72,12.72,0,0,1-1.37.12,1.65,1.65,0,0,0-.1-.47,1.41,1.41,0,0,0-.25-.45,4.6,4.6,0,0,0,1.17.11,4.24,4.24,0,0,0,1.13-.18,3.82,3.82,0,0,0,1-.46,3,3,0,0,0,.76-.74l.51-.75c.14-.23.28-.48.41-.75s.27-.56.4-.9.29-.74.47-1.21l.2.14.24.16.23.14.18.11c.12.06.11.12,0,.19l-.12.09a.57.57,0,0,0-.1.11l-.12.19-.17.33c-.19.37-.37.7-.54,1s-.32.57-.47.81a7.31,7.31,0,0,1-.45.65,5.75,5.75,0,0,1-.43.51L45,109l.27.56.29.57.28.55-.93.33c-.06-.29-.15-.61-.26-1A10.52,10.52,0,0,0,44.18,109Zm-.57-2.79c-.1-.41-.2-.77-.31-1.1a9.93,9.93,0,0,0-.41-1l.73-.24.4,1c.14.32.28.68.42,1.07Z"/><path class="cls-1" d="M49.29,107.2l-.2.08-.19.09a1.15,1.15,0,0,0-.39-.69,5.19,5.19,0,0,0,.87-.28,5.7,5.7,0,0,0,.82-.41,5.18,5.18,0,0,0,.7-.5,3.76,3.76,0,0,0,.54-.6,3.55,3.55,0,0,0,.43.23,2.43,2.43,0,0,0,.42.13.09.09,0,0,1,.09.1q0,.08-.15.09l-.11,0-.13.06-.17.1-.24.16,1.64.29.46.08.43.07.36,0,.26,0-1.87,1.49L54,108c.31,0,.58.08.79.1-.1.42-.2.83-.27,1.25s-.1.55-.14.77,0,.46-.07.69l-.39-.11-.5-.11-.64-.13-.83-.15-2.41-.43-.12.64q0,.3-.06.48a.5.5,0,0,0,.09.31.7.7,0,0,0,.31.21,4.27,4.27,0,0,0,.61.18,6,6,0,0,0,.59.12c.24,0,.5.09.78.13l.83.11c.27,0,.52.06.73.07a1.7,1.7,0,0,0,.4,0A.63.63,0,0,0,54,112a.71.71,0,0,0,.2-.22,3.42,3.42,0,0,0,.17-.4,1.18,1.18,0,0,0,.31.32,1.41,1.41,0,0,0,.35.21c-.1.19-.19.35-.27.47a1.2,1.2,0,0,1-.27.28.9.9,0,0,1-.36.12,2.9,2.9,0,0,1-.52,0l-.53,0-.65-.08-.69-.1-.68-.11c-.23,0-.43-.07-.62-.11a3.32,3.32,0,0,1-.49-.11,5.48,5.48,0,0,1-.77-.22.84.84,0,0,1-.4-.28.64.64,0,0,1-.13-.42,5.48,5.48,0,0,1,.08-.66l.46-2.58A6.45,6.45,0,0,0,49.29,107.2Zm1.66-1-.38.24-.41.25c-.14.08-.28.16-.43.23l-.4.21,2.75.48,1.22-1Zm.69,1.93-1.74-.31-.25,1.39,1.74.31Zm.39,1.51,1.69.3L54,108.6l-1.69-.3Z"/><path class="cls-1" d="M60.83,108.23a11,11,0,0,1-.35,1.71,6.62,6.62,0,0,1-.51,1.32,5.1,5.1,0,0,1-.93,1.1,6.89,6.89,0,0,1-.65.54c-.24.17-.48.33-.72.47l-.12-.14a.85.85,0,0,0-.16-.17,1.29,1.29,0,0,0-.17-.16l-.16-.12a3.88,3.88,0,0,0,.56-.26,6.24,6.24,0,0,0,.58-.37,4.4,4.4,0,0,0,1-.92A2.49,2.49,0,0,1,59,111a2.23,2.23,0,0,0-.26-.27,3.45,3.45,0,0,0-.28-.26l-.25-.21.5-.47c.15.12.29.25.43.38l.44.41c.07-.13.13-.27.18-.39s.09-.26.13-.39a2.57,2.57,0,0,0,.11-.44c0-.15.06-.33.1-.53l-1.37,0a5,5,0,0,1-.26.52c-.1.19-.2.36-.31.54s-.22.34-.34.5-.23.3-.34.42a1.35,1.35,0,0,0-.28-.25,1.15,1.15,0,0,0-.33-.17,4.11,4.11,0,0,0,.6-.64,5.56,5.56,0,0,0,.49-.79,6.37,6.37,0,0,0,.36-.89,6.23,6.23,0,0,0,.22-1l-.83,0a6.28,6.28,0,0,0-.64,0v-.77l.86.08,1.18,0h1.19l.86-.05v.76l-.82-.08c-.3,0-.67,0-1.12,0a4.74,4.74,0,0,1-.27,1.08Zm1.47-1q-.09.06-.09.27l-.05,2.89v.51c0,.18,0,.36,0,.56h-.74c0-.21,0-.4,0-.57s0-.33,0-.5l0-2.42a4.83,4.83,0,0,0,0-.54c0-.15,0-.28,0-.39l.39,0h.35c.08,0,.12,0,.12,0S62.36,107.19,62.3,107.23Zm1.62-1a.18.18,0,0,0-.07.08.59.59,0,0,0,0,.17l-.1,5.92a2.5,2.5,0,0,1,0,.53.55.55,0,0,1-.19.32,1.23,1.23,0,0,1-.43.2,7.83,7.83,0,0,1-.78.15,2,2,0,0,0-.41-.91,4.87,4.87,0,0,0,.63,0,.82.82,0,0,0,.35-.06.31.31,0,0,0,.16-.16,1.84,1.84,0,0,0,0-.29l.07-4.83c0-.33,0-.61,0-.84s0-.42,0-.55l.38.06h.36c.09,0,.13,0,.14,0S64,106.16,63.92,106.21Z"/><path class="cls-1" d="M66,107l-.54.12-.41.1-.12-.7a10.41,10.41,0,0,0,1.31-.17l.75-.14a5.43,5.43,0,0,0,.54-.13l.12.7-.43,0-.58.06.3,1.77.51-.1.39-.11.12.71-.4,0-.52.06.34,2a9.33,9.33,0,0,0,.84-.55,3.63,3.63,0,0,0,0,.38c0,.1,0,.22.08.36a12,12,0,0,0-1.31.74,7.64,7.64,0,0,0-1,.76l-.06-.24-.09-.27-.12-.25a1.07,1.07,0,0,0-.13-.21c.18,0,.36-.1.55-.16s.38-.15.58-.25l-.37-2.18-.53.11-.42.11-.12-.7.43,0,.54-.07Zm5.07,4.55,1.24-.23.94-.2.11.7c-.31,0-.67.07-1.08.13s-.89.13-1.46.23-1.07.18-1.51.27-.81.17-1.11.25l-.12-.71,1-.13,1.34-.2-.16-.91-.9.17c-.26.06-.49.12-.67.18l-.12-.71.7-.06.9-.12-.14-.83-.74.14-.49.09-.29.06-.17,0c0-.12,0-.25-.05-.4s0-.31-.07-.48,0-.35-.07-.53l-.09-.55c0-.18-.07-.37-.1-.56s-.07-.37-.1-.55-.07-.32-.1-.46-.05-.25-.07-.33h.2l.36,0,.59-.09.9-.14.9-.16.59-.11.35-.08.19-.07c0,.1,0,.22,0,.35s0,.3.06.47,0,.35.08.54.06.38.1.57l.09.53c0,.18.07.35.1.52s.07.33.1.48.07.29.09.4h-.19L72,109l-.5.07-.78.14.14.82c.37-.06.69-.13,1-.19s.51-.12.71-.18l.12.71-.74.06-1,.14Zm-1.56-5.37-1,.18.18,1,1-.17Zm.26,1.56-1,.18.18,1.1,1-.18Zm.55-.63,1.07-.18-.17-1-1.08.19Zm.27,1.63,1.08-.19-.19-1.1-1.08.18Z"/><path class="cls-1" d="M78.54,109c.68-.25,1.28-.46,1.78-.66s.94-.37,1.32-.53l.28.78c-.43.12-.93.28-1.49.47l-2,.7c-.77.27-1.44.52-2,.73L75,111l-.27-.78c.38-.11.83-.25,1.33-.42l1.76-.6-1.53-4.29-1.4.53c-.39.15-.74.3-1,.43l-.27-.76c.36-.09.77-.22,1.22-.37l1.66-.57c.64-.23,1.19-.43,1.64-.61s.84-.33,1.18-.48l.27.75-1.08.33-1.42.48Z"/><path class="cls-1" d="M85.72,100.61c.34-.19.63-.36.88-.52s.46-.28.63-.4l.78,1.37-.61.34-.44-.79-4.83,2.75.49.85-.61.34-.81-1.42.73-.37,1-.54L85.13,101c0-.17,0-.36,0-.56s0-.39,0-.58,0-.36,0-.52a2.53,2.53,0,0,0-.05-.38,3.49,3.49,0,0,0,.46,0,2.17,2.17,0,0,0,.4,0c.08,0,.12,0,.12,0s0,.08-.06.15a2.13,2.13,0,0,0-.11.43C85.84,99.73,85.78,100.1,85.72,100.61Zm-3.38,1.71-.22-.17-.26-.19-.26-.17-.23-.14.45-.61.51.32c.19.12.37.24.53.36Zm3.56,2.56-.88.51-.74.44-.63.39c-.2.13-.38.24-.54.36l-.4-.69.59-.29.65-.35.76-.41.88-.5-.29-.51a5.47,5.47,0,0,0,.74-1.06l-1.69,1c-.44.26-.79.46-1,.62L83,103.8l.42-.21.41-.21.48-.27.64-.36.78-.45.54-.32.36-.22.23-.16.37.66a.73.73,0,0,0-.2.14,2,2,0,0,0-.23.25,4.74,4.74,0,0,0-.3.42c-.12.17-.25.39-.41.64l.15.26,1.48-.87c.41-.25.77-.48,1.09-.7l.39.7-1.15.59-1.51.82.61,1.07a.89.89,0,0,1,.12.3.48.48,0,0,1-.08.29,1.67,1.67,0,0,1-.3.37c-.15.13-.35.31-.61.52a2.36,2.36,0,0,0-.67-.61,4,4,0,0,0,.47-.24,1,1,0,0,0,.25-.18.27.27,0,0,0,.08-.16.3.3,0,0,0,0-.17Zm-2.1-3.64-.18-.22-.21-.25-.22-.24a1.69,1.69,0,0,0-.19-.19l.57-.5q.17.15.39.39c.15.16.3.31.43.46Z"/><path class="cls-1" d="M90.29,99a4.4,4.4,0,0,1,1,.36,2.27,2.27,0,0,1,.66.52,1.13,1.13,0,0,1,.3.83,1.5,1.5,0,0,1-.47.85,1.64,1.64,0,0,0-.3-.29,1.29,1.29,0,0,0-.37-.19,1.23,1.23,0,0,0,.4-.39c.05-.12,0-.28-.13-.48a1.88,1.88,0,0,0-.64-.53,3.39,3.39,0,0,0-.85-.28l-.91-2-.69.57,4.14,5-.54.44c-.11-.14-.22-.28-.31-.41s-.2-.25-.29-.38l-.3-.36-.31-.38-2.77-3.34c-.1-.13-.21-.26-.32-.38a2.66,2.66,0,0,0-.24-.27l.41-.3c.14-.11.32-.25.54-.44l.54-.46a4.26,4.26,0,0,0,.38-.35Zm.7-3.38a4.86,4.86,0,0,0-.41-.27l-.38-.21.5-.62.41.28q.26.17.51.3l.54-.46.34-.29.23-.21.2-.19.88,1.07-.52.43-.49-.58-2.33,1.93.48.57-.53.44-.87-1.06.23-.17c.08-.06.16-.13.27-.2l.37-.3Zm2.81.49-.25.17-.31.24-.34.27-.36.3c-.25.2-.48.4-.7.59a4,4,0,0,0-.5.47l-.45-.55a4.79,4.79,0,0,0,.56-.4c.23-.17.46-.36.71-.57l.36-.3.33-.29.28-.26a2.27,2.27,0,0,0,.22-.22Zm-1.19,2.7-.34.3a4.7,4.7,0,0,0-.4.39L91.4,99l.36-.26c.11-.07.22-.16.34-.25l.41-.33.59-.48.57-.48a4.75,4.75,0,0,0,.38-.33l.29-.26.31-.3.47.57a3.76,3.76,0,0,0-.33.22l-.25.18-.23.19-.27.22,1.23,1.49c.08.1.16.15.24.14a.82.82,0,0,0,.35-.23,1.83,1.83,0,0,0,.2-.21.36.36,0,0,0,.06-.23A.88.88,0,0,0,96,98.3c-.05-.12-.13-.28-.23-.47a1.43,1.43,0,0,0,.41,0,1.18,1.18,0,0,0,.36-.1,4.21,4.21,0,0,1,.25.62,1.23,1.23,0,0,1,0,.46.89.89,0,0,1-.19.39,3.15,3.15,0,0,1-.41.39c-.19.16-.36.28-.48.37a.87.87,0,0,1-.33.14.29.29,0,0,1-.24,0A1.26,1.26,0,0,1,95,99.8l-1.43-1.73-.43.35a4.74,4.74,0,0,1,.63,1,2.52,2.52,0,0,1,.24.89,2.32,2.32,0,0,1-.11.86,4.3,4.3,0,0,1-.41.88l-.36-.1a3.1,3.1,0,0,0-.45,0,4.82,4.82,0,0,0,.45-.81,2,2,0,0,0,.17-.73,1.8,1.8,0,0,0-.16-.74A3.33,3.33,0,0,0,92.61,98.84Z"/><path class="cls-1" d="M86.83,18a.11.11,0,0,1,.13,0l.41.23a.1.1,0,0,1,0,.13l-1.64,2.93a.09.09,0,0,1-.13,0L85.23,21a.11.11,0,0,1,0-.13Z"/><path class="cls-1" d="M86.44,21.11l.32-.17a.11.11,0,0,1,.16.06,1.79,1.79,0,0,0,.49.66.43.43,0,0,0,.6-.09c.13-.22,0-.49-.24-.86a1.25,1.25,0,0,1-.24-1.43A1,1,0,0,1,89,19a1.82,1.82,0,0,1,.69.82.13.13,0,0,1-.06.16l-.32.14a.12.12,0,0,1-.18,0,1.71,1.71,0,0,0-.46-.6.39.39,0,0,0-.56.07c-.13.21-.05.44.21.8a1.35,1.35,0,0,1,.32,1.53,1.08,1.08,0,0,1-1.52.25,1.64,1.64,0,0,1-.75-.91C86.36,21.19,86.36,21.16,86.44,21.11Z"/><path class="cls-1" d="M90.44,20.1a.09.09,0,0,1,.13,0l1.19.83A1.08,1.08,0,0,1,92,22.43a1.11,1.11,0,0,1-1.2.41l-.16,1.46a.1.1,0,0,1-.16.07l-.43-.31a.07.07,0,0,1,0-.08l.21-1.49-.46-.32-.74,1.06a.1.1,0,0,1-.13,0L88.54,23a.09.09,0,0,1,0-.13Zm.35,2.1a.51.51,0,0,0,.58-.83l-.68-.47-.58.83Z"/><path class="cls-1" d="M90.71,24.33l3.37-1.67a.08.08,0,0,1,.1,0l0,0a.08.08,0,0,1,0,.1l-.92,3.63a.09.09,0,0,1-.15.05l-.34-.28a.15.15,0,0,1-.06-.17l.15-.58-1.18-.95-.53.27a.15.15,0,0,1-.18,0l-.34-.28A.08.08,0,0,1,90.71,24.33Zm2.38.53.31-1.19h0l-1.09.56Z"/><path class="cls-1" d="M95.71,24.13a.09.09,0,0,1,.13,0l1.52,1.39a.11.11,0,0,1,0,.14l-.28.3A.1.1,0,0,1,97,26l-1.1-1-.57.62.92.84a.11.11,0,0,1,0,.14l-.28.31a.1.1,0,0,1-.14,0L94.87,26l-.6.65,1.1,1a.09.09,0,0,1,0,.13l-.28.31a.1.1,0,0,1-.14,0l-1.52-1.39a.1.1,0,0,1,0-.14Z"/><path class="cls-1" d="M97.84,26.13a.09.09,0,0,1,.13,0l.33.33a.12.12,0,0,1,0,.14l-2,2,.9.92a.1.1,0,0,1,0,.14l-.3.29a.09.09,0,0,1-.13,0L95.43,28.6a.09.09,0,0,1,0-.13Z"/><path class="cls-1" d="M100.23,28.72a.1.1,0,0,1,.14,0l.3.36a.09.09,0,0,1,0,.13L98.11,31.4a.11.11,0,0,1-.14,0l-.3-.36a.1.1,0,0,1,0-.14Z"/><path class="cls-1" d="M101.27,29.84a.09.09,0,0,1,.13,0l.08.1L101,33h0l1.66-1.26a.1.1,0,0,1,.14,0l.28.38a.09.09,0,0,1,0,.13l-2.72,2.06a.09.09,0,0,1-.13,0l-.07-.1.58-3.09h0L99,32.42a.11.11,0,0,1-.14,0L98.53,32a.09.09,0,0,1,0-.13Z"/><path class="cls-1" d="M100.93,34.43l.37,0a.11.11,0,0,1,.12.12,1.72,1.72,0,0,0,.16.82.42.42,0,0,0,.58.17c.21-.14.24-.42.15-.87a1.25,1.25,0,0,1,.4-1.4,1,1,0,0,1,1.44.42,1.81,1.81,0,0,1,.27,1,.12.12,0,0,1-.13.11H104c-.08,0-.15,0-.15-.11a1.72,1.72,0,0,0-.15-.75.41.41,0,0,0-.54-.18c-.2.13-.24.38-.15.82s.17,1.15-.38,1.51a1.07,1.07,0,0,1-1.48-.43,1.65,1.65,0,0,1-.28-1.15C100.83,34.47,100.84,34.44,100.93,34.43Z"/><path class="cls-1" d="M104.77,35.92l-.39-.67a.09.09,0,0,1,0-.13l.36-.21a.09.09,0,0,1,.13,0L106,36.86a.09.09,0,0,1,0,.13l-.36.21a.1.1,0,0,1-.13,0l-.39-.67-2.46,1.43a.1.1,0,0,1-.13,0l-.24-.4a.11.11,0,0,1,0-.14Z"/><path class="cls-1" d="M106.18,37.4a.09.09,0,0,1,.13,0l.22.42a.11.11,0,0,1,0,.13l-3,1.55a.09.09,0,0,1-.13,0l-.22-.42a.09.09,0,0,1,0-.13Z"/><path class="cls-1" d="M106.61,39.38l-.33-.7a.11.11,0,0,1,0-.13l.38-.17a.09.09,0,0,1,.13,0l.94,2a.1.1,0,0,1,0,.13l-.38.18a.09.09,0,0,1-.12,0l-.34-.7-2.57,1.22a.09.09,0,0,1-.12-.05l-.21-.42a.1.1,0,0,1,.05-.13Z"/><path class="cls-1" d="M107.91,41A.1.1,0,0,1,108,41l.18.44a.11.11,0,0,1,0,.13l-1.93.76a.74.74,0,1,0,.54,1.37L108.7,43a.09.09,0,0,1,.12,0l.18.45a.09.09,0,0,1,0,.12l-2,.78a1.4,1.4,0,0,1-1.82-.8,1.39,1.39,0,0,1,.78-1.82Z"/><path class="cls-1" d="M108.87,45l-.24-.73a.09.09,0,0,1,.06-.12l.39-.13a.09.09,0,0,1,.12.06l.69,2.11a.09.09,0,0,1-.06.12l-.4.12a.09.09,0,0,1-.12-.06l-.24-.73-2.7.88a.1.1,0,0,1-.12-.07L106.1,46a.1.1,0,0,1,.06-.13Z"/><path class="cls-1" d="M110,46.7a.09.09,0,0,1,.12.07l.53,2a.1.1,0,0,1-.07.12l-.41.11a.1.1,0,0,1-.11-.07l-.39-1.45-.8.21.32,1.21a.11.11,0,0,1-.07.12l-.41.1a.09.09,0,0,1-.11-.06l-.32-1.21-.86.22.38,1.45a.09.09,0,0,1-.07.12l-.4.11a.11.11,0,0,1-.12-.07l-.52-2a.1.1,0,0,1,.07-.12Z"/><path class="cls-1" d="M111.3,52.08a1.82,1.82,0,1,1-3.6.59,1.82,1.82,0,0,1,3.6-.59Zm-3,.49a1.16,1.16,0,0,0,1.33,1,1.17,1.17,0,1,0-.38-2.3A1.16,1.16,0,0,0,108.35,52.57Z"/><path class="cls-1" d="M111.5,54.52a.12.12,0,0,1,.11.09l.18,2.06a.08.08,0,0,1-.08.1l-.42,0a.09.09,0,0,1-.1-.09l-.14-1.49-1,.08.12,1.25a.12.12,0,0,1-.09.11l-.42,0a.08.08,0,0,1-.1-.08l-.11-1.25-1.28.12a.12.12,0,0,1-.11-.09l0-.46a.11.11,0,0,1,.09-.11Z"/><path class="cls-1" d="M111.27,58.83v-.78a.09.09,0,0,1,.09-.09h.42a.09.09,0,0,1,.09.1l0,2.21a.1.1,0,0,1-.1.1h-.41a.08.08,0,0,1-.1-.09v-.78l-2.85,0a.12.12,0,0,1-.1-.1V59a.1.1,0,0,1,.09-.1Z"/><path class="cls-1" d="M111.79,60.83a.09.09,0,0,1,.09.1L111.79,63a.1.1,0,0,1-.1.09l-.42,0a.09.09,0,0,1-.09-.1l.07-1.5-.83,0-.06,1.25a.1.1,0,0,1-.1.09l-.42,0a.1.1,0,0,1-.09-.1l0-1.25-.88,0-.07,1.5a.1.1,0,0,1-.1.09l-.41,0a.09.09,0,0,1-.09-.1l.08-2.06a.11.11,0,0,1,.1-.09Z"/><path class="cls-1" d="M111.62,65.3a1.76,1.76,0,0,1-.6,1.17.1.1,0,0,1-.14,0l-.29-.35a.08.08,0,0,1,0-.12,1.18,1.18,0,0,0,.38-.74,1.18,1.18,0,0,0-2.34-.26,1.23,1.23,0,0,0,.2.81.09.09,0,0,1,0,.12l-.36.28a.09.09,0,0,1-.13,0A1.72,1.72,0,0,1,108,64.9a1.83,1.83,0,1,1,3.63.4Z"/><path class="cls-1" d="M111.24,67.12a.1.1,0,0,1,.08.11l-.09.47a.09.09,0,0,1-.11.07l-1.32-.25-.3,1.63,1.31.25a.09.09,0,0,1,.08.11l-.08.46a.1.1,0,0,1-.12.07l-3.29-.62a.1.1,0,0,1-.08-.11l.09-.46a.1.1,0,0,1,.11-.08l1.37.26.31-1.62-1.37-.26a.1.1,0,0,1-.08-.11l.09-.46a.09.09,0,0,1,.11-.08Z"/><path class="cls-1" d="M110.55,70.92a.1.1,0,0,1,.06.12l0,.12-2.72,1.44h0l2,.55a.09.09,0,0,1,.06.12l-.12.45a.1.1,0,0,1-.12.07l-3.29-.91a.09.09,0,0,1-.06-.11l0-.12,2.81-1.43h0l-2.1-.58a.09.09,0,0,1-.07-.12l.12-.44a.1.1,0,0,1,.12-.07Z"/><path class="cls-1" d="M109,76.16a1.82,1.82,0,1,1-1.09-2.34A1.81,1.81,0,0,1,109,76.16Zm-2.8-1a1.16,1.16,0,0,0,.69,1.49,1.16,1.16,0,1,0,.8-2.18A1.16,1.16,0,0,0,106.23,75.13Z"/><path class="cls-1" d="M108,78.38a.1.1,0,0,1,0,.13l-.19.43a.11.11,0,0,1-.13,0l-2.59-1.16L104.61,79a.1.1,0,0,1-.13,0l-.38-.17a.1.1,0,0,1,0-.12l.76-1.7a.1.1,0,0,1,.13,0Z"/><path class="cls-1" d="M106.39,82.08a1.82,1.82,0,1,1-.78-2.46A1.82,1.82,0,0,1,106.39,82.08Zm-2.65-1.38a1.17,1.17,0,1,0,1.56-.49A1.17,1.17,0,0,0,103.74,80.7Z"/><path class="cls-1" d="M104.37,85.55a2,2,0,0,1-1.06.8.1.1,0,0,1-.12-.08l-.11-.44s0-.09.07-.11a1.08,1.08,0,0,0,.65-.49,1.16,1.16,0,0,0-2-1.24,1.69,1.69,0,0,0-.22.57l.37.23.21-.34a.09.09,0,0,1,.13,0l.34.21a.1.1,0,0,1,0,.14l-.52.82a.09.09,0,0,1-.13,0l-1.1-.69a.09.09,0,0,1,0-.08,2.57,2.57,0,0,1,.39-1.24,1.82,1.82,0,0,1,3.08,2Z"/><path class="cls-1" d="M101.33,86.65l2,.07a.1.1,0,0,1,.07.16l-.3.41a.09.09,0,0,1-.09,0l-1.42,0,.46,1.34a.08.08,0,0,1,0,.09l-.31.42a.09.09,0,0,1-.16,0L101,87.19l-1.31-1a.09.09,0,0,1,0-.13l.28-.38a.09.09,0,0,1,.13,0Z"/><path class="cls-1" d="M81.51,45.74h1.58v7.37a.47.47,0,0,0,.08.29c.09.1.31.08.31.08h1.76a.31.31,0,0,0,.29-.32V42.57a.3.3,0,0,0-.29-.31H83.72l-2.41,1.88a.46.46,0,0,0-.1.24v1A.31.31,0,0,0,81.51,45.74Z"/><path class="cls-1" d="M93.73,46.1H92.56V44.34H96a.31.31,0,0,0,.31-.32V42.57a.31.31,0,0,0-.31-.31H90.65a.31.31,0,0,0-.32.31v5.12a.54.54,0,0,0,.51.57h2.54a1.57,1.57,0,0,1,1.7,1.6,1.52,1.52,0,0,1-1.56,1.57,4.76,4.76,0,0,1-2-.79.32.32,0,0,0-.39,0l-1,1c-.2.2-.18.31,0,.56a4.33,4.33,0,0,0,3.27,1.37,3.91,3.91,0,0,0,4.07-3.78A3.59,3.59,0,0,0,93.73,46.1Z"/><path class="cls-1" d="M33.51,45.42c0-1.83-1.38-3.33-3.74-3.33a4.75,4.75,0,0,0-3.3,1.62.3.3,0,0,0,0,.43l1,1a.32.32,0,0,0,.46,0,2.37,2.37,0,0,1,1.6-.82c.93,0,1.46.56,1.46,1.18a2.46,2.46,0,0,1-.43,1.26c-1,1.48-3.42,4.8-4.37,6v.33a.31.31,0,0,0,.31.32h6.6a.33.33,0,0,0,.31-.32V51.68a.33.33,0,0,0-.31-.32H30.21c.78-1.08,2.13-2.85,2.66-3.79A4.15,4.15,0,0,0,33.51,45.42Z"/><path class="cls-1" d="M45.63,47.87c0-3.62-1.53-5.78-4.22-5.78s-4.23,2.16-4.23,5.78,1.54,5.77,4.23,5.77S45.63,51.48,45.63,47.87Zm-4.22,3.38c-1,0-1.57-1.21-1.57-3.38s.56-3.39,1.57-3.39S43,45.7,43,47.87,42.41,51.25,41.41,51.25Z"/><path class="cls-1" d="M72.87,53.57l.2.07L79.29,40a.39.39,0,0,0,0-.3l0-.1h0l-.06-.09,0,0-.12-.08a.8.8,0,0,0-.43-.13H57.09a.18.18,0,0,0-.18.28l2.86,5.85a.53.53,0,0,0,.45.28H69a.2.2,0,0,1,.18.3l-5.39,11.9c-.07.16-.19.16-.27,0L54.73,39.76c0-.1-.1-.22-.15-.3h0l0,0,0,0h0l-.09,0H47.3a.18.18,0,0,0-.18.28L63.74,73.89a.11.11,0,0,0,.19,0s5-11.12,5-11.13a8.57,8.57,0,0,1-.84-.74l-.1-.12c-.14-.2-.3-.47-.3-.47l-3.8,8.45h0c-.07.16-.19.16-.27,0h0L49.8,41.31a.18.18,0,0,1,.06-.26h0l.1,0h3.21l.12,0h0l.12.06,0,0a.22.22,0,0,1,.09.07h0a.39.39,0,0,1,.08.1l4.95,10.26,5,10.25c.07.16.19.16.27,0l8-17.44c0-.07.11-.23.06-.29s-.09-.07-.26-.07H61.26a.53.53,0,0,1-.45-.28h0l-1.22-2.51c-.06-.12,0-.22.06-.26h0l.1,0h17l.1,0h0a.12.12,0,0,1,.05,0h0s0,0,0,0a.14.14,0,0,1,0,.06s0,0,0,0a.2.2,0,0,1,0,.07l0,0-.07.16s-5.15,11.3-5.5,12.08A3.52,3.52,0,0,1,72.87,53.57Z"/><path class="cls-1" d="M78.07,54.92l0,0h0Z"/><polygon class="cls-1" points="68.99 58.7 68.99 58.7 68.99 58.7 68.99 58.7"/><path class="cls-1" d="M78.07,54.92l0,0h0Z"/><polygon class="cls-1" points="76.53 76.77 76.52 76.77 76.53 76.77 76.53 76.77"/><path class="cls-1" d="M78.07,54.92l0,0h0Z"/><polygon class="cls-1" points="76.53 76.77 76.52 76.77 76.53 76.77 76.53 76.77"/><path class="cls-1" d="M78.1,54.89h0l0,0Z"/><path class="cls-1" d="M78.07,54.92l0,0h0Z"/><path class="cls-1" d="M75.45,27.89c-.22-.38-1.2.16-1.2.16l-.15.08-.34.15A26.09,26.09,0,0,1,65,30a30,30,0,0,1-6-1l-.11,0A27.34,27.34,0,0,0,53.48,28a7.88,7.88,0,0,0-7.24,4,6.68,6.68,0,0,0-.78,3.8l.37.67a.94.94,0,0,0,.35.35.79.79,0,0,0,.48.13h5.26s2,.16,1.63-.73a2.49,2.49,0,0,1-.25-.67,1.77,1.77,0,0,1,1.68-1,11.79,11.79,0,0,1,4.73,1.21l.36.15c.47.2,1,.42,1.59.63a13.88,13.88,0,0,0,4.07.82h.08a8.34,8.34,0,0,0,3.45-.63,2.71,2.71,0,0,0,1.19-1.26,1.59,1.59,0,0,0,.08-.18l.08-.19,0,0a1.65,1.65,0,0,1,.2-.44,2.24,2.24,0,0,1,.94-.64,2.52,2.52,0,0,0,.86-.59A2.07,2.07,0,0,0,73,32.9l.14-.36a5.93,5.93,0,0,0,.22-.59.93.93,0,0,1,.53-.67,4,4,0,0,0,1-.9,3.5,3.5,0,0,0,.52-1.24v-.05S75.67,28.26,75.45,27.89ZM71.78,31.4c-.11.17-.08.29-.19.54l-.11.22a1.33,1.33,0,0,1-.3.17l-.18.08a3.62,3.62,0,0,0-1.45,1.13,3.67,3.67,0,0,0-.42.84l-.14.34a.88.88,0,0,1-.45.44,6.67,6.67,0,0,1-2.71.44h-.07a12.69,12.69,0,0,1-3.56-.73c-.63-.23-1.16-.45-1.73-.69l-.19-.07a13.15,13.15,0,0,0-5.38-1.34h0a5.61,5.61,0,0,0-1.49.29,3,3,0,0,0-1.87,2.11H47a6.84,6.84,0,0,1,.62-2.24,6.32,6.32,0,0,1,5.93-3.14l.53,0a33.67,33.67,0,0,1,4.59.9A30.17,30.17,0,0,0,65,31.77a34.57,34.57,0,0,0,7.58-1.18l.07,0v0C72.48,30.78,72.05,31,71.78,31.4Z"/><path class="cls-1" d="M59.35,81.1l-.61-.17h-.05a.42.42,0,0,0-.46.18l-1.71,2.75a.39.39,0,0,1-.46.15L56,84a.36.36,0,0,1-.21-.42l.75-3.15a.45.45,0,0,0-.2-.46l0,0-.55-.31-1.82-1.22-.5-.38,0,0a.44.44,0,0,0-.5,0l-2.63,1.89a.38.38,0,0,1-.48,0l-.06,0a.36.36,0,0,1,0-.47l1.91-2.63a.44.44,0,0,0,0-.5l0,0-.39-.5-1.22-1.82c-.09-.15-.23-.39-.31-.54l0,0a.43.43,0,0,0-.46-.21L46,73.74a.39.39,0,0,1-.43-.22l0-.08a.37.37,0,0,1,.15-.45l2.76-1.69a.43.43,0,0,0,.18-.47v0c-.05-.17-.13-.44-.17-.61L48,68c0-.17-.07-.45-.08-.62v-.06a.44.44,0,0,0-.34-.36l-3.2-.52a.39.39,0,0,1-.31-.37V66a.38.38,0,0,1,.31-.36l3.2-.5a.44.44,0,0,0,.34-.36v-.06c0-.17,0-.45.07-.62,0,0,.1-.73.2-1.25s.22-.91.22-.91l.17-.61,0-.05a.42.42,0,0,0-.18-.46l-2.75-1.71a.37.37,0,0,1-.15-.45l0-.08a.38.38,0,0,1,.43-.21l3.14.75a.45.45,0,0,0,.46-.2l0,0,.69-1.18c.1-.15.22-.32.27-.38s.16,0,.24.16l1.66,3.45a.7.7,0,0,1,0,.55l-.06.15A12.71,12.71,0,0,0,52,62.86a11.91,11.91,0,0,0,9.86,15l.23,0,.77-1.66A10.24,10.24,0,0,1,53.15,66a10.06,10.06,0,0,1,1.21-4.83.5.5,0,0,0,0-.53L50,51.45a.27.27,0,0,0-.4-.12l-1.1.7a.37.37,0,0,0-.13.45L49.61,55a.6.6,0,0,1,0,.55l-.87,1.31a.48.48,0,0,1-.48.19l-3.31-.79a.38.38,0,0,0-.43.21l-1.2,2.89a.38.38,0,0,0,.15.46l2.9,1.8a.46.46,0,0,1,.2.47c0,.11-.08.34-.13.57l0,.18v.07q0,.18-.06.3a.28.28,0,0,1,0,.13h0a.44.44,0,0,1-.19.19l-.12,0-3.37.53a.37.37,0,0,0-.31.36v3.13a.39.39,0,0,0,.31.37l3.37.55a.49.49,0,0,1,.37.36L46.53,70a.46.46,0,0,1-.2.47l-2.91,1.78a.38.38,0,0,0-.15.45l1.2,2.89a.39.39,0,0,0,.43.22L48.22,75a.46.46,0,0,1,.47.2l.64,1a.47.47,0,0,1,0,.51l-2,2.76a.39.39,0,0,0,0,.48l2.21,2.21a.38.38,0,0,0,.47,0l2.78-2a.47.47,0,0,1,.51,0l1,.64a.45.45,0,0,1,.19.47l-.8,3.32a.38.38,0,0,0,.22.42l2.89,1.2a.39.39,0,0,0,.46-.14L59,83.19a.46.46,0,0,1,.47-.2l.21,0,.79-1.7Z"/><path class="cls-1" d="M78.75,55.05l0,0h0Z"/><polygon class="cls-1" points="69.5 58.9 69.5 58.9 69.5 58.9 69.5 58.9"/><path class="cls-1" d="M78.75,55.05l0,0h0Z"/><polygon class="cls-1" points="77.18 77.33 77.18 77.33 77.18 77.33 77.18 77.33"/><path class="cls-1" d="M78.75,55.05l0,0h0Z"/><polygon class="cls-1" points="77.18 77.33 77.18 77.33 77.18 77.33 77.18 77.33"/><path class="cls-1" d="M78.78,55h0l0,0Z"/><path class="cls-1" d="M78.75,55.05l0,0h0Z"/><path class="cls-1" d="M151.49,35v4.08c0,4.14-3.1,7.18-8.67,7.18s-8.7-3-8.7-7.94V31.67c0-4.87,3.1-7.91,8.7-7.91,4.47,0,7.12,1.79,8.28,5.08.24.73.06,1.06-.64,1.34l-1.68.57c-.73.28-1,.13-1.3-.63-.7-1.86-2.13-2.8-4.66-2.8-3.16,0-4.9,1.52-4.9,4.32v6.72c0,2.83,1.77,4.35,4.9,4.35s4.9-1.52,4.9-3.59V37.54h-4.57c-.76,0-1-.28-1-1.07V35c0-.79.27-1,1-1h7.31c.79,0,1,.24,1,1"/><path class="cls-1" d="M168.41,31V43.5a1.51,1.51,0,0,1-1.16,1.71,15.71,15.71,0,0,1-6,1.06c-4.35,0-6.33-2.28-6.33-6.12V31c0-.7.24-.92.94-.92h1.65c.69,0,.94.22.94.92V40c0,2,1.06,3,3.31,3a9.4,9.4,0,0,0,2.8-.37.47.47,0,0,0,.31-.52V31c0-.7.24-.92.94-.92h1.67c.7,0,.92.22.92.92"/><path class="cls-1" d="M178.48,29.6c5,0,6.48,2.68,6.48,6.27v7.88c0,1.06-.25,1.37-1.1,1.73a14.53,14.53,0,0,1-5.47.79c-5.36,0-6.76-1.76-6.76-4.93,0-3.65,2-4.9,6.88-4.9,1.18,0,2.4.13,2.92.16v-.86c0-1.91-.73-3-3-3a3.45,3.45,0,0,0-3.17,1.46c-.45.64-.64.73-1.31.46l-1.21-.52c-.7-.3-.89-.67-.52-1.37,1-2,3.1-3.16,6.3-3.16m-.34,9.73c-2.31,0-2.92.73-2.92,2s.49,2,2.86,2a14.09,14.09,0,0,0,3-.24c.28-.09.37-.16.37-.43V39.49C180.82,39.46,179.33,39.33,178.14,39.33Z"/><path class="cls-1" d="M195.88,29.6c4.35,0,6.33,2.25,6.33,6.11v9.16c0,.7-.21.94-.91.94h-1.68c-.7,0-.94-.24-.94-.94V35.8c0-2-1.07-3-3.29-3a10.65,10.65,0,0,0-2.92.4.31.31,0,0,0-.21.3V44.87c0,.7-.24.94-.94.94h-1.65c-.7,0-.94-.24-.94-.94V32.37a1.52,1.52,0,0,1,1.19-1.74,15.61,15.61,0,0,1,6-1"/><path class="cls-1" d="M212.52,29.6a14.28,14.28,0,0,1,5.51.94c1,.46,1.1.7,1.1,1.67V46.33c0,4-1.89,6.63-6.67,6.63-3.28,0-5.23-1.12-6.3-2.92a.91.91,0,0,1,.37-1.52l1.16-.64c.73-.36,1.06-.27,1.52.37a3.34,3.34,0,0,0,3.16,1.55c2.16,0,3.23-1.13,3.23-3.29V45a13.34,13.34,0,0,1-3.62.55c-4.36,0-6.33-2.28-6.33-6.12V36c0-4.14,2.22-6.39,6.87-6.39m.25,3.22c-2.47,0-3.59,1-3.59,3.29v3.22c0,1.92,1.15,3,3.28,3a12.86,12.86,0,0,0,3.14-.43V33.52c0-.21,0-.27-.25-.36A9.9,9.9,0,0,0,212.77,32.82Z"/><path class="cls-1" d="M229,29.6a19.31,19.31,0,0,1,3.59.39V24.24c0-.7.25-.94,1-.94h1.67c.7,0,.91.24.91.94V43.62c0,1-.21,1.28-1.18,1.68a15.35,15.35,0,0,1-5.69,1c-4.54,0-6.61-2.25-6.61-6.15V36c0-4.11,2.13-6.36,6.36-6.36m.67,3.22c-2.4,0-3.5,1.07-3.5,3.23v4c0,2,1.19,3,3.38,3a10.85,10.85,0,0,0,2.83-.34c.21-.09.21-.15.21-.33V33.22A13,13,0,0,0,229.71,32.82Z"/><path class="cls-1" d="M246.69,29.6c4.56,0,7,2.31,7,6.08v4.51c0,3.77-2.44,6.08-7,6.08s-7-2.31-7-6.08V35.68c0-3.77,2.5-6.08,7-6.08m0,3.19c-2.22,0-3.47,1-3.47,2.89v4.51c0,1.82,1.25,2.89,3.47,2.89s3.47-1.07,3.47-2.89V35.68C250.16,33.83,248.94,32.79,246.69,32.79Z"/><path class="cls-1" d="M264.37,29.6c4.35,0,6.32,2.25,6.32,6.11v9.16c0,.7-.21.94-.91.94h-1.67c-.7,0-.94-.24-.94-.94V35.8c0-2-1.07-3-3.29-3a10.59,10.59,0,0,0-2.92.4.31.31,0,0,0-.21.3V44.87c0,.7-.25.94-.95.94h-1.64c-.7,0-.94-.24-.94-.94V32.37a1.52,1.52,0,0,1,1.18-1.74,15.71,15.71,0,0,1,6-1"/><path class="cls-1" d="M281,29.6a14.36,14.36,0,0,1,5.51.94c1,.46,1.09.7,1.09,1.67V46.33c0,4-1.89,6.63-6.66,6.63-3.29,0-5.24-1.12-6.3-2.92-.46-.67-.34-1.15.36-1.52l1.16-.64c.73-.36,1.07-.27,1.52.37a3.35,3.35,0,0,0,3.17,1.55c2.16,0,3.22-1.13,3.22-3.29V45a13.27,13.27,0,0,1-3.62.55c-4.35,0-6.33-2.28-6.33-6.12V36c0-4.14,2.22-6.39,6.88-6.39m.24,3.22c-2.46,0-3.59,1-3.59,3.29v3.22c0,1.92,1.16,3,3.29,3a12.76,12.76,0,0,0,3.13-.43V33.52c0-.21,0-.27-.24-.36A9.92,9.92,0,0,0,281.25,32.82Z"/><path class="cls-1" d="M313.14,25.25v1.49c0,.76-.25,1-1,1h-5.23v17c0,.76-.27,1-1,1h-1.76c-.76,0-1-.27-1-1v-17H297.8c-.76,0-1-.27-1-1V25.25c0-.76.27-1,1-1h14.3c.79,0,1,.28,1,1"/><path class="cls-1" d="M319.43,29.6c4.84,0,7,2.8,7,6.3v1.85c0,.79-.3,1.31-1.34,1.31H315.9v1.13c0,2,1.25,3,3.47,3A3.93,3.93,0,0,0,323,41.62c.49-.67.83-.76,1.56-.37l1.06.58c.7.33.79.85.37,1.52-1.1,1.8-3.14,2.92-6.58,2.92-5,0-7-2.77-7-6.51V36.17c0-4.23,2.46-6.57,7.05-6.57m0,3c-2.28,0-3.53,1.12-3.53,3.1v.67h7v-.67C322.93,33.7,321.75,32.58,319.43,32.58Z"/><path class="cls-1" d="M336.29,29.6c3.62,0,5.72,1.7,6.48,4,.27.76.06,1.1-.64,1.37l-1.34.43c-.73.3-1.06.09-1.37-.64a3.11,3.11,0,0,0-3.28-2c-2.22,0-3.32,1.07-3.32,3v4.51c0,1.88,1.13,3,3.32,3a3.18,3.18,0,0,0,3.31-2.1c.28-.73.58-.85,1.34-.61l1.37.4c.7.27.94.6.64,1.36-1,2.59-3.1,4.05-6.78,4.05-4.63,0-6.73-2.37-6.73-6.24v-4.2c0-3.86,2.22-6.23,7-6.23"/><path class="cls-1" d="M349.61,24.24V30a12.53,12.53,0,0,1,3.63-.42c4.35,0,6.32,2.25,6.32,6.11v9.16c0,.7-.21.94-.91.94H357c-.7,0-1-.24-1-.94V35.8c0-1.94-1.12-3-3.28-3a9.47,9.47,0,0,0-3.14.46V44.87c0,.7-.24.94-.94.94H347c-.7,0-.94-.24-.94-.94V24.24c0-.7.24-.94.94-.94h1.64c.7,0,.94.24.94.94"/><path class="cls-1" d="M370.61,29.6c4.35,0,6.33,2.25,6.33,6.11v9.16c0,.7-.22.94-.92.94h-1.67c-.7,0-.94-.24-.94-.94V35.8c0-2-1.07-3-3.29-3a10.65,10.65,0,0,0-2.92.4.31.31,0,0,0-.21.3V44.87c0,.7-.25.94-.95.94H364.4c-.7,0-.94-.24-.94-.94V32.37a1.52,1.52,0,0,1,1.19-1.74,15.61,15.61,0,0,1,6-1"/><path class="cls-1" d="M384.57,26v.27c0,1.4-.42,1.86-1.82,1.86h-.22c-1.4,0-1.85-.46-1.85-1.86V26c0-1.4.45-1.83,1.85-1.83h.22c1.4,0,1.82.43,1.82,1.83m-.15,5v13.9c0,.7-.24.94-.94.94h-1.65c-.7,0-.94-.24-.94-.94V31c0-.7.24-.92.94-.92h1.65C384.18,30.05,384.42,30.27,384.42,31Z"/><path class="cls-1" d="M395,29.6c4.56,0,7,2.31,7,6.08v4.51c0,3.77-2.43,6.08-7,6.08s-7-2.31-7-6.08V35.68c0-3.77,2.49-6.08,7-6.08m0,3.19c-2.22,0-3.47,1-3.47,2.89v4.51c0,1.82,1.25,2.89,3.47,2.89s3.47-1.07,3.47-2.89V35.68C398.42,33.83,397.2,32.79,395,32.79Z"/><path class="cls-1" d="M412.62,29.6c4.36,0,6.33,2.25,6.33,6.11v9.16c0,.7-.21.94-.91.94h-1.67c-.7,0-.95-.24-.95-.94V35.8c0-2-1.06-3-3.28-3a10.59,10.59,0,0,0-2.92.4.31.31,0,0,0-.22.3V44.87c0,.7-.24.94-.94.94h-1.64c-.7,0-.95-.24-.95-.94V32.37a1.52,1.52,0,0,1,1.19-1.74,15.65,15.65,0,0,1,6-1"/><path class="cls-1" d="M134.46,60.61h.62c.28,0,.37.09.37.37V73.52c0,.29-.09.38-.37.38h-.62c-.28,0-.37-.09-.37-.38V61c0-.28.09-.37.37-.37"/><path class="cls-1" d="M141.78,64c2.16,0,3.28.81,3.82,2.05.13.24.06.39-.17.48l-.46.21c-.27.11-.34,0-.47-.17-.4-.86-1.07-1.42-2.7-1.42s-2.45.56-2.45,1.63c0,1.47,1.18,1.61,2.83,1.76,2,.18,3.65.61,3.65,2.77,0,1.74-1.26,2.86-3.84,2.86-2.06,0-3.43-.71-4.05-2.32a.29.29,0,0,1,.21-.45l.49-.17c.22-.07.33,0,.45.21.45,1.18,1.4,1.63,2.86,1.63,1.8,0,2.64-.62,2.64-1.71,0-1.33-1.08-1.55-2.71-1.72-1.9-.19-3.79-.45-3.79-2.83,0-1.72,1.24-2.81,3.69-2.81"/><path class="cls-1" d="M152.74,64c.24,0,.33.1.33.34v.49c0,.24-.09.33-.33.33h-.62a7,7,0,0,0-2.47.4.46.46,0,0,0-.34.49v7.52c0,.26-.08.34-.34.34h-.58c-.24,0-.33-.08-.33-.34V65.62a.94.94,0,0,1,.71-1.05,10.08,10.08,0,0,1,3.39-.58h.58"/><path class="cls-1" d="M158,64c3,0,3.77,1.69,3.77,3.71v4.91c0,.65-.15.84-.68,1.06a8,8,0,0,1-3.1.49c-3.26,0-4.05-1-4.05-2.9,0-2.15,1.18-2.9,4.12-2.9a22,22,0,0,1,2.44.18v-.86c0-1.46-.47-2.56-2.53-2.56a2.76,2.76,0,0,0-2.62,1.36c-.15.21-.21.27-.45.15l-.45-.18c-.25-.1-.32-.23-.19-.49A3.85,3.85,0,0,1,158,64M158,69.41c-2,0-2.72.56-2.72,1.83s.47,1.87,2.66,1.87a6.61,6.61,0,0,0,2.27-.3c.3-.11.35-.18.35-.54v-2.7C160.17,69.54,159.06,69.41,158,69.41Z"/><path class="cls-1" d="M168.22,64c2.81,0,4.16,1.63,4.16,3.88v1c0,.32-.15.52-.57.52h-6.47v1.09c0,1.59.95,2.56,2.8,2.56a3,3,0,0,0,2.94-1.55.36.36,0,0,1,.55-.13l.39.21c.24.13.28.3.13.54-.65,1.18-1.85,2-4,2-2.79,0-4-1.53-4-3.78V68c0-2.48,1.42-4,4.14-4m0,1.09a2.54,2.54,0,0,0-2.88,2.72v.65h5.76V67.8C171.1,66.13,170.15,65.08,168.22,65.08Z"/><path class="cls-1" d="M175.69,73.9h-.58c-.26,0-.34-.08-.34-.34V60.38c0-.26.08-.34.34-.34h.58c.26,0,.34.08.34.34V73.56c0,.26-.08.34-.34.34"/><path class="cls-1" d="M184.26,60.61h.62c.28,0,.38.09.38.37V73.52c0,.29-.1.38-.38.38h-.62c-.28,0-.37-.09-.37-.38V61c0-.28.09-.37.37-.37"/><path class="cls-1" d="M192.39,64c2.56,0,3.73,1.37,3.73,3.67v5.9c0,.26-.1.34-.34.34h-.6c-.24,0-.34-.08-.34-.34V67.7c0-1.68-.8-2.55-2.62-2.55a7.16,7.16,0,0,0-2.47.42.43.43,0,0,0-.3.47v7.52c0,.26-.07.34-.34.34h-.58c-.24,0-.33-.08-.33-.34v-7.9c0-.58.15-.79.71-1a8.68,8.68,0,0,1,3.48-.64"/><path class="cls-1" d="M202.16,64c2.16,0,3.28.81,3.82,2.05.13.24.06.39-.17.48l-.46.21c-.27.11-.34,0-.47-.17-.4-.86-1.07-1.42-2.7-1.42s-2.45.56-2.45,1.63c0,1.47,1.18,1.61,2.83,1.76,2,.18,3.65.61,3.65,2.77,0,1.74-1.26,2.86-3.84,2.86-2.06,0-3.43-.71-4-2.32a.29.29,0,0,1,.2-.45l.49-.17c.22-.07.34,0,.45.21.45,1.18,1.4,1.63,2.86,1.63,1.8,0,2.64-.62,2.64-1.71,0-1.33-1.08-1.55-2.71-1.72-1.89-.19-3.78-.45-3.78-2.83,0-1.72,1.23-2.81,3.68-2.81"/><path class="cls-1" d="M210.7,62.37v1.91h2.7c.26,0,.33.07.33.33v.49c0,.24-.07.34-.33.34h-2.7V70.3c0,2.23.64,2.66,2.68,2.66.24,0,.33.1.33.36v.5c0,.27-.09.34-.33.34-2.9.06-3.93-.8-3.93-3.82v-4.9h-1.78c-.26,0-.34-.1-.34-.34v-.49c0-.26.08-.33.34-.33h1.78V62.37c0-.27.07-.34.33-.34h.58c.25,0,.34.07.34.34"/><path class="cls-1" d="M216.92,61.52v.13c0,.53-.17.7-.7.7h-.11c-.52,0-.69-.17-.69-.7v-.13c0-.52.17-.69.69-.69h.11c.53,0,.7.17.7.69m-.13,3.09v9c0,.26-.08.34-.34.34h-.58c-.26,0-.34-.08-.34-.34v-9c0-.26.08-.33.34-.33h.58C216.71,64.28,216.79,64.35,216.79,64.61Z"/><path class="cls-1" d="M221.84,62.37v1.91h2.7c.26,0,.33.07.33.33v.49c0,.24-.07.34-.33.34h-2.7V70.3c0,2.23.64,2.66,2.68,2.66.24,0,.34.1.34.36v.5c0,.27-.1.34-.34.34-2.9.06-3.93-.8-3.93-3.82v-4.9h-1.78c-.26,0-.34-.1-.34-.34v-.49c0-.26.08-.33.34-.33h1.78V62.37c0-.27.07-.34.33-.34h.58c.25,0,.34.07.34.34"/><path class="cls-1" d="M234.52,64.61v7.9c0,.58-.15.79-.71,1a8.89,8.89,0,0,1-3.51.62c-2.56,0-3.7-1.35-3.7-3.65v-5.9c0-.26.07-.33.33-.33h.58c.27,0,.34.07.34.33v5.84A2.29,2.29,0,0,0,230.47,73a6.73,6.73,0,0,0,2.44-.41.47.47,0,0,0,.33-.53V64.61c0-.26.1-.33.34-.33h.6c.24,0,.34.07.34.33"/><path class="cls-1" d="M239.52,62.37v1.91h2.69c.26,0,.34.07.34.33v.49c0,.24-.08.34-.34.34h-2.69V70.3c0,2.23.63,2.66,2.67,2.66.25,0,.34.1.34.36v.5c0,.27-.09.34-.34.34-2.9.06-3.93-.8-3.93-3.82v-4.9h-1.78c-.26,0-.33-.1-.33-.34v-.49c0-.26.07-.33.33-.33h1.78V62.37c0-.27.08-.34.34-.34h.58c.24,0,.34.07.34.34"/><path class="cls-1" d="M248.13,64c2.81,0,4.15,1.63,4.15,3.88v1c0,.32-.15.52-.56.52h-6.48v1.09c0,1.59,1,2.56,2.81,2.56A3,3,0,0,0,251,71.52c.17-.22.3-.26.54-.13l.4.21c.24.13.28.3.13.54-.66,1.18-1.85,2-4,2-2.79,0-4-1.53-4-3.78V68c0-2.48,1.42-4,4.14-4m0,1.09c-1.91,0-2.89,1-2.89,2.72v.65H251V67.8C251,66.13,250.06,65.08,248.13,65.08Z"/><path class="cls-1" d="M263.16,64c2.59,0,4.14,1.32,4.14,3.45v3.29c0,2.14-1.55,3.43-4.14,3.43s-4.1-1.29-4.1-3.43V67.44c0-2.13,1.56-3.45,4.1-3.45m0,1.15c-1.74,0-2.84.86-2.84,2.3v3.29c0,1.43,1.1,2.29,2.84,2.29s2.87-.86,2.87-2.29V67.44C266,66,264.92,65.14,263.16,65.14Z"/><path class="cls-1" d="M274.9,60.38v.49c0,.26-.07.35-.34.35-2,0-2.67.58-2.67,2.59v.47h2.71c.26,0,.34.07.34.33v.49c0,.24-.08.34-.34.34h-2.71v8.12c0,.26-.08.34-.34.34H271c-.26,0-.36-.08-.36-.34V65.44H269c-.27,0-.34-.1-.34-.34v-.49c0-.26.07-.33.34-.33h1.66v-.47c0-2.68,1.09-3.73,3.78-3.77h.15c.27,0,.34.08.34.34"/><path class="cls-1" d="M289.21,61v.52c0,.29-.1.38-.38.38h-3.78V73.52c0,.29-.09.38-.38.38h-.61c-.28,0-.38-.09-.38-.38V61.88H279.9c-.28,0-.37-.09-.37-.38V61c0-.28.09-.37.37-.37h8.93c.28,0,.38.09.38.37"/><path class="cls-1" d="M292.88,64c2.8,0,4.15,1.63,4.15,3.88v1c0,.32-.15.52-.56.52H290v1.09c0,1.59,1,2.56,2.81,2.56a3,3,0,0,0,2.94-1.55c.17-.22.3-.26.54-.13l.4.21c.24.13.28.3.13.54-.66,1.18-1.86,2-4,2-2.79,0-4-1.53-4-3.78V68c0-2.48,1.42-4,4.14-4m0,1.09c-1.91,0-2.89,1-2.89,2.72v.65h5.77V67.8C295.76,66.13,294.8,65.08,292.88,65.08Z"/><path class="cls-1" d="M303.14,64c2.28,0,3.42,1,3.89,2.53.09.28,0,.4-.22.49l-.49.17c-.26.09-.38,0-.47-.23-.39-1.23-1.16-1.83-2.77-1.83-1.85,0-2.79.95-2.79,2.53v2.86c0,1.57,1,2.55,2.79,2.55a2.6,2.6,0,0,0,2.81-1.93c.09-.26.2-.3.47-.23l.5.15c.24.1.34.21.23.49-.57,1.7-1.82,2.62-4,2.62-2.68,0-4-1.4-4-3.69V67.68c0-2.26,1.33-3.69,4.11-3.69"/><path class="cls-1" d="M310.61,60.38v4.14a7.62,7.62,0,0,1,2.94-.53c2.56,0,3.72,1.35,3.72,3.67v5.9c0,.26-.09.34-.34.34h-.59c-.25,0-.34-.08-.34-.34V67.7a2.29,2.29,0,0,0-2.62-2.55,6.56,6.56,0,0,0-2.77.55v7.86c0,.26-.08.34-.34.34h-.58c-.26,0-.34-.08-.34-.34V60.38c0-.26.08-.34.34-.34h.58c.26,0,.34.08.34.34"/><path class="cls-1" d="M324.14,64c2.57,0,3.73,1.37,3.73,3.67v5.9c0,.26-.1.34-.34.34h-.6c-.24,0-.33-.08-.33-.34V67.7c0-1.68-.81-2.55-2.63-2.55a7.21,7.21,0,0,0-2.47.42.43.43,0,0,0-.3.47v7.52c0,.26-.07.34-.33.34h-.58c-.25,0-.34-.08-.34-.34v-7.9c0-.58.15-.79.71-1a8.72,8.72,0,0,1,3.48-.64"/><path class="cls-1" d="M334.4,64c2.59,0,4.14,1.32,4.14,3.45v3.29c0,2.14-1.55,3.43-4.14,3.43s-4.1-1.29-4.1-3.43V67.44c0-2.13,1.56-3.45,4.1-3.45m0,1.15c-1.74,0-2.84.86-2.84,2.3v3.29c0,1.43,1.1,2.29,2.84,2.29s2.87-.86,2.87-2.29V67.44C337.27,66,336.16,65.14,334.4,65.14Z"/><path class="cls-1" d="M342,73.9h-.58c-.26,0-.33-.08-.33-.34V60.38c0-.26.07-.34.33-.34H342c.26,0,.34.08.34.34V73.56c0,.26-.08.34-.34.34"/><path class="cls-1" d="M349,64c2.59,0,4.14,1.32,4.14,3.45v3.29c0,2.14-1.55,3.43-4.14,3.43s-4.1-1.29-4.1-3.43V67.44c0-2.13,1.56-3.45,4.1-3.45m0,1.15c-1.74,0-2.84.86-2.84,2.3v3.29c0,1.43,1.1,2.29,2.84,2.29s2.87-.86,2.87-2.29V67.44C351.91,66,350.8,65.14,349,65.14Z"/><path class="cls-1" d="M359.38,64a8.27,8.27,0,0,1,3.16.57c.6.26.73.41.73,1v8.89c0,2.43-1.1,4-3.95,4a3.8,3.8,0,0,1-3.72-2,.34.34,0,0,1,.15-.56l.41-.21c.26-.15.37-.09.54.13a2.63,2.63,0,0,0,2.59,1.5c1.9,0,2.71-1.07,2.71-2.84V73.37a8.39,8.39,0,0,1-3,.57c-2.54,0-3.69-1.37-3.69-3.65V67.83c0-2.49,1.3-3.84,4-3.84m.09,1.16c-2,0-2.84.9-2.84,2.7v2.4a2.28,2.28,0,0,0,2.6,2.53,7.68,7.68,0,0,0,2.79-.55V66c0-.3,0-.36-.36-.49A6.28,6.28,0,0,0,359.47,65.15Z"/><path class="cls-1" d="M373.89,64.61v9.87c0,2.43-1.12,4-4,4a3.82,3.82,0,0,1-3.72-2,.34.34,0,0,1,.13-.56l.41-.21c.28-.15.39-.09.54.13a2.68,2.68,0,0,0,2.62,1.5c1.91,0,2.74-1.07,2.74-2.84V73.43a9.23,9.23,0,0,1-2.94.49c-2.57,0-3.71-1.35-3.71-3.65V64.61c0-.26.07-.33.34-.33h.58c.26,0,.33.07.33.33v5.6a2.29,2.29,0,0,0,2.62,2.57,8.36,8.36,0,0,0,2.78-.51V64.61c0-.26.09-.33.33-.33h.6c.25,0,.34.07.34.33"/><path class="cls-1" d="M142.11,86.49a14.14,14.14,0,0,1,.79,1.65h5.73v1.53H136.54v3.38a27.43,27.43,0,0,1-.38,4.39,20.61,20.61,0,0,1-1.47,4.66l-1.47-1.33a13.56,13.56,0,0,0,1.31-3.86,30.24,30.24,0,0,0,.27-3.86V88.14h6.26a9.88,9.88,0,0,0-.8-1.39l1.85-.26"/><path class="cls-1" d="M154,95.84l1.32.61a19.6,19.6,0,0,1-3.24,4.71l-1.47-1.07A23.1,23.1,0,0,0,154,95.84m-2.93-7h3.37l.88-2.06,1.6.21-.83,1.85H165V90.4h-9.55l-1.53,3.38h3.64V91.59h1.59v2.19h5.12v1.47h-5.12v4.84a1.76,1.76,0,0,1-.4,1.33,1.85,1.85,0,0,1-1.38.4h-2.19l-.34-1.73a20.05,20.05,0,0,0,2,.14c.45,0,.67-.13.67-.4V95.25h-5.83l2.09-4.85h-2.71Zm10.63,7.24a30,30,0,0,1,4,3.79l-1.25,1.26a25,25,0,0,0-3.93-3.93Z"/><path class="cls-1" d="M169.28,86.75H171V97.54a42.63,42.63,0,0,0,3.92-1.7l.39,1.6a35.26,35.26,0,0,1-7.29,2.92l-.73-1.66c.66-.17,1.32-.36,2-.57V86.75m9.49,0h1.73a29.4,29.4,0,0,1-1.12,8.46,37.13,37.13,0,0,1,3.45,4.88l-1.39,1.39a30.54,30.54,0,0,0-2.81-4.4,13.81,13.81,0,0,1-5.1,5l-1.21-1.47a12.1,12.1,0,0,0,4.76-4.4Q178.65,93.31,178.77,86.75Zm-5.05,1.59q1.78,2.82,2.8,4.85l-1.66,1.14a48.07,48.07,0,0,0-2.54-5.12Z"/><path class="cls-1" d="M189.32,86.56l1.74.19a10.73,10.73,0,0,1-.56,1h6.4v1.12a18.41,18.41,0,0,1-2.78,2.4h4.64v5.44h-11V99a1.48,1.48,0,0,0,.26,1,2.23,2.23,0,0,0,1.14.22h7.42a2,2,0,0,0,1.18-.26c.28-.21.45-1,.49-2.33l1.53.46a8.68,8.68,0,0,1-.22,1.94,2.6,2.6,0,0,1-.71,1.21,3.51,3.51,0,0,1-2,.44h-8.3a2.57,2.57,0,0,1-1.82-.53,2.77,2.77,0,0,1-.64-2.12v-7.3c-.29.16-.58.32-.87.46l-1.06-1.34a15.19,15.19,0,0,0,3.25-2,7.84,7.84,0,0,0,1.92-2.33m-2.44,4.71h4.81a24,24,0,0,0,2.9-2.13h-5.13c-.23.24-.45.46-.66.65A14.28,14.28,0,0,1,186.88,91.27Zm.86,1.46v2.52h3.71V92.73Zm5.31,0v2.52h4V92.73Z"/><path class="cls-1" d="M201.48,87.29h8.63V88.8h-4.48c-.17.83-.35,1.56-.53,2.2h4.42v1.53a17.16,17.16,0,0,1-1,4.21,9,9,0,0,1-1.8,2.81,15.38,15.38,0,0,1-3.88,2.8L201.61,101A13.17,13.17,0,0,0,206,97.86a19.78,19.78,0,0,0-2.21-2.55l1.07-1a22.06,22.06,0,0,1,2,2.17,12.81,12.81,0,0,0,1.07-4h-3.33a15,15,0,0,1-2.29,3.92l-1.13-1.39a13.31,13.31,0,0,0,1.94-3.15A14.37,14.37,0,0,0,204,88.8h-2.53V87.29m9.5.78h1.67V98.44H211Zm3.18-1.32h1.67v13.48a1.82,1.82,0,0,1-.43,1.37A1.88,1.88,0,0,1,214,102h-2.05l-.41-1.8a18.33,18.33,0,0,0,2,.13q.66,0,.66-.39Z"/><path class="cls-1" d="M218.48,87.61h5.71v1.53H222v3.39h1.8v1.53H222v3.77c.75-.27,1.45-.56,2.12-.85v1.67a45.27,45.27,0,0,1-5.51,2L218.15,99c.82-.22,1.59-.45,2.32-.68v-4.3h-1.86V92.53h1.86V89.14h-2V87.61m6.05-.46h8.64v8.23h-3.59v1.67h3.64v1.39h-3.64v1.92H234v1.4H223.2v-1.4H228V98.44h-3.31V97.05H228V95.38h-3.45Zm1.53,3.39H228V88.48h-1.92ZM228,94.06v-2.2h-1.92v2.2Zm1.6-5.58v2.06h2.06V88.48Zm2.06,5.58v-2.2h-2.06v2.2Z"/><polyline class="cls-1" points="236.14 88.02 250.1 88.02 250.1 89.6 243.98 89.6 243.98 99.63 250.76 99.63 250.76 101.23 235.48 101.23 235.48 99.63 242.19 99.63 242.19 89.6 236.14 89.6 236.14 88.02"/><path class="cls-1" d="M267.63,90.15v3.38H266v-2H254.14V93.6h-1.59V90.15h9.91A26.08,26.08,0,0,0,264,86.49l1.73.66a21.19,21.19,0,0,1-1.44,3h3.3m-12.3,2.72h9.51v1.39a31.43,31.43,0,0,1-3.93,1.87v.51h6.26V98h-6.26v2.67a1.28,1.28,0,0,1-.32.87,1.33,1.33,0,0,1-1,.46h-2.26l-.32-1.46c.52,0,1.08.06,1.67.06.35,0,.52-.13.52-.4V98h-6.3V96.64h6.3V95.52a24.28,24.28,0,0,0,3.23-1.26h-7.09Zm.6-5.85a23,23,0,0,1,1.39,2.19l-1.39.66a15.65,15.65,0,0,0-1.33-2.26Zm3.79-.46a25.93,25.93,0,0,1,1.33,2.38l-1.4.66a19.3,19.3,0,0,0-1.26-2.45Z"/><path class="cls-1" d="M269.89,87.22h5.3v1.19c-.36,1.29-.78,2.66-1.26,4.12a10.06,10.06,0,0,1,.92,2.09,4.89,4.89,0,0,1,.34,1.63,3,3,0,0,1-.54,1.9,3.17,3.17,0,0,1-2.45.68l-.46-1.6a4.56,4.56,0,0,0,.8.07,1,1,0,0,0,.76-.24c.2-.12.29-.39.29-.81a4.37,4.37,0,0,0-.24-1.45,9.49,9.49,0,0,0-1-2.07,33.73,33.73,0,0,0,1.26-4h-2.12v13.49h-1.58v-15m5.57,7h9.37v1.46h-3.2V100c0,.35.2.53.6.53h.66a.45.45,0,0,0,.41-.26,10,10,0,0,0,.2-2.46l1.45.46a7.51,7.51,0,0,1-.58,3.16,1.44,1.44,0,0,1-1.27.49h-1.47a1.52,1.52,0,0,1-1.1-.39,1.39,1.39,0,0,1-.43-1.07V95.65H279a10,10,0,0,1-.85,3.83,6.81,6.81,0,0,1-3.17,2.74l-1.07-1.33A6.25,6.25,0,0,0,276.57,99a6.74,6.74,0,0,0,.92-3.35h-2ZM280,86.56c.24.47.49,1,.73,1.58h3.79v3.72h-.87v.8h-7.43v-.8h-1V88.14h3.79a11.31,11.31,0,0,0-.73-1.33Zm-3.25,4.64H283V89.6h-6.24Z"/></svg>