<svg id="Layer_1" data-name="Layer 1" xmlns="http://www.w3.org/2000/svg" viewBox="0 0 383 111.48"><defs><style>.cls-1{fill:#003c67;}.cls-2{fill:#fff;}.cls-3,.cls-4{fill:none;}.cls-3{stroke:#fff;stroke-linecap:round;stroke-linejoin:round;stroke-width:2px;}.cls-4{stroke:#003c67;stroke-miterlimit:10;}</style></defs><path class="cls-1" d="M383,.16v47h-.12v-.34a12.58,12.58,0,0,0-1.42-6.12,10.05,10.05,0,0,0-4-4.06,11.76,11.76,0,0,0-5.93-1.45,12.35,12.35,0,0,0-4.69.87,10.94,10.94,0,0,0-3.71,2.46,10.1,10.1,0,0,0-2.33,3.79h-.2a9.11,9.11,0,0,0-1.88-3.87A8.85,8.85,0,0,0,355.49,36a10.82,10.82,0,0,0-4.35-.83A10.39,10.39,0,0,0,345.09,37a9.56,9.56,0,0,0-3.62,4.74h-.19V35.89h-9.41V69.43H319.23a13.82,13.82,0,0,0,5.9-5.37,12.51,12.51,0,0,0,1.51-3.83l.1-.36H318.1l-.06.19A5.09,5.09,0,0,1,316.82,62a7.28,7.28,0,0,1-2.32,1.54,8.44,8.44,0,0,1-3.36.61A7.86,7.86,0,0,1,306.92,63a6.94,6.94,0,0,1-2.72-3.1,11.16,11.16,0,0,1-.94-4.52H327V52.49a19.65,19.65,0,0,0-2-9.12,14.6,14.6,0,0,0-5.71-6,17.09,17.09,0,0,0-8.75-2.14,16.91,16.91,0,0,0-8.78,2.2A15,15,0,0,0,296,43.64a20.76,20.76,0,0,0-2.07,9.56v0A20.59,20.59,0,0,0,296,62.77a14.63,14.63,0,0,0,5.86,6.2c.29.16.58.32.88.46H289.2V48.75a16.4,16.4,0,0,0-1.47-7.22,11,11,0,0,0-4.17-4.69,12.24,12.24,0,0,0-6.48-1.65,11.92,11.92,0,0,0-6.56,1.72,10.54,10.54,0,0,0-4,5h-.2V23.94h-9.41V69.43H240.39c.27-.11.53-.23.79-.36a18.54,18.54,0,0,0,7.11-6,17.85,17.85,0,0,0,3.14-8.76l0-.36H242l-.06.32a11.93,11.93,0,0,1-2.1,4.72,9.77,9.77,0,0,1-3.67,3,11.73,11.73,0,0,1-5,1,11,11,0,0,1-6.46-1.92,12.34,12.34,0,0,1-4.25-5.48,21.68,21.68,0,0,1-1.5-8.46v0a21.27,21.27,0,0,1,1.5-8.38,12.34,12.34,0,0,1,4.24-5.43,11,11,0,0,1,6.47-1.92,11.53,11.53,0,0,1,5.1,1.07,9.75,9.75,0,0,1,3.61,3,11.32,11.32,0,0,1,2,4.48l.13.55h9.51l0-.32a18,18,0,0,0-3.13-8.77,18.46,18.46,0,0,0-7.09-6,22.34,22.34,0,0,0-10.06-2.19A23,23,0,0,0,219.35,26a19.32,19.32,0,0,0-7.69,8.25A28.34,28.34,0,0,0,209,47.14v0a28.42,28.42,0,0,0,2.71,12.89,19.47,19.47,0,0,0,7.69,8.29,20.56,20.56,0,0,0,2.15,1.08H195.92c.28-.13.55-.27.82-.42a14.76,14.76,0,0,0,5.95-6.17,20.7,20.7,0,0,0,2.11-9.67V53.1a20.3,20.3,0,0,0-2.13-9.62,14.84,14.84,0,0,0-6-6.15,20,20,0,0,0-18,0,15,15,0,0,0-6,6.18,20,20,0,0,0-2.14,9.58v.07a20.57,20.57,0,0,0,2.11,9.65A14.7,14.7,0,0,0,178.6,69c.27.15.54.29.82.42H158.36V51.11a9.46,9.46,0,0,1,.87-4.26,6,6,0,0,1,2.51-2.64,8.17,8.17,0,0,1,4-.9,11.84,11.84,0,0,1,1.93.14,6.37,6.37,0,0,1,1.48.4V35.54a7.81,7.81,0,0,0-1.22-.26,11.93,11.93,0,0,0-1.49-.09A7.44,7.44,0,0,0,161.35,37a9.29,9.29,0,0,0-2.8,5h-.19v-6H149V69.43h-5.19V63.9l-.9.11c-.33,0-.7,0-1.13,0a4.75,4.75,0,0,1-3.21-1,4.34,4.34,0,0,1-1.08-3.37V43h6.32V35.89h-6.32V27.45h-9.5v8.44h-4.81V43h4.81V60.77q0,5.55,2.77,8a6.65,6.65,0,0,0,.95.7H113.27l.08,0a13.8,13.8,0,0,0,5.4-4.75,13.59,13.59,0,0,0,2.19-6.77v-.19h-8.76l-.07.29a7.17,7.17,0,0,1-2.17,4.2,6.42,6.42,0,0,1-4.56,1.6,6.55,6.55,0,0,1-4-1.24,7.91,7.91,0,0,1-2.62-3.61,16,16,0,0,1-.91-5.75v0a15.7,15.7,0,0,1,.91-5.66,8.12,8.12,0,0,1,2.62-3.64,7.09,7.09,0,0,1,8.62.4,7.41,7.41,0,0,1,2.12,4.13l0,.29h8.77v-.23a13.36,13.36,0,0,0-2.14-6.73,13.69,13.69,0,0,0-5.4-4.76,19.75,19.75,0,0,0-17.13.42,14.84,14.84,0,0,0-5.91,6.19,20.33,20.33,0,0,0-2.1,9.55v0a20.76,20.76,0,0,0,2.08,9.58A14.84,14.84,0,0,0,96.22,69a9.59,9.59,0,0,0,.9.47H76.89a13.62,13.62,0,0,0,2.85-1.82,13.83,13.83,0,0,0,3.05-3.55,12.77,12.77,0,0,0,1.51-3.83l.1-.36H75.76l-.06.19A5.25,5.25,0,0,1,74.47,62a7.07,7.07,0,0,1-2.32,1.54,8.35,8.35,0,0,1-3.35.61A7.86,7.86,0,0,1,64.58,63a6.94,6.94,0,0,1-2.72-3.1,11,11,0,0,1-1-4.52H84.69V52.49a19.53,19.53,0,0,0-2-9.12,14.52,14.52,0,0,0-5.7-6,17.12,17.12,0,0,0-8.75-2.14,16.91,16.91,0,0,0-8.78,2.2,15.09,15.09,0,0,0-5.79,6.25,20.89,20.89,0,0,0-2.06,9.56v0a20.72,20.72,0,0,0,2.06,9.54A14.65,14.65,0,0,0,59.52,69c.28.16.57.32.87.46H46.53V23.94H37.12V69.43H30.68v-7H9.6V50.75H29.48V43.11H9.6V32H30.68v-8H0V.16Z"/><path class="cls-1" d="M61,49.46a10.08,10.08,0,0,1,.84-3.08,7.06,7.06,0,0,1,2.64-3.11,7.21,7.21,0,0,1,3.88-1.06,7.13,7.13,0,0,1,3.85,1,6.86,6.86,0,0,1,2.6,3.08,10.53,10.53,0,0,1,.82,3.14Z"/><path class="cls-1" d="M195.19,53.17a15.79,15.79,0,0,1-.92,5.75,7.87,7.87,0,0,1-2.59,3.61,6.46,6.46,0,0,1-4,1.24,6.65,6.65,0,0,1-4-1.24,7.79,7.79,0,0,1-2.63-3.61,16,16,0,0,1-.92-5.75V53.1a15.23,15.23,0,0,1,.94-5.67,8.09,8.09,0,0,1,2.62-3.61,6.44,6.44,0,0,1,4-1.25,6.52,6.52,0,0,1,4,1.24,8,8,0,0,1,2.63,3.6,15.59,15.59,0,0,1,.93,5.69Z"/><path class="cls-1" d="M279.75,50.69V69.43H266.28V50.65a8.86,8.86,0,0,1,.86-4,6.65,6.65,0,0,1,2.38-2.7,6.48,6.48,0,0,1,3.6-1A6.09,6.09,0,0,1,278.05,45,8.57,8.57,0,0,1,279.75,50.69Z"/><path class="cls-1" d="M303.36,49.46a10.68,10.68,0,0,1,.84-3.08,7.06,7.06,0,0,1,2.64-3.11,7.21,7.21,0,0,1,3.88-1.06,7.14,7.14,0,0,1,3.86,1,6.85,6.85,0,0,1,2.59,3.08,10.53,10.53,0,0,1,.82,3.14Z"/><path class="cls-1" d="M352.84,48.91V69.43H341.28V49.59a7.49,7.49,0,0,1,.75-3.42,5.94,5.94,0,0,1,2.11-2.33,5.77,5.77,0,0,1,3.13-.86,5.34,5.34,0,0,1,4.09,1.57A6.06,6.06,0,0,1,352.84,48.91Z"/><path class="cls-1" d="M373.47,49.2V69.43H361.9v-20a7.35,7.35,0,0,1,.74-3.38,5.57,5.57,0,0,1,2.08-2.27,5.81,5.81,0,0,1,3.11-.83A5.33,5.33,0,0,1,372,44.6,6.63,6.63,0,0,1,373.47,49.2Z"/><path class="cls-1" d="M75.65,49.46H61a10.08,10.08,0,0,1,.84-3.08,7.06,7.06,0,0,1,2.64-3.11,7.21,7.21,0,0,1,3.88-1.06,7.13,7.13,0,0,1,3.85,1,6.86,6.86,0,0,1,2.6,3.08A10.53,10.53,0,0,1,75.65,49.46Z"/><path class="cls-1" d="M195.19,53.1v.07a15.79,15.79,0,0,1-.92,5.75,7.87,7.87,0,0,1-2.59,3.61,6.46,6.46,0,0,1-4,1.24,6.65,6.65,0,0,1-4-1.24,7.79,7.79,0,0,1-2.63-3.61,16,16,0,0,1-.92-5.75V53.1a15.23,15.23,0,0,1,.94-5.67,8.09,8.09,0,0,1,2.62-3.61,6.44,6.44,0,0,1,4-1.25,6.52,6.52,0,0,1,4,1.24,8,8,0,0,1,2.63,3.6A15.59,15.59,0,0,1,195.19,53.1Z"/><path class="cls-2" d="M303.36,49.46a10.68,10.68,0,0,1,.84-3.08,7.06,7.06,0,0,1,2.64-3.11,7.21,7.21,0,0,1,3.88-1.06,7.14,7.14,0,0,1,3.86,1,6.85,6.85,0,0,1,2.59,3.08,10.53,10.53,0,0,1,.82,3.14Z"/><path class="cls-1" d="M318,49.46H303.36a10.68,10.68,0,0,1,.84-3.08,7.06,7.06,0,0,1,2.64-3.11,7.21,7.21,0,0,1,3.88-1.06,7.14,7.14,0,0,1,3.86,1,6.85,6.85,0,0,1,2.59,3.08A10.53,10.53,0,0,1,318,49.46Z"/><path class="cls-3" d="M69,27.51V20.22c0-6,4.62-10.89,10.31-10.89H300.69A10.55,10.55,0,0,1,311,19.15"/><polygon class="cls-2" points="305.5 15.36 310.74 17.43 315.87 15.09 311 27.51 305.5 15.36"/><path class="cls-1" d="M4.61,83H6.47v19.73H4.61Z"/><path class="cls-1" d="M9.86,88.55h1.8V91h0a4.71,4.71,0,0,1,1.72-1.92,5.21,5.21,0,0,1,2.89-.76A4.81,4.81,0,0,1,20,89.72a5.57,5.57,0,0,1,1.33,3.94v9.11H19.52V94a4.34,4.34,0,0,0-.95-3,3.61,3.61,0,0,0-2.78-1,4.15,4.15,0,0,0-2.17.56A3.94,3.94,0,0,0,12.17,92a5,5,0,0,0-.51,2.33v8.43H9.86Z"/><path class="cls-1" d="M26,102.16a3.73,3.73,0,0,1-.87-2.73V90.07H23V88.55h2.09V84.71H27v3.84h2.81v1.52H27V99.4a2.19,2.19,0,0,0,.5,1.64,2.12,2.12,0,0,0,1.5.47l.44,0,.37,0v1.47l-.53.07c-.21,0-.43,0-.65,0A3.55,3.55,0,0,1,26,102.16Z"/><path class="cls-1" d="M34.12,102.13a5.89,5.89,0,0,1-2.23-2.54,8.89,8.89,0,0,1-.79-3.89v0a9,9,0,0,1,.79-3.89A6,6,0,0,1,34.1,89.2a6.55,6.55,0,0,1,6.61,0,5.78,5.78,0,0,1,2.14,2.48,8.57,8.57,0,0,1,.76,3.73v.71H32V94.66H42.74L41.82,96v-.69a6.82,6.82,0,0,0-.57-2.94,4.08,4.08,0,0,0-1.55-1.81,4.28,4.28,0,0,0-6.2,1.85,6.61,6.61,0,0,0-.58,2.9V96a6.75,6.75,0,0,0,.58,3,4.26,4.26,0,0,0,1.64,1.86,4.61,4.61,0,0,0,2.47.64,5,5,0,0,0,1.86-.32,3.66,3.66,0,0,0,1.37-.91,3.56,3.56,0,0,0,.78-1.36l0-.13h1.77l0,.14a5,5,0,0,1-.69,1.67,5.06,5.06,0,0,1-1.27,1.34,5.87,5.87,0,0,1-1.75.88,7.26,7.26,0,0,1-2.13.31A6.43,6.43,0,0,1,34.12,102.13Z"/><path class="cls-1" d="M46,88.55h1.81V91.1h0A4,4,0,0,1,49.17,89a3.36,3.36,0,0,1,2.21-.75,4.29,4.29,0,0,1,.65,0l.47.11v1.77a2,2,0,0,0-.53-.15,5.17,5.17,0,0,0-.84-.06,3.06,3.06,0,0,0-1.74.49,3.11,3.11,0,0,0-1.15,1.37,5,5,0,0,0-.4,2.09v8.81H46Z"/><path class="cls-1" d="M55.4,90.07h-2V88.55h2v-2a3.84,3.84,0,0,1,.92-2.83,3.69,3.69,0,0,1,2.7-.91c.25,0,.49,0,.73,0a5.43,5.43,0,0,1,.58.08v1.47l-.48,0h-.54a2.16,2.16,0,0,0-1.58.54,2.32,2.32,0,0,0-.56,1.73v2h3.08v1.52h-3v12.7H55.4Z"/><path class="cls-1" d="M63.34,102.5a4,4,0,0,1-2.26-3.67v0a3.51,3.51,0,0,1,1.33-2.88,6.62,6.62,0,0,1,3.77-1.21l5.34-.34v1.41l-5.12.34a4.74,4.74,0,0,0-2.57.82,2.2,2.2,0,0,0-.91,1.86v0a2.3,2.3,0,0,0,.9,1.89,3.63,3.63,0,0,0,2.34.72,4.8,4.8,0,0,0,2.26-.53A4.2,4.2,0,0,0,70,99.47a3.64,3.64,0,0,0,.59-2V93.2a3.15,3.15,0,0,0-.92-2.42,3.58,3.58,0,0,0-2.59-.88,4.2,4.2,0,0,0-2.52.7,2.91,2.91,0,0,0-1.21,1.91l0,.14H61.6l0-.16a4.46,4.46,0,0,1,.83-2.18,4.76,4.76,0,0,1,1.89-1.48,6.68,6.68,0,0,1,2.79-.54,6.29,6.29,0,0,1,2.81.58,4.32,4.32,0,0,1,1.83,1.65A4.76,4.76,0,0,1,72.42,93v9.74H70.61v-2.61h0a4.35,4.35,0,0,1-1.1,1.5A5.61,5.61,0,0,1,65.8,103,5.5,5.5,0,0,1,63.34,102.5Z"/><path class="cls-1" d="M77.79,102.12a5.88,5.88,0,0,1-2.25-2.57,8.91,8.91,0,0,1-.8-3.91h0a8.85,8.85,0,0,1,.8-3.89,6,6,0,0,1,2.26-2.55,6.86,6.86,0,0,1,6.29-.26,5.62,5.62,0,0,1,2,1.68A5.21,5.21,0,0,1,87,92.88V93H85.26l0-.12a4,4,0,0,0-1.33-2.11,4.09,4.09,0,0,0-2.72-.87,4.17,4.17,0,0,0-2.41.71,4.65,4.65,0,0,0-1.61,2,7.53,7.53,0,0,0-.57,3.06h0a7.56,7.56,0,0,0,.57,3.08,4.61,4.61,0,0,0,1.62,2,4.32,4.32,0,0,0,2.43.69,4.15,4.15,0,0,0,2.65-.82,3.91,3.91,0,0,0,1.37-2.16l0-.12H87l0,.11a5.23,5.23,0,0,1-1,2.36,5.51,5.51,0,0,1-2,1.64,6.15,6.15,0,0,1-2.79.61A6.37,6.37,0,0,1,77.79,102.12Z"/><path class="cls-1" d="M91.6,102.13a5.82,5.82,0,0,1-2.23-2.54,8.89,8.89,0,0,1-.79-3.89v0a9,9,0,0,1,.79-3.89,5.8,5.8,0,0,1,5.53-3.5,6,6,0,0,1,3.28.88,5.8,5.8,0,0,1,2.15,2.48,8.57,8.57,0,0,1,.76,3.73v.71H89.48V94.66h10.73L99.3,96v-.69a6.82,6.82,0,0,0-.57-2.94,4.16,4.16,0,0,0-1.56-1.81,4.24,4.24,0,0,0-2.29-.62A4.14,4.14,0,0,0,91,92.37a6.61,6.61,0,0,0-.58,2.9V96a6.75,6.75,0,0,0,.58,3,4.3,4.3,0,0,0,1.63,1.86,4.65,4.65,0,0,0,2.48.64,5,5,0,0,0,1.86-.32,3.62,3.62,0,0,0,1.36-.91,3.32,3.32,0,0,0,.78-1.36l0-.13h1.78l0,.14a4.62,4.62,0,0,1-.69,1.67,4.87,4.87,0,0,1-1.26,1.34,6,6,0,0,1-1.75.88,7.31,7.31,0,0,1-2.13.31A6.4,6.4,0,0,1,91.6,102.13Z"/><path class="cls-1" d="M109.52,83h1.69v24.51h-1.69Z"/><path class="cls-1" d="M124,101.82a8.41,8.41,0,0,1-3.11-3.55,12.28,12.28,0,0,1-1.09-5.37v0a12.3,12.3,0,0,1,1.09-5.38A8.28,8.28,0,0,1,124,84a8.75,8.75,0,0,1,4.72-1.25,8.45,8.45,0,0,1,3.68.79,7.45,7.45,0,0,1,2.72,2.18,7.72,7.72,0,0,1,1.45,3.24l0,.14h-1.87l-.07-.25a6.46,6.46,0,0,0-1.19-2.32,5.5,5.5,0,0,0-2-1.51,7.17,7.17,0,0,0-6.45.5,6.81,6.81,0,0,0-2.44,2.93,10.75,10.75,0,0,0-.86,4.46v0a10.58,10.58,0,0,0,.87,4.45,6.9,6.9,0,0,0,2.45,3,7.05,7.05,0,0,0,6.41.51,5.5,5.5,0,0,0,2-1.55,6.45,6.45,0,0,0,1.22-2.41l.05-.12h1.87l0,.13a7.74,7.74,0,0,1-1.45,3.26,7.39,7.39,0,0,1-2.71,2.17,8.46,8.46,0,0,1-3.69.78A8.68,8.68,0,0,1,124,101.82Z"/><path class="cls-1" d="M141.43,102.12a6.06,6.06,0,0,1-2.27-2.55,8.83,8.83,0,0,1-.82-3.91v0a8.76,8.76,0,0,1,.82-3.9,6.06,6.06,0,0,1,2.27-2.55,6.9,6.9,0,0,1,6.78,0,6.19,6.19,0,0,1,2.28,2.54,8.74,8.74,0,0,1,.82,3.91v0a8.74,8.74,0,0,1-.82,3.91,6,6,0,0,1-5.66,3.46A6.56,6.56,0,0,1,141.43,102.12Zm5.84-1.39a4.58,4.58,0,0,0,1.62-2,7.68,7.68,0,0,0,.57-3.09v0a7.61,7.61,0,0,0-.57-3.09,4.24,4.24,0,0,0-4.08-2.64,4.34,4.34,0,0,0-2.42.68,4.61,4.61,0,0,0-1.62,2,7.43,7.43,0,0,0-.58,3.08v0a7.51,7.51,0,0,0,.58,3.09,4.58,4.58,0,0,0,1.62,2,4.32,4.32,0,0,0,2.45.68A4.27,4.27,0,0,0,147.27,100.73Z"/><path class="cls-1" d="M153.71,88.55h1.81V91h0a4.64,4.64,0,0,1,1.72-1.92,5.18,5.18,0,0,1,2.89-.76,4.84,4.84,0,0,1,3.69,1.42,5.57,5.57,0,0,1,1.32,3.94v9.11h-1.8V94a4.29,4.29,0,0,0-1-3,3.59,3.59,0,0,0-2.77-1,4.18,4.18,0,0,0-2.18.56A3.84,3.84,0,0,0,156,92a5,5,0,0,0-.51,2.33v8.43h-1.81Z"/><path class="cls-1" d="M166.88,88.55h1.9l4.32,12.33h.05l4.34-12.33h1.87l-5.28,14.22h-1.91Z"/><path class="cls-1" d="M183,102.13a5.89,5.89,0,0,1-2.23-2.54A8.89,8.89,0,0,1,180,95.7v0a9,9,0,0,1,.79-3.89,6.26,6.26,0,0,1,8.82-2.62,5.78,5.78,0,0,1,2.14,2.48,8.57,8.57,0,0,1,.76,3.73v.71h-11.6V94.66h10.73l-.92,1.3v-.69a6.82,6.82,0,0,0-.57-2.94,4.08,4.08,0,0,0-1.55-1.81,4.3,4.3,0,0,0-6.2,1.85,6.61,6.61,0,0,0-.58,2.9V96a6.75,6.75,0,0,0,.58,3,4.26,4.26,0,0,0,1.64,1.86,4.61,4.61,0,0,0,2.47.64,5,5,0,0,0,1.86-.32,3.66,3.66,0,0,0,1.37-.91,3.56,3.56,0,0,0,.78-1.36l0-.13h1.77l0,.14a5,5,0,0,1-.69,1.67,5.06,5.06,0,0,1-1.27,1.34,5.87,5.87,0,0,1-1.75.88,7.21,7.21,0,0,1-2.13.31A6.43,6.43,0,0,1,183,102.13Z"/><path class="cls-1" d="M194.93,88.55h1.81V91.1h0A4,4,0,0,1,198.07,89a3.36,3.36,0,0,1,2.21-.75,4.29,4.29,0,0,1,.65,0l.47.11v1.77a2,2,0,0,0-.53-.15A5.17,5.17,0,0,0,200,90a3.05,3.05,0,0,0-2.89,1.86,5,5,0,0,0-.4,2.09v8.81h-1.81Z"/><path class="cls-1" d="M205.33,102.49a4.85,4.85,0,0,1-1.91-1.49,4.45,4.45,0,0,1-.84-2.21l0-.12h1.79l0,.12a3,3,0,0,0,1.19,2,4.15,4.15,0,0,0,2.57.74,5.25,5.25,0,0,0,1.88-.31,2.78,2.78,0,0,0,1.22-.86,2.17,2.17,0,0,0,.43-1.31h0a1.92,1.92,0,0,0-.58-1.48,4.5,4.5,0,0,0-2-.89l-2.14-.5a6.47,6.47,0,0,1-3-1.41,3.13,3.13,0,0,1-1-2.38v0a3.51,3.51,0,0,1,.65-2.09,4.27,4.27,0,0,1,1.79-1.43,6.22,6.22,0,0,1,2.62-.52,6.12,6.12,0,0,1,2.65.54,4.52,4.52,0,0,1,1.79,1.49,4.39,4.39,0,0,1,.76,2.18v.15h-1.72l0-.1a3,3,0,0,0-1.07-2,3.72,3.72,0,0,0-2.4-.74,4.26,4.26,0,0,0-1.7.31,2.58,2.58,0,0,0-1.12.86,2.16,2.16,0,0,0-.39,1.28h0a1.83,1.83,0,0,0,.61,1.41,4.76,4.76,0,0,0,2,.9l2.13.51a6.29,6.29,0,0,1,3,1.4,3.23,3.23,0,0,1,.89,2.38v0a3.49,3.49,0,0,1-.69,2.14,4.72,4.72,0,0,1-1.91,1.46,6.91,6.91,0,0,1-2.77.53A6.77,6.77,0,0,1,205.33,102.49Z"/><path class="cls-1" d="M216.13,85.63a1.21,1.21,0,0,1,0-1.7,1.15,1.15,0,0,1,.84-.35,1.19,1.19,0,0,1,.86.35,1.23,1.23,0,0,1,0,1.7A1.19,1.19,0,0,1,217,86,1.15,1.15,0,0,1,216.13,85.63Zm-.06,2.92h1.8v14.22h-1.8Z"/><path class="cls-1" d="M223.51,102.12a6,6,0,0,1-2.28-2.55,8.83,8.83,0,0,1-.81-3.91v0a8.76,8.76,0,0,1,.81-3.9,6,6,0,0,1,2.28-2.55,6.88,6.88,0,0,1,6.77,0,6.19,6.19,0,0,1,2.28,2.54,8.74,8.74,0,0,1,.82,3.91v0a8.74,8.74,0,0,1-.82,3.91A6,6,0,0,1,226.9,103,6.5,6.5,0,0,1,223.51,102.12Zm5.83-1.39a4.44,4.44,0,0,0,1.62-2,7.68,7.68,0,0,0,.57-3.09v0a7.61,7.61,0,0,0-.57-3.09,4.33,4.33,0,0,0-1.62-2,4.45,4.45,0,0,0-2.46-.68,4.36,4.36,0,0,0-2.42.68,4.61,4.61,0,0,0-1.62,2,7.59,7.59,0,0,0-.58,3.08v0a7.67,7.67,0,0,0,.58,3.09,4.58,4.58,0,0,0,1.62,2,4.34,4.34,0,0,0,2.45.68A4.27,4.27,0,0,0,229.34,100.73Z"/><path class="cls-1" d="M235.78,88.55h1.81V91h0a4.64,4.64,0,0,1,1.72-1.92,5.21,5.21,0,0,1,2.89-.76,4.84,4.84,0,0,1,3.69,1.42,5.57,5.57,0,0,1,1.32,3.94v9.11h-1.8V94a4.29,4.29,0,0,0-1-3,3.57,3.57,0,0,0-2.77-1,4.18,4.18,0,0,0-2.18.56A3.84,3.84,0,0,0,238.1,92a5,5,0,0,0-.51,2.33v8.43h-1.81Z"/><path class="cls-1" d="M256.31,83H258v24.51h-1.68Z"/><path class="cls-1" d="M266.72,101.41,278.6,84.77v0H267.12V83h13.82v1.35L269.1,101v0h12v1.69H266.72Z"/><path class="cls-1" d="M284.05,83h1.8v8.11h0a4.55,4.55,0,0,1,1.75-2.08,5.29,5.29,0,0,1,2.9-.77,5.08,5.08,0,0,1,2.7.71A4.68,4.68,0,0,1,295,91a6.62,6.62,0,0,1,.64,3v8.75h-1.79V94.3a4.65,4.65,0,0,0-1.05-3.25A3.69,3.69,0,0,0,290,89.9a3.94,3.94,0,0,0-3.59,2.15,5.11,5.11,0,0,0-.51,2.34v8.38h-1.8Z"/><path class="cls-1" d="M301,102.13a5.91,5.91,0,0,1-2.24-2.54A9,9,0,0,1,298,95.7v0a9.09,9.09,0,0,1,.79-3.89A6.12,6.12,0,0,1,301,89.2a6.55,6.55,0,0,1,6.61,0,5.87,5.87,0,0,1,2.15,2.48,8.71,8.71,0,0,1,.75,3.73v.71h-11.6V94.66h10.73l-.92,1.3v-.69a7,7,0,0,0-.56-2.94,4.16,4.16,0,0,0-1.56-1.81,4.3,4.3,0,0,0-6.2,1.85,6.75,6.75,0,0,0-.58,2.9V96a6.89,6.89,0,0,0,.58,3,4.32,4.32,0,0,0,1.64,1.86,4.61,4.61,0,0,0,2.47.64,4.9,4.9,0,0,0,1.86-.32,3.49,3.49,0,0,0,2.15-2.27l0-.13h1.78l0,.14a5,5,0,0,1-.69,1.67,4.76,4.76,0,0,1-1.27,1.34,5.87,5.87,0,0,1-1.75.88,7.21,7.21,0,0,1-2.13.31A6.37,6.37,0,0,1,301,102.13Z"/><path class="cls-1" d="M312.93,88.55h1.81V91h0a4.64,4.64,0,0,1,1.72-1.92,5.21,5.21,0,0,1,2.89-.76,4.83,4.83,0,0,1,3.69,1.42,5.57,5.57,0,0,1,1.33,3.94v9.11H322.6V94a4.29,4.29,0,0,0-1-3,3.57,3.57,0,0,0-2.77-1,4.18,4.18,0,0,0-2.18.56A3.84,3.84,0,0,0,315.25,92a5,5,0,0,0-.51,2.33v8.43h-1.81Z"/><path class="cls-1" d="M330.42,107.33a5.53,5.53,0,0,1-2-1.31,4.06,4.06,0,0,1-1-1.83l0-.11h1.82l.05.12a2.93,2.93,0,0,0,1.42,1.43,5.6,5.6,0,0,0,2.68.57,4.48,4.48,0,0,0,3.18-1.07,3.75,3.75,0,0,0,1.14-2.88V99.73h0a4.93,4.93,0,0,1-1.07,1.66,5.08,5.08,0,0,1-1.67,1.13,5.31,5.31,0,0,1-2.1.41,5.48,5.48,0,0,1-3.15-.91,5.92,5.92,0,0,1-2.12-2.56,9,9,0,0,1-.76-3.86h0a9,9,0,0,1,.77-3.84,6.12,6.12,0,0,1,2.13-2.55,5.53,5.53,0,0,1,3.16-.91,5,5,0,0,1,2.09.43,5.34,5.34,0,0,1,1.64,1.17,5.5,5.5,0,0,1,1.08,1.68h0v-3h1.79v13.86a5.37,5.37,0,0,1-.73,2.85,5,5,0,0,1-2.11,1.88,7.28,7.28,0,0,1-3.25.67A8.14,8.14,0,0,1,330.42,107.33Zm5.06-6.73a4.78,4.78,0,0,0,1.6-2,7.37,7.37,0,0,0,.57-3h0a7.28,7.28,0,0,0-.57-3,4.75,4.75,0,0,0-1.6-2,4.07,4.07,0,0,0-2.37-.71,4.13,4.13,0,0,0-2.39.71,4.55,4.55,0,0,0-1.58,2,7.3,7.3,0,0,0-.56,3h0a7.37,7.37,0,0,0,.56,3,4.52,4.52,0,0,0,1.58,2,4.13,4.13,0,0,0,2.39.71A4,4,0,0,0,335.48,100.6Z"/><path class="cls-1" d="M348.41,83h1.81v19.73h-1.81Z"/><path class="cls-1" d="M355.21,102.5a3.92,3.92,0,0,1-1.66-1.48,4,4,0,0,1-.6-2.19v0a3.49,3.49,0,0,1,1.33-2.88,6.62,6.62,0,0,1,3.77-1.21l5.33-.34v1.41l-5.11.34a4.81,4.81,0,0,0-2.58.82,2.23,2.23,0,0,0-.91,1.86v0a2.29,2.29,0,0,0,.91,1.89,3.62,3.62,0,0,0,2.33.72,4.84,4.84,0,0,0,2.27-.53,4.2,4.2,0,0,0,1.6-1.44,3.72,3.72,0,0,0,.59-2V93.2a3.19,3.19,0,0,0-.92-2.42A3.6,3.6,0,0,0,359,89.9a4.2,4.2,0,0,0-2.52.7,2.87,2.87,0,0,0-1.21,1.91l0,.14h-1.74l0-.16a4.37,4.37,0,0,1,.83-2.18,4.62,4.62,0,0,1,1.89-1.48,6.68,6.68,0,0,1,2.79-.54,6.22,6.22,0,0,1,2.8.58,4.4,4.4,0,0,1,1.84,1.65,4.76,4.76,0,0,1,.65,2.51v9.74h-1.81v-2.61h0a4.25,4.25,0,0,1-1.11,1.5,5.56,5.56,0,0,1-3.66,1.37A5.5,5.5,0,0,1,355.21,102.5Z"/><path class="cls-1" d="M371.19,102.14a5.28,5.28,0,0,1-1.9-2.38h0v3h-1.81V83h1.81v8.49h0a5.22,5.22,0,0,1,1.91-2.36,5.12,5.12,0,0,1,3-.88,5.38,5.38,0,0,1,3.12.91,6.13,6.13,0,0,1,2.11,2.57,9.12,9.12,0,0,1,.76,3.87v0a9.31,9.31,0,0,1-.75,3.87,6,6,0,0,1-2.11,2.58,5.49,5.49,0,0,1-3.16.92A5,5,0,0,1,371.19,102.14Zm5-1.43a4.53,4.53,0,0,0,1.57-2,7.76,7.76,0,0,0,.56-3v0a7.67,7.67,0,0,0-.56-3,4.5,4.5,0,0,0-1.57-2,4.08,4.08,0,0,0-2.38-.71,4,4,0,0,0-2.37.72,4.91,4.91,0,0,0-1.62,2,7,7,0,0,0-.59,3v0a7.28,7.28,0,0,0,.58,3,4.79,4.79,0,0,0,1.62,2,4.37,4.37,0,0,0,4.76,0Z"/><polyline class="cls-4" points="383 69.43 383 0.16 0 0.16 0 69.43"/></svg>