<svg xmlns="http://www.w3.org/2000/svg" viewBox="0 0 382.5 106.859"><defs><style>.cls-1{fill:#575756;stroke:#575756;stroke-miterlimit:10;stroke-width:3px;}.cls-2{fill:#fff;}.cls-3{fill:#cd534c;}.cls-4{fill:#706f6f;}</style></defs><g id="Layer_3" data-name="Layer 3"><polygon class="cls-1" points="182.526 105.362 1.68 105.362 1.68 1.662 229.372 1.662 182.526 105.362"/><path class="cls-2" d="M9.724,7.128H39.081v7.3H19V24.56H37.945V31.5H19v10.6H39.081v7.3H9.724Z"/><path class="cls-2" d="M45.222,7.128h8.967V49.4H45.222Z"/><path class="cls-2" d="M66.564,48.07a13.627,13.627,0,0,1-5.589-5.639,18.089,18.089,0,0,1-1.966-8.672v-.03a18.174,18.174,0,0,1,1.966-8.686,13.931,13.931,0,0,1,5.512-5.684,16.709,16.709,0,0,1,8.368-2.006A16.944,16.944,0,0,1,83.192,19.3a13.5,13.5,0,0,1,5.434,5.493,17.147,17.147,0,0,1,1.92,8.291v2.666H63.431v-5.42H86.308L82.041,35.4v-3.31a10.659,10.659,0,0,0-.891-4.614,6.311,6.311,0,0,0-2.473-2.8,7.6,7.6,0,0,0-7.369.029,6.521,6.521,0,0,0-2.518,2.827,10.344,10.344,0,0,0-.906,4.556v3.34a9.955,9.955,0,0,0,.906,4.424,6.483,6.483,0,0,0,2.594,2.827,7.875,7.875,0,0,0,4.024.981A8.339,8.339,0,0,0,78.6,43.1,6.762,6.762,0,0,0,80.812,41.7a4.635,4.635,0,0,0,1.167-1.728l.062-.176H90.27l-.093.322A11.133,11.133,0,0,1,88.734,43.6a12.561,12.561,0,0,1-2.9,3.222,14.312,14.312,0,0,1-4.453,2.344,19.43,19.43,0,0,1-6.157.879A17.815,17.815,0,0,1,66.564,48.07Z"/><path class="cls-2" d="M101.54,48.056a13.743,13.743,0,0,1-5.635-5.669,18.106,18.106,0,0,1-1.982-8.716v-.029a17.834,17.834,0,0,1,2-8.687,13.821,13.821,0,0,1,5.635-5.625,19.59,19.59,0,0,1,16.321-.381,12.878,12.878,0,0,1,5.144,4.322,11.8,11.8,0,0,1,2.042,6.123V29.6h-8.353l-.03-.264a6.6,6.6,0,0,0-2.027-3.75,6.21,6.21,0,0,0-4.422-1.523,6.326,6.326,0,0,0-3.792,1.157,7.348,7.348,0,0,0-2.487,3.31,13.645,13.645,0,0,0-.875,5.142V33.7a13.911,13.911,0,0,0,.875,5.23,7.159,7.159,0,0,0,2.487,3.281,6.5,6.5,0,0,0,3.823,1.128,6.331,6.331,0,0,0,4.345-1.45,6.469,6.469,0,0,0,2.073-3.824l.061-.263h8.352v.176A11.979,11.979,0,0,1,123,44.13a13.01,13.01,0,0,1-5.143,4.321,17.269,17.269,0,0,1-7.661,1.6A17.825,17.825,0,0,1,101.54,48.056Z"/><path class="cls-2" d="M134.4,47.851q-2.641-2.2-2.641-7.237V24.442H127.18V18h4.575V10.321h9.059V18h6.019v6.445h-6.019V39.677a3.831,3.831,0,0,0,1.028,3.061,4.655,4.655,0,0,0,3.056.865c.409,0,.768-.015,1.075-.044s.593-.064.86-.1v6.27q-.738.117-1.828.219t-2.5.1Q137.038,50.048,134.4,47.851Z"/><path class="cls-2" d="M151.776,18h8.967v5.479h.184a8.341,8.341,0,0,1,2.671-4.512,7.281,7.281,0,0,1,4.821-1.611,11.066,11.066,0,0,1,1.413.087,7.554,7.554,0,0,1,1.167.235v7.558a6.041,6.041,0,0,0-1.413-.366,12.147,12.147,0,0,0-1.842-.132,8.047,8.047,0,0,0-3.777.821,5.556,5.556,0,0,0-2.4,2.4,8.248,8.248,0,0,0-.829,3.867V49.4h-8.967Z"/><path class="cls-2" d="M180.026,48.1a13.667,13.667,0,0,1-5.665-5.625,18.027,18.027,0,0,1-2.012-8.775v-.058a17.576,17.576,0,0,1,2.042-8.716,14,14,0,0,1,5.7-5.611,17.852,17.852,0,0,1,8.568-1.962,18.106,18.106,0,0,1,8.613,1.948,13.782,13.782,0,0,1,5.7,5.6,17.738,17.738,0,0,1,2.028,8.746V33.7a18,18,0,0,1-2.012,8.789,13.693,13.693,0,0,1-5.665,5.611,20.154,20.154,0,0,1-17.289,0Zm12.468-5.889a7.207,7.207,0,0,0,2.471-3.281,13.891,13.891,0,0,0,.875-5.23v-.058a13.52,13.52,0,0,0-.89-5.171,7.263,7.263,0,0,0-2.5-3.282,6.457,6.457,0,0,0-3.793-1.127,6.337,6.337,0,0,0-3.762,1.142,7.368,7.368,0,0,0-2.5,3.281,13.375,13.375,0,0,0-.891,5.157V33.7a13.911,13.911,0,0,0,.875,5.23,7.112,7.112,0,0,0,2.5,3.281,6.57,6.57,0,0,0,3.838,1.128A6.382,6.382,0,0,0,192.494,42.211Z"/><path class="cls-2" d="M18.279,98.325A18.085,18.085,0,0,1,10.917,90.8,24.725,24.725,0,0,1,8.325,79.077v-.029a24.635,24.635,0,0,1,2.592-11.7,18.015,18.015,0,0,1,7.362-7.5A23.062,23.062,0,0,1,29.56,57.222a22.338,22.338,0,0,1,9.63,1.992,17.5,17.5,0,0,1,6.79,5.478,15.761,15.761,0,0,1,2.994,7.969l.03.293H39.9l-.124-.5a10.048,10.048,0,0,0-1.883-4.072,9.226,9.226,0,0,0-3.457-2.7,11.552,11.552,0,0,0-4.876-.966,10.948,10.948,0,0,0-6.2,1.743A11.326,11.326,0,0,0,19.3,71.4a18.474,18.474,0,0,0-1.435,7.618v.029a18.861,18.861,0,0,0,1.435,7.69,11.25,11.25,0,0,0,4.075,4.981,10.963,10.963,0,0,0,6.188,1.743,11.619,11.619,0,0,0,4.784-.938,9.3,9.3,0,0,0,3.519-2.71,10.6,10.6,0,0,0,2.006-4.292l.061-.293h9.106L49,85.552A15.687,15.687,0,0,1,46,93.521a17.512,17.512,0,0,1-6.806,5.463,22.468,22.468,0,0,1-9.63,1.978A22.956,22.956,0,0,1,18.279,98.325Z"/><path class="cls-2" d="M54.221,57.954h9.013V74.243h.184a9.709,9.709,0,0,1,3.874-4.5,11.874,11.874,0,0,1,6.282-1.567,12.123,12.123,0,0,1,6.2,1.509,10.149,10.149,0,0,1,4,4.262,14.291,14.291,0,0,1,1.405,6.563v19.716H76.135V82.271A7.529,7.529,0,0,0,74.5,77.129a5.957,5.957,0,0,0-4.723-1.86,6.48,6.48,0,0,0-3.442.893,6.157,6.157,0,0,0-2.284,2.461,7.712,7.712,0,0,0-.817,3.618v17.988H54.221Z"/><path class="cls-2" d="M97.308,98.9a13.658,13.658,0,0,1-5.617-5.639,18.011,18.011,0,0,1-1.976-8.672v-.029a18.1,18.1,0,0,1,1.976-8.687,13.951,13.951,0,0,1,5.54-5.683,16.871,16.871,0,0,1,8.411-2.007,17.1,17.1,0,0,1,8.38,1.948,13.547,13.547,0,0,1,5.463,5.493,17.082,17.082,0,0,1,1.93,8.291v2.666H94.161v-5.42h22.994l-4.29,5.069V82.915a10.6,10.6,0,0,0-.9-4.614,6.32,6.32,0,0,0-2.484-2.8,7.679,7.679,0,0,0-7.408.029,6.542,6.542,0,0,0-2.531,2.827,10.3,10.3,0,0,0-.911,4.556v3.34a9.911,9.911,0,0,0,.911,4.424,6.492,6.492,0,0,0,2.609,2.827,7.94,7.94,0,0,0,4.043.981,8.446,8.446,0,0,0,3.21-.556,6.808,6.808,0,0,0,2.222-1.407A4.62,4.62,0,0,0,112.8,90.8l.062-.176h8.271l-.093.322a11.133,11.133,0,0,1-1.45,3.487,12.546,12.546,0,0,1-2.917,3.222A14.391,14.391,0,0,1,112.2,100a19.622,19.622,0,0,1-6.189.879A17.984,17.984,0,0,1,97.308,98.9Z"/><path class="cls-2" d="M126.044,68.823h9.012V74.1h.186a8.734,8.734,0,0,1,3.472-4.307,10.3,10.3,0,0,1,5.787-1.611,10.883,10.883,0,0,1,4.167.761,8.435,8.435,0,0,1,3.133,2.2,8.2,8.2,0,0,1,1.806,3.515h.185a9.176,9.176,0,0,1,2.238-3.442,10.4,10.4,0,0,1,3.549-2.241,12.371,12.371,0,0,1,4.491-.791,11.764,11.764,0,0,1,5.68,1.318,9.475,9.475,0,0,1,3.795,3.691,11.013,11.013,0,0,1,1.359,5.567v21.474h-9.013V80.923a5.857,5.857,0,0,0-1.389-4.19,5.27,5.27,0,0,0-4.012-1.464,5.806,5.806,0,0,0-2.979.747,5.2,5.2,0,0,0-1.991,2.065,6.382,6.382,0,0,0-.71,3.076v19.072h-8.673V80.659a5.369,5.369,0,0,0-1.42-3.97,5.3,5.3,0,0,0-3.92-1.42,5.711,5.711,0,0,0-2.994.776,5.42,5.42,0,0,0-2.021,2.124,6.446,6.446,0,0,0-.726,3.105v18.955h-9.012Z"/><path class="cls-3" d="M258.989,4.241h3.5V26.788h-3.5Z"/><path class="cls-3" d="M266.223,10.351h3.406v2.484h.063a5.144,5.144,0,0,1,1.922-2.023,5.887,5.887,0,0,1,3.125-.774,5.373,5.373,0,0,1,4.187,1.633,6.405,6.405,0,0,1,1.485,4.476V26.788H277.02V16.8a4.238,4.238,0,0,0-.867-2.86,3.281,3.281,0,0,0-2.617-1,3.94,3.94,0,0,0-2.071.532,3.53,3.53,0,0,0-1.359,1.484,4.975,4.975,0,0,0-.477,2.25v9.578h-3.406Z"/><path class="cls-3" d="M285.825,26.015a4.657,4.657,0,0,1-1.2-3.571V13.038H282.27V10.351h2.359V6.069H288.1v4.282h3.078v2.687H288.1v9.219a2.161,2.161,0,0,0,.547,1.711,2.468,2.468,0,0,0,1.625.461,4.686,4.686,0,0,0,.492-.024l.414-.039v2.61q-.3.047-.75.093a9.219,9.219,0,0,1-.968.047A5.211,5.211,0,0,1,285.825,26.015Z"/><path class="cls-3" d="M296.45,26.077a6.8,6.8,0,0,1-2.672-2.953,10.206,10.206,0,0,1-.93-4.508V18.6a10.176,10.176,0,0,1,.938-4.493,7.138,7.138,0,0,1,2.64-3,7.372,7.372,0,0,1,4-1.07,7.45,7.45,0,0,1,3.977,1.024,6.779,6.779,0,0,1,2.57,2.89,9.825,9.825,0,0,1,.906,4.336v1.141H294.52V17.038h11.719l-1.672,2.234V17.96a6.96,6.96,0,0,0-.524-2.883,3.745,3.745,0,0,0-1.453-1.711,4.068,4.068,0,0,0-2.148-.562,3.889,3.889,0,0,0-3.656,2.336,6.508,6.508,0,0,0-.547,2.82v1.312A6.292,6.292,0,0,0,296.778,22a3.925,3.925,0,0,0,1.539,1.734,4.479,4.479,0,0,0,2.359.6,4.759,4.759,0,0,0,1.766-.3,3.712,3.712,0,0,0,1.273-.812,2.826,2.826,0,0,0,.711-1.133l.047-.125h3.219l-.031.172a5.64,5.64,0,0,1-.766,1.859,6.4,6.4,0,0,1-1.461,1.6,6.9,6.9,0,0,1-2.117,1.117,8.592,8.592,0,0,1-2.719.406A7.937,7.937,0,0,1,296.45,26.077Z"/><path class="cls-3" d="M310.458,10.351h3.406v2.812h.062a4.36,4.36,0,0,1,1.391-2.289,3.63,3.63,0,0,1,2.406-.836,5.584,5.584,0,0,1,.68.039,4.728,4.728,0,0,1,.492.086V13.3a2.933,2.933,0,0,0-.609-.133,6.937,6.937,0,0,0-.907-.055,3.7,3.7,0,0,0-1.875.461,3.02,3.02,0,0,0-1.218,1.328,4.721,4.721,0,0,0-.422,2.086v9.8h-3.406Z"/><path class="cls-3" d="M322,13.038h-2.265V10.351H322V8.6a4.761,4.761,0,0,1,1.172-3.539,5.078,5.078,0,0,1,3.672-1.149c.344,0,.69.014,1.039.039a8.263,8.263,0,0,1,.852.1v2.5c-.156-.021-.339-.036-.547-.047s-.417-.016-.625-.016a2.3,2.3,0,0,0-1.672.539,2.2,2.2,0,0,0-.547,1.633v1.688h3.328v2.687h-3.265v13.75H322Z"/><path class="cls-3" d="M332.4,26.46a4.663,4.663,0,0,1-1.922-1.75,4.866,4.866,0,0,1-.687-2.594v-.031a4.109,4.109,0,0,1,1.6-3.414,7.941,7.941,0,0,1,4.508-1.43l6.219-.375v2.375l-5.766.36a4.191,4.191,0,0,0-2.336.726,2.018,2.018,0,0,0-.82,1.68v.031a2.024,2.024,0,0,0,.82,1.7,3.505,3.505,0,0,0,2.18.625,4.613,4.613,0,0,0,2.133-.484,3.78,3.78,0,0,0,1.492-1.336,3.468,3.468,0,0,0,.547-1.914V15.741a2.749,2.749,0,0,0-.844-2.133,3.462,3.462,0,0,0-2.422-.773,3.965,3.965,0,0,0-2.336.625,2.62,2.62,0,0,0-1.1,1.609l-.032.141h-3.187l.016-.172a4.983,4.983,0,0,1,.953-2.555,5.6,5.6,0,0,1,2.3-1.789,8.491,8.491,0,0,1,3.484-.656,8.329,8.329,0,0,1,3.484.672,5.331,5.331,0,0,1,2.282,1.891,5.036,5.036,0,0,1,.812,2.859V26.788h-3.406V24.194H340.3a5.332,5.332,0,0,1-1.25,1.539,5.632,5.632,0,0,1-1.726,1,5.923,5.923,0,0,1-2.055.352A6.289,6.289,0,0,1,332.4,26.46Z"/><path class="cls-3" d="M349.95,26.069a6.908,6.908,0,0,1-2.7-2.968,10.189,10.189,0,0,1-.946-4.547v-.016a9.935,9.935,0,0,1,.961-4.516,7.017,7.017,0,0,1,2.711-2.945,7.872,7.872,0,0,1,4.094-1.039,7.779,7.779,0,0,1,3.648.8,6.35,6.35,0,0,1,2.414,2.133,6.172,6.172,0,0,1,1.016,2.875l.016.125h-3.235l-.031-.141a3.988,3.988,0,0,0-1.211-2.086,3.666,3.666,0,0,0-2.6-.883,3.819,3.819,0,0,0-2.274.7,4.5,4.5,0,0,0-1.516,1.976,7.8,7.8,0,0,0-.539,3.031v.016a7.749,7.749,0,0,0,.547,3.07,4.38,4.38,0,0,0,1.524,1.946,3.935,3.935,0,0,0,2.289.671,3.75,3.75,0,0,0,2.523-.82,3.922,3.922,0,0,0,1.274-2.148l.015-.125h3.25v.109a6.309,6.309,0,0,1-1.117,2.961,6.583,6.583,0,0,1-2.453,2.094,7.657,7.657,0,0,1-3.508.773A7.945,7.945,0,0,1,349.95,26.069Z"/><path class="cls-3" d="M366.45,26.077a6.8,6.8,0,0,1-2.672-2.953,10.206,10.206,0,0,1-.93-4.508V18.6a10.176,10.176,0,0,1,.938-4.493,7.138,7.138,0,0,1,2.64-3,7.372,7.372,0,0,1,4-1.07,7.45,7.45,0,0,1,3.977,1.024,6.779,6.779,0,0,1,2.57,2.89,9.825,9.825,0,0,1,.906,4.336v1.141H364.52V17.038h11.719l-1.672,2.234V17.96a6.96,6.96,0,0,0-.524-2.883,3.745,3.745,0,0,0-1.453-1.711,4.068,4.068,0,0,0-2.148-.562,3.889,3.889,0,0,0-3.656,2.336,6.508,6.508,0,0,0-.547,2.82v1.312A6.292,6.292,0,0,0,366.778,22a3.925,3.925,0,0,0,1.539,1.734,4.479,4.479,0,0,0,2.359.6,4.759,4.759,0,0,0,1.766-.3,3.712,3.712,0,0,0,1.273-.812,2.826,2.826,0,0,0,.711-1.133l.047-.125h3.219l-.031.172a5.64,5.64,0,0,1-.766,1.859,6.4,6.4,0,0,1-1.461,1.6,6.9,6.9,0,0,1-2.117,1.117,8.592,8.592,0,0,1-2.719.406A7.937,7.937,0,0,1,366.45,26.077Z"/><path class="cls-4" d="M207.911,97.791,220.8,79.838v-.063H208.348V77.244h15.969v2L211.489,97.2v.063h13.094v2.531H207.911Z"/><path class="cls-4" d="M228.02,77.244h2.719v8.891h.062a4.868,4.868,0,0,1,1.953-2.141,6.016,6.016,0,0,1,3.11-.765,5.521,5.521,0,0,1,3.039.835,5.7,5.7,0,0,1,2.039,2.321,7.7,7.7,0,0,1,.734,3.453v9.953h-2.718V90.307a5.106,5.106,0,0,0-1.063-3.438,3.711,3.711,0,0,0-2.969-1.234,3.939,3.939,0,0,0-3.664,2.234,5.386,5.386,0,0,0-.523,2.438v9.484H228.02Z"/><path class="cls-4" d="M247.809,99.072a6.719,6.719,0,0,1-2.578-2.914,10.169,10.169,0,0,1-.9-4.429v-.016a10.235,10.235,0,0,1,.906-4.43,7.09,7.09,0,0,1,2.547-2.984,7.567,7.567,0,0,1,7.679-.047,6.649,6.649,0,0,1,2.461,2.867,10.036,10.036,0,0,1,.86,4.281v1H245.692V90.275h11.75l-1.375,1.969V91.2a7.491,7.491,0,0,0-.57-3.125,4.061,4.061,0,0,0-1.571-1.836,4.643,4.643,0,0,0-4.625.032,4.3,4.3,0,0,0-1.625,1.875,7.047,7.047,0,0,0-.593,3.054v1.047a6.74,6.74,0,0,0,.585,2.938,4.283,4.283,0,0,0,1.665,1.867,4.846,4.846,0,0,0,2.546.648,5.093,5.093,0,0,0,1.844-.312,3.84,3.84,0,0,0,1.36-.86,3.164,3.164,0,0,0,.781-1.25l.047-.14h2.672l-.032.156a5.352,5.352,0,0,1-.773,1.875,6,6,0,0,1-1.461,1.539,6.9,6.9,0,0,1-2.031,1.031,8.044,8.044,0,0,1-2.469.368A7.5,7.5,0,0,1,247.809,99.072Z"/><path class="cls-4" d="M261.52,83.541h2.719v2.313h.062a5.213,5.213,0,0,1,1.907-1.883,5.973,5.973,0,0,1,3.093-.742,5.335,5.335,0,0,1,4.149,1.617,6.277,6.277,0,0,1,1.476,4.4V99.791h-2.718V89.729a4.465,4.465,0,0,0-.93-3.04,3.545,3.545,0,0,0-2.805-1.054,4.269,4.269,0,0,0-2.234.57,3.854,3.854,0,0,0-1.477,1.6,5.285,5.285,0,0,0-.523,2.422v9.562H261.52Z"/><path class="cls-4" d="M281.762,105a6.337,6.337,0,0,1-2.406-1.547,4.616,4.616,0,0,1-1.18-2.18l-.031-.14h2.734l.063.14a2.832,2.832,0,0,0,1.508,1.383,6.7,6.7,0,0,0,2.773.508,4.651,4.651,0,0,0,3.313-1.1,3.91,3.91,0,0,0,1.172-2.992V96.994h-.063a5.38,5.38,0,0,1-1.25,1.563,5.737,5.737,0,0,1-1.758,1.023,6.21,6.21,0,0,1-2.164.367,6.316,6.316,0,0,1-3.6-1.039,6.853,6.853,0,0,1-2.422-2.922,10.461,10.461,0,0,1-.867-4.414v-.015a10.193,10.193,0,0,1,.882-4.4,6.916,6.916,0,0,1,2.446-2.9,6.424,6.424,0,0,1,3.625-1.031,5.647,5.647,0,0,1,2.125.39,5.779,5.779,0,0,1,1.726,1.078,6.193,6.193,0,0,1,1.258,1.594h.063v-2.75h2.718v15.8a6.077,6.077,0,0,1-.875,3.289,5.837,5.837,0,0,1-2.484,2.172,8.732,8.732,0,0,1-3.813.773A9.757,9.757,0,0,1,281.762,105Zm5.735-8.2a4.895,4.895,0,0,0,1.625-2.086,7.814,7.814,0,0,0,.586-3.141v-.015a7.7,7.7,0,0,0-.586-3.125,4.843,4.843,0,0,0-1.633-2.063,4.117,4.117,0,0,0-2.422-.734,4.321,4.321,0,0,0-2.5.726,4.626,4.626,0,0,0-1.633,2.055,7.911,7.911,0,0,0-.57,3.141v.015a8.053,8.053,0,0,0,.57,3.18,4.608,4.608,0,0,0,1.633,2.062,4.314,4.314,0,0,0,2.5.727A4.074,4.074,0,0,0,287.5,96.8Z"/><path class="cls-4" d="M305.887,105a6.337,6.337,0,0,1-2.406-1.547,4.616,4.616,0,0,1-1.18-2.18l-.031-.14H305l.063.14a2.832,2.832,0,0,0,1.508,1.383,6.7,6.7,0,0,0,2.773.508,4.651,4.651,0,0,0,3.313-1.1,3.91,3.91,0,0,0,1.172-2.992V96.994h-.063a5.38,5.38,0,0,1-1.25,1.563,5.737,5.737,0,0,1-1.758,1.023,6.21,6.21,0,0,1-2.164.367,6.316,6.316,0,0,1-3.6-1.039,6.853,6.853,0,0,1-2.422-2.922,10.461,10.461,0,0,1-.867-4.414v-.015a10.193,10.193,0,0,1,.882-4.4,6.916,6.916,0,0,1,2.446-2.9,6.424,6.424,0,0,1,3.625-1.031,5.647,5.647,0,0,1,2.125.39,5.779,5.779,0,0,1,1.726,1.078,6.193,6.193,0,0,1,1.258,1.594h.063v-2.75h2.718v15.8a6.077,6.077,0,0,1-.875,3.289,5.837,5.837,0,0,1-2.484,2.172,8.732,8.732,0,0,1-3.813.773A9.757,9.757,0,0,1,305.887,105Zm5.735-8.2a4.895,4.895,0,0,0,1.625-2.086,7.814,7.814,0,0,0,.586-3.141v-.015a7.7,7.7,0,0,0-.586-3.125,4.843,4.843,0,0,0-1.633-2.063,4.117,4.117,0,0,0-2.422-.734,4.321,4.321,0,0,0-2.5.726,4.626,4.626,0,0,0-1.633,2.055,7.911,7.911,0,0,0-.57,3.141v.015a8.053,8.053,0,0,0,.57,3.18,4.608,4.608,0,0,0,1.633,2.062,4.314,4.314,0,0,0,2.5.727A4.074,4.074,0,0,0,311.622,96.8Z"/><path class="cls-4" d="M320.067,83.541h2.719v2.75h.062a4.4,4.4,0,0,1,1.406-2.234,3.6,3.6,0,0,1,2.375-.828,4.9,4.9,0,0,1,.649.039c.192.026.341.049.445.07v2.641a2.48,2.48,0,0,0-.555-.11,7.793,7.793,0,0,0-.9-.047,3.529,3.529,0,0,0-1.836.469,3.115,3.115,0,0,0-1.219,1.352,4.79,4.79,0,0,0-.429,2.117V99.791h-2.719Z"/><path class="cls-4" d="M331.934,99.072a6.97,6.97,0,0,1-2.641-2.929,9.938,9.938,0,0,1-.945-4.477v-.031a9.878,9.878,0,0,1,.945-4.477,6.944,6.944,0,0,1,2.641-2.906,8.089,8.089,0,0,1,7.875,0,6.957,6.957,0,0,1,2.641,2.906,9.878,9.878,0,0,1,.945,4.477v.031a9.915,9.915,0,0,1-.945,4.484,7,7,0,0,1-2.633,2.922,8.043,8.043,0,0,1-7.883,0Zm6.453-2.086a4.622,4.622,0,0,0,1.641-2.062,8.174,8.174,0,0,0,.586-3.258v-.031a8.12,8.12,0,0,0-.586-3.25,4.551,4.551,0,0,0-1.656-2.047,4.463,4.463,0,0,0-2.508-.7,4.371,4.371,0,0,0-2.477.711,4.641,4.641,0,0,0-1.664,2.047,7.952,7.952,0,0,0-.594,3.242v.031a8.066,8.066,0,0,0,.594,3.258,4.624,4.624,0,0,0,1.664,2.062,4.417,4.417,0,0,0,2.508.711A4.344,4.344,0,0,0,338.387,96.986Z"/><path class="cls-4" d="M348.637,99.369a4.8,4.8,0,0,1-1.922-2.086,7.164,7.164,0,0,1-.664-3.2V83.541h2.719V93.6a4.457,4.457,0,0,0,.93,3.039,3.541,3.541,0,0,0,2.8,1.054,4.265,4.265,0,0,0,2.235-.57,3.841,3.841,0,0,0,1.476-1.609,5.3,5.3,0,0,0,.524-2.414V83.541h2.719v16.25h-2.719V97.479h-.063a5.214,5.214,0,0,1-1.9,1.882,6.748,6.748,0,0,1-6.141.008Z"/><path class="cls-4" d="M362.989,83.541h2.719v2.75h.062a6.026,6.026,0,0,1,1.273-1.633,5.527,5.527,0,0,1,1.743-1.054,5.959,5.959,0,0,1,2.14-.375,6.384,6.384,0,0,1,3.633,1.039,6.807,6.807,0,0,1,2.414,2.937,10.752,10.752,0,0,1,.86,4.461v.016a10.6,10.6,0,0,1-.868,4.453,6.9,6.9,0,0,1-2.406,2.929,6.248,6.248,0,0,1-3.586,1.04,6.172,6.172,0,0,1-2.14-.368,5.539,5.539,0,0,1-1.774-1.047,5.942,5.942,0,0,1-1.289-1.617h-.062v8.188h-2.719Zm9.89,13.422a4.651,4.651,0,0,0,1.61-2.086,8.279,8.279,0,0,0,.562-3.195v-.016a8.381,8.381,0,0,0-.562-3.227,4.61,4.61,0,0,0-1.61-2.078,4.25,4.25,0,0,0-2.484-.726,4.118,4.118,0,0,0-2.437.75,4.977,4.977,0,0,0-1.665,2.1,7.771,7.771,0,0,0-.6,3.18v.016a7.639,7.639,0,0,0,.609,3.164,5.062,5.062,0,0,0,1.664,2.1,4.086,4.086,0,0,0,2.43.75A4.212,4.212,0,0,0,372.879,96.963Z"/><path class="cls-3" d="M227.653,62.243A9.432,9.432,0,0,1,224.02,58.2a13.947,13.947,0,0,1-1.281-6.195v-.016a13.9,13.9,0,0,1,1.281-6.187,9.431,9.431,0,0,1,3.625-4.024,10.54,10.54,0,0,1,5.547-1.414,10.315,10.315,0,0,1,4.484.953,8.948,8.948,0,0,1,3.3,2.641,8.44,8.44,0,0,1,1.641,3.922l.015.156h-3.484l-.094-.312a5.872,5.872,0,0,0-1.164-2.282,5.325,5.325,0,0,0-1.984-1.461,6.817,6.817,0,0,0-2.711-.507,6.3,6.3,0,0,0-3.633,1.046,6.8,6.8,0,0,0-2.383,2.954,11.1,11.1,0,0,0-.843,4.515v.016a11.222,11.222,0,0,0,.843,4.523,6.749,6.749,0,0,0,2.391,2.977,6.31,6.31,0,0,0,3.625,1.047,6.717,6.717,0,0,0,2.68-.508,5.354,5.354,0,0,0,2.007-1.492,6.443,6.443,0,0,0,1.235-2.407l.047-.156h3.484l-.031.156a8.545,8.545,0,0,1-1.633,3.946,8.688,8.688,0,0,1-3.289,2.633,11.4,11.4,0,0,1-10.039-.485Z"/><path class="cls-3" d="M248.372,62.579a7.027,7.027,0,0,1-2.727-2.953,9.971,9.971,0,0,1-.969-4.555V55.04a9.811,9.811,0,0,1,.977-4.531,7.034,7.034,0,0,1,2.734-2.938,7.928,7.928,0,0,1,4.086-1.031,8.018,8.018,0,0,1,4.1,1.023,7,7,0,0,1,2.734,2.93,9.879,9.879,0,0,1,.977,4.547v.031a9.91,9.91,0,0,1-.977,4.563,7.1,7.1,0,0,1-2.726,2.945,8.631,8.631,0,0,1-8.211,0Zm6.414-2.476a4.317,4.317,0,0,0,1.5-1.946,8.027,8.027,0,0,0,.531-3.086V55.04a7.987,7.987,0,0,0-.531-3.07,4.232,4.232,0,0,0-1.516-1.938,4.014,4.014,0,0,0-2.3-.664,3.914,3.914,0,0,0-2.273.672,4.389,4.389,0,0,0-1.524,1.938,7.694,7.694,0,0,0-.547,3.062v.031a7.908,7.908,0,0,0,.539,3.086,4.318,4.318,0,0,0,1.524,1.946,4,4,0,0,0,2.312.671A3.906,3.906,0,0,0,254.786,60.1Z"/><path class="cls-3" d="M262.879,46.853h3.407v2.484h.062a5.16,5.16,0,0,1,1.922-2.024,5.9,5.9,0,0,1,3.125-.773,5.377,5.377,0,0,1,4.188,1.633,6.41,6.41,0,0,1,1.484,4.476V63.29h-3.391V53.306a4.238,4.238,0,0,0-.867-2.86,3.281,3.281,0,0,0-2.617-1,3.934,3.934,0,0,0-2.07.532,3.539,3.539,0,0,0-1.36,1.484,4.975,4.975,0,0,0-.476,2.25V63.29h-3.407Z"/><path class="cls-3" d="M278.9,46.853h3.594l4.125,13.125h.078L290.8,46.853h3.547l-5.89,16.437h-3.641Z"/><path class="cls-3" d="M298.543,62.579a6.8,6.8,0,0,1-2.671-2.953,10.192,10.192,0,0,1-.93-4.508V55.1a10.172,10.172,0,0,1,.937-4.493,7.133,7.133,0,0,1,2.641-3,7.363,7.363,0,0,1,4-1.07,7.459,7.459,0,0,1,3.977,1.023,6.794,6.794,0,0,1,2.57,2.891,9.839,9.839,0,0,1,.906,4.336v1.141H296.614V53.54h11.719l-1.672,2.234V54.462a6.96,6.96,0,0,0-.524-2.883,3.74,3.74,0,0,0-1.453-1.711,4.068,4.068,0,0,0-2.148-.562,3.889,3.889,0,0,0-3.657,2.336,6.523,6.523,0,0,0-.546,2.82v1.312a6.292,6.292,0,0,0,.539,2.727,3.925,3.925,0,0,0,1.539,1.734,4.479,4.479,0,0,0,2.359.6,4.759,4.759,0,0,0,1.766-.305,3.722,3.722,0,0,0,1.273-.812,2.837,2.837,0,0,0,.711-1.133l.047-.125h3.219l-.032.172a5.616,5.616,0,0,1-.765,1.859,6.423,6.423,0,0,1-1.461,1.6,6.9,6.9,0,0,1-2.117,1.117,8.592,8.592,0,0,1-2.719.406A7.95,7.95,0,0,1,298.543,62.579Z"/><path class="cls-3" d="M312.551,46.853h3.407v2.812h.062a4.36,4.36,0,0,1,1.391-2.289,3.628,3.628,0,0,1,2.406-.836,5.6,5.6,0,0,1,.68.039,4.475,4.475,0,0,1,.492.086v3.141a2.93,2.93,0,0,0-.61-.133,6.91,6.91,0,0,0-.906-.055,3.681,3.681,0,0,0-1.875.461,3.028,3.028,0,0,0-1.219,1.328,4.735,4.735,0,0,0-.421,2.086v9.8h-3.407Z"/><path class="cls-3" d="M325.715,62.985a5.531,5.531,0,0,1-2.32-1.765,5.348,5.348,0,0,1-1.016-2.633l-.015-.141h3.344l.031.157a2.867,2.867,0,0,0,1.109,1.757,3.991,3.991,0,0,0,2.406.633,5.206,5.206,0,0,0,1.75-.258,2.448,2.448,0,0,0,1.11-.742,1.784,1.784,0,0,0,.39-1.156v-.016a1.674,1.674,0,0,0-.515-1.281,4.26,4.26,0,0,0-1.844-.812l-2.687-.61a7.136,7.136,0,0,1-3.508-1.68,3.934,3.934,0,0,1-1.164-2.929v-.016a4.359,4.359,0,0,1,.8-2.6,5.167,5.167,0,0,1,2.234-1.735,8.38,8.38,0,0,1,3.328-.617,7.86,7.86,0,0,1,3.344.656,5.379,5.379,0,0,1,2.2,1.789,4.815,4.815,0,0,1,.867,2.524V51.7h-3.172l-.015-.109a2.636,2.636,0,0,0-.969-1.758,3.446,3.446,0,0,0-2.25-.68,4.278,4.278,0,0,0-1.578.266,2.272,2.272,0,0,0-1.031.758,1.886,1.886,0,0,0-.36,1.148v.016a1.7,1.7,0,0,0,.563,1.281,4.025,4.025,0,0,0,1.875.828l2.687.625a7.4,7.4,0,0,1,3.571,1.633,3.833,3.833,0,0,1,1.054,2.836v.016a4.269,4.269,0,0,1-.859,2.64,5.647,5.647,0,0,1-2.367,1.782,8.768,8.768,0,0,1-3.446.64A8.955,8.955,0,0,1,325.715,62.985Z"/><path class="cls-3" d="M338.989,43.751a1.934,1.934,0,0,1,0-2.758,2.011,2.011,0,0,1,2.789,0,1.953,1.953,0,0,1,0,2.758,1.991,1.991,0,0,1-2.789,0Zm-.313,3.1h3.407V63.29h-3.407Z"/><path class="cls-3" d="M348.512,62.579a7.018,7.018,0,0,1-2.726-2.953,9.958,9.958,0,0,1-.969-4.555V55.04a9.824,9.824,0,0,1,.976-4.531,7.043,7.043,0,0,1,2.735-2.938,7.928,7.928,0,0,1,4.086-1.031,8.016,8.016,0,0,1,4.1,1.023,7,7,0,0,1,2.735,2.93,9.879,9.879,0,0,1,.976,4.547v.031a9.91,9.91,0,0,1-.976,4.563,7.112,7.112,0,0,1-2.727,2.945,8.631,8.631,0,0,1-8.211,0Zm6.414-2.476a4.3,4.3,0,0,0,1.5-1.946,8.007,8.007,0,0,0,.532-3.086V55.04a7.968,7.968,0,0,0-.532-3.07,4.224,4.224,0,0,0-1.515-1.938,4.016,4.016,0,0,0-2.3-.664,3.92,3.92,0,0,0-2.274.672,4.387,4.387,0,0,0-1.523,1.938,7.694,7.694,0,0,0-.547,3.062v.031a7.908,7.908,0,0,0,.539,3.086,4.3,4.3,0,0,0,1.524,1.946,4,4,0,0,0,2.312.671A3.9,3.9,0,0,0,354.926,60.1Z"/><path class="cls-3" d="M363.02,46.853h3.406v2.484h.063a5.153,5.153,0,0,1,1.922-2.024,5.892,5.892,0,0,1,3.125-.773,5.374,5.374,0,0,1,4.187,1.633,6.41,6.41,0,0,1,1.485,4.476V63.29h-3.391V53.306a4.238,4.238,0,0,0-.867-2.86,3.281,3.281,0,0,0-2.617-1,3.94,3.94,0,0,0-2.071.532,3.53,3.53,0,0,0-1.359,1.484,4.962,4.962,0,0,0-.477,2.25V63.29H363.02Z"/></g></svg>