<svg id="Layer_1" data-name="Layer 1" xmlns="http://www.w3.org/2000/svg" viewBox="0 0 96 311"><defs><style>.cls-1{fill:#868686;}.cls-2{fill:#fff;}</style></defs><rect class="cls-1" width="96" height="311"/><path class="cls-2" d="M41.8,302.42a13,13,0,0,1-5.52,5.17,18.53,18.53,0,0,1-8.52,1.83h0a18.44,18.44,0,0,1-8.5-1.84,13.1,13.1,0,0,1-5.52-5.18,17.1,17.1,0,0,1,0-15.84,13.11,13.11,0,0,1,5.52-5.16,18.4,18.4,0,0,1,8.49-1.82h0a18.48,18.48,0,0,1,8.51,1.82,13.15,13.15,0,0,1,5.52,5.15,17.16,17.16,0,0,1,0,15.87ZM37,290.06a8.31,8.31,0,0,0-3.65-2.86,14.07,14.07,0,0,0-5.55-1h0a14.13,14.13,0,0,0-5.57,1,8.23,8.23,0,0,0-3.63,2.88,8.26,8.26,0,0,0,0,8.8,8.21,8.21,0,0,0,3.62,2.89,13.9,13.9,0,0,0,5.58,1h0a13.92,13.92,0,0,0,5.57-1A8.26,8.26,0,0,0,37,298.9a8.19,8.19,0,0,0,0-8.84Z"/><path class="cls-2" d="M42.64,272.44a6.6,6.6,0,0,1-3,2.7,10.49,10.49,0,0,1-4.6.92H20.25v-6.25H33.76a5.2,5.2,0,0,0,3.49-1.06,3.93,3.93,0,0,0,1.25-3.16,4.45,4.45,0,0,0-.65-2.43,4.33,4.33,0,0,0-1.79-1.59,5.94,5.94,0,0,0-2.62-.56H20.25v-6.26h23V261H39.42v.15a6.93,6.93,0,0,1,3.12,2.63,7.87,7.87,0,0,1,1.14,4.37A8.35,8.35,0,0,1,42.64,272.44Z"/><path class="cls-2" d="M20.25,250.68v-6.25h4v-.13a6.23,6.23,0,0,1-3.3-1.86,5,5,0,0,1-1.18-3.37,6.19,6.19,0,0,1,.07-1,4.89,4.89,0,0,1,.17-.82h5.53a3.7,3.7,0,0,0-.27,1,7.47,7.47,0,0,0-.1,1.28,5.42,5.42,0,0,0,.6,2.64,4,4,0,0,0,1.76,1.67,6.34,6.34,0,0,0,2.83.58H43.21v6.25Z"/><path class="cls-2" d="M94.46,302.51A13,13,0,0,1,89,307.62a18.86,18.86,0,0,1-8.57,1.8h0a18.84,18.84,0,0,1-8.56-1.8,13,13,0,0,1-5.48-5.11,15.35,15.35,0,0,1-1.92-7.83A14.81,14.81,0,0,1,65.86,288a12.32,12.32,0,0,1,4-4.72,11.93,11.93,0,0,1,5.82-2.07l.22,0v6.32l-.37.09a7.56,7.56,0,0,0-3,1.3,6.52,6.52,0,0,0-2,2.4,7.69,7.69,0,0,0-.7,3.39,7.3,7.3,0,0,0,1.27,4.3,8.12,8.12,0,0,0,3.61,2.82,14.21,14.21,0,0,0,5.57,1h0a14.47,14.47,0,0,0,5.62-1A8.15,8.15,0,0,0,89.63,299a7.31,7.31,0,0,0,1.27-4.29,7.67,7.67,0,0,0-.69-3.32,6.34,6.34,0,0,0-2-2.44,7.88,7.88,0,0,0-3.13-1.4l-.22,0v-6.32l.24,0a11.85,11.85,0,0,1,5.82,2.09,12.32,12.32,0,0,1,4,4.73,14.94,14.94,0,0,1,1.44,6.68A15.35,15.35,0,0,1,94.46,302.51Z"/><path class="cls-2" d="M94.9,273.21a9.79,9.79,0,0,1-4.12,4,13.75,13.75,0,0,1-6.41,1.4h0A13.36,13.36,0,0,1,78,277.15a10,10,0,0,1-4.1-4,11.94,11.94,0,0,1-1.43-6,12.14,12.14,0,0,1,1.42-6,9.87,9.87,0,0,1,4.09-4,13.53,13.53,0,0,1,6.4-1.41h0a13.71,13.71,0,0,1,6.42,1.4,9.82,9.82,0,0,1,4.11,4,13.49,13.49,0,0,1,0,12Zm-4.31-8.69a5.3,5.3,0,0,0-2.4-1.73,10.74,10.74,0,0,0-3.82-.61h0a10.41,10.41,0,0,0-3.79.62,5.3,5.3,0,0,0-2.39,1.75,4.36,4.36,0,0,0-.83,2.65,4.25,4.25,0,0,0,.84,2.62,5.35,5.35,0,0,0,2.39,1.75,10.35,10.35,0,0,0,3.78.62h0a10.74,10.74,0,0,0,3.82-.61,5.19,5.19,0,0,0,2.4-1.75,4.45,4.45,0,0,0,.83-2.68A4.3,4.3,0,0,0,90.59,264.52Z"/><path class="cls-2" d="M64.94,252.44v-6.26H95.85v6.26Z"/><path class="cls-2" d="M64.94,241.81v-6.25H95.85v6.25Z"/><path class="cls-2" d="M95.32,228.54a6.58,6.58,0,0,1-6,3.7h0a5.85,5.85,0,0,1-4.92-2.35,12,12,0,0,1-2.06-6.6l-.56-9h3.9l.53,8a4.92,4.92,0,0,0,.84,2.74,2.34,2.34,0,0,0,2,.95h0a2.32,2.32,0,0,0,2-1,4.21,4.21,0,0,0,.72-2.59A5.43,5.43,0,0,0,91.1,220a4.26,4.26,0,0,0-1.5-1.74,3.75,3.75,0,0,0-2.13-.63h-7a3.1,3.1,0,0,0-2.4,1,4.08,4.08,0,0,0-.88,2.81,4.75,4.75,0,0,0,.72,2.78,2.94,2.94,0,0,0,1.83,1.27l.2,0v5.74l-.26,0a7.2,7.2,0,0,1-3.77-1.43,8.09,8.09,0,0,1-2.58-3.42,13.34,13.34,0,0,1-.93-5.22,12.78,12.78,0,0,1,1-5.16,7.8,7.8,0,0,1,2.69-3.4,6.92,6.92,0,0,1,4-1.21H95.85v6.26H92.44v.13a7.57,7.57,0,0,1,2,1.67,7.14,7.14,0,0,1,1.3,2.3,8.52,8.52,0,0,1,.45,2.8A8.67,8.67,0,0,1,95.32,228.54Z"/><path class="cls-2" d="M95.15,198a7.3,7.3,0,0,1-3.22,2.76v.13h3.92v6.26H64.94v-6.26H76.87v-.13A7.48,7.48,0,0,1,73.6,198a7.82,7.82,0,0,1-1.18-4.3,8.65,8.65,0,0,1,1.42-5,9.13,9.13,0,0,1,4.09-3.22,16.31,16.31,0,0,1,6.42-1.13h0a16.28,16.28,0,0,1,6.4,1.13,9.11,9.11,0,0,1,4.11,3.24,8.58,8.58,0,0,1,1.44,5A7.78,7.78,0,0,1,95.15,198Zm-4.84-4.93A5.27,5.27,0,0,0,88,191.36a9.62,9.62,0,0,0-3.6-.61h0a9.53,9.53,0,0,0-3.61.62,5.2,5.2,0,0,0-2.33,1.76,4.78,4.78,0,0,0,0,5.34,5.5,5.5,0,0,0,2.35,1.8,8.94,8.94,0,0,0,3.58.65h0a9.22,9.22,0,0,0,3.6-.64,5.38,5.38,0,0,0,2.34-1.8,4.77,4.77,0,0,0,0-5.38Z"/><path class="cls-2" d="M94.9,176.65a9.79,9.79,0,0,1-4.12,4,13.75,13.75,0,0,1-6.41,1.4h0A13.24,13.24,0,0,1,78,180.58a9.93,9.93,0,0,1-4.1-4,11.94,11.94,0,0,1-1.43-6,12.14,12.14,0,0,1,1.42-6,9.87,9.87,0,0,1,4.09-4,13.53,13.53,0,0,1,6.4-1.41h0a13.71,13.71,0,0,1,6.42,1.4,9.86,9.86,0,0,1,4.11,4,13.51,13.51,0,0,1,0,12.06ZM90.59,168a5.3,5.3,0,0,0-2.4-1.73,10.74,10.74,0,0,0-3.82-.61h0a10.41,10.41,0,0,0-3.79.62A5.3,5.3,0,0,0,78.15,168a4.36,4.36,0,0,0-.83,2.65,4.27,4.27,0,0,0,.84,2.62A5.27,5.27,0,0,0,80.55,175a10.14,10.14,0,0,0,3.78.63h0a10.74,10.74,0,0,0,3.82-.61,5.19,5.19,0,0,0,2.4-1.75,4.45,4.45,0,0,0,.83-2.68A4.3,4.3,0,0,0,90.59,168Z"/><path class="cls-2" d="M72.89,156v-6.26h4v-.13a6.17,6.17,0,0,1-3.3-1.86,5,5,0,0,1-1.17-3.36,7.86,7.86,0,0,1,.06-1,5,5,0,0,1,.17-.81h5.53a3.61,3.61,0,0,0-.27,1,7.5,7.5,0,0,0-.1,1.29,5.38,5.38,0,0,0,.6,2.63,4,4,0,0,0,1.76,1.67,6.21,6.21,0,0,0,2.83.58H95.85V156Z"/><path class="cls-2" d="M95.32,137.81a6.55,6.55,0,0,1-6,3.69h0a5.87,5.87,0,0,1-4.92-2.34,12,12,0,0,1-2.06-6.61l-.56-9h3.9l.53,8a4.94,4.94,0,0,0,.84,2.74,2.33,2.33,0,0,0,2,.94h0a2.34,2.34,0,0,0,2-1,4.23,4.23,0,0,0,.72-2.59,5.5,5.5,0,0,0-.55-2.5,4.29,4.29,0,0,0-1.5-1.73,3.68,3.68,0,0,0-2.13-.63h-7a3.1,3.1,0,0,0-2.4,1,4.05,4.05,0,0,0-.88,2.8,4.78,4.78,0,0,0,.72,2.79,2.93,2.93,0,0,0,1.83,1.26l.2.05v5.74l-.26,0A7.28,7.28,0,0,1,75.93,139a8.06,8.06,0,0,1-2.58-3.43,13.29,13.29,0,0,1-.93-5.21,12.71,12.71,0,0,1,1-5.16,7.8,7.8,0,0,1,2.69-3.4,6.85,6.85,0,0,1,4-1.21H95.85v6.26H92.44V127a7.77,7.77,0,0,1,2,1.67,7.19,7.19,0,0,1,1.3,2.31,8.41,8.41,0,0,1,.45,2.79A8.68,8.68,0,0,1,95.32,137.81Z"/><path class="cls-2" d="M94.71,113.12Q93.11,115,89.42,115H77.6v3.2H72.89V115H67.27v-6.31h5.62v-4.2H77.6v4.2H88.74a2.89,2.89,0,0,0,2.24-.72,3.15,3.15,0,0,0,.63-2.13q0-.43,0-.75c0-.22,0-.42-.08-.6h4.58c.06.34.11.77.17,1.27s.07,1.09.07,1.75C96.32,110,95.78,111.9,94.71,113.12Z"/><path class="cls-2" d="M69,100.13a3.16,3.16,0,0,1-2.31,1,3.12,3.12,0,0,1-2.3-1,3.3,3.3,0,0,1-1-2.39,3.25,3.25,0,0,1,1-2.37,3.11,3.11,0,0,1,2.3-1,3.15,3.15,0,0,1,2.31,1,3.19,3.19,0,0,1,1,2.37A3.23,3.23,0,0,1,69,100.13Zm3.91.76V94.62h23v6.27Z"/><path class="cls-2" d="M94.9,85.94a9.71,9.71,0,0,1-4.12,4,13.63,13.63,0,0,1-6.41,1.41h0A13.36,13.36,0,0,1,78,89.87a10,10,0,0,1-4.1-4,12,12,0,0,1-1.43-6,12.17,12.17,0,0,1,1.42-6,9.85,9.85,0,0,1,4.09-4,13.53,13.53,0,0,1,6.4-1.41h0a13.71,13.71,0,0,1,6.42,1.4,9.8,9.8,0,0,1,4.11,3.95,13.51,13.51,0,0,1,0,12.06Zm-4.31-8.69a5.23,5.23,0,0,0-2.4-1.73,10.52,10.52,0,0,0-3.82-.61h0a10.41,10.41,0,0,0-3.79.62,5.3,5.3,0,0,0-2.39,1.75,4.35,4.35,0,0,0-.83,2.64,4.28,4.28,0,0,0,.84,2.63,5.27,5.27,0,0,0,2.39,1.74,10.15,10.15,0,0,0,3.78.62h0a10.52,10.52,0,0,0,3.82-.61,5.17,5.17,0,0,0,2.4-1.74,4.45,4.45,0,0,0,.83-2.68A4.3,4.3,0,0,0,90.59,77.25Z"/><path class="cls-2" d="M72.89,65.31V59.06h3.77v-.13a7.09,7.09,0,0,1-3.11-2.66,7.81,7.81,0,0,1-1.13-4.34,7.51,7.51,0,0,1,2.28-5.86A9.07,9.07,0,0,1,81,44H95.85v6.26H82.33a5.2,5.2,0,0,0-3.49,1.06,3.91,3.91,0,0,0-1.24,3.16,4.49,4.49,0,0,0,.64,2.42A4.36,4.36,0,0,0,80,58.49a5.79,5.79,0,0,0,2.63.57h13.2v6.25Z"/></svg>