<svg xmlns="http://www.w3.org/2000/svg" viewBox="0 0 382.5 106.859"><defs><style>.cls-1{fill:#cd534c;}.cls-2{fill:#706f6f;}.cls-3{fill:#575756;stroke:#575756;stroke-miterlimit:10;stroke-width:3px;}.cls-4{fill:none;stroke:#fff;stroke-linecap:round;stroke-linejoin:round;stroke-width:2px;}.cls-5{fill:#fff;}</style></defs><g id="Layer_3" data-name="Layer 3"><path class="cls-1" d="M4.958,78.5H7.331V97.527H4.958Z"/><path class="cls-1" d="M10.666,83.816h2.293v1.952h.053a4.389,4.389,0,0,1,1.609-1.589,5.039,5.039,0,0,1,2.61-.626,4.5,4.5,0,0,1,3.5,1.364,5.3,5.3,0,0,1,1.245,3.712v8.9H19.683v-8.49a3.764,3.764,0,0,0-.784-2.564,2.992,2.992,0,0,0-2.366-.89,3.6,3.6,0,0,0-1.886.481A3.251,3.251,0,0,0,13.4,87.416a4.452,4.452,0,0,0-.443,2.043v8.068H10.666Z"/><path class="cls-1" d="M26.526,96.9a3.813,3.813,0,0,1-.937-2.862V85.715h-2v-1.9h2v-3.7h2.373v3.7h2.611v1.9H27.962v8.306a1.857,1.857,0,0,0,.475,1.483,2.162,2.162,0,0,0,1.4.389,3.983,3.983,0,0,0,.4-.02c.127-.014.239-.024.336-.033V97.7q-.212.025-.547.059c-.225.022-.45.033-.679.033A3.941,3.941,0,0,1,26.526,96.9Z"/><path class="cls-1" d="M34.891,96.921a5.675,5.675,0,0,1-2.176-2.459,8.586,8.586,0,0,1-.757-3.737v-.014a8.64,8.64,0,0,1,.764-3.737,5.982,5.982,0,0,1,2.149-2.518,6.387,6.387,0,0,1,6.48-.04,5.609,5.609,0,0,1,2.076,2.42,8.452,8.452,0,0,1,.725,3.611v.844H33.1V89.5h9.914l-1.16,1.662v-.884a6.292,6.292,0,0,0-.481-2.636,3.4,3.4,0,0,0-1.325-1.549,3.914,3.914,0,0,0-3.9.026A3.631,3.631,0,0,0,34.779,87.7a5.947,5.947,0,0,0-.5,2.577v.884a5.69,5.69,0,0,0,.494,2.479,3.619,3.619,0,0,0,1.4,1.575,4.1,4.1,0,0,0,2.149.547A4.3,4.3,0,0,0,39.88,95.5a3.235,3.235,0,0,0,1.148-.726,2.663,2.663,0,0,0,.659-1.054l.039-.118h2.255l-.026.131a4.53,4.53,0,0,1-.653,1.582,5.071,5.071,0,0,1-1.233,1.3,5.851,5.851,0,0,1-1.714.87,6.75,6.75,0,0,1-2.083.31A6.333,6.333,0,0,1,34.891,96.921Z"/><path class="cls-1" d="M46.459,83.816h2.294v2.321h.053a3.711,3.711,0,0,1,1.187-1.885,3.04,3.04,0,0,1,2-.7,3.935,3.935,0,0,1,.546.033c.163.021.289.042.376.059v2.228a2.064,2.064,0,0,0-.468-.092,6.4,6.4,0,0,0-.758-.04,2.97,2.97,0,0,0-1.549.4,2.611,2.611,0,0,0-1.028,1.14,4.041,4.041,0,0,0-.363,1.786v8.464H46.459Z"/><path class="cls-1" d="M55.516,85.715H53.605v-1.9h1.911V82.129a4.072,4.072,0,0,1,.93-2.934,3.786,3.786,0,0,1,2.828-.955q.383,0,.765.026t.632.066v1.859c-.14-.017-.3-.031-.467-.04s-.346-.012-.522-.012a1.886,1.886,0,0,0-1.424.494,2.11,2.11,0,0,0-.474,1.51v1.673h2.821v1.9H57.81V97.527H55.516Z"/><path class="cls-1" d="M63.809,97.277a3.844,3.844,0,0,1-1.6-1.451,4.069,4.069,0,0,1-.575-2.175v-.026a3.412,3.412,0,0,1,1.306-2.8A6.3,6.3,0,0,1,66.6,89.644l5.075-.29v1.779l-4.811.291a3.818,3.818,0,0,0-2.129.658,1.847,1.847,0,0,0-.759,1.543v.026a1.884,1.884,0,0,0,.745,1.57,3.146,3.146,0,0,0,1.984.58,4.125,4.125,0,0,0,1.945-.455A3.594,3.594,0,0,0,70.025,94.1a3.231,3.231,0,0,0,.508-1.78V88.272a2.541,2.541,0,0,0-.784-1.97,3.17,3.17,0,0,0-2.222-.719,3.611,3.611,0,0,0-2.129.573,2.4,2.4,0,0,0-1.009,1.5l-.026.119H62.148l.013-.144a4.1,4.1,0,0,1,.771-2.057,4.611,4.611,0,0,1,1.839-1.47,7.362,7.362,0,0,1,5.584.006,4.253,4.253,0,0,1,1.825,1.563,4.314,4.314,0,0,1,.647,2.38v9.478H70.533V95.3H70.48a4.387,4.387,0,0,1-1.055,1.312,4.993,4.993,0,0,1-1.483.87,4.917,4.917,0,0,1-1.747.31A5.281,5.281,0,0,1,63.809,97.277Z"/><path class="cls-1" d="M78.054,96.914a5.8,5.8,0,0,1-2.209-2.478,8.57,8.57,0,0,1-.777-3.778v-.012a8.365,8.365,0,0,1,.791-3.757,5.864,5.864,0,0,1,2.215-2.466,6.242,6.242,0,0,1,3.322-.87,6.059,6.059,0,0,1,2.939.666,5.325,5.325,0,0,1,1.932,1.72,5.108,5.108,0,0,1,.851,2.228l.012.105H84.889l-.026-.105a3.552,3.552,0,0,0-1.1-1.806,3.376,3.376,0,0,0-2.366-.778,3.55,3.55,0,0,0-2.083.626,4.108,4.108,0,0,0-1.4,1.767,6.663,6.663,0,0,0-.5,2.7v.014a6.637,6.637,0,0,0,.507,2.728,3.988,3.988,0,0,0,1.411,1.74,3.65,3.65,0,0,0,2.089.607,3.49,3.49,0,0,0,2.287-.719,3.433,3.433,0,0,0,1.167-1.865l.027-.106h2.254l-.013.093a5.114,5.114,0,0,1-.956,2.353,5.482,5.482,0,0,1-1.99,1.661,6.1,6.1,0,0,1-2.776.613A6.31,6.31,0,0,1,78.054,96.914Z"/><path class="cls-1" d="M91.528,96.921a5.675,5.675,0,0,1-2.176-2.459,8.586,8.586,0,0,1-.758-3.737v-.014a8.64,8.64,0,0,1,.765-3.737,5.98,5.98,0,0,1,2.148-2.518,6.388,6.388,0,0,1,6.481-.04,5.609,5.609,0,0,1,2.076,2.42,8.467,8.467,0,0,1,.725,3.611v.844H89.741V89.5h9.914L98.5,91.16v-.884a6.307,6.307,0,0,0-.481-2.636,3.408,3.408,0,0,0-1.325-1.549,3.914,3.914,0,0,0-3.9.026A3.631,3.631,0,0,0,91.416,87.7a5.947,5.947,0,0,0-.5,2.577v.884a5.69,5.69,0,0,0,.494,2.479,3.619,3.619,0,0,0,1.4,1.575,4.093,4.093,0,0,0,2.148.547,4.3,4.3,0,0,0,1.556-.264,3.235,3.235,0,0,0,1.148-.726,2.663,2.663,0,0,0,.659-1.054l.039-.118h2.255l-.027.131a4.527,4.527,0,0,1-.652,1.582,5.071,5.071,0,0,1-1.233,1.3,5.864,5.864,0,0,1-1.714.87,6.75,6.75,0,0,1-2.083.31A6.333,6.333,0,0,1,91.528,96.921Z"/><path class="cls-2" d="M108.989,78.5h2.136v23.638h-2.136Z"/><path class="cls-1" d="M123.708,96.631a8.032,8.032,0,0,1-3.025-3.421,11.83,11.83,0,0,1-1.068-5.2V88a11.791,11.791,0,0,1,1.068-5.195,8,8,0,0,1,3.019-3.407,8.565,8.565,0,0,1,4.6-1.206,8.468,8.468,0,0,1,3.6.75,7.476,7.476,0,0,1,2.709,2.1,7.107,7.107,0,0,1,1.444,3.151l.027.131h-2.4l-.093-.29a5.294,5.294,0,0,0-1.1-1.97,4.876,4.876,0,0,0-1.786-1.246,6.247,6.247,0,0,0-2.4-.436,5.783,5.783,0,0,0-3.3.943,6.147,6.147,0,0,0-2.175,2.65A9.717,9.717,0,0,0,122.054,88v.013a9.768,9.768,0,0,0,.771,4.027,6.162,6.162,0,0,0,2.182,2.67,5.763,5.763,0,0,0,3.3.949,6.171,6.171,0,0,0,2.379-.434,4.866,4.866,0,0,0,1.8-1.286,5.88,5.88,0,0,0,1.16-2.1l.04-.119h2.4l-.027.133a7.15,7.15,0,0,1-4.139,5.259,9.263,9.263,0,0,1-8.208-.474Z"/><path class="cls-1" d="M140.874,96.921a5.872,5.872,0,0,1-2.228-2.472,8.378,8.378,0,0,1-.8-3.777v-.026a8.332,8.332,0,0,1,.8-3.778,5.853,5.853,0,0,1,2.228-2.452,6.825,6.825,0,0,1,6.644,0,5.882,5.882,0,0,1,2.229,2.452,8.345,8.345,0,0,1,.8,3.778v.026a8.373,8.373,0,0,1-.8,3.783,5.913,5.913,0,0,1-2.222,2.466,6.791,6.791,0,0,1-6.651,0Zm5.445-1.76a3.9,3.9,0,0,0,1.384-1.74,6.888,6.888,0,0,0,.494-2.749v-.026A6.837,6.837,0,0,0,147.7,87.9a3.829,3.829,0,0,0-1.4-1.727,3.768,3.768,0,0,0-2.116-.593,3.686,3.686,0,0,0-2.089.6,3.916,3.916,0,0,0-1.4,1.727,6.713,6.713,0,0,0-.5,2.736v.026a6.815,6.815,0,0,0,.5,2.749,3.91,3.91,0,0,0,1.4,1.74,3.732,3.732,0,0,0,2.115.6A3.676,3.676,0,0,0,146.319,95.161Z"/><path class="cls-1" d="M152.851,83.816h2.294v1.952h.053a4.394,4.394,0,0,1,1.608-1.589,5.04,5.04,0,0,1,2.611-.626,4.505,4.505,0,0,1,3.5,1.364,5.3,5.3,0,0,1,1.246,3.712v8.9h-2.294v-8.49a3.755,3.755,0,0,0-.786-2.564,2.988,2.988,0,0,0-2.366-.89,3.6,3.6,0,0,0-1.884.481,3.25,3.25,0,0,0-1.247,1.352,4.464,4.464,0,0,0-.441,2.043v8.068h-2.294Z"/><path class="cls-1" d="M165.889,83.816H168.3l3.783,11.272h.053l3.8-11.272h2.387l-5.036,13.711h-2.347Z"/><path class="cls-1" d="M181.848,96.921a5.682,5.682,0,0,1-2.176-2.459,8.6,8.6,0,0,1-.757-3.737v-.014a8.64,8.64,0,0,1,.764-3.737,5.984,5.984,0,0,1,2.15-2.518,6.385,6.385,0,0,1,6.479-.04,5.609,5.609,0,0,1,2.076,2.42,8.452,8.452,0,0,1,.726,3.611v.844H180.062V89.5h9.914l-1.16,1.662v-.884a6.291,6.291,0,0,0-.482-2.636,3.4,3.4,0,0,0-1.325-1.549,3.914,3.914,0,0,0-3.9.026,3.631,3.631,0,0,0-1.371,1.582,5.947,5.947,0,0,0-.5,2.577v.884a5.69,5.69,0,0,0,.494,2.479,3.619,3.619,0,0,0,1.4,1.575,4.1,4.1,0,0,0,2.15.547,4.3,4.3,0,0,0,1.555-.264,3.231,3.231,0,0,0,1.147-.726,2.663,2.663,0,0,0,.659-1.054l.04-.118h2.254l-.026.131a4.53,4.53,0,0,1-.653,1.582,5.067,5.067,0,0,1-1.232,1.3,5.851,5.851,0,0,1-1.714.87,6.75,6.75,0,0,1-2.083.31A6.336,6.336,0,0,1,181.848,96.921Z"/><path class="cls-1" d="M193.417,83.816h2.293v2.321h.053a3.711,3.711,0,0,1,1.187-1.885,3.04,3.04,0,0,1,2-.7,3.95,3.95,0,0,1,.547.033c.163.021.288.042.375.059v2.228a2.052,2.052,0,0,0-.467-.092,6.4,6.4,0,0,0-.758-.04,2.97,2.97,0,0,0-1.549.4,2.611,2.611,0,0,0-1.028,1.14,4.041,4.041,0,0,0-.364,1.786v8.464h-2.293Z"/><path class="cls-1" d="M203.819,97.277a4.316,4.316,0,0,1-2.677-3.586l-.013-.119h2.294l.027.132a2.538,2.538,0,0,0,.988,1.6,3.611,3.611,0,0,0,2.176.573,4.62,4.62,0,0,0,1.594-.243,2.237,2.237,0,0,0,1.016-.7,1.7,1.7,0,0,0,.356-1.075V93.85a1.608,1.608,0,0,0-.449-1.188,3.54,3.54,0,0,0-1.621-.738l-2.176-.528a6.053,6.053,0,0,1-2.886-1.39A3.216,3.216,0,0,1,201.5,87.6v-.013a3.561,3.561,0,0,1,.638-2.1,4.279,4.279,0,0,1,1.78-1.424,6.337,6.337,0,0,1,2.618-.513,5.974,5.974,0,0,1,2.616.534,4.4,4.4,0,0,1,1.754,1.45,4.024,4.024,0,0,1,.719,2.063l.012.171h-2.188l-.013-.091a2.407,2.407,0,0,0-.877-1.61,3.12,3.12,0,0,0-2.023-.6,3.755,3.755,0,0,0-1.438.25,2.083,2.083,0,0,0-.93.7,1.8,1.8,0,0,0-.322,1.061v.013a1.6,1.6,0,0,0,.5,1.188,3.529,3.529,0,0,0,1.635.763l2.175.528a6.029,6.029,0,0,1,2.927,1.378,3.234,3.234,0,0,1,.843,2.34V93.7a3.435,3.435,0,0,1-.692,2.122,4.576,4.576,0,0,1-1.9,1.445,7.614,7.614,0,0,1-5.516.006Z"/><path class="cls-1" d="M214.577,81.074a1.44,1.44,0,0,1,0-2.037,1.441,1.441,0,1,1,0,2.037Zm-.132,2.742h2.294V97.527h-2.294Z"/><path class="cls-1" d="M222.216,96.921a5.876,5.876,0,0,1-2.227-2.472,8.378,8.378,0,0,1-.8-3.777v-.026a8.332,8.332,0,0,1,.8-3.778,5.858,5.858,0,0,1,2.227-2.452,6.827,6.827,0,0,1,6.645,0,5.873,5.873,0,0,1,2.228,2.452,8.332,8.332,0,0,1,.8,3.778v.026a8.36,8.36,0,0,1-.8,3.783,5.9,5.9,0,0,1-2.221,2.466,6.793,6.793,0,0,1-6.652,0Zm5.446-1.76a3.905,3.905,0,0,0,1.383-1.74,6.887,6.887,0,0,0,.5-2.749v-.026a6.837,6.837,0,0,0-.5-2.743,3.827,3.827,0,0,0-1.4-1.727,3.773,3.773,0,0,0-2.116-.593,3.684,3.684,0,0,0-2.089.6,3.91,3.91,0,0,0-1.4,1.727,6.713,6.713,0,0,0-.5,2.736v.026a6.815,6.815,0,0,0,.5,2.749,3.9,3.9,0,0,0,1.4,1.74,3.73,3.73,0,0,0,2.115.6A3.676,3.676,0,0,0,227.662,95.161Z"/><path class="cls-1" d="M234.194,83.816h2.294v1.952h.053a4.394,4.394,0,0,1,1.608-1.589,5.039,5.039,0,0,1,2.61-.626,4.5,4.5,0,0,1,3.5,1.364,5.3,5.3,0,0,1,1.246,3.712v8.9h-2.294v-8.49a3.754,3.754,0,0,0-.785-2.564,2.988,2.988,0,0,0-2.366-.89,3.6,3.6,0,0,0-1.885.481,3.254,3.254,0,0,0-1.246,1.352,4.451,4.451,0,0,0-.441,2.043v8.068h-2.294Z"/><path class="cls-2" d="M254.312,78.5h2.136v23.638h-2.136Z"/><path class="cls-1" d="M265.123,95.84,276,80.691v-.052H265.492V78.5h13.473v1.687L268.141,95.339v.053h11.048v2.135H265.123Z"/><path class="cls-1" d="M282.089,78.5h2.294v7.5h.053a4.1,4.1,0,0,1,1.648-1.806,5.079,5.079,0,0,1,2.624-.646,4.651,4.651,0,0,1,2.564.7,4.8,4.8,0,0,1,1.721,1.958,6.49,6.49,0,0,1,.619,2.913v8.4h-2.294v-8a4.3,4.3,0,0,0-.9-2.9,3.127,3.127,0,0,0-2.5-1.042,3.32,3.32,0,0,0-3.092,1.886,4.547,4.547,0,0,0-.442,2.056v8h-2.294Z"/><path class="cls-1" d="M298.787,96.921a5.675,5.675,0,0,1-2.176-2.459,8.6,8.6,0,0,1-.758-3.737v-.014a8.64,8.64,0,0,1,.765-3.737,5.975,5.975,0,0,1,2.149-2.518,6.387,6.387,0,0,1,6.48-.04,5.616,5.616,0,0,1,2.076,2.42,8.467,8.467,0,0,1,.725,3.611v.844H297V89.5h9.915l-1.161,1.662v-.884a6.307,6.307,0,0,0-.481-2.636,3.408,3.408,0,0,0-1.325-1.549,3.916,3.916,0,0,0-3.9.026,3.631,3.631,0,0,0-1.371,1.582,5.947,5.947,0,0,0-.5,2.577v.884a5.69,5.69,0,0,0,.494,2.479,3.621,3.621,0,0,0,1.405,1.575,4.1,4.1,0,0,0,2.149.547,4.306,4.306,0,0,0,1.556-.264,3.218,3.218,0,0,0,1.146-.726,2.654,2.654,0,0,0,.66-1.054l.04-.118h2.253l-.026.131a4.527,4.527,0,0,1-.652,1.582,5.088,5.088,0,0,1-1.233,1.3,5.851,5.851,0,0,1-1.714.87,6.741,6.741,0,0,1-2.083.31A6.335,6.335,0,0,1,298.787,96.921Z"/><path class="cls-1" d="M310.355,83.816h2.294v1.952h.053a4.394,4.394,0,0,1,1.608-1.589,5.039,5.039,0,0,1,2.61-.626,4.5,4.5,0,0,1,3.5,1.364,5.3,5.3,0,0,1,1.246,3.712v8.9h-2.294v-8.49a3.759,3.759,0,0,0-.785-2.564,2.989,2.989,0,0,0-2.366-.89,3.6,3.6,0,0,0-1.886.481,3.251,3.251,0,0,0-1.245,1.352,4.451,4.451,0,0,0-.442,2.043v8.068h-2.294Z"/><path class="cls-1" d="M327.434,101.924a5.328,5.328,0,0,1-2.03-1.305,3.893,3.893,0,0,1-1-1.84l-.027-.118h2.308l.053.118a2.383,2.383,0,0,0,1.271,1.167,5.65,5.65,0,0,0,2.341.429,3.923,3.923,0,0,0,2.795-.93,3.3,3.3,0,0,0,.988-2.524V95.168h-.053a4.529,4.529,0,0,1-1.054,1.318,4.846,4.846,0,0,1-1.484.864,5.225,5.225,0,0,1-1.825.309,5.337,5.337,0,0,1-3.039-.877,5.8,5.8,0,0,1-2.044-2.465,8.837,8.837,0,0,1-.731-3.724V90.58a8.6,8.6,0,0,1,.745-3.712,5.833,5.833,0,0,1,2.063-2.445,5.427,5.427,0,0,1,3.059-.87,4.748,4.748,0,0,1,1.793.33,4.836,4.836,0,0,1,1.456.909,5.163,5.163,0,0,1,1.061,1.345h.053V83.816h2.294V97.145a5.124,5.124,0,0,1-.738,2.775,4.919,4.919,0,0,1-2.1,1.833,7.357,7.357,0,0,1-3.217.652A8.235,8.235,0,0,1,327.434,101.924ZM332.273,95a4.134,4.134,0,0,0,1.371-1.761,6.587,6.587,0,0,0,.494-2.649V90.58a6.5,6.5,0,0,0-.494-2.637,4.074,4.074,0,0,0-1.378-1.74,3.467,3.467,0,0,0-2.043-.62,3.642,3.642,0,0,0-2.109.613,3.892,3.892,0,0,0-1.378,1.734,6.681,6.681,0,0,0-.482,2.65v.013a6.8,6.8,0,0,0,.482,2.682,3.891,3.891,0,0,0,1.378,1.741,3.642,3.642,0,0,0,2.109.613A3.44,3.44,0,0,0,332.273,95Z"/><path class="cls-1" d="M345.054,78.5h2.294V97.527h-2.294Z"/><path class="cls-1" d="M352.068,97.277a3.847,3.847,0,0,1-1.6-1.451,4.068,4.068,0,0,1-.574-2.175v-.026a3.412,3.412,0,0,1,1.306-2.8,6.3,6.3,0,0,1,3.665-1.179l5.076-.29v1.779l-4.813.291a3.812,3.812,0,0,0-2.128.658,1.846,1.846,0,0,0-.758,1.543v.026a1.886,1.886,0,0,0,.744,1.57,3.148,3.148,0,0,0,1.984.58,4.125,4.125,0,0,0,1.945-.455,3.58,3.58,0,0,0,1.371-1.246,3.223,3.223,0,0,0,.508-1.78V88.272a2.538,2.538,0,0,0-.785-1.97,3.165,3.165,0,0,0-2.221-.719,3.611,3.611,0,0,0-2.129.573,2.4,2.4,0,0,0-1.009,1.5l-.026.119h-2.215l.012-.144a4.123,4.123,0,0,1,.772-2.057,4.615,4.615,0,0,1,1.84-1.47,7.359,7.359,0,0,1,5.583.006,4.259,4.259,0,0,1,1.825,1.563,4.314,4.314,0,0,1,.646,2.38v9.478h-2.293V95.3h-.053a4.387,4.387,0,0,1-1.055,1.312,4.993,4.993,0,0,1-1.483.87,4.911,4.911,0,0,1-1.746.31A5.277,5.277,0,0,1,352.068,97.277Z"/><path class="cls-1" d="M368.224,97.1a4.939,4.939,0,0,1-1.76-1.892h-.052v2.32h-2.294V78.5h2.294V86.11h.052a4.838,4.838,0,0,1,1.793-1.872,4.965,4.965,0,0,1,2.6-.685,5.276,5.276,0,0,1,3.025.877,5.834,5.834,0,0,1,2.031,2.471,8.959,8.959,0,0,1,.731,3.757v.014a9.066,9.066,0,0,1-.725,3.764,5.745,5.745,0,0,1-2.037,2.478,5.383,5.383,0,0,1-3.065.877A4.805,4.805,0,0,1,368.224,97.1Zm4.238-1.952a3.88,3.88,0,0,0,1.359-1.759,7.088,7.088,0,0,0,.474-2.716v-.014a6.986,6.986,0,0,0-.474-2.7,3.933,3.933,0,0,0-1.359-1.753,3.553,3.553,0,0,0-2.095-.62,3.445,3.445,0,0,0-2.05.633,4.256,4.256,0,0,0-1.4,1.773,6.442,6.442,0,0,0-.515,2.669v.014a6.568,6.568,0,0,0,.508,2.676,4.193,4.193,0,0,0,1.4,1.78,3.477,3.477,0,0,0,2.057.633A3.571,3.571,0,0,0,372.462,95.147Z"/><rect class="cls-3" x="2.18" y="2.362" width="378" height="66.829"/><path class="cls-4" d="M73.569,24.27V16.979c0-6.013,4.408-10.889,9.846-10.889H294.723c5.112,0,9.314,4.309,9.8,9.821"/><polygon class="cls-5" points="299.087 12.111 304.323 14.186 309.452 11.858 304.569 24.27 299.087 12.111"/><path class="cls-5" d="M8.12,18.812H37.528v7.66H17.409V37.115h18.98v7.291H17.409V55.542H37.528V63.2H8.12Z"/><path class="cls-5" d="M43.68,18.812h8.983V63.2H43.68Z"/><path class="cls-5" d="M65.059,61.8a14.01,14.01,0,0,1-5.6-5.922,19.753,19.753,0,0,1-1.968-9.106v-.03a19.847,19.847,0,0,1,1.968-9.121,14.344,14.344,0,0,1,5.523-5.968,16.131,16.131,0,0,1,8.382-2.107,16.345,16.345,0,0,1,8.352,2.046,13.891,13.891,0,0,1,5.444,5.767,18.722,18.722,0,0,1,1.923,8.706v2.8H61.921v-5.69H84.838L80.563,48.5V45.021a11.635,11.635,0,0,0-.893-4.845,6.54,6.54,0,0,0-2.476-2.938,7.314,7.314,0,0,0-7.383.032,6.747,6.747,0,0,0-2.521,2.967,11.3,11.3,0,0,0-.909,4.784v3.507a10.862,10.862,0,0,0,.909,4.645,6.686,6.686,0,0,0,2.6,2.969,7.594,7.594,0,0,0,4.029,1.03,8.026,8.026,0,0,0,3.2-.584,6.765,6.765,0,0,0,2.215-1.477A4.869,4.869,0,0,0,80.5,53.3l.062-.185h8.244l-.092.339a12.025,12.025,0,0,1-1.446,3.66,12.948,12.948,0,0,1-2.907,3.384A14.09,14.09,0,0,1,79.9,62.955a18.634,18.634,0,0,1-6.167.923A17.192,17.192,0,0,1,65.059,61.8Z"/><path class="cls-5" d="M100.1,61.786a14.126,14.126,0,0,1-5.644-5.952,19.776,19.776,0,0,1-1.985-9.151v-.032a19.462,19.462,0,0,1,2-9.121,14.21,14.21,0,0,1,5.645-5.906,18.8,18.8,0,0,1,16.349-.4,13.064,13.064,0,0,1,5.154,4.537,12.79,12.79,0,0,1,2.046,6.429v.215h-8.368l-.031-.276a7.028,7.028,0,0,0-2.03-3.938,6.054,6.054,0,0,0-4.43-1.6,6.142,6.142,0,0,0-3.8,1.215,7.7,7.7,0,0,0-2.492,3.475,14.951,14.951,0,0,0-.876,5.4v.03a15.24,15.24,0,0,0,.876,5.491A7.488,7.488,0,0,0,105,55.649a6.3,6.3,0,0,0,3.83,1.185,6.159,6.159,0,0,0,4.353-1.523,6.882,6.882,0,0,0,2.076-4.014l.062-.277h8.367V51.2a12.978,12.978,0,0,1-2.092,6.46,13.217,13.217,0,0,1-5.152,4.537,16.635,16.635,0,0,1-7.675,1.677A17.186,17.186,0,0,1,100.1,61.786Z"/><path class="cls-5" d="M133.012,61.571q-2.646-2.307-2.646-7.6V36.992h-4.583V30.225h4.583v-8.06h9.075v8.06h6.029v6.767h-6.029v16a4.137,4.137,0,0,0,1.03,3.215,4.506,4.506,0,0,0,3.061.907q.615,0,1.077-.046c.308-.031.595-.066.861-.107V63.54q-.738.122-1.83.231t-2.507.107Q135.658,63.878,133.012,61.571Z"/><path class="cls-5" d="M150.422,30.225h8.983v5.753h.185a8.849,8.849,0,0,1,2.676-4.738,7.08,7.08,0,0,1,4.83-1.692,10.376,10.376,0,0,1,1.414.093,7.152,7.152,0,0,1,1.17.246v7.936a5.8,5.8,0,0,0-1.416-.385,11.671,11.671,0,0,0-1.846-.138,7.769,7.769,0,0,0-3.783.861,5.712,5.712,0,0,0-2.4,2.523,9.006,9.006,0,0,0-.831,4.06V63.2h-8.983Z"/><path class="cls-5" d="M178.723,61.832a14.023,14.023,0,0,1-5.675-5.906,19.675,19.675,0,0,1-2.014-9.213v-.062a19.17,19.17,0,0,1,2.045-9.151,14.349,14.349,0,0,1,5.707-5.891,17.2,17.2,0,0,1,8.582-2.061A17.466,17.466,0,0,1,196,31.594a14.149,14.149,0,0,1,5.706,5.875,19.369,19.369,0,0,1,2.03,9.182v.062a19.651,19.651,0,0,1-2.015,9.228,14.033,14.033,0,0,1-5.676,5.891,19.348,19.348,0,0,1-17.319,0Zm12.49-6.183a7.535,7.535,0,0,0,2.476-3.445,15.217,15.217,0,0,0,.877-5.491v-.062a14.811,14.811,0,0,0-.892-5.429,7.591,7.591,0,0,0-2.507-3.446,6.253,6.253,0,0,0-3.8-1.183,6.147,6.147,0,0,0-3.769,1.2,7.71,7.71,0,0,0-2.507,3.445,14.669,14.669,0,0,0-.892,5.414v.062a15.239,15.239,0,0,0,.877,5.491,7.442,7.442,0,0,0,2.507,3.445,6.363,6.363,0,0,0,3.845,1.185A6.18,6.18,0,0,0,191.213,55.649Z"/><path class="cls-5" d="M217.622,61.2a18.562,18.562,0,0,1-7.336-7.906,27.1,27.1,0,0,1-2.584-12.3v-.03a27.013,27.013,0,0,1,2.584-12.29,18.494,18.494,0,0,1,7.336-7.875,22.047,22.047,0,0,1,11.244-2.753,21.3,21.3,0,0,1,9.6,2.092,17.66,17.66,0,0,1,6.768,5.753,17.092,17.092,0,0,1,2.983,8.367l.031.307H239.17l-.123-.523a10.8,10.8,0,0,0-1.877-4.275,9.267,9.267,0,0,0-3.445-2.83,11,11,0,0,0-4.859-1.016,10.507,10.507,0,0,0-6.184,1.83,11.78,11.78,0,0,0-4.045,5.184,20.32,20.32,0,0,0-1.43,8v.031a20.745,20.745,0,0,0,1.43,8.074,11.688,11.688,0,0,0,4.061,5.23,10.527,10.527,0,0,0,6.168,1.831,11.057,11.057,0,0,0,4.767-.985,9.336,9.336,0,0,0,3.507-2.845,11.4,11.4,0,0,0,2-4.507l.063-.308h9.074l-.031.339a17,17,0,0,1-3,8.367,17.651,17.651,0,0,1-6.784,5.737,21.44,21.44,0,0,1-9.6,2.077A21.942,21.942,0,0,1,217.622,61.2Z"/><path class="cls-5" d="M253.444,18.812h8.982v17.1h.185a10.052,10.052,0,0,1,3.86-4.723,11.377,11.377,0,0,1,6.26-1.645,11.605,11.605,0,0,1,6.184,1.584,10.458,10.458,0,0,1,3.983,4.476,15.68,15.68,0,0,1,1.4,6.891V63.2h-9.012V44.345a8.188,8.188,0,0,0-1.63-5.4,5.789,5.789,0,0,0-4.707-1.953,6.212,6.212,0,0,0-3.43.939,6.337,6.337,0,0,0-2.276,2.584,8.446,8.446,0,0,0-.816,3.8V63.2h-8.982Z"/><path class="cls-5" d="M296.387,61.8a14,14,0,0,1-5.6-5.922,19.741,19.741,0,0,1-1.969-9.106v-.03a19.834,19.834,0,0,1,1.969-9.121,14.336,14.336,0,0,1,5.522-5.968,16.131,16.131,0,0,1,8.382-2.107,16.343,16.343,0,0,1,8.352,2.046,13.885,13.885,0,0,1,5.444,5.767,18.722,18.722,0,0,1,1.924,8.706v2.8H293.25v-5.69h22.917L311.891,48.5V45.021A11.651,11.651,0,0,0,311,40.176a6.542,6.542,0,0,0-2.477-2.938,7.314,7.314,0,0,0-7.383.032,6.747,6.747,0,0,0-2.521,2.967,11.3,11.3,0,0,0-.909,4.784v3.507a10.862,10.862,0,0,0,.909,4.645,6.686,6.686,0,0,0,2.6,2.969,7.6,7.6,0,0,0,4.03,1.03,8.025,8.025,0,0,0,3.2-.584,6.765,6.765,0,0,0,2.215-1.477A4.872,4.872,0,0,0,311.83,53.3l.061-.185h8.244l-.092.339a12.025,12.025,0,0,1-1.446,3.66,12.948,12.948,0,0,1-2.907,3.384,14.09,14.09,0,0,1-4.461,2.461,18.634,18.634,0,0,1-6.167.923A17.192,17.192,0,0,1,296.387,61.8Z"/><path class="cls-5" d="M325.026,30.225h8.982v5.537h.186a9.1,9.1,0,0,1,3.46-4.522,9.888,9.888,0,0,1,5.768-1.692,10.337,10.337,0,0,1,4.153.8,8.429,8.429,0,0,1,3.122,2.307,8.8,8.8,0,0,1,1.8,3.692h.184a9.713,9.713,0,0,1,2.231-3.616,10.329,10.329,0,0,1,3.537-2.352,11.783,11.783,0,0,1,4.475-.831,11.229,11.229,0,0,1,5.66,1.385,9.691,9.691,0,0,1,3.785,3.876,12.063,12.063,0,0,1,1.353,5.844V63.2H364.74V42.93a6.366,6.366,0,0,0-1.384-4.4,5.108,5.108,0,0,0-4-1.538,5.564,5.564,0,0,0-2.968.784,5.342,5.342,0,0,0-1.984,2.169,7.005,7.005,0,0,0-.708,3.231V63.2h-8.644V42.652a5.813,5.813,0,0,0-1.415-4.168,5.128,5.128,0,0,0-3.906-1.492,5.474,5.474,0,0,0-2.984.816,5.575,5.575,0,0,0-2.015,2.23,7.068,7.068,0,0,0-.724,3.261V63.2h-8.982Z"/></g></svg>