<svg id="Layer_1" data-name="Layer 1" xmlns="http://www.w3.org/2000/svg" viewBox="0 0 382.5 106.86"><defs><style>.cls-1{fill:#003c67;}.cls-2,.cls-3,.cls-4{fill:none;}.cls-3{stroke:#003c67;stroke-miterlimit:10;}.cls-4{stroke:gray;stroke-linecap:square;stroke-linejoin:round;stroke-width:4px;}</style></defs><path class="cls-1" d="M48.53,0V48.36H38.74V0H32V8.34H10.12v11.6H30.8v7.94H10.12V40H32v8.35H0V81.79A29.51,29.51,0,0,1,2.81,68.4a20.19,20.19,0,0,1,8-8.58,24,24,0,0,1,12.25-3A23.17,23.17,0,0,1,33.51,59.1a19.3,19.3,0,0,1,7.38,6.27,18.7,18.7,0,0,1,3.25,9.11l0,.34H34.28l-.13-.57a11.69,11.69,0,0,0-2-4.66,10,10,0,0,0-3.75-3.08,11.94,11.94,0,0,0-5.29-1.11,11.44,11.44,0,0,0-6.74,2A12.79,12.79,0,0,0,11.91,73a22.14,22.14,0,0,0-1.55,8.72v0a22.59,22.59,0,0,0,1.55,8.8,12.8,12.8,0,0,0,4.43,5.69,11.47,11.47,0,0,0,6.72,2,12.13,12.13,0,0,0,5.19-1.07,10.19,10.19,0,0,0,3.82-3.11,12.28,12.28,0,0,0,2.18-4.9l.07-.34H44.2l0,.37a18.39,18.39,0,0,1-3.27,9.11,19.11,19.11,0,0,1-7.39,6.25,23.3,23.3,0,0,1-10.45,2.27H49.83V58.5h9.79V77.13h.2A10.93,10.93,0,0,1,64,72a12.31,12.31,0,0,1,6.82-1.8,12.64,12.64,0,0,1,6.73,1.73,11.4,11.4,0,0,1,4.34,4.88,17,17,0,0,1,1.53,7.5v22.56h44.37V70.93h9.78v6h.2A10,10,0,0,1,141.57,72a10.78,10.78,0,0,1,6.29-1.85,11.11,11.11,0,0,1,4.52.88,9,9,0,0,1,3.4,2.51,9.47,9.47,0,0,1,2,4h.2a10.71,10.71,0,0,1,2.43-3.94,11.33,11.33,0,0,1,3.86-2.56,12.87,12.87,0,0,1,4.87-.91,12.29,12.29,0,0,1,6.17,1.51,10.52,10.52,0,0,1,4.12,4.22,13.09,13.09,0,0,1,1.48,6.37v24.57h10.31L238.18,0ZM88.21,32.74H63.48a11.38,11.38,0,0,0,1,4.69,7.22,7.22,0,0,0,2.83,3.23,8.29,8.29,0,0,0,4.39,1.13,8.66,8.66,0,0,0,3.49-.64,7.22,7.22,0,0,0,2.41-1.61,5.36,5.36,0,0,0,1.28-2l.06-.21h9l-.1.37a13.19,13.19,0,0,1-1.57,4,14.17,14.17,0,0,1-3.17,3.69,15.53,15.53,0,0,1-4.86,2.68,20.32,20.32,0,0,1-6.72,1A18.72,18.72,0,0,1,62,46.83a15.33,15.33,0,0,1-6.1-6.45,21.5,21.5,0,0,1-2.14-9.92v0a21.62,21.62,0,0,1,2.14-9.94A15.65,15.65,0,0,1,62,14a17.56,17.56,0,0,1,9.13-2.3,17.87,17.87,0,0,1,9.1,2.23,15.13,15.13,0,0,1,5.93,6.29,20.32,20.32,0,0,1,2.1,9.48ZM122.79,90.4H98.07a11.35,11.35,0,0,0,1,4.69,7.24,7.24,0,0,0,2.83,3.24,8.26,8.26,0,0,0,4.39,1.12,8.61,8.61,0,0,0,3.48-.64,7.4,7.4,0,0,0,2.42-1.6,5.35,5.35,0,0,0,1.27-2l.07-.2h9l-.1.37a13.27,13.27,0,0,1-1.58,4,14.31,14.31,0,0,1-3.16,3.69,15.33,15.33,0,0,1-4.86,2.68,20.3,20.3,0,0,1-6.72,1,18.67,18.67,0,0,1-9.45-2.27A15.15,15.15,0,0,1,90.52,98a21.5,21.5,0,0,1-2.15-9.92v0a21.65,21.65,0,0,1,2.15-9.94,15.63,15.63,0,0,1,6-6.5,17.58,17.58,0,0,1,9.13-2.29,17.86,17.86,0,0,1,9.1,2.22,15.22,15.22,0,0,1,5.94,6.29,20.44,20.44,0,0,1,2.09,9.48Zm3.12-55.11a14.16,14.16,0,0,1-2.28,7,14.48,14.48,0,0,1-5.62,5,18.17,18.17,0,0,1-8.36,1.82,18.73,18.73,0,0,1-9.45-2.28,15.34,15.34,0,0,1-6.15-6.48,21.56,21.56,0,0,1-2.16-10v0a21.23,21.23,0,0,1,2.18-9.94A15.39,15.39,0,0,1,100.22,14,20.43,20.43,0,0,1,118,13.52a14.3,14.3,0,0,1,5.61,4.94,13.84,13.84,0,0,1,2.23,7v.23h-9.11l0-.3a7.61,7.61,0,0,0-2.21-4.29,6.58,6.58,0,0,0-4.82-1.74,6.69,6.69,0,0,0-4.14,1.32,8.37,8.37,0,0,0-2.72,3.79,16.4,16.4,0,0,0-1,5.88v0a16.8,16.8,0,0,0,1,6,8.14,8.14,0,0,0,2.72,3.75,6.85,6.85,0,0,0,4.17,1.29,6.67,6.67,0,0,0,4.74-1.66,7.46,7.46,0,0,0,2.26-4.37l.07-.3h9.12ZM149.63,19.8h-6.56V37.23c0,1.68.37,2.84,1.12,3.5a4.91,4.91,0,0,0,3.33,1c.45,0,.84,0,1.18,0s.64-.07.93-.12v7.17c-.53.09-1.2.18-2,.26s-1.7.11-2.73.11c-4,0-6.93-.83-8.85-2.51s-2.88-4.43-2.88-8.28V19.8h-5V12.43h5V3.65h9.89v8.78h6.56Zm26.38.91a6.26,6.26,0,0,0-1.54-.42,12.83,12.83,0,0,0-2-.15,8.43,8.43,0,0,0-4.13.94,6.18,6.18,0,0,0-2.61,2.74,9.91,9.91,0,0,0-.91,4.43V48.36H155V12.43h9.78V18.7H165a9.58,9.58,0,0,1,2.91-5.16,7.71,7.71,0,0,1,5.26-1.85,12.58,12.58,0,0,1,1.54.1,8.35,8.35,0,0,1,1.28.27Zm34.9,19.74a15.24,15.24,0,0,1-6.18,6.41,21.07,21.07,0,0,1-18.87,0,15.23,15.23,0,0,1-6.18-6.43,21.35,21.35,0,0,1-2.2-10v-.06a20.94,20.94,0,0,1,2.23-10,15.65,15.65,0,0,1,6.22-6.42,18.7,18.7,0,0,1,9.35-2.25,19.08,19.08,0,0,1,9.4,2.23,15.39,15.39,0,0,1,6.21,6.4,21,21,0,0,1,2.22,10v.06A21.38,21.38,0,0,1,210.91,40.45Z"/><polygon class="cls-2" points="32.04 48.36 0 48.36 0 0 32.04 0 32.04 8.34 10.12 8.34 10.12 19.94 30.8 19.94 30.8 27.88 10.12 27.88 10.12 40.01 32.04 40.01 32.04 48.36"/><path class="cls-1" d="M23.06,106.86H0v-25A29.63,29.63,0,0,0,2.81,95.23a20.27,20.27,0,0,0,8,8.61A23.9,23.9,0,0,0,23.06,106.86Z"/><path class="cls-2" d="M44.2,88.86l0,.37a18.39,18.39,0,0,1-3.27,9.11,19.11,19.11,0,0,1-7.39,6.25,23.3,23.3,0,0,1-10.45,2.27,23.9,23.9,0,0,1-12.25-3,20.27,20.27,0,0,1-8-8.61A29.63,29.63,0,0,1,0,81.82v0A29.51,29.51,0,0,1,2.81,68.4a20.19,20.19,0,0,1,8-8.58,24,24,0,0,1,12.25-3A23.17,23.17,0,0,1,33.51,59.1a19.3,19.3,0,0,1,7.38,6.27,18.7,18.7,0,0,1,3.25,9.11l0,.34H34.28l-.13-.57a11.69,11.69,0,0,0-2-4.66,10,10,0,0,0-3.75-3.08,11.94,11.94,0,0,0-5.29-1.11,11.44,11.44,0,0,0-6.74,2A12.79,12.79,0,0,0,11.91,73a22.14,22.14,0,0,0-1.55,8.72v0a22.59,22.59,0,0,0,1.55,8.8,12.8,12.8,0,0,0,4.43,5.69,11.47,11.47,0,0,0,6.72,2,12.13,12.13,0,0,0,5.19-1.07,10.19,10.19,0,0,0,3.82-3.11,12.28,12.28,0,0,0,2.18-4.9l.07-.34Z"/><rect class="cls-2" x="38.74" width="9.79" height="48.36"/><path class="cls-1" d="M73.63,86.31v20.55h-14V86.28a9.14,9.14,0,0,1,.89-4.14A6.92,6.92,0,0,1,63,79.33a6.67,6.67,0,0,1,3.73-1,6.29,6.29,0,0,1,5.13,2.13A8.93,8.93,0,0,1,73.63,86.31Z"/><path class="cls-2" d="M83.45,84.3v22.56H73.63V86.31a8.93,8.93,0,0,0-1.78-5.88,6.29,6.29,0,0,0-5.13-2.13,6.67,6.67,0,0,0-3.73,1,6.92,6.92,0,0,0-2.48,2.81,9.14,9.14,0,0,0-.89,4.14v20.58H49.83V58.5h9.79V77.13h.2A10.93,10.93,0,0,1,64,72a12.31,12.31,0,0,1,6.82-1.8,12.64,12.64,0,0,1,6.73,1.73,11.4,11.4,0,0,1,4.34,4.88A17,17,0,0,1,83.45,84.3Z"/><path class="cls-2" d="M88.21,29.69a20.32,20.32,0,0,0-2.1-9.48,15.13,15.13,0,0,0-5.93-6.29,17.87,17.87,0,0,0-9.1-2.23A17.56,17.56,0,0,0,62,14a15.65,15.65,0,0,0-6,6.5,21.62,21.62,0,0,0-2.14,9.94v0a21.5,21.5,0,0,0,2.14,9.92A15.33,15.33,0,0,0,62,46.83a18.72,18.72,0,0,0,9.45,2.26,20.32,20.32,0,0,0,6.72-1,15.53,15.53,0,0,0,4.86-2.68,14.17,14.17,0,0,0,3.17-3.69,13.19,13.19,0,0,0,1.57-4l.1-.37h-9l-.06.21a5.36,5.36,0,0,1-1.28,2,7.22,7.22,0,0,1-2.41,1.61,8.66,8.66,0,0,1-3.49.64,8.29,8.29,0,0,1-4.39-1.13,7.22,7.22,0,0,1-2.83-3.23,11.38,11.38,0,0,1-1-4.69H88.21ZM63.59,26.54a10.71,10.71,0,0,1,.87-3.2,7.33,7.33,0,0,1,2.75-3.23,8,8,0,0,1,8,0,7.16,7.16,0,0,1,2.7,3.2,10.45,10.45,0,0,1,.85,3.27Z"/><path class="cls-2" d="M122.79,87.35a20.44,20.44,0,0,0-2.09-9.48,15.22,15.22,0,0,0-5.94-6.29,17.86,17.86,0,0,0-9.1-2.22,17.58,17.58,0,0,0-9.13,2.29,15.63,15.63,0,0,0-6,6.5,21.65,21.65,0,0,0-2.15,9.94v0A21.5,21.5,0,0,0,90.52,98a15.15,15.15,0,0,0,6.1,6.45,18.67,18.67,0,0,0,9.45,2.27,20.3,20.3,0,0,0,6.72-1,15.33,15.33,0,0,0,4.86-2.68,14.31,14.31,0,0,0,3.16-3.69,13.27,13.27,0,0,0,1.58-4l.1-.37h-9l-.07.2a5.35,5.35,0,0,1-1.27,2,7.4,7.4,0,0,1-2.42,1.6,8.61,8.61,0,0,1-3.48.64,8.26,8.26,0,0,1-4.39-1.12,7.24,7.24,0,0,1-2.83-3.24,11.35,11.35,0,0,1-1-4.69h24.72ZM98.18,84.2a10.79,10.79,0,0,1,.87-3.2,7.3,7.3,0,0,1,2.74-3.23,8,8,0,0,1,8,0,7.13,7.13,0,0,1,2.69,3.2,10.72,10.72,0,0,1,.86,3.27Z"/><path class="cls-2" d="M116.79,35.09h9.12v.2a14.16,14.16,0,0,1-2.28,7,14.48,14.48,0,0,1-5.62,5,18.17,18.17,0,0,1-8.36,1.82,18.73,18.73,0,0,1-9.45-2.28,15.34,15.34,0,0,1-6.15-6.48,21.56,21.56,0,0,1-2.16-10v0a21.23,21.23,0,0,1,2.18-9.94A15.39,15.39,0,0,1,100.22,14,20.43,20.43,0,0,1,118,13.52a14.3,14.3,0,0,1,5.61,4.94,13.84,13.84,0,0,1,2.23,7v.23h-9.11l0-.3a7.61,7.61,0,0,0-2.21-4.29,6.58,6.58,0,0,0-4.82-1.74,6.69,6.69,0,0,0-4.14,1.32,8.37,8.37,0,0,0-2.72,3.79,16.4,16.4,0,0,0-1,5.88v0a16.8,16.8,0,0,0,1,6,8.14,8.14,0,0,0,2.72,3.75,6.85,6.85,0,0,0,4.17,1.29,6.67,6.67,0,0,0,4.74-1.66,7.46,7.46,0,0,0,2.26-4.37Z"/><path class="cls-2" d="M133.18,19.8h-5V12.43h5V3.65h9.89v8.78h6.56V19.8h-6.56V37.23c0,1.68.37,2.84,1.12,3.5a4.91,4.91,0,0,0,3.33,1c.45,0,.84,0,1.18,0s.64-.07.93-.12v7.17c-.53.09-1.2.18-2,.26s-1.7.11-2.73.11c-4,0-6.93-.83-8.85-2.51s-2.88-4.43-2.88-8.28Z"/><path class="cls-2" d="M164.81,48.36H155V12.43h9.78V18.7H165a9.58,9.58,0,0,1,2.91-5.16,7.71,7.71,0,0,1,5.26-1.85,12.58,12.58,0,0,1,1.54.1,8.35,8.35,0,0,1,1.28.27v8.65a6.26,6.26,0,0,0-1.54-.42,12.83,12.83,0,0,0-2-.15,8.43,8.43,0,0,0-4.13.94,6.18,6.18,0,0,0-2.61,2.74,9.91,9.91,0,0,0-.91,4.43Z"/><path class="cls-1" d="M149.63,84.47v22.39h-12V85.17a7.77,7.77,0,0,1,.79-3.55,6,6,0,0,1,2.2-2.43,6,6,0,0,1,3.25-.89,5.59,5.59,0,0,1,4.25,1.63A6.32,6.32,0,0,1,149.63,84.47Z"/><path class="cls-1" d="M171.08,84.77v22.09h-12V85a7.7,7.7,0,0,1,.77-3.52A5.94,5.94,0,0,1,162,79.16a6.08,6.08,0,0,1,3.24-.86A5.53,5.53,0,0,1,169.57,80,6.9,6.9,0,0,1,171.08,84.77Z"/><path class="cls-2" d="M180.87,82.29v24.57h-9.79V84.77A6.9,6.9,0,0,0,169.57,80a5.53,5.53,0,0,0-4.35-1.68,6.08,6.08,0,0,0-3.24.86,5.94,5.94,0,0,0-2.16,2.36,7.7,7.7,0,0,0-.77,3.52v21.82h-9.42V84.47a6.32,6.32,0,0,0-1.54-4.54,5.59,5.59,0,0,0-4.25-1.63,6,6,0,0,0-3.25.89,6,6,0,0,0-2.2,2.43,7.77,7.77,0,0,0-.79,3.55v21.69h-9.78V70.93h9.78v6h.2A10,10,0,0,1,141.57,72a10.78,10.78,0,0,1,6.29-1.85,11.11,11.11,0,0,1,4.52.88,9,9,0,0,1,3.4,2.51,9.47,9.47,0,0,1,2,4h.2a10.71,10.71,0,0,1,2.43-3.94,11.33,11.33,0,0,1,3.86-2.56,12.87,12.87,0,0,1,4.87-.91,12.29,12.29,0,0,1,6.17,1.51,10.52,10.52,0,0,1,4.12,4.22A13.09,13.09,0,0,1,180.87,82.29Z"/><path class="cls-2" d="M210.89,20.32a15.39,15.39,0,0,0-6.21-6.4,19.08,19.08,0,0,0-9.4-2.23,18.7,18.7,0,0,0-9.35,2.25,15.65,15.65,0,0,0-6.22,6.42,20.94,20.94,0,0,0-2.23,10v.06a21.35,21.35,0,0,0,2.2,10,15.23,15.23,0,0,0,6.18,6.43,21.07,21.07,0,0,0,18.87,0,15.24,15.24,0,0,0,6.18-6.41,21.38,21.38,0,0,0,2.2-10.06v-.06A21,21,0,0,0,210.89,20.32Zm-7.77,10.07a16.57,16.57,0,0,1-1,6,8.16,8.16,0,0,1-2.69,3.75,6.77,6.77,0,0,1-4.13,1.29,6.92,6.92,0,0,1-4.18-1.29,8.1,8.1,0,0,1-2.74-3.75,16.8,16.8,0,0,1-.95-6v-.06a16,16,0,0,1,1-5.9,8.5,8.5,0,0,1,2.73-3.76,6.72,6.72,0,0,1,4.11-1.3,6.84,6.84,0,0,1,4.14,1.29,8.3,8.3,0,0,1,2.73,3.75,16.1,16.1,0,0,1,1,5.92Z"/><path class="cls-1" d="M78.8,26.54H63.59a10.71,10.71,0,0,1,.87-3.2,7.33,7.33,0,0,1,2.75-3.23,8,8,0,0,1,8,0,7.16,7.16,0,0,1,2.7,3.2A10.45,10.45,0,0,1,78.8,26.54Z"/><path class="cls-1" d="M203.12,30.33v.06a16.57,16.57,0,0,1-1,6,8.16,8.16,0,0,1-2.69,3.75,6.77,6.77,0,0,1-4.13,1.29,6.92,6.92,0,0,1-4.18-1.29,8.1,8.1,0,0,1-2.74-3.75,16.8,16.8,0,0,1-.95-6v-.06a16,16,0,0,1,1-5.9,8.5,8.5,0,0,1,2.73-3.76,6.72,6.72,0,0,1,4.11-1.3,6.84,6.84,0,0,1,4.14,1.29,8.3,8.3,0,0,1,2.73,3.75A16.1,16.1,0,0,1,203.12,30.33Z"/><path class="cls-1" d="M113.39,84.2H98.18a10.79,10.79,0,0,1,.87-3.2,7.3,7.3,0,0,1,2.74-3.23,8,8,0,0,1,8,0,7.13,7.13,0,0,1,2.69,3.2A10.72,10.72,0,0,1,113.39,84.2Z"/><path class="cls-1" d="M276.25,7h1.93V27.47h-1.93Z"/><path class="cls-1" d="M281.69,12.74h1.87v2.52h0a4.84,4.84,0,0,1,1.78-2,5.46,5.46,0,0,1,3-.78A5,5,0,0,1,292.19,14,5.73,5.73,0,0,1,293.57,18v9.43H291.7V18.35a4.47,4.47,0,0,0-1-3.13,3.71,3.71,0,0,0-2.88-1.07,4.26,4.26,0,0,0-2.25.58,3.9,3.9,0,0,0-1.49,1.6,5.14,5.14,0,0,0-.53,2.42v8.72h-1.87Z"/><path class="cls-1" d="M298.39,26.84a3.86,3.86,0,0,1-.9-2.83V14.32h-2.17V12.74h2.17v-4h1.93v4h2.9v1.58h-2.9V24a2.3,2.3,0,0,0,.51,1.7,2.23,2.23,0,0,0,1.55.48l.46,0,.38,0v1.52l-.55.07a4.92,4.92,0,0,1-.67,0A3.68,3.68,0,0,1,298.39,26.84Z"/><path class="cls-1" d="M306.82,26.81a6.06,6.06,0,0,1-2.31-2.63,9.17,9.17,0,0,1-.82-4v0a9.27,9.27,0,0,1,.82-4,6.32,6.32,0,0,1,2.28-2.68,6.74,6.74,0,0,1,6.85,0A6,6,0,0,1,315.86,16a8.81,8.81,0,0,1,.79,3.86v.74h-12V19.07h11.11l-.95,1.35v-.71a7.09,7.09,0,0,0-.58-3.05,4.36,4.36,0,0,0-1.62-1.88,4.45,4.45,0,0,0-6.41,1.92,6.94,6.94,0,0,0-.6,3v.71a7.08,7.08,0,0,0,.6,3.06,4.35,4.35,0,0,0,1.69,1.92,4.77,4.77,0,0,0,2.56.67,5.31,5.31,0,0,0,1.93-.33,3.74,3.74,0,0,0,1.41-.95,3.43,3.43,0,0,0,.81-1.41l0-.13h1.85l0,.14a5.1,5.1,0,0,1-.72,1.74,5.2,5.2,0,0,1-1.31,1.38,5.81,5.81,0,0,1-1.81.91,7.47,7.47,0,0,1-2.21.32A6.64,6.64,0,0,1,306.82,26.81Z"/><path class="cls-1" d="M319.16,12.74H321v2.65h.05a4.22,4.22,0,0,1,1.34-2.14,3.45,3.45,0,0,1,2.28-.78,3.58,3.58,0,0,1,.68.06l.48.11v1.83a2,2,0,0,0-.55-.15,5.34,5.34,0,0,0-.86-.06,3.3,3.3,0,0,0-1.81.5,3.34,3.34,0,0,0-1.19,1.42,5.22,5.22,0,0,0-.42,2.17v9.12h-1.86Z"/><path class="cls-1" d="M328.86,14.32H326.8V12.74h2.06V10.65a4,4,0,0,1,.95-2.94,3.82,3.82,0,0,1,2.8-.94l.75,0,.61.08V8.41a3.61,3.61,0,0,0-.5-.06h-.57a2.25,2.25,0,0,0-1.63.56,2.42,2.42,0,0,0-.57,1.79v2.05h3.18v1.58h-3.15V27.47h-1.87Z"/><path class="cls-1" d="M337.08,27.19a4.12,4.12,0,0,1-1.72-1.53,4.17,4.17,0,0,1-.61-2.27v0a3.6,3.6,0,0,1,1.37-3A6.82,6.82,0,0,1,340,19.13l5.52-.35v1.45l-5.3.36a4.85,4.85,0,0,0-2.66.84,2.3,2.3,0,0,0-.95,1.93v0a2.39,2.39,0,0,0,.94,2,3.74,3.74,0,0,0,2.42.75,5,5,0,0,0,2.34-.55A4.28,4.28,0,0,0,344,24.06a3.85,3.85,0,0,0,.62-2.13V17.56a3.29,3.29,0,0,0-1-2.51,3.76,3.76,0,0,0-2.68-.9,4.43,4.43,0,0,0-2.62.72,3,3,0,0,0-1.25,2l0,.14h-1.8l0-.17a4.52,4.52,0,0,1,.86-2.25,5,5,0,0,1,2-1.54,7,7,0,0,1,2.88-.56,6.38,6.38,0,0,1,2.91.61,4.49,4.49,0,0,1,1.9,1.7,4.92,4.92,0,0,1,.67,2.61V27.47h-1.86V24.76h-.05a4.37,4.37,0,0,1-1.14,1.56,5.51,5.51,0,0,1-1.73,1,5.72,5.72,0,0,1-2.07.38A5.63,5.63,0,0,1,337.08,27.19Z"/><path class="cls-1" d="M352,26.8a6.3,6.3,0,0,1-2.33-2.66,9.38,9.38,0,0,1-.82-4.05h0a9.17,9.17,0,0,1,.83-4,6.15,6.15,0,0,1,2.34-2.64,7,7,0,0,1,6.51-.27,5.56,5.56,0,0,1,2.05,1.74,5.33,5.33,0,0,1,1,2.35l0,.13h-1.83l0-.13A4,4,0,0,0,358.37,15a4.21,4.21,0,0,0-2.81-.89,4.37,4.37,0,0,0-2.5.72,4.86,4.86,0,0,0-1.66,2.07,7.7,7.7,0,0,0-.6,3.17h0a7.73,7.73,0,0,0,.6,3.19,4.61,4.61,0,0,0,1.68,2,4.43,4.43,0,0,0,2.51.72,4.29,4.29,0,0,0,2.74-.86A3.94,3.94,0,0,0,359.75,23l0-.13h1.84l0,.12a5.39,5.39,0,0,1-1,2.45,5.92,5.92,0,0,1-2.09,1.7,6.56,6.56,0,0,1-2.89.62A6.65,6.65,0,0,1,352,26.8Z"/><path class="cls-1" d="M366.35,26.81A6.06,6.06,0,0,1,364,24.18a9.17,9.17,0,0,1-.82-4v0a9.27,9.27,0,0,1,.82-4,6.32,6.32,0,0,1,2.28-2.68,6.74,6.74,0,0,1,6.85,0A6,6,0,0,1,375.39,16a8.81,8.81,0,0,1,.79,3.86v.74h-12V19.07h11.11l-.95,1.35v-.71a7.09,7.09,0,0,0-.58-3.05,4.36,4.36,0,0,0-1.62-1.88,4.45,4.45,0,0,0-6.41,1.92,6.94,6.94,0,0,0-.6,3v.71a7.08,7.08,0,0,0,.6,3.06,4.35,4.35,0,0,0,1.69,1.92,4.77,4.77,0,0,0,2.56.67,5.31,5.31,0,0,0,1.93-.33,3.82,3.82,0,0,0,1.41-.95,3.43,3.43,0,0,0,.81-1.41l0-.13H376l0,.14a5.3,5.3,0,0,1-.72,1.74,5.2,5.2,0,0,1-1.31,1.38,5.81,5.81,0,0,1-1.81.91,7.47,7.47,0,0,1-2.21.32A6.64,6.64,0,0,1,366.35,26.81Z"/><path class="cls-1" d="M228.25,95.61l13.11-18.49v-.06h-12.7V76h14.12v.88L229.69,95.4v0h13.14v1H228.25Z"/><path class="cls-1" d="M245.82,76h1.09v8.84h0a4.84,4.84,0,0,1,1.85-2.42,6.14,6.14,0,0,1,6.11-.24,4.8,4.8,0,0,1,1.86,2,6.88,6.88,0,0,1,.66,3.13v9.12h-1.09v-9a5.09,5.09,0,0,0-1.23-3.69,4.41,4.41,0,0,0-3.35-1.28,4.79,4.79,0,0,0-2.52.66A4.48,4.48,0,0,0,247.52,85a5.66,5.66,0,0,0-.61,2.7v8.78h-1.09Z"/><path class="cls-1" d="M263,95.8a6,6,0,0,1-2.28-2.62,9.25,9.25,0,0,1-.82-4.06h0a9.39,9.39,0,0,1,.81-4.06,6.17,6.17,0,0,1,2.25-2.62,6,6,0,0,1,3.34-.92,6.17,6.17,0,0,1,3.35.89,6.09,6.09,0,0,1,2.22,2.53,8.55,8.55,0,0,1,.81,3.84v.52H260.39v-.92h11.73l-.57.75v-.36a7.82,7.82,0,0,0-.67-3.35,4.9,4.9,0,0,0-4.63-2.91,5,5,0,0,0-2.75.76,5.2,5.2,0,0,0-1.88,2.17,7.58,7.58,0,0,0-.68,3.33v.36a8.44,8.44,0,0,0,.69,3.6A5.07,5.07,0,0,0,263.56,95a5.34,5.34,0,0,0,2.88.76,6,6,0,0,0,2.28-.4,4.37,4.37,0,0,0,1.65-1.16,4.52,4.52,0,0,0,.94-1.79l0-.12h1.1l0,.13a5.59,5.59,0,0,1-.74,1.79,5.14,5.14,0,0,1-1.3,1.37,5.85,5.85,0,0,1-1.77.87,7.56,7.56,0,0,1-2.18.3A6.46,6.46,0,0,1,263,95.8Z"/><path class="cls-1" d="M275.13,81.75h1.09v3h0a4.93,4.93,0,0,1,1.84-2.35,5.49,5.49,0,0,1,3.25-.93,5.15,5.15,0,0,1,3.9,1.49,5.85,5.85,0,0,1,1.42,4.2v9.26h-1.09V87.34a5,5,0,0,0-1.19-3.6,4.37,4.37,0,0,0-3.3-1.23,4.93,4.93,0,0,0-2.55.65A4.59,4.59,0,0,0,276.83,85a5.85,5.85,0,0,0-.61,2.71v8.79h-1.09Z"/><path class="cls-1" d="M293,101.19a5.36,5.36,0,0,1-2-1.29,4.62,4.62,0,0,1-1.05-1.77l0-.1H291l0,.11a3.74,3.74,0,0,0,1.61,1.79,5.89,5.89,0,0,0,3.14.75,5.15,5.15,0,0,0,3.67-1.24,4.4,4.4,0,0,0,1.32-3.36V92.55h0a5.88,5.88,0,0,1-1.1,2.1,5.8,5.8,0,0,1-1.88,1.48,6,6,0,0,1-5.73-.4,6.19,6.19,0,0,1-2.19-2.65,9.48,9.48,0,0,1-.79-4v0a9.3,9.3,0,0,1,.8-4,6.37,6.37,0,0,1,2.2-2.66,5.67,5.67,0,0,1,3.23-.94,5.43,5.43,0,0,1,2.47.55,5.59,5.59,0,0,1,1.87,1.51,5.89,5.89,0,0,1,1.12,2.13h0v-4h1.1v14.4a5.61,5.61,0,0,1-.74,2.92,4.89,4.89,0,0,1-2.1,1.92,7.31,7.31,0,0,1-3.27.68A7.64,7.64,0,0,1,293,101.19Zm5.29-6.35a5.48,5.48,0,0,0,1.88-2.31,8.11,8.11,0,0,0,.68-3.45h0a8.06,8.06,0,0,0-.68-3.44,5.51,5.51,0,0,0-1.88-2.3,4.72,4.72,0,0,0-2.77-.83,4.63,4.63,0,0,0-2.75.83,5.49,5.49,0,0,0-1.86,2.3,8.31,8.31,0,0,0-.66,3.44v0a8.43,8.43,0,0,0,.66,3.45,5.4,5.4,0,0,0,1.84,2.31,5,5,0,0,0,5.54,0Z"/><path class="cls-1" d="M314.17,101.19a5.4,5.4,0,0,1-2-1.29,4.65,4.65,0,0,1-1.06-1.77l0-.1h1.12l0,.11a3.69,3.69,0,0,0,1.61,1.79,5.85,5.85,0,0,0,3.13.75,5.17,5.17,0,0,0,3.68-1.24A4.4,4.4,0,0,0,322,96.08V92.55h0a5.69,5.69,0,0,1-3,3.58,5.6,5.6,0,0,1-2.48.54,5.69,5.69,0,0,1-3.25-.94,6.24,6.24,0,0,1-2.18-2.65,9.33,9.33,0,0,1-.79-4v0a9.3,9.3,0,0,1,.79-4,6.45,6.45,0,0,1,2.2-2.66,5.68,5.68,0,0,1,3.24-.94,5.36,5.36,0,0,1,2.46.55,5.53,5.53,0,0,1,1.88,1.51A5.87,5.87,0,0,1,322,85.7h0v-4h1.09v14.4a5.51,5.51,0,0,1-.74,2.92,4.89,4.89,0,0,1-2.1,1.92,7.29,7.29,0,0,1-3.26.68A7.66,7.66,0,0,1,314.17,101.19Zm5.3-6.35a5.48,5.48,0,0,0,1.88-2.31,8.26,8.26,0,0,0,.68-3.45h0a8.22,8.22,0,0,0-.68-3.44,5.51,5.51,0,0,0-1.88-2.3,4.75,4.75,0,0,0-2.78-.83,4.65,4.65,0,0,0-2.75.83,5.39,5.39,0,0,0-1.85,2.3,8.31,8.31,0,0,0-.67,3.44v0a8.43,8.43,0,0,0,.66,3.45,5.42,5.42,0,0,0,1.85,2.31,4.71,4.71,0,0,0,2.76.82A4.76,4.76,0,0,0,319.47,94.84Z"/><path class="cls-1" d="M326.38,81.75h1.09v2.84h0a4.44,4.44,0,0,1,1.42-2.27,3.73,3.73,0,0,1,2.45-.81,4,4,0,0,1,.8.07,2.64,2.64,0,0,1,.57.17v1.09a2.51,2.51,0,0,0-.61-.21,4,4,0,0,0-.91-.09,3.41,3.41,0,0,0-2,.6,3.79,3.79,0,0,0-1.3,1.69,6.41,6.41,0,0,0-.45,2.48v9.16h-1.09Z"/><path class="cls-1" d="M336.15,95.78a6.14,6.14,0,0,1-2.3-2.64,9.32,9.32,0,0,1-.82-4v0a9.33,9.33,0,0,1,.82-4,6.18,6.18,0,0,1,2.3-2.61,6.87,6.87,0,0,1,6.87,0A6.13,6.13,0,0,1,345.33,85a9.19,9.19,0,0,1,.83,4v0a9.23,9.23,0,0,1-.83,4A6.13,6.13,0,0,1,343,95.79a6.29,6.29,0,0,1-3.43.92A6.53,6.53,0,0,1,336.15,95.78Zm6.31-.86a5.17,5.17,0,0,0,1.91-2.29,8.28,8.28,0,0,0,.68-3.52v0a8.28,8.28,0,0,0-.68-3.52,5.31,5.31,0,0,0-1.92-2.27,5.16,5.16,0,0,0-2.86-.79,5.08,5.08,0,0,0-2.87.8,5.21,5.21,0,0,0-1.9,2.27,8.2,8.2,0,0,0-.68,3.51v0a8.28,8.28,0,0,0,.68,3.52,5.15,5.15,0,0,0,1.9,2.29,5.32,5.32,0,0,0,2.87.8A5.1,5.1,0,0,0,342.46,94.92Z"/><path class="cls-1" d="M351.07,96a4.55,4.55,0,0,1-1.83-2,6.72,6.72,0,0,1-.65-3.07V81.75h1.1v9.13a5,5,0,0,0,1.18,3.6,4.4,4.4,0,0,0,3.3,1.23,4.94,4.94,0,0,0,2.56-.65,4.46,4.46,0,0,0,1.7-1.82,5.84,5.84,0,0,0,.6-2.7V81.75h1.09V96.47H359V93.41h0a4.82,4.82,0,0,1-1.83,2.35,5.45,5.45,0,0,1-3.25.94A5.8,5.8,0,0,1,351.07,96Z"/><path class="cls-1" d="M363.38,81.75h1.09v4h0a6,6,0,0,1,1.1-2.14,5.57,5.57,0,0,1,1.89-1.5,5.45,5.45,0,0,1,2.46-.55,5.63,5.63,0,0,1,3.24.94,6.25,6.25,0,0,1,2.19,2.67,9.33,9.33,0,0,1,.79,4v0a9.38,9.38,0,0,1-.79,4,6.24,6.24,0,0,1-2.18,2.65,5.7,5.7,0,0,1-7.6-1.08,5.66,5.66,0,0,1-1.1-2.12h0v8.87h-1.09Zm9.2,13.14a5.42,5.42,0,0,0,1.85-2.31,8.44,8.44,0,0,0,.66-3.46v0a8.3,8.3,0,0,0-.67-3.47,5.45,5.45,0,0,0-1.85-2.3,4.59,4.59,0,0,0-2.75-.83,4.81,4.81,0,0,0-2.77.83,5.47,5.47,0,0,0-1.9,2.32,8.14,8.14,0,0,0-.68,3.45h0a8.26,8.26,0,0,0,.68,3.45,5.58,5.58,0,0,0,1.9,2.33,4.77,4.77,0,0,0,2.77.83A4.64,4.64,0,0,0,372.58,94.89Z"/><path class="cls-1" d="M247.9,61a8.61,8.61,0,0,1-3.21-3.68,12.66,12.66,0,0,1-1.13-5.56v0a12.67,12.67,0,0,1,1.13-5.57,8.47,8.47,0,0,1,3.21-3.65,9,9,0,0,1,4.89-1.3,8.65,8.65,0,0,1,3.81.82,7.59,7.59,0,0,1,2.81,2.26,7.81,7.81,0,0,1,1.5,3.35l0,.14H259l-.07-.25a6.36,6.36,0,0,0-1.23-2.4,5.64,5.64,0,0,0-2.07-1.57,6.76,6.76,0,0,0-2.84-.56,6.89,6.89,0,0,0-3.85,1.07,7.05,7.05,0,0,0-2.53,3,11.17,11.17,0,0,0-.89,4.62v0a11,11,0,0,0,.9,4.61A7.07,7.07,0,0,0,249,59.42a6.7,6.7,0,0,0,3.83,1.09A6.62,6.62,0,0,0,255.6,60a5.58,5.58,0,0,0,2.09-1.6,6.64,6.64,0,0,0,1.27-2.5l0-.12h1.94l0,.14a7.84,7.84,0,0,1-1.5,3.37,7.66,7.66,0,0,1-2.81,2.25,8.69,8.69,0,0,1-3.81.81A9,9,0,0,1,247.9,61Z"/><path class="cls-1" d="M265.94,61.3a6.32,6.32,0,0,1-2.36-2.64,9.09,9.09,0,0,1-.84-4v0a9,9,0,0,1,.84-4,6.32,6.32,0,0,1,2.36-2.64,7.16,7.16,0,0,1,7,0,6.42,6.42,0,0,1,2.36,2.63,9,9,0,0,1,.85,4v0a9.11,9.11,0,0,1-.85,4.06A6.49,6.49,0,0,1,273,61.31a6.56,6.56,0,0,1-3.52.93A6.67,6.67,0,0,1,265.94,61.3ZM272,59.86a4.58,4.58,0,0,0,1.67-2,7.85,7.85,0,0,0,.59-3.2v0a7.75,7.75,0,0,0-.59-3.2,4.38,4.38,0,0,0-4.22-2.73,4.49,4.49,0,0,0-2.51.7,4.78,4.78,0,0,0-1.67,2,7.57,7.57,0,0,0-.61,3.19v0a7.68,7.68,0,0,0,.61,3.2,4.64,4.64,0,0,0,1.67,2,4.86,4.86,0,0,0,5.06,0Z"/><path class="cls-1" d="M278.66,47.25h1.87v2.52h0a4.72,4.72,0,0,1,1.78-2,5.37,5.37,0,0,1,3-.79,5,5,0,0,1,3.82,1.47,5.73,5.73,0,0,1,1.38,4.08V62h-1.87V52.85a4.47,4.47,0,0,0-1-3.13,3.74,3.74,0,0,0-2.88-1.07,4.24,4.24,0,0,0-2.25.58,3.9,3.9,0,0,0-1.49,1.6,5.14,5.14,0,0,0-.53,2.42V62h-1.87Z"/><path class="cls-1" d="M292.29,47.25h2L298.74,60h.05l4.49-12.77h1.94L299.76,62h-2Z"/><path class="cls-1" d="M309,61.31a6.08,6.08,0,0,1-2.32-2.63,9.32,9.32,0,0,1-.81-4h0a9.43,9.43,0,0,1,.81-4A6.41,6.41,0,0,1,309,47.92a6.8,6.8,0,0,1,6.85,0,6.08,6.08,0,0,1,2.22,2.57,9,9,0,0,1,.78,3.87v.73h-12V53.58h11.12L317,54.92v-.71a7.12,7.12,0,0,0-.59-3.05,4.34,4.34,0,0,0-1.61-1.88,4.47,4.47,0,0,0-2.37-.63,4.29,4.29,0,0,0-4.05,2.55,6.94,6.94,0,0,0-.6,3v.71a7.08,7.08,0,0,0,.6,3.06,4.41,4.41,0,0,0,1.69,1.92,4.8,4.8,0,0,0,2.57.67,5.22,5.22,0,0,0,1.92-.33A3.84,3.84,0,0,0,316,59.3a3.53,3.53,0,0,0,.81-1.42l0-.13h1.84l0,.14a5.2,5.2,0,0,1-.71,1.74A5.56,5.56,0,0,1,316.61,61a6,6,0,0,1-1.81.9,7.47,7.47,0,0,1-2.21.32A6.64,6.64,0,0,1,309,61.31Z"/><path class="cls-1" d="M321.35,47.25h1.87v2.64h0a4.28,4.28,0,0,1,1.34-2.14,3.52,3.52,0,0,1,2.29-.77,4.83,4.83,0,0,1,.68.05,3.68,3.68,0,0,1,.48.12V49a3.36,3.36,0,0,0-.55-.15,5.57,5.57,0,0,0-.87-.06,3.12,3.12,0,0,0-3,1.93,5.14,5.14,0,0,0-.42,2.16V62h-1.87Z"/><path class="cls-1" d="M332.12,61.68a5,5,0,0,1-2-1.54,4.54,4.54,0,0,1-.87-2.29l0-.13h1.86l0,.13a3.16,3.16,0,0,0,1.23,2,4.33,4.33,0,0,0,2.66.76,5.46,5.46,0,0,0,2-.32,2.7,2.7,0,0,0,1.26-.9,2.21,2.21,0,0,0,.44-1.35h0a2,2,0,0,0-.59-1.53,4.55,4.55,0,0,0-2.08-.92l-2.23-.53a6.7,6.7,0,0,1-3.09-1.45,3.21,3.21,0,0,1-1-2.47h0a3.66,3.66,0,0,1,.67-2.18,4.65,4.65,0,0,1,1.85-1.48,6.67,6.67,0,0,1,2.72-.53,6.21,6.21,0,0,1,2.74.56,4.6,4.6,0,0,1,1.85,1.54,4.51,4.51,0,0,1,.79,2.26v.15h-1.78l0-.1a3.09,3.09,0,0,0-1.11-2.06,3.83,3.83,0,0,0-2.48-.77,4.53,4.53,0,0,0-1.76.32,2.64,2.64,0,0,0-1.16.89,2.28,2.28,0,0,0-.41,1.33h0a1.88,1.88,0,0,0,.64,1.46,4.69,4.69,0,0,0,2.09.93l2.21.53a6.61,6.61,0,0,1,3.14,1.45,3.37,3.37,0,0,1,.92,2.47h0a3.63,3.63,0,0,1-.72,2.23,4.88,4.88,0,0,1-2,1.51,7.2,7.2,0,0,1-2.87.54A7.09,7.09,0,0,1,332.12,61.68Z"/><path class="cls-1" d="M343.31,44.22a1.24,1.24,0,1,1,.87.36A1.19,1.19,0,0,1,343.31,44.22Zm-.07,3h1.87V62h-1.87Z"/><path class="cls-1" d="M351,61.3a6.25,6.25,0,0,1-2.36-2.64,9.09,9.09,0,0,1-.84-4v0a9,9,0,0,1,.84-4A6.25,6.25,0,0,1,351,47.9a7.14,7.14,0,0,1,7,0,6.35,6.35,0,0,1,2.36,2.63,8.9,8.9,0,0,1,.85,4v0a9,9,0,0,1-.85,4.06,6.22,6.22,0,0,1-5.86,3.57A6.67,6.67,0,0,1,351,61.3Zm6-1.44a4.51,4.51,0,0,0,1.67-2,7.84,7.84,0,0,0,.6-3.2v0a7.74,7.74,0,0,0-.6-3.2,4.46,4.46,0,0,0-1.68-2,4.52,4.52,0,0,0-2.54-.7,4.44,4.44,0,0,0-2.5.7,4.73,4.73,0,0,0-1.68,2,7.73,7.73,0,0,0-.6,3.19v0a7.84,7.84,0,0,0,.6,3.2,4.59,4.59,0,0,0,1.68,2,4.84,4.84,0,0,0,5.05,0Z"/><path class="cls-1" d="M363.66,47.25h1.87v2.52h0a4.74,4.74,0,0,1,1.79-2,5.35,5.35,0,0,1,3-.79,5,5,0,0,1,3.82,1.47,5.77,5.77,0,0,1,1.37,4.08V62h-1.87V52.85a4.47,4.47,0,0,0-1-3.13,3.73,3.73,0,0,0-2.87-1.07,4.24,4.24,0,0,0-2.25.58,3.93,3.93,0,0,0-1.5,1.6,5.26,5.26,0,0,0-.53,2.42V62h-1.87Z"/><line class="cls-3" y2="106.86"/><line class="cls-4" x1="239.09" y1="-2" x2="190.27" y2="109"/></svg>