<svg id="Layer_1" data-name="Layer 1" xmlns="http://www.w3.org/2000/svg" viewBox="0 0 96 311"><defs><style>.cls-1{fill:#0073c2;}.cls-2{fill:#fff;}</style></defs><rect class="cls-1" width="96" height="311"/><path class="cls-2" d="M93.44,299.89a19.45,19.45,0,0,1-8.32,7.75,28.5,28.5,0,0,1-13,2.72h0a28,28,0,0,1-12.81-2.7A19.37,19.37,0,0,1,51.09,300a25.68,25.68,0,0,1-.87-21.69,18.93,18.93,0,0,1,5.43-7,17.38,17.38,0,0,1,7.82-3.47l.48-.09v9.79l-.35.1a10.23,10.23,0,0,0-5.24,3.87,11.28,11.28,0,0,0-1.88,6.64,11,11,0,0,0,7.15,10.81A21.58,21.58,0,0,0,72,300.4h0a21.65,21.65,0,0,0,8.59-1.54,12.25,12.25,0,0,0,5.51-4.39,11.65,11.65,0,0,0,1.92-6.7,12.5,12.5,0,0,0-1.18-5.57,9.24,9.24,0,0,0-8.33-5.35l-.64,0v10.61H70.66V267.31H76a22.59,22.59,0,0,1,10.9,2.46,16.87,16.87,0,0,1,7,7.08,23.33,23.33,0,0,1,2.45,11.08A23.57,23.57,0,0,1,93.44,299.89Z"/><path class="cls-2" d="M57.06,249.94v13.47H49V226.73h8v13.48H95.53v9.73Z"/><path class="cls-2" d="M49,221.35v-9.73h46.5v9.73Z"/><path class="cls-2" d="M49,203.89v-9.74h46.5v9.74Z"/><path class="cls-2" d="M57.06,175.3v13.47H49V152.1h8v13.47H95.53v9.73Z"/></svg>