<?xml version="1.0" encoding="UTF-8"?>
<svg id="Layer_1" data-name="Layer 1" xmlns="http://www.w3.org/2000/svg" viewBox="0 0 418.95 120.27">
  <defs>
    <style>
      .cls-1 {
        fill: #fff;
      }
    </style>
  </defs>
  <g>
    <g>
      <path class="cls-1" d="M85.84,81.2c-.53-1.63-2.1-2.63-3.81-2.42-1.56.19-2.69,1.32-3.02,2.94l-2.88.93c-.21-.2-.41-.34-.66-.48v-2.53c2.23-.82,3.58-2.67,3.58-4.95v-.25c.01-.44.02-.82-.23-1.61-.7-2.21-2.9-4.65-4.16-5.9-.47-.47-1.19-.44-1.62.03-.34.38-3.38,3.76-4.13,5.85-.33.92-.35,1.22-.34,1.82v.05c0,2.33,1.39,4.19,3.68,4.98v2.58c-.19.12-.35.23-.51.39l-2.99-.97c-.33-1.62-1.46-2.75-3.02-2.94-1.72-.21-3.28.78-3.81,2.42-.53,1.63.15,3.36,1.66,4.19,1.37.76,2.95.51,4.17-.61l3.03.98c.04.2.1.37.18.56l-1.9,2.61c-1.64-.19-3.07.54-3.73,1.96-.73,1.56-.27,3.36,1.12,4.37,1.39,1.01,3.24.89,4.5-.29,1.15-1.07,1.4-2.65.71-4.15l1.87-2.57c.19.02.41.03.6.02l1.87,2.58c-.69,1.5-.43,3.08.71,4.15.69.64,1.55.97,2.42.97.72,0,1.45-.23,2.08-.68,1.39-1.01,1.85-2.81,1.12-4.37-.66-1.42-2.09-2.15-3.73-1.96l-1.81-2.49c.11-.23.19-.44.25-.69l2.94-.95c1.22,1.12,2.8,1.37,4.17.61,1.51-.84,2.19-2.56,1.66-4.19ZM80.27,83.76l-4,1.3c-.09.68-.16.86-.52,1.44l2.48,3.42c3.36-.84,4.68,3.01,2.48,4.61-2.2,1.6-5.46-.84-3.62-3.78l-2.52-3.47c-.21.03-.42.07-.63.07-.27,0-.52-.06-.78-.11l-2.54,3.49c1.84,2.94-1.42,5.38-3.62,3.78-2.2-1.6-.89-5.45,2.48-4.61l2.55-3.51c-.3-.55-.35-.71-.43-1.33l-4.09-1.33c-2.23,2.66-5.55.32-4.71-2.27.84-2.59,4.91-2.53,5.15.93l4.07,1.32c.43-.48.57-.59,1.15-.88v-3.79c-2.1-.49-3.68-2-3.68-4.3,0-.55,0-.73.29-1.57.64-1.78,3.29-4.83,3.95-5.55.05-.05.1-.08.16-.08s.1.03.15.08c.64.64,3.23,3.29,3.94,5.53.25.78.19,1.01.19,1.58,0,2.25-1.52,3.75-3.58,4.29v3.76c.66.28.83.4,1.3.94l3.96-1.29c.24-3.46,4.31-3.52,5.15-.93.84,2.59-2.48,4.93-4.71,2.27Z"/>
      <polygon class="cls-1" points="99.45 89.51 97.89 90.68 96.05 90.05 96.67 91.9 95.51 93.45 97.46 93.43 98.58 95.02 99.16 93.16 101.02 92.58 99.43 91.46 99.45 89.51"/>
      <polygon class="cls-1" points="24.16 90.65 22.65 90.74 21.74 89.37 21.01 90.84 19.36 90.94 20.27 92.32 19.6 93.67 21.1 93.57 22.01 94.94 22.75 93.47 24.39 93.37 23.48 92 24.16 90.65"/>
      <g>
        <path class="cls-1" d="M82.4,76.41c1.02,0,1.97.24,2.83.65,1.69-.53,2.55-2.31,2.74-4.5.03-.36.03-.71-.01-1.06.21.55.34,1.17.35,1.8.03,1.72-.81,3.32-2.13,4.33.81.58,1.49,1.34,1.97,2.23,2.03-1.79,2.42-3.51,2.42-6.11,0-2.87-1.44-5.4-3.65-6.97.28.04.62.03.92-.05,1.12-.3,1.78-1.45,1.48-2.57-.3-1.12-1.45-1.78-2.57-1.48-.56.15-1.01.54-1.27,1.01.12-.08.25-.14.4-.18.72-.19,1.46.23,1.65.95.19.72-.23,1.46-.95,1.65-.37.1-.74.04-1.04-.14-.78-.45-1.34-1.25-1.33-2.28,0-.27.04-.46.1-.68-.59.76-1.8,1.36-2.96,1.29-1.95-.11-2.69-1.19-2.6-2.62.05-.73.38-1.21.82-1.69-.48.03-.64-.03-1.04-.13-.39-.09-.78-.21-.8-.27-.34-.2-.64-.52-.88-1.04-.13-.29-.18-.6-.2-.87h0s-.07-.63.24-1.23c0,0,.24-.43.42-.65.16-.2.31-.34.31-.34.37-.33.81-.65,1.51-.94.61-.25,1.16-.3,1.68-.27.04,0,.08-.04,0-.16-.44-.13-.83-.38-1.13-.71-.18-.16-.4-.29-.63-.38.02-1.13.69-2.03,1.51-2.03.44,0,.83.25,1.1.66-.18-.88-.74-1.52-1.6-1.54-1.02-.03-1.66,1-1.65,2.02,0,.28.05.47.13.71-.86-.11-1.39.17-1.93.79-.55.63-.99,1.35-1.33,2.13h0c-.05.11-.1.23-.14.35-.06.18-.12.36-.17.52-.27.89-.42,1.83-.42,2.8,0,.33.03.81.07,1.13.14,1.92,1.25,3.48,2.71,4,.23.09.49.17.77.23h0c.11.03.29.06.51.09.13.02.24.03.34.04.08,0,.16.02.24.02.17.01.34.02.51.02h.25c.26,0,.52.1.72.3.39.39.39,1.01,0,1.4-.39.39-1.01.39-1.4,0-.04-.04-.07-.08-.1-.12-.03-.05-.06-.1-.09-.15,0,.17.03.34.08.5.07.22.18.44.36.61.6.6,1.58.6,2.18,0,.6-.6.6-1.58,0-2.18-.07-.07-.15-.15-.23-.2.78.17,1.48.47,2.14.92.16.09.33.19.41.37.17.36.01.78-.34.95-.36.17-.78.01-.95-.35-.03-.07-.05-.15-.06-.22-.1.27-.1.58.03.86.26.56.92.8,1.48.54.48-.22.73-.75.62-1.25.07.07.16.16.22.24.31.3.5.72.5,1.19,0,.91-.74,1.65-1.65,1.65s-1.65-.74-1.65-1.65c0-.19.03-.36.09-.53-.47.47-.79,1.12-.79,1.83,0,1.42,1.15,2.57,2.57,2.57s2.57-1.15,2.57-2.57c0-.14,0-.27-.02-.41.38.62.56,1.34.49,2.1-.15,1.7-.8,3.63-3.16,3.8-.88.06-1.51.15-2.05.39.02.32.03.63.02.94.16-.01.32-.02.49-.02Z"/>
        <path class="cls-1" d="M69.29,59.22s.03.02.05.04c.14.11.28.22.44.32.06.04.13.09.2.13.12.08.23.15.35.22.2.12.41.23.63.34.13.07.27.13.41.19.26.11.55.19.86.26.41.11.71.48.7.92,0,.52-.43.93-.95.92-.24,0-.43-.11-.6-.26-.04.13-.04.26-.04.39-.02.93.78,1.7,1.78,1.72.74.01,1.37-.41,1.66-1-.6-.91-.97-2.14-.95-3.57-2.37-.17-4.21-1.32-4.19-2.68,0-.01,0-.03,0-.04h0c.02-.42.21-.83.54-1.18.07-.07.14-.14.21-.21,0,0,.01,0,.01-.01.07-.06.15-.12.23-.18.03-.02.06-.04.08-.06.06-.04.13-.09.2-.13.1-.06.21-.12.33-.17-.14-.07-.3-.13-.46-.18-1.28-.37-2.59.26-2.92,1.39-.23.81.1,1.67.78,2.23.19.2.41.39.65.58Z"/>
        <path class="cls-1" d="M69.6,60.71c.07.06.14.12.21.19.06.05.12.1.19.15.06.05.13.1.19.14.09.06.17.12.26.18.05.03.1.07.16.1.15.09.3.17.46.25.23.11.4.18.6.25.29.08.59-.03.66-.26.06-.23-.14-.49-.44-.57-.25-.05-.58-.13-.78-.22-.11-.05-.2-.09-.33-.14-.8-.38-1.25-.64-1.86-1.29-.09-.09-.16-.17-.23-.26-.1-.12-.2-.24-.27-.37.03.18.1.36.19.55h0c.19.41.5.82.89,1.2.03.03.07.07.1.1Z"/>
        <path class="cls-1" d="M84.37,58.43c-1.96.72-2.46.54-3.61,1.19-1.28.72-1.65,2.11-1.04,3.14.41.7,1.32,1.02,2.3.84.19-.03.38-.11.55-.21.75-.44,1.03-1.37.62-2.07-.08-.14-.19-.27-.31-.37.11.31,0,.66-.31.84-.33.2-.77.09-.96-.25-.2-.33-.05-.71.25-.96.57-.48,2.51-1.09,3.44-1.52,1.29-.6,2.32-1.3,2.93-1.98.39-.38.57-.88.44-1.35-.21-.77-1.19-1.17-2.18-.89-.22.06-.41.15-.59.26.61.07,1.05.27,1.19.64.34.94-.69,1.96-2.72,2.71Z"/>
        <path class="cls-1" d="M85.29,59.9c-.65.36-1.31.63-1.91.81.22.21.38.52.45.89.65-.27,1.35-.69,2.03-1.24,1.24-.98,2.09-2.12,2.34-2.99-.45.81-1.51,1.77-2.92,2.53Z"/>
        <path class="cls-1" d="M83.88,61.97c-.03.41-.17.77-.37,1.02.22-.12.44-.26.67-.41,1.32-.87,2.27-1.93,2.59-2.77-.49.73-1.54,1.54-2.89,2.16Z"/>
      </g>
      <path class="cls-1" d="M106.8,22.22C96.67,9.75,82.3,1.98,66.32.33c-15.98-1.65-31.64,3.02-44.11,13.15C9.75,23.6,1.98,37.98.33,53.96c-1.65,15.98,3.02,31.64,13.15,44.1,10.13,12.47,24.51,20.24,40.48,21.89,2.09.22,4.17.32,6.23.32,30.4,0,56.58-23.06,59.77-53.95,1.65-15.98-3.02-31.64-13.15-44.11ZM116.1,65.92c-2.99,28.9-27.47,50.48-55.92,50.48-1.92,0-3.87-.1-5.83-.3-14.95-1.54-28.4-8.82-37.88-20.48-9.48-11.66-13.85-26.32-12.3-41.26,1.55-14.95,8.82-28.4,20.48-37.88C34.78,8.25,47.16,3.87,60.03,3.87c1.95,0,3.92.1,5.89.3,14.95,1.55,28.4,8.82,37.88,20.48,9.48,11.66,13.85,26.32,12.3,41.26Z"/>
      <polygon class="cls-1" points="99.45 89.51 97.89 90.68 96.05 90.05 96.67 91.9 95.51 93.45 97.46 93.43 98.58 95.02 99.16 93.16 101.02 92.58 99.43 91.46 99.45 89.51"/>
      <polygon class="cls-1" points="99.45 89.51 97.89 90.68 96.05 90.05 96.67 91.9 95.51 93.45 97.46 93.43 98.58 95.02 99.16 93.16 101.02 92.58 99.43 91.46 99.45 89.51"/>
      <polygon class="cls-1" points="99.45 89.51 97.89 90.68 96.05 90.05 96.67 91.9 95.51 93.45 97.46 93.43 98.58 95.02 99.16 93.16 101.02 92.58 99.43 91.46 99.45 89.51"/>
      <g>
        <path class="cls-1" d="M15.42,85.01c-.48-.88-.6-1.9-.41-2.88.04-.12.15-.2.27-.16l.97.25c.12.03.17.12.14.25-.14.62-.05,1.25.25,1.78.67,1.22,2.25,1.61,3.47.94,1.21-.67,1.7-2.2,1.02-3.42-.3-.55-.7-.87-.88-1.03l-.83.46.43.78c.06.11.02.23-.07.28l-.77.42c-.11.06-.23.02-.29-.08l-1.03-1.87c-.05-.1,0-.22.09-.28l2.5-1.38c.08-.04.15-.03.2,0,0,0,1.19.65,1.97,2.07,1.07,1.94.39,4.35-1.56,5.42-1.95,1.07-4.38.38-5.45-1.56Z"/>
        <path class="cls-1" d="M13.65,80.81c-.1.04-.23-.02-.27-.13l-.36-.99c-.04-.12.02-.23.13-.27l4.28-1.54c.89-.32,1.37-1.18,1.05-2.09-.33-.91-1.25-1.28-2.13-.96l-4.29,1.54c-.1.04-.23-.01-.27-.13l-.36-1c-.04-.1.02-.23.13-.27l4.36-1.56c1.59-.57,3.33.23,3.93,1.89.59,1.64-.24,3.37-1.84,3.94l-4.36,1.56Z"/>
        <path class="cls-1" d="M18.42,72.68l-8.01-1.97c-.07-.02-.14-.06-.16-.16l-.02-.11c-.02-.11.02-.16.08-.21l6.7-4.79c.13-.09.29-.03.32.13l.18.95c.03.16-.02.25-.16.36l-1.08.76.64,3.27,1.28.31c.12.02.25.1.28.27l.18.95c.03.16-.09.28-.25.24ZM15.18,68.41l-2.19,1.56v.03s2.62.6,2.62.6l-.43-2.2Z"/>
        <path class="cls-1" d="M9.64,65.66c-.11,0-.2-.09-.21-.2v-.28s4.75-4.79,4.75-4.79h0s-4.59.14-4.59.14c-.11,0-.21-.08-.22-.2l-.03-1.02c0-.11.09-.21.2-.22l7.48-.25c.11,0,.2.09.21.2v.27s-4.94,4.82-4.94,4.82h0s4.78-.15,4.78-.15c.11,0,.21.08.22.2l.03,1.01c0,.11-.09.21-.2.22l-7.48.25Z"/>
        <path class="cls-1" d="M9.8,53.41c.13-.99.64-1.89,1.38-2.56.1-.08.23-.07.31.03l.63.78c.08.1.06.2-.04.29-.48.42-.78.98-.86,1.58-.18,1.38.86,2.63,2.24,2.81,1.37.18,2.67-.76,2.85-2.15.08-.62-.04-1.12-.1-1.35l-.94-.12-.12.88c-.02.12-.12.2-.23.18l-.87-.11c-.12-.02-.2-.12-.18-.24l.28-2.12c.01-.11.13-.19.24-.17l2.82.37c.09.01.14.06.16.11,0,0,.57,1.23.36,2.83-.29,2.2-2.26,3.73-4.47,3.44-2.21-.29-3.75-2.29-3.46-4.48Z"/>
        <path class="cls-1" d="M10.89,48.85c-.11-.03-.18-.15-.14-.25l.76-2.52c.62-2.06,2.8-3.24,4.84-2.62,2.07.62,3.23,2.81,2.61,4.86l-.76,2.52c-.03.11-.15.16-.26.13l-7.05-2.12ZM17.63,48.06c.42-1.39-.32-2.71-1.72-3.13-1.39-.42-2.73.28-3.15,1.67l-.37,1.21,4.87,1.47.37-1.21Z"/>
        <path class="cls-1" d="M14.74,37.6c1-1.99,3.4-2.78,5.39-1.78,1.99,1,2.77,3.38,1.77,5.37-1,1.99-3.37,2.78-5.36,1.78-1.99-1-2.8-3.38-1.8-5.37ZM20.61,40.54c.63-1.25.12-2.8-1.13-3.43-1.25-.63-2.82-.12-3.44,1.13-.63,1.25-.1,2.8,1.15,3.43,1.25.63,2.79.12,3.42-1.13Z"/>
        <path class="cls-1" d="M17.67,32.68c-.09-.07-.1-.2-.03-.29l.17-.22,6.71-.77h0s-3.68-2.76-3.68-2.76c-.09-.07-.12-.2-.04-.3l.61-.82c.07-.09.21-.11.3-.04l6,4.48c.09.07.1.2.03.29l-.16.21-6.87.68h0s3.84,2.87,3.84,2.87c.09.07.12.2.04.3l-.61.81c-.07.09-.21.11-.3.04l-6-4.48Z"/>
        <path class="cls-1" d="M25.44,23.22c.72-.69,1.68-1.08,2.67-1.14.13,0,.23.09.22.22v1c0,.13-.07.2-.2.2-.64.03-1.22.28-1.66.7-1,.96-.97,2.59,0,3.59.96.99,2.56,1.07,3.57.1.45-.43.66-.9.76-1.12l-.66-.68-.64.62c-.09.08-.21.08-.29,0l-.61-.63c-.08-.09-.08-.21,0-.3l1.54-1.48c.08-.08.21-.07.29.01l1.98,2.05c.06.06.07.14.06.19,0,0-.32,1.32-1.49,2.43-1.6,1.54-4.1,1.5-5.64-.1-1.54-1.6-1.5-4.13.09-5.67Z"/>
        <path class="cls-1" d="M32.32,19.49l-1.41.95c-.1.07-.23.03-.29-.06l-.51-.76c-.06-.09-.04-.23.06-.29l4.04-2.71c.1-.07.23-.03.29.06l.51.76c.06.09.04.23-.06.29l-1.41.95,3.48,5.18c.06.09.03.23-.06.29l-.86.58c-.09.06-.23.03-.29-.06l-3.48-5.18Z"/>
        <path class="cls-1" d="M35.51,16.11c-.05-.1-.02-.23.09-.28l4.03-2.06c.11-.06.23,0,.28.09l.42.81c.05.1.02.23-.09.28l-2.93,1.5.83,1.62,2.45-1.25c.1-.05.23,0,.28.09l.42.82c.06.11,0,.23-.09.28l-2.45,1.25.89,1.73,2.93-1.5c.11-.06.23,0,.28.09l.42.81c.05.1.02.23-.09.28l-4.03,2.06c-.11.06-.23,0-.28-.09l-3.35-6.56Z"/>
        <path class="cls-1" d="M44.61,11.77c1.06-.37,1.95-.29,2.88.1.12.05.17.18.11.29l-.41.88c-.05.11-.15.15-.26.09-.58-.24-1.25-.27-1.83-.06-1.35.46-1.96,1.93-1.5,3.26.45,1.32,1.85,2.08,3.19,1.62.63-.22,1.08-.64,1.4-1.15.06-.1.18-.13.26-.09l.88.45c.11.04.14.19.09.29-.48.94-1.27,1.58-2.21,1.9-2.1.73-4.38-.36-5.1-2.47-.73-2.1.38-4.38,2.49-5.11Z"/>
        <path class="cls-1" d="M48.86,10.8c-.02-.11.06-.23.17-.24l1.02-.17c.12-.02.23.06.24.17l.5,2.91,3.57-.61-.5-2.91c-.02-.11.05-.22.17-.24l1.01-.17c.11-.02.23.06.24.17l1.24,7.26c.02.11-.06.23-.17.24l-1.01.17c-.12.02-.23-.06-.24-.17l-.52-3.03-3.57.61.52,3.03c.02.11-.05.22-.17.24l-1.02.17c-.11.02-.23-.06-.24-.17l-1.24-7.26Z"/>
        <path class="cls-1" d="M57.59,9.34c0-.11.1-.2.21-.2h.28s4.55,5,4.55,5h.01s.08-4.59.08-4.59c0-.11.09-.21.21-.21l1.02.02c.11,0,.21.1.21.21l-.12,7.49c0,.11-.1.2-.21.2h-.27s-4.57-5.19-4.57-5.19h-.01s-.08,4.78-.08,4.78c0,.11-.09.21-.21.21l-1.01-.02c-.11,0-.21-.1-.21-.21l.12-7.49Z"/>
        <path class="cls-1" d="M66.12,9.79c.01-.11.12-.2.23-.19l1.03.12c.11.01.2.12.19.23l-.87,7.32c-.01.11-.12.2-.23.19l-1.03-.12c-.11-.01-.2-.12-.19-.23l.87-7.32Z"/>
        <path class="cls-1" d="M73.04,10.67c2.16.53,3.46,2.69,2.93,4.85-.53,2.16-2.68,3.46-4.84,2.93-2.16-.53-3.46-2.67-2.93-4.83.53-2.16,2.67-3.48,4.83-2.95ZM71.47,17.05c1.36.33,2.76-.5,3.09-1.87.33-1.36-.51-2.77-1.87-3.11-1.36-.33-2.75.53-3.09,1.89-.33,1.36.51,2.75,1.87,3.08Z"/>
        <path class="cls-1" d="M78.5,12.44c.05-.1.17-.14.27-.1l.25.11,2.24,6.37h.01s1.86-4.2,1.86-4.2c.05-.1.17-.16.28-.11l.94.42c.1.05.15.18.11.28l-3.04,6.85c-.05.1-.17.14-.27.1l-.24-.11-2.18-6.56h-.01s-1.94,4.37-1.94,4.37c-.05.1-.17.16-.28.11l-.93-.41c-.1-.05-.15-.18-.11-.28l3.04-6.85Z"/>
      </g>
      <g>
        <path class="cls-1" d="M32.74,99c-.07-.08-.15-.17-.26-.27-.11-.1-.25-.23-.43-.4-.18-.17-.42-.37-.7-.61-.28-.24-.63-.54-1.05-.89l-1.88-1.59c-.35.44-.67.83-.96,1.16-.29.34-.56.63-.82.89-.25.26-.49.48-.72.67-.22.19-.45.35-.67.5-.22.14-.44.27-.67.39-.23.11-.46.22-.71.33-.03-.1-.06-.2-.08-.28-.03-.08-.06-.15-.09-.22-.03-.07-.07-.13-.11-.19-.04-.06-.09-.13-.14-.19.23-.05.46-.11.68-.19.22-.07.43-.17.65-.3.22-.13.44-.29.68-.48.23-.19.49-.43.77-.72.28-.29.59-.63.92-1.03.34-.4.71-.87,1.13-1.41.09.1.19.2.3.31.11.11.26.24.44.4.18.16.41.36.68.59.27.23.61.52,1.02.87.42.35.77.65,1.05.88.29.24.52.43.71.59.19.15.35.27.47.36.12.09.22.16.31.22l-.53.62ZM30.48,96.04c.07-.18.13-.36.19-.52.05-.17.1-.34.13-.52l.81.31c-.05.16-.11.33-.16.51-.05.18-.1.38-.14.58l-.84-.36Z"/>
        <path class="cls-1" d="M33.76,104.04c-.09-.04-.34-.03-.75.03-.41.06-1.01.17-1.8.34-.02-.16-.05-.3-.08-.41-.04-.11-.1-.23-.17-.35.41,0,.84-.06,1.29-.15.45-.09.87-.23,1.27-.4.03.11.07.24.14.39.06.16.13.29.21.41.04.06.04.1.02.13-.02.03-.06.03-.12,0ZM35.5,100.58c-.18-.11-.37-.21-.57-.32-.2-.11-.38-.21-.55-.31-.17-.1-.33-.18-.46-.26-.14-.07-.23-.12-.3-.15l.38-.65c.06.05.16.12.3.21.14.09.3.2.49.33.18.12.38.25.6.39.22.14.43.27.64.4.13-.1.25-.19.36-.27.11-.08.2-.16.28-.23.08-.07.16-.13.22-.2.07-.06.13-.13.2-.19.03.05.08.11.13.18.05.07.11.14.17.21.06.07.12.14.17.2.06.06.11.11.16.16.08.07.06.11-.07.12-.04,0-.08,0-.13.02-.05.01-.1.03-.17.06-.07.03-.15.07-.25.12-.1.05-.22.12-.37.2.64.37,1.25.7,1.81,1.01.57.31,1.07.56,1.5.77l-.38.65c-.41-.27-.91-.58-1.5-.93-.59-.35-1.25-.74-1.99-1.17-.11.06-.24.13-.39.21-.15.08-.32.17-.5.26-.18.09-.37.18-.56.27-.2.09-.4.18-.59.27l1.53.89c.14-.24.25-.44.33-.6.08-.17.15-.32.2-.48.11.1.24.19.37.28.14.09.26.16.36.21.06.03.08.05.08.07,0,.02-.03.04-.09.07-.08.04-.16.1-.23.18-.07.08-.13.17-.2.28l-.2.35c.5.28.93.51,1.3.69.37.18.63.29.79.33l-.41.7c-.12-.09-.36-.24-.7-.45-.35-.21-.77-.46-1.28-.76l-1.13,1.94c-.12.2-.22.35-.31.45-.09.1-.19.17-.3.19-.11.02-.25,0-.42-.05-.17-.06-.39-.14-.66-.25.05-.14.08-.28.1-.45.02-.16.03-.33.03-.51.17.14.3.25.41.32.1.07.19.11.26.12.07,0,.13-.01.18-.07.05-.05.1-.13.16-.23l1.06-1.82c-.32-.18-.6-.33-.84-.45-.24-.12-.46-.23-.64-.31-.19-.08-.35-.14-.48-.19-.13-.04-.25-.07-.34-.08.03-.11.06-.24.07-.39.02-.15.02-.29.02-.45.13.02.28,0,.45-.04.18-.04.37-.1.57-.18.21-.08.42-.18.65-.3.23-.12.45-.25.68-.41ZM36.66,107.44c-.01-.18-.04-.37-.07-.57-.04-.21-.08-.42-.14-.63-.05-.21-.12-.42-.19-.62-.07-.2-.15-.38-.23-.55l.65-.16c.09.2.18.4.26.59.08.19.16.38.23.57.07.19.14.38.2.58.06.19.12.4.18.61l-.89.17Z"/>
        <path class="cls-1" d="M40.45,108.25s-.1.06-.18.1c-.07.04-.15.09-.23.14-.08.05-.15.1-.22.15-.07.05-.13.09-.18.13-.04-.14-.1-.3-.16-.48-.07-.18-.13-.32-.2-.44.14-.03.25-.1.33-.21.08-.11.17-.28.25-.52l1.32-3.59c.09-.23.15-.42.2-.58.05-.15.09-.28.11-.37.22.19.46.33.7.42.1.04.16.08.16.13,0,.05-.05.08-.15.09-.07,0-.12.02-.16.06-.04.03-.06.07-.08.11l-1.51,4.11c.37-.17.72-.35,1.05-.53.33-.18.61-.36.83-.53,0,.15,0,.3.04.43.03.14.06.26.09.36l-2.01,1.02ZM44.18,108.95c-.14.1-.28.19-.43.27-.15.08-.31.15-.48.22-.33.13-.69.23-1.09.29-.4.07-.85.11-1.37.13,0-.15-.04-.31-.1-.48-.06-.17-.14-.31-.25-.45.39.09.78.13,1.17.11.39-.01.77-.07,1.13-.18.36-.11.69-.26.99-.46s.55-.45.76-.74c.19-.26.36-.51.51-.75.15-.23.28-.48.41-.75.13-.27.26-.57.4-.9.14-.34.29-.74.46-1.21.06.05.13.1.21.15.08.05.15.1.23.15.08.05.16.1.23.14.07.04.13.08.19.1.12.06.11.13-.03.2-.05.03-.09.06-.12.09-.03.03-.07.06-.1.11-.04.05-.08.11-.12.19-.05.08-.1.19-.17.33-.19.37-.37.71-.54,1.01-.17.3-.33.57-.48.81-.15.24-.3.46-.44.65-.15.19-.29.36-.43.51.08.15.16.31.25.49.09.18.18.36.28.55.09.19.19.38.29.57.1.19.19.37.28.55l-.94.33c-.05-.29-.14-.61-.26-.96-.12-.35-.26-.71-.43-1.07ZM43.61,106.16c-.1-.41-.21-.77-.32-1.1-.11-.32-.25-.66-.41-1l.73-.24c.14.35.27.68.4,1s.27.68.42,1.07l-.83.26Z"/>
        <path class="cls-1" d="M49.29,107.2c-.07.03-.13.06-.19.08-.06.02-.13.05-.2.09-.05-.28-.18-.51-.39-.69.3-.07.59-.17.88-.28.29-.12.56-.25.81-.41.26-.15.49-.32.7-.51.21-.18.39-.38.55-.59.13.09.28.16.43.23.15.06.29.11.42.13.06.01.09.04.08.1,0,.05-.05.09-.15.1-.04,0-.07.01-.11.03s-.08.03-.13.06c-.05.03-.1.06-.17.1-.07.04-.15.09-.24.16l1.64.29c.15.03.3.05.46.08.16.02.3.05.43.07.13.02.25.04.36.05.11.01.19.02.26.03l-1.86,1.49c.44.07.82.13,1.14.17.32.05.59.08.8.09-.11.42-.2.84-.28,1.26-.06.29-.1.54-.13.77-.03.23-.06.46-.08.69-.11-.04-.24-.07-.39-.11s-.31-.07-.5-.11c-.19-.04-.4-.08-.64-.13-.24-.05-.51-.1-.82-.15l-2.42-.43-.12.65c-.04.2-.06.36-.06.48s.02.22.09.31c.06.08.17.15.31.21.15.06.35.12.61.18.15.04.34.08.58.12.24.04.5.09.78.13.28.04.55.08.83.11.28.03.52.05.74.06.16.01.29,0,.4,0,.11-.01.2-.05.28-.1.08-.05.14-.13.2-.23.05-.1.11-.23.17-.4.09.13.19.24.31.32.11.09.23.15.35.2-.1.19-.19.35-.27.47-.08.12-.17.21-.27.28-.1.07-.22.11-.36.13-.14.02-.31.02-.51,0-.15,0-.33-.02-.53-.04-.2-.02-.42-.05-.64-.08-.22-.03-.46-.06-.69-.1-.24-.03-.46-.07-.69-.11-.22-.04-.43-.07-.62-.11-.19-.04-.35-.07-.48-.11-.33-.08-.59-.15-.77-.22-.19-.07-.32-.17-.4-.28-.08-.11-.12-.25-.12-.42,0-.17.03-.39.08-.67l.46-2.58c.06-.33.09-.62.1-.87ZM50.95,106.25c-.12.08-.24.16-.37.24-.13.08-.27.17-.41.25-.14.08-.29.16-.43.24-.14.07-.28.14-.41.2l2.76.49,1.21-1-2.35-.42ZM51.64,108.18l-1.74-.31-.25,1.39,1.74.31.25-1.39ZM52.03,109.69l1.69.3.25-1.39-1.69-.3-.25,1.39Z"/>
        <path class="cls-1" d="M60.83,108.23c-.08.63-.2,1.2-.35,1.72-.15.51-.32.95-.52,1.31-.1.17-.23.35-.38.54-.16.19-.34.38-.54.56-.2.18-.42.36-.66.54-.24.17-.47.33-.72.47-.03-.04-.07-.09-.12-.14-.05-.06-.1-.11-.16-.17-.06-.06-.12-.11-.18-.16s-.11-.09-.16-.12c.17-.06.36-.15.56-.26.2-.11.39-.23.59-.37.19-.14.37-.28.54-.44.17-.16.32-.32.44-.48-.06-.07-.13-.15-.21-.24-.08-.09-.17-.18-.26-.27-.09-.09-.18-.17-.28-.26-.09-.08-.18-.15-.25-.21l.5-.47c.15.13.29.25.44.38.14.13.29.27.43.42.07-.14.13-.27.18-.4.05-.13.1-.26.14-.39.04-.13.08-.28.11-.44s.06-.34.09-.54l-1.36-.02c-.08.17-.16.35-.26.53-.1.18-.2.36-.31.53-.11.17-.22.34-.34.5-.12.16-.23.3-.34.42-.08-.1-.17-.18-.28-.26-.11-.07-.22-.13-.34-.17.22-.18.42-.39.6-.64.18-.24.35-.51.49-.79.14-.28.27-.58.36-.89.1-.31.17-.63.22-.95-.32,0-.6,0-.83.01-.23,0-.45.02-.64.04v-.76c.26.03.55.06.87.08.32.02.71.03,1.18.04.48,0,.87,0,1.19,0,.32,0,.6-.03.85-.05v.77c-.25-.03-.52-.06-.83-.08-.3-.02-.68-.03-1.12-.04-.04.34-.13.7-.27,1.09l1.91.03ZM62.3,107.23c-.06.04-.09.13-.1.27l-.05,2.89c0,.17,0,.34,0,.51,0,.17.01.36.02.56h-.74c.01-.22.03-.41.03-.57,0-.17.01-.34.02-.5l.04-2.42c0-.21,0-.39,0-.54,0-.15,0-.28-.02-.39.13.02.26.04.39.04.13,0,.25,0,.36,0,.07-.01.11,0,.12.04,0,.04-.02.08-.08.12ZM63.92,106.21s-.06.06-.08.09c-.01.03-.02.09-.02.16l-.1,5.93c0,.21-.02.39-.05.52-.03.13-.1.24-.19.32-.1.08-.24.15-.43.2-.19.05-.45.1-.77.15-.04-.29-.18-.59-.41-.91.26.02.47.02.63.02.15,0,.27-.02.35-.06.08-.04.13-.09.16-.17.02-.07.04-.17.04-.29l.08-4.83c0-.33,0-.61,0-.85,0-.23-.01-.42-.02-.55.11.02.24.04.38.06.14.01.26.02.37.01.08,0,.13.01.14.05.01.04-.01.08-.07.13Z"/>
        <path class="cls-1" d="M66.01,106.97c-.2.04-.38.08-.54.12-.16.04-.3.07-.41.1l-.12-.7c.3-.02.74-.07,1.31-.17.28-.05.53-.09.75-.14.22-.05.4-.09.54-.13l.12.7c-.12,0-.26.02-.43.04s-.36.04-.57.06l.3,1.77c.19-.04.36-.07.51-.11.15-.03.28-.07.39-.1l.12.7c-.11,0-.25.02-.4.03-.15.02-.33.04-.51.06l.33,1.97c.3-.16.58-.34.84-.54,0,.15.01.28.03.38.01.1.04.22.08.35-.49.24-.93.49-1.31.75-.38.26-.71.51-.97.76-.01-.07-.03-.15-.06-.24-.03-.09-.06-.18-.09-.27-.04-.09-.07-.17-.12-.25-.04-.08-.09-.15-.13-.21.17-.04.36-.09.54-.16.19-.07.38-.15.58-.24l-.37-2.18c-.2.04-.38.08-.53.11-.16.03-.29.07-.41.11l-.12-.7c.12,0,.27-.01.43-.03.16-.02.34-.04.54-.07l-.3-1.77ZM71.08,111.52c.47-.09.89-.16,1.24-.24.35-.07.66-.14.94-.2l.12.7c-.31.02-.68.07-1.08.12-.41.06-.89.13-1.46.23-.57.1-1.07.19-1.51.27-.44.09-.81.17-1.11.25l-.12-.7c.28-.03.62-.07,1.01-.13.39-.05.84-.12,1.34-.2l-.15-.91c-.34.06-.64.12-.9.17-.26.06-.48.12-.67.18l-.12-.71c.2,0,.44-.02.7-.05.26-.03.57-.07.9-.12l-.14-.83c-.3.05-.55.1-.75.13-.2.04-.36.07-.49.1-.13.02-.22.05-.29.06-.07.02-.12.03-.17.05-.01-.12-.03-.25-.05-.4-.02-.15-.04-.31-.06-.48-.02-.17-.05-.35-.08-.53-.03-.18-.06-.36-.09-.54-.03-.19-.07-.38-.1-.57-.04-.19-.07-.37-.1-.54-.03-.17-.07-.32-.1-.46-.03-.14-.05-.25-.07-.34.05,0,.12,0,.21,0,.09,0,.21-.02.36-.04.15-.02.35-.05.59-.09.24-.04.54-.09.9-.15.35-.06.65-.11.89-.16.24-.04.44-.08.59-.11.15-.03.27-.06.35-.08.08-.02.15-.04.19-.06.01.1.02.21.04.35.02.14.04.29.07.46.03.17.05.35.08.54.03.19.06.38.09.57.03.18.06.36.09.53.03.18.07.35.1.52.03.17.07.33.1.48.03.15.06.29.09.4-.06,0-.12,0-.2,0-.08,0-.18.02-.31.04-.13.02-.3.04-.5.08-.2.03-.46.08-.78.13l.14.83c.36-.07.69-.13.96-.19.28-.06.52-.12.71-.18l.12.71c-.21,0-.45.03-.74.06-.28.04-.6.08-.97.14l.15.91ZM69.52,106.15l-1.04.18.18,1.04,1.04-.18-.18-1.04ZM69.78,107.71l-1.04.18.19,1.1,1.04-.18-.19-1.1ZM70.33,107.08l1.08-.18-.18-1.04-1.08.18.18,1.04ZM70.6,108.71l1.08-.18-.19-1.1-1.08.18.19,1.1Z"/>
        <path class="cls-1" d="M78.54,108.95c.69-.25,1.28-.46,1.78-.65.5-.19.94-.37,1.32-.53l.28.78c-.42.13-.92.29-1.49.47-.57.19-1.24.42-2.01.7-.78.28-1.44.52-2,.74-.56.21-1.04.41-1.45.58l-.28-.78c.39-.11.83-.26,1.34-.42s1.09-.37,1.76-.6l-1.53-4.28c-.54.2-1.01.37-1.4.53-.39.15-.74.29-1.04.43l-.27-.75c.36-.1.77-.22,1.22-.37.46-.15,1.01-.34,1.65-.57.64-.23,1.19-.43,1.64-.6.45-.17.84-.33,1.18-.49l.27.75c-.32.09-.68.2-1.08.33-.4.13-.88.29-1.42.48l1.53,4.28Z"/>
        <path class="cls-1" d="M85.72,100.61c.34-.19.63-.36.87-.51.25-.15.46-.28.63-.41l.78,1.37-.61.35-.45-.79-4.82,2.75.48.85-.61.35-.81-1.42c.21-.1.45-.22.73-.37.28-.15.6-.33.96-.53l2.24-1.28c.01-.17.02-.35.02-.55,0-.2,0-.39,0-.58,0-.19-.02-.36-.03-.53-.01-.16-.03-.29-.05-.38.14.01.3.02.46.01.16,0,.3-.02.4-.03.07,0,.11,0,.12.02,0,.02-.01.07-.06.15-.03.05-.07.19-.11.43-.04.24-.1.61-.16,1.12ZM82.34,102.32c-.06-.05-.14-.11-.22-.17-.08-.06-.17-.12-.26-.19-.09-.06-.17-.12-.26-.17-.08-.05-.16-.1-.23-.14l.44-.61c.15.08.31.19.51.32.19.12.37.24.53.36l-.52.61ZM85.9,104.88c-.32.18-.62.35-.89.51-.27.16-.52.3-.74.44-.22.14-.43.27-.63.39-.19.12-.37.24-.54.36l-.4-.69c.19-.09.38-.18.58-.29.2-.11.42-.22.65-.34s.49-.26.76-.41c.27-.15.57-.32.89-.5l-.29-.51c.35-.42.6-.77.74-1.06l-1.69.97c-.44.25-.78.46-1.02.61l-.31-.55c.15-.07.28-.14.41-.21.13-.07.27-.14.41-.21.14-.08.3-.16.48-.27.18-.1.39-.22.64-.36.31-.17.57-.32.78-.45.21-.12.39-.23.54-.32.15-.09.27-.16.36-.22.09-.06.17-.11.23-.16l.38.66c-.07.03-.13.08-.2.14-.07.06-.15.15-.23.25-.09.11-.19.25-.3.42-.11.17-.25.39-.41.64l.15.26c.58-.34,1.07-.63,1.48-.87.41-.25.77-.48,1.09-.69l.4.69c-.34.17-.73.37-1.15.59-.42.22-.93.5-1.51.82l.61,1.07c.06.11.1.21.11.3.01.09-.01.19-.07.29-.06.1-.16.23-.31.37-.15.14-.35.31-.6.52-.16-.22-.38-.42-.67-.6.2-.09.36-.17.47-.24.12-.07.2-.13.25-.19.05-.06.08-.11.08-.16,0-.05-.02-.1-.05-.16l-.47-.83ZM83.8,101.24c-.05-.07-.11-.14-.18-.22-.07-.08-.14-.16-.21-.25-.07-.08-.15-.16-.21-.24-.07-.08-.13-.14-.19-.19l.57-.5c.11.1.24.23.39.39.15.16.29.31.42.46l-.59.55Z"/>
        <path class="cls-1" d="M90.29,99.03c.39.1.71.22.98.36.26.14.48.32.65.53.23.28.33.56.3.83-.03.27-.19.55-.47.85-.09-.11-.19-.21-.3-.29-.11-.08-.23-.14-.37-.19.2-.14.34-.27.39-.39.06-.12.02-.28-.13-.48-.16-.22-.37-.39-.63-.53-.26-.13-.55-.23-.85-.28l-.91-1.95-.69.57,4.14,5-.54.45c-.11-.15-.22-.28-.32-.41-.1-.13-.2-.25-.29-.38-.09-.12-.19-.24-.29-.36-.1-.12-.21-.25-.32-.38l-2.77-3.34c-.1-.13-.21-.25-.32-.38-.11-.13-.19-.21-.25-.27.13-.1.27-.2.41-.3.14-.11.32-.25.55-.44.22-.19.4-.34.54-.46.14-.12.26-.24.37-.35l1.1,2.61ZM90.99,95.65c-.12-.09-.26-.18-.41-.27-.15-.09-.28-.16-.38-.22l.51-.61c.1.07.23.17.4.28.17.11.34.21.51.3.22-.19.4-.34.54-.45.14-.12.25-.22.34-.3.09-.08.17-.15.23-.21.06-.06.13-.12.2-.19l.88,1.07-.52.43-.48-.58-2.33,1.93.48.58-.52.43-.88-1.06c.08-.06.16-.11.24-.17.07-.06.16-.12.26-.2.1-.08.23-.18.37-.29.15-.12.34-.27.57-.47ZM93.8,96.14c-.07.05-.16.1-.25.17-.1.07-.2.15-.31.23-.11.09-.22.18-.35.28-.12.1-.24.19-.36.29-.25.2-.48.4-.7.59-.22.19-.38.35-.5.48l-.46-.55c.15-.09.34-.22.57-.4.23-.18.46-.37.71-.57.12-.1.24-.2.36-.3.12-.1.23-.2.33-.29.1-.09.2-.18.28-.26.09-.08.16-.15.21-.22l.46.55ZM92.61,98.84c-.11.1-.23.2-.34.3-.11.1-.25.23-.4.39l-.47-.56c.13-.09.25-.18.36-.26.11-.08.22-.16.34-.25.12-.09.26-.2.41-.33.16-.13.35-.29.58-.48.23-.19.42-.35.57-.47.15-.12.28-.23.38-.33.11-.1.2-.18.29-.27.09-.08.19-.18.31-.29l.47.56c-.13.08-.23.16-.32.22-.09.07-.17.13-.25.19-.08.06-.16.12-.24.18-.08.06-.17.14-.27.23l1.23,1.48c.09.1.17.15.24.15.07,0,.19-.08.35-.23.09-.08.15-.15.2-.21.05-.06.07-.14.07-.22,0-.09-.03-.19-.08-.31-.05-.12-.13-.28-.23-.47.14.02.28.01.42-.01.14-.02.26-.06.35-.1.12.24.2.45.25.62.05.17.06.32.03.46-.02.14-.09.27-.19.39-.1.12-.24.25-.4.39-.2.16-.36.29-.49.37-.13.08-.24.13-.33.15-.09.01-.17,0-.24-.06-.07-.05-.15-.13-.23-.23l-1.43-1.73-.43.35c.28.35.49.68.63.99.14.31.22.6.24.89.02.29-.02.58-.11.86-.09.28-.23.58-.41.88-.11-.04-.23-.07-.36-.1-.13-.02-.28-.03-.45-.02.19-.29.35-.56.45-.81.11-.25.16-.49.16-.74,0-.24-.05-.49-.15-.73-.11-.25-.27-.51-.51-.8Z"/>
      </g>
      <g>
        <path class="cls-1" d="M86.83,17.96s.09-.06.13-.04l.41.23s.06.09.04.13l-1.64,2.93s-.09.06-.13.04l-.41-.23s-.06-.09-.04-.13l1.64-2.93Z"/>
        <path class="cls-1" d="M86.44,21.11l.32-.17c.07-.04.14,0,.17.06.01.03.21.49.49.67.23.14.48.09.6-.09.13-.22.04-.49-.24-.85-.31-.41-.56-.92-.25-1.43.23-.39.79-.66,1.48-.24.44.27.64.7.69.82.03.05,0,.13-.06.16l-.31.15c-.07.03-.15.03-.18-.04-.02-.04-.22-.46-.46-.6-.25-.15-.48-.07-.57.07-.12.2-.05.44.22.8.32.42.65.97.31,1.53-.27.45-.91.62-1.52.25-.55-.33-.71-.78-.75-.92-.02-.06-.02-.1.06-.14Z"/>
        <path class="cls-1" d="M90.44,20.1s.09-.06.13-.02l1.19.83c.5.35.63,1.03.28,1.52-.27.38-.74.52-1.2.41l-.17,1.45c0,.07-.08.12-.15.07l-.44-.3s-.04-.06-.04-.08l.21-1.49-.46-.32-.74,1.06s-.09.05-.13.02l-.38-.27s-.05-.09-.02-.13l1.92-2.75ZM90.79,22.2c.22.15.54.1.71-.14.15-.22.09-.54-.13-.69l-.68-.47-.58.83.68.47Z"/>
        <path class="cls-1" d="M90.71,24.33l3.37-1.67s.07-.02.1.01l.04.03s.04.06.03.1l-.92,3.64c-.02.07-.09.1-.15.05l-.34-.28c-.06-.05-.07-.09-.05-.17l.15-.58-1.18-.95-.54.27s-.12.04-.18-.01l-.34-.28c-.06-.05-.05-.12.02-.16ZM93.09,24.86l.3-1.19h-.01s-1.09.55-1.09.55l.79.64Z"/>
        <path class="cls-1" d="M95.71,24.13s.1-.04.14,0l1.52,1.4s.04.1,0,.14l-.28.31s-.1.04-.14,0l-1.1-1.02-.56.61.92.85s.04.1,0,.14l-.28.31s-.1.04-.14,0l-.92-.85-.6.65,1.1,1.02s.04.1,0,.14l-.28.31s-.1.04-.14,0l-1.52-1.4s-.04-.1,0-.14l2.27-2.47Z"/>
        <path class="cls-1" d="M97.84,26.13s.1-.04.14,0l.32.33s.03.1,0,.14l-2.04,1.98.9.93s.03.1,0,.14l-.3.29s-.1.04-.14,0l-1.29-1.33s-.03-.1,0-.14l2.41-2.33Z"/>
        <path class="cls-1" d="M100.23,28.72s.1-.03.14.01l.31.36s.03.1-.01.14l-2.55,2.18s-.1.03-.14-.01l-.31-.36s-.03-.1.01-.14l2.55-2.18Z"/>
        <path class="cls-1" d="M101.27,29.84s.1-.02.13.02l.08.1-.51,3.03h0s1.67-1.26,1.67-1.26c.04-.03.1-.03.13.02l.28.37s.02.1-.02.13l-2.72,2.06s-.1.02-.13-.02l-.07-.1.58-3.09h0s-1.74,1.31-1.74,1.31c-.04.03-.1.03-.14-.02l-.28-.37s-.02-.1.02-.13l2.72-2.06Z"/>
        <path class="cls-1" d="M100.93,34.43l.36-.02c.08,0,.13.07.12.12,0,.03-.02.54.16.81.14.22.4.29.58.17.22-.14.25-.42.16-.87-.1-.5-.11-1.07.39-1.4.38-.25,1-.25,1.44.42.28.43.28.91.27,1.03,0,.06-.06.12-.12.12h-.35c-.07,0-.15-.05-.15-.12,0-.05,0-.51-.15-.74-.16-.24-.41-.27-.54-.18-.2.13-.23.38-.15.81.1.52.17,1.16-.38,1.51-.44.29-1.09.17-1.48-.43-.35-.53-.31-1.01-.28-1.15.01-.06.02-.1.11-.1Z"/>
        <path class="cls-1" d="M104.77,35.92l-.39-.67s0-.11.04-.13l.36-.21s.1-.01.13.04l1.11,1.92s0,.11-.03.13l-.36.21s-.1.01-.13-.04l-.39-.67-2.46,1.43s-.11,0-.13-.04l-.24-.41s0-.11.04-.13l2.46-1.42Z"/>
        <path class="cls-1" d="M106.18,37.4s.11,0,.13.04l.22.42s0,.11-.04.13l-2.97,1.56s-.11,0-.13-.04l-.22-.42s0-.11.04-.13l2.97-1.56Z"/>
        <path class="cls-1" d="M106.61,39.38l-.33-.7c-.02-.05,0-.11.05-.13l.38-.18s.1,0,.13.05l.95,2c.02.05,0,.11-.05.13l-.38.18s-.1,0-.13-.05l-.33-.7-2.57,1.21s-.11,0-.13-.05l-.2-.43s0-.11.05-.13l2.57-1.21Z"/>
        <path class="cls-1" d="M107.91,40.95s.11,0,.12.05l.18.45c.02.05,0,.11-.05.12l-1.93.76c-.4.16-.61.56-.44.97.16.41.59.56.98.41l1.93-.76s.1,0,.12.05l.18.45s0,.11-.05.12l-1.96.78c-.72.28-1.52-.06-1.82-.8-.29-.74.06-1.54.78-1.82l1.96-.78Z"/>
        <path class="cls-1" d="M108.87,44.95l-.24-.74c-.02-.05.01-.11.06-.12l.4-.13s.1,0,.12.06l.69,2.11c.02.05-.01.11-.06.12l-.4.13s-.1,0-.12-.06l-.24-.74-2.7.88s-.11-.01-.12-.06l-.15-.45s.01-.11.06-.12l2.7-.88Z"/>
        <path class="cls-1" d="M109.95,46.7s.1.01.12.07l.53,2c.01.05-.02.1-.07.12l-.4.11s-.1-.01-.12-.07l-.38-1.45-.8.21.32,1.21s-.02.1-.07.12l-.41.11c-.05.01-.1-.02-.12-.07l-.32-1.21-.86.23.38,1.45c.01.05-.02.1-.07.12l-.4.11s-.1-.01-.12-.07l-.53-2c-.01-.05.02-.11.07-.12l3.25-.86Z"/>
        <path class="cls-1" d="M111.3,52.08c.16,1-.51,1.93-1.51,2.1-1,.16-1.93-.51-2.09-1.51-.16-1,.5-1.93,1.5-2.09,1-.16,1.94.5,2.1,1.5ZM108.35,52.57c.1.63.7,1.07,1.33.96.63-.1,1.07-.71.97-1.34-.1-.63-.71-1.06-1.34-.96-.63.1-1.06.7-.96,1.33Z"/>
        <path class="cls-1" d="M111.5,54.52c.05,0,.1.03.1.09l.19,2.06c0,.06-.04.1-.09.1l-.41.04c-.05,0-.1-.03-.1-.09l-.14-1.49-.95.09.11,1.25c0,.05-.04.1-.09.1l-.41.04c-.05,0-.1-.04-.1-.09l-.11-1.25-1.28.12c-.05,0-.1-.04-.1-.09l-.04-.46c0-.06.04-.1.09-.1l3.34-.31Z"/>
        <path class="cls-1" d="M111.27,58.83v-.78c-.01-.06.03-.1.08-.1h.42c.05,0,.1.03.1.09l.03,2.22c0,.06-.04.1-.1.1h-.42c-.05,0-.1-.03-.1-.09v-.78s-2.86.04-2.86.04c-.05,0-.1-.04-.1-.1v-.47c0-.05.04-.1.09-.1l2.84-.04Z"/>
        <path class="cls-1" d="M111.79,60.83c.05,0,.09.05.09.1l-.09,2.06c0,.06-.05.09-.1.09l-.41-.02c-.05,0-.09-.04-.09-.1l.06-1.5-.83-.04-.05,1.25c0,.05-.05.09-.1.09l-.42-.02c-.06,0-.09-.05-.09-.1l.05-1.25-.89-.04-.06,1.5c0,.06-.05.09-.1.09l-.42-.02c-.05,0-.09-.04-.09-.1l.09-2.06c0-.06.05-.09.1-.09l3.35.14Z"/>
        <path class="cls-1" d="M111.62,65.3c-.06.51-.26.86-.6,1.17-.05.04-.11.03-.14-.01l-.28-.34s-.03-.09.01-.13c.21-.19.35-.46.38-.74.07-.65-.42-1.18-1.05-1.25-.63-.07-1.22.36-1.29,1-.03.3.05.57.2.8.03.04.02.1-.01.13l-.36.28s-.1.02-.14-.02c-.29-.38-.4-.83-.35-1.28.11-1.01,1-1.73,2.01-1.62,1.01.11,1.73,1.01,1.62,2.02Z"/>
        <path class="cls-1" d="M111.24,67.12s.09.06.08.11l-.09.46c-.01.05-.06.09-.11.08l-1.32-.25-.31,1.62,1.32.25c.05,0,.09.06.08.11l-.09.46s-.06.09-.11.08l-3.3-.62s-.09-.06-.08-.11l.09-.46c.01-.05.06-.09.11-.08l1.37.26.31-1.62-1.37-.26c-.05,0-.09-.06-.08-.11l.09-.46s.06-.09.11-.08l3.3.62Z"/>
        <path class="cls-1" d="M110.55,70.92s.08.07.06.12l-.03.12-2.72,1.44h0s2.02.56,2.02.56c.05.01.08.06.07.12l-.12.45s-.07.08-.12.07l-3.29-.9s-.08-.07-.06-.12l.03-.12,2.8-1.43h0s-2.1-.58-2.1-.58c-.05-.01-.08-.06-.07-.12l.12-.44s.07-.08.12-.07l3.29.9Z"/>
        <path class="cls-1" d="M109.03,76.16c-.35.95-1.39,1.43-2.35,1.08-.95-.35-1.43-1.39-1.08-2.34.35-.95,1.38-1.43,2.34-1.08.95.35,1.44,1.39,1.09,2.34ZM106.23,75.13c-.22.6.09,1.27.69,1.49.6.22,1.28-.09,1.5-.69.22-.6-.1-1.27-.7-1.49-.6-.22-1.27.09-1.49.69Z"/>
        <path class="cls-1" d="M108,78.38s.07.08.05.13l-.19.43s-.08.07-.13.05l-2.6-1.16-.53,1.18c-.02.05-.08.07-.13.05l-.38-.17s-.07-.08-.05-.13l.76-1.69c.02-.05.08-.07.13-.05l3.06,1.37Z"/>
        <path class="cls-1" d="M106.39,82.08c-.47.9-1.56,1.25-2.46.78-.9-.47-1.24-1.56-.78-2.46.47-.9,1.55-1.25,2.45-.78.9.47,1.26,1.56.79,2.46ZM103.74,80.7c-.29.57-.07,1.28.5,1.57.57.29,1.28.07,1.58-.5.29-.57.06-1.28-.51-1.57-.57-.29-1.27-.07-1.56.5Z"/>
        <path class="cls-1" d="M104.37,85.55c-.24.39-.63.66-1.06.79-.06.01-.11-.02-.12-.07l-.11-.44c-.01-.06.01-.09.07-.11.28-.08.51-.25.66-.49.34-.53.15-1.25-.38-1.59-.53-.34-1.25-.2-1.59.34-.15.24-.2.47-.22.58l.36.23.22-.34s.09-.06.13-.03l.34.21s.06.09.03.13l-.52.82s-.09.05-.13.03l-1.1-.69s-.05-.05-.05-.08c0,0,0-.62.39-1.24.54-.85,1.65-1.11,2.51-.57.86.54,1.11,1.66.57,2.52Z"/>
        <path class="cls-1" d="M101.33,86.65l2.05.07c.08,0,.12.09.07.15l-.31.42s-.06.04-.08.04l-1.42-.04.46,1.34s.01.06-.01.09l-.31.42c-.05.07-.14.05-.17-.02l-.67-1.94-1.3-.96s-.05-.09-.02-.13l.28-.38s.09-.05.13-.02l1.3.95Z"/>
      </g>
      <path class="cls-1" d="M81.51,45.74h1.58v7.38s-.01.19.08.29c.09.1.31.08.31.08h1.52s.23,0,.23,0c.17,0,.3-.15.3-.31v-10.59c0-.16-.13-.31-.3-.31h-1.52l-2.41,1.88s-.1.18-.1.25v1.04c0,.16.13.31.3.31Z"/>
      <path class="cls-1" d="M93.73,46.1h-1.17v-1.77h3.4c.18,0,.31-.15.31-.31v-1.45c0-.16-.13-.31-.31-.31h-5.31c-.18,0-.31.15-.31.31v5.12c0,.26.18.58.51.58h2.54c1.07,0,1.7.71,1.7,1.6s-.68,1.57-1.57,1.57c-.79,0-1.96-.79-1.96-.79-.13-.08-.3-.05-.4.05l-1.04,1.02c-.2.2-.18.31.03.56.41.5,1.55,1.37,3.27,1.37,2.31,0,4.08-1.72,4.08-3.78s-1.49-3.76-3.76-3.76Z"/>
      <path class="cls-1" d="M33.51,45.42c0-1.83-1.39-3.33-3.75-3.33-1.96,0-3.3,1.62-3.3,1.62-.12.13-.1.33.02.43l1.01,1.02c.13.13.33.13.46,0,.31-.35.92-.82,1.6-.82.92,0,1.45.56,1.45,1.19,0,.46-.21.92-.43,1.25-.97,1.49-3.42,4.8-4.37,6.06v.33c0,.16.13.31.31.31h6.6c.17,0,.31-.15.31-.31v-1.49c0-.16-.15-.31-.31-.31h-2.9c.78-1.09,2.13-2.85,2.66-3.8.4-.78.64-1.27.64-2.15Z"/>
      <path class="cls-1" d="M45.63,47.87c0-3.61-1.53-5.78-4.22-5.78s-4.22,2.16-4.22,5.78,1.53,5.78,4.22,5.78,4.22-2.16,4.22-5.78ZM41.41,51.25c-1.01,0-1.57-1.2-1.57-3.38s.56-3.38,1.57-3.38,1.57,1.22,1.57,3.38-.56,3.38-1.57,3.38Z"/>
      <path class="cls-1" d="M72.87,53.57c.07.02.13.05.2.08l6.22-13.63c.04-.09.04-.2,0-.31,0-.03-.02-.07-.04-.1,0,0,0,0,0-.01-.02-.03-.04-.06-.06-.08l-.03-.03s-.07-.06-.12-.09c-.14-.09-.29-.13-.42-.13h-21.53c-.17,0-.25.13-.18.28l2.85,5.85c.08.16.28.28.45.28h8.75c.17,0,.25.15.18.31l-5.39,11.9c-.07.16-.19.16-.27,0l-8.76-18.13c-.05-.11-.1-.23-.15-.3,0,0,0-.01,0-.01,0,0-.01-.01-.02-.02l-.03-.03s0,0,0,0c0,0,0,0,0,0-.02-.01-.05-.02-.09-.02,0,0,0,0,0,0,0,0-.01,0-.01,0-.05,0-.1,0-.18,0h-6.92c-.17,0-.25.13-.18.28,0,0,16.56,34.13,16.62,34.24.04.09.13.09.19.01.02-.02,5.03-11.12,5.02-11.13-.3-.23-.67-.56-.83-.74-.03-.04-.07-.08-.1-.13-.15-.2-.3-.47-.3-.47l-3.8,8.46h0c-.07.16-.19.16-.27,0h0s-13.86-28.59-13.86-28.59c-.05-.11-.02-.21.06-.26,0,0,0,0,.01,0,.03-.01.06-.02.1-.02h3.2s.08,0,.12.02c0,0,0,0,.01,0,.04.01.08.03.12.06,0,0,.01.01.02.02.03.02.06.05.09.07,0,0,0,0,0,0,.03.03.06.07.08.11l4.96,10.25,4.96,10.25c.08.16.2.15.27,0l8.04-17.44c.03-.07.11-.23.06-.29-.04-.05-.09-.07-.26-.07h-10.38s0,0,0,0c-.17,0-.38-.13-.45-.28h0s-1.22-2.51-1.22-2.51c-.06-.11-.03-.21.06-.26,0,0,0,0,.01,0,.03-.01.06-.02.1-.02h0s16.97-.01,16.97-.01c.04,0,.07,0,.1.02,0,0,.02,0,.02,0,.02.01.04.03.05.05,0,0,0,0,0,0,0,0,0,.02,0,.03,0,.02.01.03.01.05,0,.01,0,.03,0,.04,0,.02,0,.05-.02.07,0,.02-.01.03-.01.03l-.07.16s-5.15,11.3-5.5,12.08c.49-.08,1.01-.07,1.54.08Z"/>
      <path class="cls-1" d="M78.07,54.92s.02-.03.03-.04h0s-.01.02-.03.04Z"/>
      <polygon class="cls-1" points="68.99 58.7 68.99 58.7 68.99 58.7 68.99 58.7"/>
      <path class="cls-1" d="M78.07,54.92s.02-.03.03-.04h0s-.01.02-.03.04Z"/>
      <polygon class="cls-1" points="76.53 76.77 76.52 76.77 76.53 76.77 76.53 76.77"/>
      <path class="cls-1" d="M78.07,54.92s.02-.03.03-.04h0s-.01.02-.03.04Z"/>
      <polygon class="cls-1" points="76.53 76.77 76.52 76.77 76.53 76.77 76.53 76.77"/>
      <path class="cls-1" d="M78.1,54.89h0s-.01.02-.03.04c.01-.01.02-.03.03-.04Z"/>
      <path class="cls-1" d="M78.07,54.92s.02-.03.03-.04h0s-.01.02-.03.04Z"/>
      <path class="cls-1" d="M75.45,27.89c-.22-.37-1.2.17-1.2.17l-.15.07c-.1.05-.21.1-.34.15-1.51.69-5.5,1.69-8.81,1.69-1.61,0-3.74-.51-6-1.04l-.11-.03c-1.99-.47-3.86-.91-5.36-.92-1.89,0-5.34.52-7.24,4.02-.62,1.18-1.02,3.1-.78,3.8l.37.67s.1.19.35.35c.26.16.48.13.48.13h5.27s1.98.16,1.63-.72c-.13-.32-.28-.61-.25-.67.23-.65,1.03-.98,1.68-.98,2.03.07,3.11.52,4.73,1.21l.36.15c.46.19.99.42,1.59.63,1.26.47,2.97.81,4.06.82h.08c.54,0,2.4-.04,3.45-.63.49-.28.81-.55,1.19-1.26.02-.06.05-.11.08-.19l.07-.19.02-.05c.06-.16.12-.34.2-.44.19-.26.45-.4.94-.64.16-.06.57-.27.86-.59.12-.14.22-.26.33-.49l.15-.36c.08-.19.12-.31.21-.59.12-.42.31-.55.53-.68.32-.2.68-.52.96-.9.22-.3.39-.7.53-1.24v-.04s.34-.83.12-1.21ZM71.78,31.4c-.11.17-.08.29-.19.54l-.11.21s-.1.08-.3.18l-.17.08c-.45.23-1.01.51-1.45,1.13-.2.27-.31.56-.42.84l-.14.35c-.14.24-.19.29-.45.44-.45.25-1.56.44-2.7.44h-.08c-.93-.01-2.46-.33-3.55-.73-.63-.22-1.16-.45-1.73-.69l-.19-.07c-1.56-.67-2.92-1.25-5.38-1.34h0c-.34,0-1.14.15-1.49.29-1.62.67-1.86,2.09-1.86,2.1h-4.57c.11-.91.33-1.71.62-2.25,1.4-2.6,3.98-3.14,5.93-3.14.17,0,.35.01.53.03,1.19.09,2.77.46,4.58.9,2.22.53,4.52,1.07,6.32,1.07,2.37,0,5.62-.67,7.57-1.18.04,0,.06-.01.07-.02,0,0,0,.01,0,.02-.11.2-.54.4-.81.81Z"/>
      <path class="cls-1" d="M59.35,81.1c-.17-.04-.44-.11-.61-.16l-.05-.02c-.17-.05-.38.03-.47.18l-1.71,2.75c-.09.15-.3.21-.46.15l-.07-.03c-.16-.06-.26-.26-.22-.42l.76-3.15c.04-.17-.05-.37-.2-.46l-.05-.03c-.15-.08-.4-.23-.54-.31l-1.82-1.22c-.14-.1-.36-.28-.5-.38l-.04-.03c-.13-.11-.36-.11-.5-.01l-2.64,1.89c-.14.1-.35.08-.48-.04l-.05-.05c-.12-.12-.14-.34-.04-.47l1.91-2.62c.1-.14.1-.36-.01-.5l-.04-.05c-.11-.13-.28-.36-.38-.5l-1.22-1.82c-.09-.15-.23-.39-.31-.54l-.03-.05c-.08-.15-.29-.24-.46-.2l-3.16.74c-.17.04-.36-.06-.43-.22l-.03-.08c-.07-.16,0-.36.15-.45l2.77-1.69c.15-.09.23-.3.18-.46l-.02-.06c-.05-.17-.12-.44-.16-.61l-.43-2.15c-.03-.17-.06-.45-.08-.62v-.06c-.02-.17-.18-.33-.35-.36l-3.2-.52c-.17-.03-.31-.19-.31-.36v-.08c0-.17.14-.34.31-.36l3.2-.5c.17-.03.32-.19.34-.36v-.06c.02-.17.06-.45.08-.62,0,0,.1-.73.21-1.25.08-.41.22-.91.22-.91.04-.17.12-.44.17-.6v-.05c.06-.17-.02-.38-.16-.47l-2.76-1.71c-.15-.09-.21-.3-.15-.45l.03-.07c.07-.16.26-.26.43-.22l3.15.75c.17.04.37-.05.45-.2l.03-.05c.08-.15.69-1.18.69-1.18.09-.15.21-.32.27-.38.06-.07.16,0,.24.16l1.66,3.45c.08.16.08.41,0,.56l-.06.14c-.16.4-.31.81-.42,1.23-.29,1.03-.44,2.11-.44,3.2,0,2.91,1.06,5.7,2.98,7.88,1.89,2.14,4.49,3.54,7.32,3.92.04,0,.12.02.23.03l.76-1.66c-5.4-.29-9.7-4.75-9.7-10.22,0-1.75.43-3.4,1.21-4.83.17-.31.01-.52.01-.52l-4.37-9.2c-.07-.16-.25-.21-.4-.12l-1.09.69c-.15.09-.2.3-.13.45l1.23,2.55c.08.16.06.4-.04.54l-.87,1.32c-.09.15-.31.23-.48.19l-3.31-.8c-.17-.04-.36.06-.43.22l-1.2,2.89c-.07.16,0,.36.15.46l2.91,1.8c.15.09.23.3.2.47-.03.11-.08.34-.12.57-.01.06-.02.12-.03.18,0,.03,0,.05-.01.08-.02.12-.04.22-.05.3,0,.04-.02.09-.05.13,0,0,0,0,0,0-.05.08-.12.15-.19.19-.04.02-.08.03-.12.04l-3.37.53c-.17.03-.31.19-.31.36v3.13c0,.17.14.34.31.36l3.37.55c.17.03.33.19.36.36l.22,1.12c.04.17-.05.38-.2.47l-2.91,1.78c-.15.09-.21.29-.15.45l1.2,2.89c.07.16.26.26.43.22l3.32-.78c.17-.04.38.05.47.19l.64.95c.1.14.1.37,0,.51l-2.01,2.76c-.1.14-.08.35.04.48l2.21,2.21c.12.12.34.14.48.04l2.77-2c.14-.1.37-.1.51,0l.95.64c.15.09.23.3.19.47l-.8,3.32c-.04.17.06.36.22.43l2.89,1.2c.16.07.36,0,.45-.15l1.8-2.91c.09-.15.3-.24.47-.2l.22.04.78-1.71-1.16-.23Z"/>
    </g>
    <path class="cls-1" d="M78.75,55.05s.02-.03.03-.04h0s-.01.02-.03.04Z"/>
    <polygon class="cls-1" points="69.49 58.9 69.49 58.9 69.49 58.9 69.49 58.9"/>
    <path class="cls-1" d="M78.75,55.05s.02-.03.03-.04h0s-.01.02-.03.04Z"/>
    <polygon class="cls-1" points="77.18 77.33 77.18 77.33 77.18 77.33 77.18 77.33"/>
    <path class="cls-1" d="M78.75,55.05s.02-.03.03-.04h0s-.01.02-.03.04Z"/>
    <polygon class="cls-1" points="77.18 77.33 77.18 77.33 77.18 77.33 77.18 77.33"/>
    <path class="cls-1" d="M78.78,55.02h0s-.01.02-.03.04c.01-.01.02-.03.03-.04Z"/>
    <path class="cls-1" d="M78.75,55.05s.02-.03.03-.04h0s-.01.02-.03.04Z"/>
  </g>
  <path class="cls-1" d="M151.49,35.01v4.08c0,4.14-3.1,7.18-8.67,7.18s-8.7-3.04-8.7-7.94v-6.66c0-4.87,3.1-7.91,8.7-7.91,4.47,0,7.12,1.79,8.28,5.08.24.73.06,1.07-.64,1.34l-1.67.58c-.73.27-1.03.12-1.31-.64-.7-1.86-2.13-2.8-4.66-2.8-3.16,0-4.9,1.52-4.9,4.32v6.72c0,2.83,1.76,4.35,4.9,4.35s4.9-1.52,4.9-3.59v-1.58h-4.57c-.76,0-1.03-.27-1.03-1.07v-1.46c0-.79.27-1.04,1.03-1.04h7.3c.79,0,1.03.24,1.03,1.04"/>
  <path class="cls-1" d="M168.41,30.97v12.54c0,.94-.21,1.31-1.15,1.7-1.25.49-3.07,1.07-5.99,1.07-4.35,0-6.33-2.28-6.33-6.12v-9.19c0-.7.24-.91.94-.91h1.64c.7,0,.94.21.94.91v9.07c0,2.04,1.07,3.01,3.32,3.01,1.16,0,1.98-.12,2.8-.37.24-.09.3-.27.3-.52v-11.2c0-.7.24-.91.94-.91h1.67c.7,0,.91.21.91.91"/>
  <path class="cls-1" d="M178.48,29.6c4.99,0,6.48,2.68,6.48,6.27v7.88c0,1.06-.24,1.37-1.09,1.73-1.13.49-2.95.79-5.48.79-5.36,0-6.76-1.76-6.76-4.93,0-3.65,2.04-4.9,6.88-4.9,1.19,0,2.4.12,2.92.15v-.85c0-1.92-.73-3.01-3.04-3.01-1.52,0-2.53.49-3.17,1.46-.46.64-.64.73-1.31.46l-1.22-.52c-.7-.3-.88-.67-.52-1.37,1.03-1.98,3.1-3.16,6.3-3.16M178.14,39.33c-2.31,0-2.92.73-2.92,1.98s.49,2.04,2.86,2.04c1.55,0,2.5-.12,3.01-.24.27-.09.37-.15.37-.43v-3.19c-.64-.03-2.13-.15-3.32-.15Z"/>
  <path class="cls-1" d="M195.88,29.6c4.35,0,6.33,2.25,6.33,6.12v9.16c0,.7-.21.94-.91.94h-1.67c-.7,0-.94-.24-.94-.94v-9.07c0-2.01-1.07-2.98-3.29-2.98-1.19,0-2.13.18-2.92.4-.15.06-.21.18-.21.3v11.35c0,.7-.24.94-.94.94h-1.64c-.7,0-.94-.24-.94-.94v-12.51c0-.97.21-1.34,1.19-1.73,1.22-.49,3.07-1.03,5.96-1.03"/>
  <path class="cls-1" d="M212.52,29.6c2.43,0,4.44.46,5.51.94.97.46,1.1.7,1.1,1.67v14.12c0,3.99-1.89,6.63-6.66,6.63-3.28,0-5.23-1.13-6.3-2.92-.46-.67-.33-1.16.37-1.52l1.16-.64c.73-.37,1.06-.27,1.52.37.64,1,1.55,1.55,3.16,1.55,2.16,0,3.23-1.13,3.23-3.29v-1.52c-.88.24-2.16.55-3.62.55-4.35,0-6.33-2.28-6.33-6.12v-3.44c0-4.14,2.22-6.39,6.88-6.39M212.77,32.82c-2.46,0-3.59,1.03-3.59,3.29v3.23c0,1.92,1.16,2.98,3.28,2.98,1.31,0,2.4-.24,3.14-.43v-8.37c0-.21-.03-.27-.24-.37-.7-.18-1.58-.33-2.59-.33Z"/>
  <path class="cls-1" d="M229.04,29.6c1.49,0,2.77.24,3.59.4v-5.75c0-.7.24-.94.94-.94h1.67c.7,0,.91.24.91.94v19.38c0,1-.21,1.28-1.19,1.67-1.22.46-2.92.97-5.69.97-4.53,0-6.6-2.25-6.6-6.15v-4.17c0-4.11,2.13-6.36,6.36-6.36M229.71,32.82c-2.4,0-3.5,1.06-3.5,3.22v3.96c0,1.98,1.19,3.04,3.38,3.04,1.1,0,2.07-.12,2.83-.33.21-.09.21-.15.21-.33v-9.16c-.7-.15-1.7-.4-2.92-.4Z"/>
  <path class="cls-1" d="M246.69,29.6c4.56,0,7,2.31,7,6.08v4.5c0,3.77-2.43,6.09-7,6.09s-7-2.31-7-6.09v-4.5c0-3.77,2.49-6.08,7-6.08M246.69,32.79c-2.22,0-3.47,1.04-3.47,2.89v4.5c0,1.83,1.25,2.89,3.47,2.89s3.47-1.06,3.47-2.89v-4.5c0-1.86-1.22-2.89-3.47-2.89Z"/>
  <path class="cls-1" d="M264.37,29.6c4.35,0,6.33,2.25,6.33,6.12v9.16c0,.7-.21.94-.91.94h-1.67c-.7,0-.94-.24-.94-.94v-9.07c0-2.01-1.06-2.98-3.29-2.98-1.19,0-2.13.18-2.92.4-.15.06-.21.18-.21.3v11.35c0,.7-.24.94-.94.94h-1.64c-.7,0-.94-.24-.94-.94v-12.51c0-.97.21-1.34,1.19-1.73,1.22-.49,3.07-1.03,5.96-1.03"/>
  <path class="cls-1" d="M281.01,29.6c2.43,0,4.44.46,5.51.94.97.46,1.1.7,1.1,1.67v14.12c0,3.99-1.89,6.63-6.66,6.63-3.29,0-5.23-1.13-6.3-2.92-.46-.67-.33-1.16.36-1.52l1.16-.64c.73-.37,1.07-.27,1.52.37.64,1,1.55,1.55,3.16,1.55,2.16,0,3.22-1.13,3.22-3.29v-1.52c-.88.24-2.16.55-3.62.55-4.35,0-6.33-2.28-6.33-6.12v-3.44c0-4.14,2.22-6.39,6.88-6.39M281.25,32.82c-2.47,0-3.59,1.03-3.59,3.29v3.23c0,1.92,1.16,2.98,3.29,2.98,1.31,0,2.41-.24,3.13-.43v-8.37c0-.21-.03-.27-.24-.37-.7-.18-1.58-.33-2.59-.33Z"/>
  <path class="cls-1" d="M313.14,25.25v1.49c0,.76-.24,1.04-1.03,1.04h-5.23v17.01c0,.76-.27,1.03-1.03,1.03h-1.76c-.76,0-1.04-.27-1.04-1.03v-17.01h-5.23c-.76,0-1.03-.27-1.03-1.04v-1.49c0-.76.27-1.04,1.03-1.04h14.3c.79,0,1.03.28,1.03,1.04"/>
  <path class="cls-1" d="M319.43,29.6c4.84,0,7.03,2.8,7.03,6.3v1.86c0,.79-.3,1.31-1.34,1.31h-9.22v1.12c0,1.98,1.25,3.04,3.47,3.04,1.8,0,2.95-.61,3.59-1.61.49-.67.82-.76,1.55-.37l1.06.58c.7.34.79.85.36,1.52-1.1,1.79-3.13,2.92-6.57,2.92-4.99,0-7-2.77-7-6.51v-3.59c0-4.23,2.46-6.57,7.06-6.57M319.43,32.58c-2.28,0-3.53,1.13-3.53,3.1v.67h7.03v-.67c0-1.98-1.19-3.1-3.5-3.1Z"/>
  <path class="cls-1" d="M336.29,29.6c3.62,0,5.72,1.7,6.48,3.99.27.76.06,1.1-.64,1.37l-1.34.43c-.73.3-1.06.09-1.37-.64-.49-1.28-1.49-2.04-3.29-2.04-2.22,0-3.32,1.06-3.32,2.98v4.5c0,1.89,1.12,2.98,3.32,2.98,1.77,0,2.83-.79,3.32-2.1.27-.73.58-.85,1.34-.61l1.37.4c.7.27.94.61.64,1.37-1,2.59-3.1,4.05-6.79,4.05-4.62,0-6.73-2.37-6.73-6.24v-4.2c0-3.86,2.22-6.24,7-6.24"/>
  <path class="cls-1" d="M349.61,24.24v5.78c.27-.15,1.83-.43,3.62-.43,4.35,0,6.33,2.25,6.33,6.12v9.16c0,.7-.21.94-.91.94h-1.67c-.7,0-.94-.24-.94-.94v-9.07c0-1.95-1.13-2.98-3.29-2.98-1.52,0-2.86.3-3.13.46v11.59c0,.7-.24.94-.94.94h-1.64c-.7,0-.94-.24-.94-.94v-20.63c0-.7.24-.94.94-.94h1.64c.7,0,.94.24.94.94"/>
  <path class="cls-1" d="M370.61,29.6c4.35,0,6.33,2.25,6.33,6.12v9.16c0,.7-.21.94-.91.94h-1.67c-.7,0-.94-.24-.94-.94v-9.07c0-2.01-1.07-2.98-3.29-2.98-1.19,0-2.13.18-2.92.4-.15.06-.21.18-.21.3v11.35c0,.7-.24.94-.94.94h-1.64c-.7,0-.94-.24-.94-.94v-12.51c0-.97.21-1.34,1.19-1.73,1.22-.49,3.07-1.03,5.96-1.03"/>
  <path class="cls-1" d="M384.57,25.98v.27c0,1.4-.42,1.86-1.82,1.86h-.21c-1.4,0-1.85-.46-1.85-1.86v-.27c0-1.4.46-1.82,1.85-1.82h.21c1.4,0,1.82.43,1.82,1.82M384.42,30.97v13.9c0,.7-.24.94-.94.94h-1.64c-.7,0-.94-.24-.94-.94v-13.9c0-.7.24-.91.94-.91h1.64c.7,0,.94.21.94.91Z"/>
  <path class="cls-1" d="M394.95,29.6c4.57,0,7,2.31,7,6.08v4.5c0,3.77-2.43,6.09-7,6.09s-7-2.31-7-6.09v-4.5c0-3.77,2.49-6.08,7-6.08M394.95,32.79c-2.22,0-3.47,1.04-3.47,2.89v4.5c0,1.83,1.25,2.89,3.47,2.89s3.47-1.06,3.47-2.89v-4.5c0-1.86-1.22-2.89-3.47-2.89Z"/>
  <path class="cls-1" d="M412.62,29.6c4.35,0,6.33,2.25,6.33,6.12v9.16c0,.7-.21.94-.91.94h-1.67c-.7,0-.94-.24-.94-.94v-9.07c0-2.01-1.07-2.98-3.29-2.98-1.19,0-2.13.18-2.92.4-.15.06-.21.18-.21.3v11.35c0,.7-.24.94-.94.94h-1.64c-.7,0-.94-.24-.94-.94v-12.51c0-.97.21-1.34,1.19-1.73,1.22-.49,3.07-1.03,5.96-1.03"/>
  <path class="cls-1" d="M134.46,60.61h.62c.28,0,.37.09.37.37v12.54c0,.28-.09.38-.37.38h-.62c-.28,0-.38-.09-.38-.38v-12.54c0-.28.09-.37.38-.37"/>
  <path class="cls-1" d="M141.78,63.99c2.15,0,3.28.8,3.82,2.04.13.24.06.39-.17.49l-.47.21c-.26.11-.34.06-.47-.17-.39-.86-1.07-1.42-2.7-1.42s-2.45.56-2.45,1.63c0,1.48,1.18,1.61,2.83,1.76,2.04.19,3.65.62,3.65,2.77,0,1.74-1.26,2.86-3.84,2.86-2.06,0-3.43-.71-4.04-2.32-.09-.22-.04-.38.21-.45l.49-.17c.22-.08.34-.04.45.21.45,1.18,1.4,1.63,2.86,1.63,1.8,0,2.64-.62,2.64-1.7,0-1.33-1.09-1.55-2.71-1.72-1.89-.19-3.78-.45-3.78-2.83,0-1.72,1.24-2.81,3.69-2.81"/>
  <path class="cls-1" d="M152.74,63.99c.24,0,.34.09.34.34v.49c0,.24-.09.34-.34.34h-.62c-1.09,0-1.91.19-2.47.39-.3.13-.34.28-.34.49v7.53c0,.26-.08.34-.34.34h-.58c-.24,0-.34-.07-.34-.34v-7.94c0-.58.15-.81.71-1.05.69-.26,1.74-.54,3.39-.58h.58"/>
  <path class="cls-1" d="M158.03,63.99c2.99,0,3.76,1.68,3.76,3.71v4.91c0,.66-.15.84-.67,1.07-.69.3-1.7.49-3.11.49-3.26,0-4.04-1.03-4.04-2.9,0-2.15,1.18-2.9,4.12-2.9,1.1,0,2.1.15,2.44.19v-.86c0-1.46-.47-2.57-2.53-2.57-1.29,0-2.11.51-2.62,1.37-.15.21-.21.26-.45.15l-.45-.19c-.24-.09-.32-.22-.19-.49.64-1.24,1.85-1.97,3.75-1.97M157.98,69.41c-2.04,0-2.71.56-2.71,1.83,0,1.18.47,1.87,2.66,1.87,1.07,0,1.74-.11,2.26-.3.3-.11.36-.19.36-.54v-2.7c-.38-.04-1.48-.17-2.57-.17Z"/>
  <path class="cls-1" d="M168.22,63.99c2.81,0,4.16,1.63,4.16,3.88v1.03c0,.32-.15.52-.56.52h-6.48v1.09c0,1.59.95,2.56,2.81,2.56,1.53,0,2.42-.62,2.94-1.55.17-.22.3-.26.54-.13l.39.21c.24.13.28.3.13.54-.65,1.18-1.85,2.02-4.02,2.02-2.79,0-4.04-1.54-4.04-3.78v-2.43c0-2.47,1.42-3.95,4.14-3.95M168.22,65.08c-1.91,0-2.88,1.05-2.88,2.71v.66h5.77v-.66c0-1.67-.95-2.71-2.88-2.71Z"/>
  <path class="cls-1" d="M175.69,73.9h-.58c-.26,0-.34-.07-.34-.34v-13.18c0-.26.08-.34.34-.34h.58c.26,0,.34.07.34.34v13.18c0,.26-.08.34-.34.34"/>
  <path class="cls-1" d="M184.26,60.61h.62c.28,0,.37.09.37.37v12.54c0,.28-.09.38-.37.38h-.62c-.28,0-.38-.09-.38-.38v-12.54c0-.28.09-.37.38-.37"/>
  <path class="cls-1" d="M192.39,63.99c2.57,0,3.73,1.37,3.73,3.67v5.9c0,.26-.09.34-.34.34h-.6c-.24,0-.34-.07-.34-.34v-5.86c0-1.69-.8-2.55-2.62-2.55-1.05,0-1.91.21-2.47.41-.26.11-.3.26-.3.47v7.53c0,.26-.07.34-.34.34h-.58c-.24,0-.34-.07-.34-.34v-7.9c0-.58.15-.79.71-1.03.73-.3,1.8-.64,3.48-.64"/>
  <path class="cls-1" d="M202.16,63.99c2.15,0,3.28.8,3.82,2.04.13.24.06.39-.17.49l-.47.21c-.26.11-.34.06-.47-.17-.39-.86-1.07-1.42-2.7-1.42s-2.45.56-2.45,1.63c0,1.48,1.18,1.61,2.83,1.76,2.04.19,3.65.62,3.65,2.77,0,1.74-1.26,2.86-3.84,2.86-2.06,0-3.43-.71-4.04-2.32-.09-.22-.04-.38.2-.45l.49-.17c.22-.08.34-.04.45.21.45,1.18,1.4,1.63,2.86,1.63,1.8,0,2.64-.62,2.64-1.7,0-1.33-1.09-1.55-2.71-1.72-1.89-.19-3.78-.45-3.78-2.83,0-1.72,1.23-2.81,3.69-2.81"/>
  <path class="cls-1" d="M210.7,62.37v1.91h2.7c.26,0,.34.07.34.34v.49c0,.24-.08.34-.34.34h-2.7v4.87c0,2.23.64,2.66,2.68,2.66.24,0,.34.09.34.36v.51c0,.26-.09.34-.34.34-2.9.06-3.93-.8-3.93-3.82v-4.91h-1.78c-.26,0-.34-.09-.34-.34v-.49c0-.26.07-.34.34-.34h1.78v-1.91c0-.26.08-.34.34-.34h.58c.24,0,.34.07.34.34"/>
  <path class="cls-1" d="M216.92,61.52v.13c0,.52-.17.69-.69.69h-.11c-.52,0-.69-.17-.69-.69v-.13c0-.52.17-.69.69-.69h.11c.52,0,.69.17.69.69M216.79,64.61v8.95c0,.26-.08.34-.34.34h-.58c-.26,0-.34-.07-.34-.34v-8.95c0-.26.08-.34.34-.34h.58c.26,0,.34.07.34.34Z"/>
  <path class="cls-1" d="M221.84,62.37v1.91h2.7c.26,0,.34.07.34.34v.49c0,.24-.07.34-.34.34h-2.7v4.87c0,2.23.64,2.66,2.68,2.66.24,0,.34.09.34.36v.51c0,.26-.09.34-.34.34-2.9.06-3.93-.8-3.93-3.82v-4.91h-1.78c-.26,0-.34-.09-.34-.34v-.49c0-.26.07-.34.34-.34h1.78v-1.91c0-.26.07-.34.34-.34h.58c.24,0,.34.07.34.34"/>
  <path class="cls-1" d="M234.52,64.61v7.9c0,.58-.15.79-.71,1.03-.73.3-1.8.62-3.5.62-2.57,0-3.71-1.35-3.71-3.65v-5.9c0-.26.07-.34.34-.34h.58c.26,0,.34.07.34.34v5.84c0,1.69.82,2.57,2.62,2.57,1.07,0,1.87-.19,2.43-.41.3-.13.34-.28.34-.52v-7.47c0-.26.09-.34.34-.34h.6c.24,0,.34.07.34.34"/>
  <path class="cls-1" d="M239.52,62.37v1.91h2.7c.26,0,.34.07.34.34v.49c0,.24-.07.34-.34.34h-2.7v4.87c0,2.23.64,2.66,2.68,2.66.24,0,.34.09.34.36v.51c0,.26-.09.34-.34.34-2.9.06-3.93-.8-3.93-3.82v-4.91h-1.78c-.26,0-.34-.09-.34-.34v-.49c0-.26.07-.34.34-.34h1.78v-1.91c0-.26.07-.34.34-.34h.58c.24,0,.34.07.34.34"/>
  <path class="cls-1" d="M248.13,63.99c2.81,0,4.16,1.63,4.16,3.88v1.03c0,.32-.15.52-.56.52h-6.48v1.09c0,1.59.95,2.56,2.81,2.56,1.53,0,2.42-.62,2.94-1.55.17-.22.3-.26.54-.13l.39.21c.24.13.28.3.13.54-.66,1.18-1.85,2.02-4.03,2.02-2.79,0-4.04-1.54-4.04-3.78v-2.43c0-2.47,1.42-3.95,4.14-3.95M248.13,65.08c-1.91,0-2.88,1.05-2.88,2.71v.66h5.77v-.66c0-1.67-.95-2.71-2.88-2.71Z"/>
  <path class="cls-1" d="M263.16,63.99c2.58,0,4.14,1.31,4.14,3.44v3.3c0,2.13-1.55,3.43-4.14,3.43s-4.1-1.29-4.1-3.43v-3.3c0-2.13,1.55-3.44,4.1-3.44M263.16,65.14c-1.74,0-2.85.86-2.85,2.3v3.3c0,1.42,1.1,2.28,2.85,2.28s2.87-.86,2.87-2.28v-3.3c0-1.44-1.11-2.3-2.87-2.3Z"/>
  <path class="cls-1" d="M274.9,60.38v.49c0,.26-.07.36-.34.36-2.02,0-2.68.58-2.68,2.58v.47h2.72c.26,0,.34.07.34.34v.49c0,.24-.08.34-.34.34h-2.72v8.13c0,.26-.07.34-.34.34h-.56c-.26,0-.35-.07-.35-.34v-8.13h-1.67c-.26,0-.34-.09-.34-.34v-.49c0-.26.08-.34.34-.34h1.67v-.47c0-2.68,1.09-3.73,3.78-3.76h.15c.26,0,.34.07.34.34"/>
  <path class="cls-1" d="M289.21,60.98v.52c0,.28-.09.37-.37.37h-3.78v11.65c0,.28-.09.38-.38.38h-.62c-.28,0-.38-.09-.38-.38v-11.65h-3.78c-.28,0-.38-.09-.38-.37v-.52c0-.28.09-.37.38-.37h8.93c.28,0,.37.09.37.37"/>
  <path class="cls-1" d="M292.88,63.99c2.81,0,4.16,1.63,4.16,3.88v1.03c0,.32-.15.52-.56.52h-6.48v1.09c0,1.59.95,2.56,2.81,2.56,1.54,0,2.42-.62,2.94-1.55.17-.22.3-.26.54-.13l.39.21c.24.13.28.3.13.54-.65,1.18-1.85,2.02-4.03,2.02-2.79,0-4.04-1.54-4.04-3.78v-2.43c0-2.47,1.42-3.95,4.14-3.95M292.88,65.08c-1.91,0-2.88,1.05-2.88,2.71v.66h5.77v-.66c0-1.67-.95-2.71-2.88-2.71Z"/>
  <path class="cls-1" d="M303.14,63.99c2.28,0,3.43.99,3.89,2.53.09.28.02.39-.22.49l-.49.17c-.26.09-.37.02-.47-.22-.39-1.24-1.16-1.84-2.77-1.84-1.85,0-2.79.95-2.79,2.53v2.87c0,1.57.97,2.55,2.79,2.55,1.55,0,2.41-.66,2.81-1.93.09-.26.21-.3.47-.22l.5.15c.24.09.34.21.23.49-.56,1.7-1.82,2.62-4.04,2.62-2.68,0-4.01-1.4-4.01-3.69v-2.79c0-2.27,1.33-3.69,4.1-3.69"/>
  <path class="cls-1" d="M310.61,60.38v4.14c.58-.26,1.65-.52,2.94-.52,2.57,0,3.73,1.35,3.73,3.67v5.9c0,.26-.09.34-.34.34h-.6c-.24,0-.34-.07-.34-.34v-5.86c0-1.65-.82-2.55-2.62-2.55-1.16,0-2.17.24-2.77.54v7.86c0,.26-.08.34-.34.34h-.58c-.26,0-.34-.07-.34-.34v-13.18c0-.26.07-.34.34-.34h.58c.26,0,.34.07.34.34"/>
  <path class="cls-1" d="M324.14,63.99c2.56,0,3.72,1.37,3.72,3.67v5.9c0,.26-.09.34-.34.34h-.6c-.24,0-.34-.07-.34-.34v-5.86c0-1.69-.81-2.55-2.62-2.55-1.05,0-1.91.21-2.47.41-.26.11-.3.26-.3.47v7.53c0,.26-.08.34-.34.34h-.58c-.24,0-.34-.07-.34-.34v-7.9c0-.58.15-.79.71-1.03.73-.3,1.8-.64,3.48-.64"/>
  <path class="cls-1" d="M334.4,63.99c2.58,0,4.14,1.31,4.14,3.44v3.3c0,2.13-1.55,3.43-4.14,3.43s-4.1-1.29-4.1-3.43v-3.3c0-2.13,1.55-3.44,4.1-3.44M334.4,65.14c-1.74,0-2.85.86-2.85,2.3v3.3c0,1.42,1.1,2.28,2.85,2.28s2.87-.86,2.87-2.28v-3.3c0-1.44-1.11-2.3-2.87-2.3Z"/>
  <path class="cls-1" d="M342.02,73.9h-.58c-.26,0-.34-.07-.34-.34v-13.18c0-.26.07-.34.34-.34h.58c.26,0,.34.07.34.34v13.18c0,.26-.08.34-.34.34"/>
  <path class="cls-1" d="M349.04,63.99c2.58,0,4.14,1.31,4.14,3.44v3.3c0,2.13-1.55,3.43-4.14,3.43s-4.1-1.29-4.1-3.43v-3.3c0-2.13,1.55-3.44,4.1-3.44M349.04,65.14c-1.74,0-2.85.86-2.85,2.3v3.3c0,1.42,1.11,2.28,2.85,2.28s2.86-.86,2.86-2.28v-3.3c0-1.44-1.1-2.3-2.86-2.3Z"/>
  <path class="cls-1" d="M359.38,63.99c1.4,0,2.51.28,3.16.56.6.26.73.41.73,1.03v8.89c0,2.43-1.11,4.04-3.95,4.04-2,0-3.09-.82-3.73-2-.15-.24-.11-.43.15-.56l.41-.21c.26-.15.37-.09.54.13.49.9,1.18,1.5,2.58,1.5,1.91,0,2.71-1.07,2.71-2.85v-1.16c-.51.19-1.59.56-2.96.56-2.55,0-3.69-1.37-3.69-3.65v-2.45c0-2.49,1.29-3.84,4.02-3.84M359.47,65.15c-1.95,0-2.85.9-2.85,2.7v2.4c0,1.63.84,2.53,2.6,2.53,1.33,0,2.34-.37,2.79-.54v-6.23c0-.3-.04-.36-.36-.49-.5-.19-1.25-.36-2.19-.36Z"/>
  <path class="cls-1" d="M373.89,64.61v9.87c0,2.43-1.12,4.04-3.99,4.04-1.98,0-3.09-.82-3.73-2-.15-.24-.11-.43.13-.56l.41-.21c.28-.15.39-.09.54.13.49.9,1.22,1.5,2.62,1.5,1.91,0,2.73-1.07,2.73-2.85v-1.11c-.64.19-1.53.49-2.94.49-2.57,0-3.71-1.35-3.71-3.65v-5.65c0-.26.07-.34.34-.34h.58c.26,0,.34.07.34.34v5.6c0,1.68.82,2.56,2.62,2.56,1.27,0,2.19-.32,2.77-.51v-7.66c0-.26.09-.34.34-.34h.6c.24,0,.34.07.34.34"/>
  <path class="cls-1" d="M142.11,86.49c.27.49.53,1.04.78,1.65h5.73v1.53h-12.09v3.38c0,1.38-.12,2.84-.37,4.39-.29,1.56-.79,3.12-1.48,4.66l-1.46-1.33c.63-1.24,1.07-2.52,1.31-3.86.18-1.39.27-2.68.27-3.86v-4.91h6.26c-.24-.5-.5-.96-.8-1.39l1.85-.26"/>
  <path class="cls-1" d="M154,95.84l1.32.61c-.92,1.83-2,3.39-3.25,4.71l-1.46-1.07c1.24-1.21,2.36-2.63,3.38-4.25M151.07,88.87h3.37l.88-2.06,1.6.2-.83,1.85h8.87v1.53h-9.55l-1.53,3.38h3.64v-2.19h1.6v2.19h5.12v1.46h-5.12v4.84c0,.64-.14,1.08-.41,1.33-.25.27-.71.41-1.38.41h-2.19l-.34-1.73c.84.09,1.52.14,2.06.14.44,0,.66-.13.66-.39v-4.59h-5.83l2.09-4.85h-2.7v-1.53ZM161.7,96.11c1.59,1.27,2.92,2.53,4,3.79l-1.26,1.26c-.92-1.21-2.23-2.52-3.93-3.93l1.19-1.12Z"/>
  <path class="cls-1" d="M169.28,86.75h1.72v10.8c1.3-.49,2.61-1.06,3.93-1.7l.39,1.6c-1.96,1.1-4.39,2.07-7.29,2.92l-.73-1.67c.66-.17,1.32-.36,1.99-.56v-11.39M178.77,86.75h1.73c-.05,3.49-.42,6.31-1.12,8.47,1.35,1.63,2.5,3.26,3.45,4.88l-1.39,1.39c-.69-1.37-1.63-2.84-2.81-4.4-.91,1.77-2.61,3.44-5.1,5.01l-1.21-1.46c2.35-1.38,3.93-2.85,4.76-4.4,1.04-1.95,1.6-5.11,1.68-9.49ZM173.72,88.34c1.19,1.88,2.12,3.5,2.8,4.84l-1.67,1.14c-.61-1.49-1.46-3.2-2.53-5.12l1.4-.87Z"/>
  <path class="cls-1" d="M189.32,86.56l1.74.19c-.17.35-.36.69-.56,1h6.41v1.12c-.91.94-1.84,1.74-2.79,2.4h4.64v5.44h-11.02v2.33c0,.45.09.78.26.97.23.15.61.22,1.14.22h7.43c.58,0,.97-.08,1.17-.25.28-.22.45-.99.49-2.33l1.53.46c0,.64-.07,1.28-.22,1.94-.16.53-.4.93-.71,1.21-.41.29-1.07.44-1.99.44h-8.3c-.85,0-1.46-.18-1.82-.53-.43-.39-.65-1.09-.65-2.12v-7.29c-.28.16-.57.31-.87.46l-1.06-1.34c1.29-.6,2.38-1.26,3.25-1.97.69-.53,1.33-1.31,1.92-2.33M186.88,91.27h4.81c.94-.58,1.91-1.29,2.91-2.12h-5.13c-.23.24-.45.45-.66.65-.56.52-1.2,1.01-1.92,1.48ZM187.74,92.73v2.52h3.71v-2.52h-3.71ZM193.05,92.73v2.52h4.05v-2.52h-4.05Z"/>
  <path class="cls-1" d="M201.48,87.29h8.63v1.51h-4.49c-.17.83-.35,1.56-.53,2.19h4.42v1.53c-.21,1.64-.56,3.05-1.04,4.22-.43,1.06-1.03,1.99-1.8,2.81-.82.89-2.11,1.83-3.88,2.8l-1.19-1.33c1.97-.99,3.42-2.04,4.34-3.16-.57-.81-1.3-1.65-2.21-2.55l1.07-.99c.77.74,1.45,1.46,2.02,2.18.5-1.02.86-2.35,1.07-3.98h-3.33c-.45,1.24-1.22,2.54-2.29,3.93l-1.12-1.39c.86-1.08,1.51-2.12,1.94-3.14.36-.82.67-1.85.92-3.11h-2.53v-1.51M210.98,88.07h1.67v10.37h-1.67v-10.37ZM214.16,86.75h1.67v13.48c0,.66-.14,1.12-.43,1.38-.26.28-.74.43-1.43.43h-2.06l-.41-1.8c.81.09,1.47.14,1.99.14.44,0,.66-.13.66-.39v-13.23Z"/>
  <path class="cls-1" d="M218.48,87.61h5.71v1.53h-2.19v3.38h1.8v1.53h-1.8v3.78c.75-.27,1.46-.56,2.12-.85v1.67c-1.61.74-3.45,1.42-5.51,2.06l-.46-1.66c.82-.22,1.59-.44,2.31-.68v-4.3h-1.85v-1.53h1.85v-3.38h-1.99v-1.53M224.53,87.15h8.64v8.23h-3.59v1.67h3.64v1.39h-3.64v1.92h4.37v1.39h-10.74v-1.39h4.78v-1.92h-3.32v-1.39h3.32v-1.67h-3.45v-8.23ZM226.06,90.54h1.92v-2.06h-1.92v2.06ZM227.98,94.06v-2.19h-1.92v2.19h1.92ZM229.58,88.48v2.06h2.06v-2.06h-2.06ZM231.64,94.06v-2.19h-2.06v2.19h2.06Z"/>
  <polyline class="cls-1" points="236.14 88.02 250.1 88.02 250.1 89.6 243.98 89.6 243.98 99.63 250.76 99.63 250.76 101.23 235.48 101.23 235.48 99.63 242.19 99.63 242.19 89.6 236.14 89.6 236.14 88.02"/>
  <path class="cls-1" d="M267.63,90.15v3.38h-1.6v-1.99h-11.88v2.06h-1.6v-3.45h9.91c.51-.92,1.04-2.14,1.58-3.66l1.73.66c-.48,1.19-.96,2.19-1.45,2.99h3.3M255.33,92.87h9.5v1.39c-1.14.66-2.45,1.28-3.93,1.87v.51h6.26v1.39h-6.26v2.67c-.02.39-.13.67-.32.87-.28.31-.62.46-1,.46h-2.26l-.32-1.46c.52.04,1.08.07,1.67.07.35,0,.53-.14.53-.41v-2.19h-6.31v-1.39h6.31v-1.12c1.02-.31,2.1-.73,3.23-1.26h-7.09v-1.39ZM255.93,87.02c.47.66.94,1.39,1.39,2.19l-1.39.66c-.41-.84-.85-1.59-1.33-2.26l1.33-.59ZM259.72,86.56c.45.71.89,1.51,1.33,2.38l-1.39.66c-.4-.91-.82-1.72-1.26-2.45l1.33-.59Z"/>
  <path class="cls-1" d="M269.89,87.22h5.3v1.19c-.36,1.29-.78,2.66-1.26,4.11.43.77.74,1.47.92,2.09.23.64.34,1.18.34,1.63-.02.88-.2,1.52-.54,1.9-.37.45-1.19.68-2.45.68l-.46-1.6c.28.05.55.07.8.07.35,0,.61-.08.77-.24.19-.12.29-.4.29-.82,0-.51-.08-.99-.24-1.45-.18-.58-.52-1.27-1.02-2.07.59-1.6,1.01-2.95,1.26-4.05h-2.12v13.48h-1.58v-14.94M275.46,94.19h9.37v1.46h-3.2v4.32c0,.35.2.53.6.53h.66c.18,0,.32-.08.41-.26.1-.18.17-1,.2-2.47l1.44.46c-.11,1.79-.3,2.84-.58,3.16-.23.33-.65.49-1.27.49h-1.46c-.46,0-.83-.13-1.11-.39-.28-.27-.42-.63-.42-1.07v-4.78h-1.09c-.09,1.62-.37,2.9-.85,3.82-.46.98-1.52,1.89-3.16,2.74l-1.07-1.33c1.3-.59,2.18-1.22,2.63-1.89.51-.72.82-1.84.92-3.35h-2.02v-1.46ZM280.04,86.56c.25.48.49,1,.73,1.58h3.79v3.72h-.87v.8h-7.43v-.8h-1v-3.72h3.79c-.22-.46-.46-.91-.73-1.33l1.72-.25ZM276.79,91.2h6.24v-1.6h-6.24v1.6Z"/>
</svg>