<?xml version="1.0" encoding="UTF-8"?>
<svg id="Layer_3" data-name="Layer 3" xmlns="http://www.w3.org/2000/svg" viewBox="0 0 308 97">
  <defs>
    <style>
      .cls-1 {
        stroke-linecap: round;
      }

      .cls-1, .cls-2, .cls-3, .cls-4, .cls-5, .cls-6 {
        fill: none;
        stroke-width: 2px;
      }

      .cls-1, .cls-3, .cls-6 {
        stroke: #010101;
      }

      .cls-1, .cls-6 {
        stroke-linejoin: round;
      }

      .cls-2 {
        stroke: #1d1d1b;
      }

      .cls-2, .cls-3, .cls-4, .cls-5 {
        stroke-miterlimit: 10;
      }

      .cls-4 {
        stroke: #0073c2;
      }

      .cls-5 {
        stroke: #a73030;
      }

      .cls-7 {
        fill: #9a9999;
      }

      .cls-7, .cls-8 {
        stroke-width: 0px;
      }

      .cls-8 {
        fill: #1d1d1b;
      }
    </style>
  </defs>
  <path class="cls-4" d="m64.95,42.74c-.24,3.39-.09,6.55,1.26,7.27,2.69,1.44,8.4-7.87,9.92-6.97,1.53.91-3.29,11-1.63,12.01,1.66,1.01,8.25-7.98,9.92-6.97,1.66,1.01-3.29,11-1.63,12.01s8.25-7.98,9.92-6.97-3.29,11-1.63,12.01c1.66,1.01,8.25-7.98,9.92-6.97,1.66,1.01-3.57,10.76-1.63,12.01,1.13.73,2.31-1.66,5.01-3.81"/>
  <g>
    <path class="cls-8" d="m180.02,24.93V3.48h4.02v21.45h-4.02Z"/>
    <path class="cls-8" d="m188.81,24.93v-15.69h3.63v2.49c.4-.82,1.04-1.5,1.92-2.02.88-.53,1.93-.79,3.15-.79,1.66,0,2.97.5,3.93,1.51s1.44,2.55,1.44,4.63v9.87h-3.63v-9.54c0-1.18-.25-2.05-.75-2.61-.5-.56-1.29-.84-2.37-.84s-1.96.33-2.65.98c-.69.65-1.04,1.57-1.04,2.77v9.24h-3.63Z"/>
    <path class="cls-8" d="m212.39,25.2c-1.54,0-2.71-.4-3.53-1.2-.81-.8-1.21-1.95-1.21-3.45v-8.58h-2.1v-2.73h2.1v-3.45h3.63v3.45h3.45v2.73h-3.45v8.25c0,1.34.6,2.01,1.8,2.01.7,0,1.29-.1,1.77-.3v2.88c-.7.26-1.52.39-2.46.39Z"/>
    <path class="cls-8" d="m225.02,25.23c-2.34,0-4.25-.72-5.73-2.16-1.48-1.44-2.22-3.38-2.22-5.82v-.24c0-2.4.74-4.35,2.21-5.85s3.33-2.25,5.59-2.25c2.12,0,3.88.66,5.29,1.98s2.12,3.3,2.12,5.94v1.05h-11.49c.06,1.5.46,2.65,1.2,3.45.74.8,1.78,1.2,3.12,1.2,2.12,0,3.32-.8,3.6-2.4h3.51c-.26,1.64-1.02,2.9-2.28,3.78s-2.9,1.32-4.92,1.32Zm-4.17-9.78h7.83c-.18-2.6-1.45-3.9-3.81-3.9-1.08,0-1.98.34-2.68,1.04-.71.69-1.16,1.65-1.33,2.86Z"/>
    <path class="cls-8" d="m235.52,24.93v-15.69h3.63v2.94c1.04-2.1,2.74-3.16,5.1-3.18v3.39c-1.7.02-2.98.36-3.83,1.02-.85.66-1.28,1.78-1.28,3.36v8.16h-3.63Z"/>
    <path class="cls-8" d="m248.36,24.93v-12.96h-2.13v-2.73h2.13v-2.1c0-1.72.46-3.03,1.38-3.95.92-.91,2.22-1.36,3.9-1.36.76,0,1.45.1,2.07.3v2.82c-.5-.18-1.05-.27-1.65-.27-1.38,0-2.07.77-2.07,2.31v2.25h3.57v2.73h-3.57v12.96h-3.63Z"/>
    <path class="cls-8" d="m262.4,25.23c-1.54,0-2.8-.38-3.78-1.16-.98-.77-1.47-1.93-1.47-3.49,0-1.72.73-2.98,2.19-3.78s3.41-1.2,5.85-1.2h1.95v-.81c0-1.08-.21-1.88-.64-2.39-.43-.51-1.17-.76-2.21-.76-1.82,0-2.82.82-3,2.46h-3.51c.14-1.74.83-3.04,2.05-3.9,1.23-.86,2.79-1.29,4.67-1.29,4.18,0,6.27,1.91,6.27,5.73v10.29h-3.57v-1.92c-1.12,1.48-2.72,2.22-4.8,2.22Zm.87-2.61c1.14,0,2.07-.29,2.79-.86.72-.57,1.08-1.34,1.08-2.33v-1.56h-1.86c-3.02,0-4.53.85-4.53,2.55,0,1.46.84,2.19,2.52,2.19Z"/>
    <path class="cls-8" d="m281.81,25.23c-2.3,0-4.2-.71-5.69-2.14-1.49-1.43-2.24-3.37-2.24-5.81v-.24c0-2.44.76-4.41,2.28-5.9,1.52-1.49,3.4-2.23,5.64-2.23,1.92,0,3.54.47,4.88,1.42,1.33.95,2.09,2.43,2.29,4.46h-3.51c-.28-1.98-1.48-2.97-3.6-2.97-1.26,0-2.29.46-3.07,1.38-.79.92-1.19,2.18-1.19,3.78v.24c0,1.68.38,2.97,1.15,3.87.77.9,1.83,1.35,3.2,1.35,1,0,1.86-.29,2.57-.88s1.11-1.42,1.21-2.47h3.33c-.14,1.84-.86,3.33-2.16,4.46s-3,1.69-5.1,1.69Z"/>
    <path class="cls-8" d="m299.09,25.23c-2.34,0-4.25-.72-5.73-2.16-1.48-1.44-2.22-3.38-2.22-5.82v-.24c0-2.4.73-4.35,2.21-5.85,1.47-1.5,3.33-2.25,5.59-2.25,2.12,0,3.88.66,5.29,1.98s2.12,3.3,2.12,5.94v1.05h-11.49c.06,1.5.46,2.65,1.2,3.45.74.8,1.78,1.2,3.12,1.2,2.12,0,3.32-.8,3.6-2.4h3.51c-.26,1.64-1.02,2.9-2.28,3.78-1.26.88-2.9,1.32-4.92,1.32Zm-4.17-9.78h7.83c-.18-2.6-1.45-3.9-3.81-3.9-1.08,0-1.98.34-2.69,1.04-.71.69-1.15,1.65-1.33,2.86Z"/>
  </g>
  <g>
    <path class="cls-7" d="m126.65,90.93v-.54l10.95-17.76h-9.84v-3.15h15.48v.51l-10.71,17.73h10.41v3.21h-16.29Z"/>
    <path class="cls-7" d="m146.39,90.93v-22.95h3.63v9.75c.4-.82,1.04-1.5,1.92-2.02.88-.53,1.93-.79,3.15-.79,1.66,0,2.97.5,3.93,1.51s1.44,2.55,1.44,4.63v9.87h-3.63v-9.54c0-1.18-.25-2.05-.75-2.61-.5-.56-1.29-.84-2.37-.84s-1.96.33-2.66.98c-.69.65-1.04,1.57-1.04,2.77v9.24h-3.63Z"/>
    <path class="cls-7" d="m171.53,91.23c-2.34,0-4.25-.72-5.73-2.16-1.48-1.44-2.22-3.38-2.22-5.82v-.24c0-2.4.74-4.35,2.21-5.85s3.33-2.25,5.59-2.25c2.12,0,3.88.66,5.29,1.98s2.12,3.3,2.12,5.94v1.05h-11.49c.06,1.5.46,2.65,1.2,3.45.74.8,1.78,1.2,3.12,1.2,2.12,0,3.32-.8,3.6-2.4h3.51c-.26,1.64-1.02,2.9-2.28,3.78s-2.9,1.32-4.92,1.32Zm-4.17-9.78h7.83c-.18-2.6-1.45-3.9-3.81-3.9-1.08,0-1.98.34-2.68,1.04-.71.69-1.16,1.65-1.33,2.86Z"/>
    <path class="cls-7" d="m182.03,90.93v-15.69h3.63v2.49c.4-.82,1.04-1.5,1.92-2.02.88-.53,1.93-.79,3.15-.79,1.66,0,2.97.5,3.93,1.51s1.44,2.55,1.44,4.63v9.87h-3.63v-9.54c0-1.18-.25-2.05-.75-2.61-.5-.56-1.29-.84-2.37-.84s-1.96.33-2.65.98c-.69.65-1.04,1.57-1.04,2.77v9.24h-3.63Z"/>
    <path class="cls-7" d="m206.96,96.69c-2.34,0-4.13-.47-5.37-1.41-1.24-.94-1.97-2.21-2.19-3.81h3.66c.32,1.64,1.61,2.46,3.87,2.46,2.92,0,4.38-1.41,4.38-4.23v-2.31c-.46.8-1.16,1.49-2.08,2.05-.93.57-1.95.86-3.05.86-2,0-3.66-.69-4.98-2.07s-1.98-3.18-1.98-5.4v-.21c0-2.2.67-4.04,2.01-5.51,1.34-1.47,3.02-2.2,5.04-2.2,2.32,0,4,.91,5.04,2.73v-2.4h3.63v14.52c-.02,2.26-.74,3.98-2.15,5.16-1.41,1.18-3.36,1.77-5.83,1.77Zm.12-9.18c1.28,0,2.33-.43,3.13-1.29.81-.86,1.21-2.03,1.21-3.51v-.21c0-1.48-.38-2.64-1.14-3.48s-1.79-1.26-3.09-1.26-2.36.44-3.12,1.32c-.76.88-1.14,2.04-1.14,3.48v.24c0,1.42.39,2.56,1.17,3.42.78.86,1.77,1.29,2.97,1.29Z"/>
    <path class="cls-7" d="m229.19,91.23c-3.36,0-5.99-1-7.88-3.01s-2.83-4.63-2.83-7.88v-.24c0-3.2,1-5.82,3-7.88,2-2.05,4.57-3.08,7.71-3.08,2.48,0,4.58.6,6.29,1.8,1.71,1.2,2.69,3.01,2.96,5.43h-3.99c-.46-2.72-2.19-4.08-5.19-4.08-2.08,0-3.71.71-4.88,2.13s-1.75,3.32-1.75,5.7v.24c0,2.38.56,4.26,1.68,5.65,1.12,1.39,2.77,2.08,4.95,2.08,1.9,0,3.33-.5,4.28-1.5.95-1,1.46-2.3,1.51-3.9h-5.4v-3h9.33v1.98c0,2.96-.87,5.29-2.61,6.99-1.74,1.7-4.13,2.55-7.17,2.55Z"/>
    <path class="cls-7" d="m242.51,90.93v-15.69h3.63v2.94c1.04-2.1,2.74-3.16,5.1-3.18v3.39c-1.7.02-2.98.36-3.83,1.02-.85.66-1.28,1.78-1.28,3.36v8.16h-3.63Z"/>
    <path class="cls-7" d="m266.9,89.01c-1.52,1.48-3.45,2.22-5.79,2.22s-4.26-.74-5.77-2.22c-1.51-1.48-2.27-3.4-2.27-5.76v-.24c0-2.4.76-4.35,2.28-5.85,1.52-1.5,3.45-2.25,5.79-2.25s4.24.74,5.76,2.22c1.52,1.48,2.28,3.41,2.28,5.79v.24c0,2.42-.76,4.37-2.28,5.85Zm-5.76-.6c1.34,0,2.4-.47,3.17-1.4s1.16-2.21,1.16-3.83v-.21c0-1.62-.39-2.89-1.16-3.83-.77-.93-1.83-1.39-3.17-1.39s-2.42.46-3.2,1.38c-.77.92-1.15,2.19-1.15,3.81v.24c0,1.62.38,2.9,1.15,3.83.77.93,1.83,1.4,3.2,1.4Z"/>
    <path class="cls-7" d="m277.7,91.23c-1.64,0-2.95-.49-3.93-1.47-.98-.98-1.47-2.47-1.47-4.47v-10.05h3.63v9.63c0,1.18.25,2.05.75,2.61.5.56,1.28.84,2.34.84s1.91-.33,2.61-.99c.7-.66,1.05-1.58,1.05-2.76v-9.33h3.63v15.69h-3.63v-2.46c-.42.82-1.05,1.49-1.9,2-.85.51-1.88.76-3.08.76Z"/>
    <path class="cls-7" d="m290.6,96.3v-21.06h3.63v2.52c.46-.8,1.16-1.47,2.08-2.03.93-.55,1.95-.82,3.04-.82,2.02,0,3.68.71,5,2.14,1.31,1.43,1.96,3.38,1.96,5.83v.24c0,2.48-.64,4.45-1.93,5.91s-2.97,2.19-5.03,2.19c-1.18,0-2.22-.25-3.12-.76-.9-.51-1.57-1.17-2.01-2v7.83h-3.63Zm7.86-7.95c1.34,0,2.37-.44,3.08-1.32.71-.88,1.07-2.16,1.07-3.84v-.24c0-1.68-.39-2.96-1.16-3.85-.77-.89-1.78-1.33-3.01-1.33-1.3,0-2.35.45-3.13,1.33-.79.89-1.19,2.17-1.19,3.85v.24c0,1.7.38,2.99,1.16,3.86.77.87,1.83,1.3,3.19,1.3Z"/>
  </g>
  <g>
    <path class="cls-8" d="m155.84,58.23c-3.32,0-5.89-.98-7.72-2.94s-2.75-4.61-2.75-7.95v-.24c0-3.2.98-5.82,2.96-7.88,1.97-2.05,4.46-3.08,7.46-3.08,2.56,0,4.67.64,6.34,1.92,1.67,1.28,2.62,3.14,2.87,5.58h-4.05c-.46-2.88-2.17-4.32-5.13-4.32-1.9,0-3.42.69-4.54,2.08-1.13,1.39-1.69,3.27-1.69,5.65v.24c0,2.42.55,4.3,1.65,5.66,1.1,1.35,2.64,2.02,4.62,2.02,1.52,0,2.76-.38,3.74-1.15.97-.77,1.55-1.89,1.75-3.38h3.9c-.3,2.52-1.29,4.45-2.96,5.77-1.67,1.33-3.82,2-6.44,2Z"/>
    <path class="cls-8" d="m181.16,56.01c-1.52,1.48-3.45,2.22-5.79,2.22s-4.27-.74-5.78-2.22c-1.51-1.48-2.26-3.4-2.26-5.76v-.24c0-2.4.76-4.35,2.28-5.85,1.52-1.5,3.45-2.25,5.79-2.25s4.24.74,5.76,2.22c1.52,1.48,2.28,3.41,2.28,5.79v.24c0,2.42-.76,4.37-2.28,5.85Zm-5.76-.6c1.34,0,2.39-.47,3.17-1.4.77-.93,1.15-2.21,1.15-3.83v-.21c0-1.62-.38-2.89-1.15-3.83-.77-.93-1.83-1.39-3.17-1.39s-2.43.46-3.2,1.38c-.77.92-1.16,2.19-1.16,3.81v.24c0,1.62.38,2.9,1.16,3.83.77.93,1.83,1.4,3.2,1.4Z"/>
    <path class="cls-8" d="m186.71,57.93v-15.69h3.63v2.49c.4-.82,1.04-1.5,1.92-2.02.88-.53,1.93-.79,3.15-.79,1.66,0,2.97.5,3.93,1.51s1.44,2.55,1.44,4.63v9.87h-3.63v-9.54c0-1.18-.25-2.05-.75-2.61-.5-.56-1.29-.84-2.37-.84s-1.96.33-2.65.98c-.69.65-1.04,1.57-1.04,2.77v9.24h-3.63Z"/>
    <path class="cls-8" d="m208.76,57.93l-5.73-15.69h3.9l4.11,11.97,4.05-11.97h3.57l-5.67,15.69h-4.23Z"/>
    <path class="cls-8" d="m227.66,58.23c-2.34,0-4.25-.72-5.73-2.16-1.48-1.44-2.22-3.38-2.22-5.82v-.24c0-2.4.73-4.35,2.21-5.85,1.47-1.5,3.33-2.25,5.59-2.25,2.12,0,3.88.66,5.29,1.98s2.12,3.3,2.12,5.94v1.05h-11.49c.06,1.5.46,2.65,1.2,3.45.74.8,1.78,1.2,3.12,1.2,2.12,0,3.32-.8,3.6-2.4h3.51c-.26,1.64-1.02,2.9-2.28,3.78-1.26.88-2.9,1.32-4.92,1.32Zm-4.17-9.78h7.83c-.18-2.6-1.45-3.9-3.81-3.9-1.08,0-1.98.34-2.69,1.04-.71.69-1.15,1.65-1.33,2.86Z"/>
    <path class="cls-8" d="m238.16,57.93v-15.69h3.63v2.94c1.04-2.1,2.74-3.16,5.1-3.18v3.39c-1.7.02-2.97.36-3.82,1.02-.85.66-1.28,1.78-1.28,3.36v8.16h-3.63Z"/>
    <path class="cls-8" d="m255.44,58.23c-2.02,0-3.6-.45-4.74-1.35-1.14-.9-1.75-2.18-1.83-3.84h3.42c.1.84.39,1.47.87,1.89s1.23.63,2.25.63c1.88,0,2.82-.67,2.82-2.01,0-.62-.25-1.08-.77-1.4-.51-.31-1.38-.56-2.59-.76-2.1-.34-3.57-.85-4.41-1.54s-1.26-1.76-1.26-3.22.58-2.64,1.74-3.47c1.16-.83,2.54-1.24,4.14-1.24,3.76,0,5.81,1.58,6.15,4.74h-3.36c-.16-.72-.46-1.25-.88-1.59-.43-.34-1.07-.51-1.91-.51-.78,0-1.39.17-1.83.51-.44.34-.66.79-.66,1.35s.23.98.69,1.26,1.31.53,2.55.75c2.04.32,3.53.81,4.47,1.47s1.41,1.77,1.41,3.33-.54,2.83-1.63,3.71c-1.09.87-2.64,1.3-4.63,1.3Z"/>
    <path class="cls-8" d="m268.28,39.06c-.42.4-.93.6-1.53.6s-1.11-.2-1.53-.6c-.42-.4-.63-.89-.63-1.47s.21-1.1.63-1.5.93-.6,1.53-.6,1.11.2,1.53.6.63.9.63,1.5-.21,1.07-.63,1.47Zm-3.3,18.87v-15.69h3.63v15.69h-3.63Z"/>
    <path class="cls-8" d="m285.8,56.01c-1.52,1.48-3.45,2.22-5.79,2.22s-4.27-.74-5.78-2.22c-1.51-1.48-2.26-3.4-2.26-5.76v-.24c0-2.4.76-4.35,2.28-5.85,1.52-1.5,3.45-2.25,5.79-2.25s4.24.74,5.76,2.22c1.52,1.48,2.28,3.41,2.28,5.79v.24c0,2.42-.76,4.37-2.28,5.85Zm-5.76-.6c1.34,0,2.4-.47,3.17-1.4s1.16-2.21,1.16-3.83v-.21c0-1.62-.39-2.89-1.16-3.83-.77-.93-1.83-1.39-3.17-1.39s-2.42.46-3.19,1.38c-.77.92-1.16,2.19-1.16,3.81v.24c0,1.62.38,2.9,1.16,3.83.77.93,1.83,1.4,3.19,1.4Z"/>
    <path class="cls-8" d="m291.35,57.93v-15.69h3.63v2.49c.4-.82,1.04-1.5,1.92-2.02.88-.53,1.93-.79,3.15-.79,1.66,0,2.97.5,3.93,1.51s1.44,2.55,1.44,4.63v9.87h-3.63v-9.54c0-1.18-.25-2.05-.75-2.61-.5-.56-1.29-.84-2.37-.84s-1.97.33-2.66.98c-.69.65-1.04,1.57-1.04,2.77v9.24h-3.63Z"/>
  </g>
  <polygon class="cls-2" points="96.5 92.5 88.5 92.5 147.5 13.5 156.5 13.5 96.5 92.5"/>
  <rect class="cls-3" x="2.5" y="13.5" width="8" height="79"/>
  <polyline class="cls-6" points="6.5 13.5 6.5 2.7 152.5 2.7 152.5 13.5"/>
  <line class="cls-1" x1="58" y1="13.5" x2="58" y2="2.7"/>
  <g>
    <path class="cls-2" d="m31,72.5c-10.77,0-19.5-8.73-19.5-19.5s8.73-19.5,19.5-19.5"/>
    <polygon class="cls-8" points="24.37 64.32 23.01 65.79 30.23 72.5 23.01 79.21 24.37 80.68 33.17 72.5 24.37 64.32"/>
  </g>
  <g>
    <path class="cls-2" d="m31,33.5c10.77,0,19.5,8.73,19.5,19.5s-8.73,19.5-19.5,19.5"/>
    <polygon class="cls-8" points="37.63 41.68 38.99 40.21 31.77 33.5 38.99 26.79 37.63 25.32 28.83 33.5 37.63 41.68"/>
  </g>
  <path class="cls-5" d="m63.98,37.46c-.28-3.45-.16-6.67,1.18-7.39,2.7-1.43,8.54,8.12,10.06,7.21,1.53-.91-3.44-11.24-1.78-12.25,1.66-1.01,8.4,8.22,10.06,7.21,1.66-1.01-3.44-11.24-1.78-12.25s8.4,8.22,10.06,7.21-3.44-11.24-1.78-12.25c1.66-1.01,8.4,8.22,10.06,7.21,1.66-1.01-3.72-11-1.78-12.25,1.13-.73.67-1.45,6.25,4.08"/>
  <rect class="cls-8" x="50.5" y="13.5" width="15" height="79"/>
</svg>