<svg xmlns="http://www.w3.org/2000/svg" width="640" height="360" viewBox="0 0 640 360" role="img" aria-label="Pd Nanoparticle Shape thumbnail">
  <rect width="640" height="360" fill="#ffffff"/>
  <rect x="34" y="34" width="572" height="292" rx="0" fill="#fbfcfe"/>
  <path d="M72 248 C142 174, 214 286, 284 202 S428 122, 534 198" fill="none" stroke="#002147" stroke-width="12" stroke-linecap="round" opacity="0.9"/>
  <path d="M90 112 C162 86, 216 132, 272 112 S390 58, 510 112" fill="none" stroke="#b38b3d" stroke-width="8" stroke-linecap="round" opacity="0.78"/>
  <g fill="#b38b3d" opacity="0.95">
    <circle cx="110" cy="112" r="16"/><circle cx="214" cy="128" r="11"/><circle cx="362" cy="88" r="14"/><circle cx="500" cy="112" r="12"/>
  </g>
  <g fill="#002147" opacity="0.92">
    <circle cx="150" cy="235" r="10"/><circle cx="292" cy="202" r="15"/><circle cx="436" cy="159" r="11"/><circle cx="538" cy="198" r="14"/>
  </g>
  <line x1="70" y1="292" x2="570" y2="292" stroke="#d9e1ec" stroke-width="2"/>
  <text x="70" y="322" font-family="Arial, Helvetica, sans-serif" font-size="28" font-weight="700" fill="#002147">Pd Nanoparticle Shape</text>
  <text x="70" y="344" font-family="Arial, Helvetica, sans-serif" font-size="15" fill="#53627a">formic acid electrooxidation</text>
  <text x="570" y="264" text-anchor="end" font-family="Arial, Helvetica, sans-serif" font-size="40" font-weight="700" fill="#b38b3d" opacity="0.9">Pd</text>
</svg>